<svg xmlns="http://www.w3.org/2000/svg" width="252" height="31" viewBox="0 0 252 31">
    <path fill="#FFF" fill-opacity=".953" d="M151.643 9.12c1.775 0 3.364.335 4.767 1.003 1.403.668 2.649 1.614 3.737 2.839L158 15.175l-.272-.335c-.737-.873-1.57-1.576-2.499-2.108-1.045-.598-2.24-.897-3.586-.897-1.403 0-2.549.313-3.437.94-.887.625-1.331 1.426-1.331 2.4 0 .78.372 1.399 1.117 1.858.744.46 2.061.828 3.951 1.107 3.121.445 5.326 1.162 6.615 2.15 1.288.988 1.933 2.387 1.933 4.196 0 1.28-.372 2.415-1.117 3.403-.744.988-1.768 1.754-3.071 2.297-1.303.543-2.785.814-4.446.814-2.061 0-3.837-.341-5.326-1.023-1.489-.682-2.82-1.621-3.994-2.818l2.147-2.213.28.302c.848.888 1.808 1.602 2.877 2.14 1.189.599 2.527.898 4.016.898 1.547 0 2.8-.348 3.759-1.044.959-.696 1.439-1.6 1.439-2.714 0-.919-.408-1.65-1.225-2.192-.816-.543-2.212-.954-4.187-1.232-3.007-.473-5.119-1.155-6.336-2.046-1.217-.89-1.825-2.13-1.825-3.716 0-1.893.759-3.403 2.276-4.53 1.518-1.128 3.48-1.691 5.885-1.691zm54.302 0c1.918 0 3.615.46 5.09 1.378 1.474.919 2.627 2.193 3.457 3.821.83 1.628 1.246 3.5 1.246 5.616v1.253h-16.623l.046.36c.277 1.896 1.042 3.46 2.295 4.692 1.332 1.308 3.043 1.962 5.133 1.962 1.317 0 2.506-.306 3.565-.918 1.06-.613 2.019-1.559 2.878-2.84l2.233 2.088-.242.316c-1.063 1.346-2.292 2.36-3.688 3.045-1.503.738-3.157 1.107-4.96 1.107-2.12 0-3.988-.473-5.606-1.42-1.618-.946-2.878-2.247-3.78-3.904-.902-1.656-1.353-3.528-1.353-5.616 0-2.087.451-3.96 1.353-5.616.902-1.656 2.133-2.957 3.694-3.904 1.56-.946 3.315-1.42 5.262-1.42zm37.207 0c1.775 0 3.364.335 4.768 1.003 1.403.668 2.648 1.614 3.736 2.839l-2.147 2.213-.272-.335c-.737-.873-1.57-1.576-2.499-2.108-1.045-.598-2.24-.897-3.586-.897-1.403 0-2.549.313-3.436.94-.888.625-1.332 1.426-1.332 2.4 0 .78.372 1.399 1.117 1.858.744.46 2.062.828 3.952 1.107 3.12.445 5.326 1.162 6.614 2.15 1.289.988 1.933 2.387 1.933 4.196 0 1.28-.372 2.415-1.117 3.403-.744.988-1.768 1.754-3.07 2.297-1.304.543-2.786.814-4.446.814-2.062 0-3.837-.341-5.326-1.023-1.49-.682-2.821-1.621-3.995-2.818l2.148-2.213.279.302c.849.888 1.808 1.602 2.878 2.14 1.188.599 2.527.898 4.016.898 1.546 0 2.799-.348 3.758-1.044.96-.696 1.439-1.6 1.439-2.714 0-.919-.408-1.65-1.224-2.192-.816-.543-2.212-.954-4.188-1.232-3.007-.473-5.119-1.155-6.336-2.046-1.217-.89-1.825-2.13-1.825-3.716 0-1.893.759-3.403 2.276-4.53 1.518-1.128 3.48-1.691 5.885-1.691zM59.332 1.349c1.333 1.201 2.817 3.33 2.918 3.475l.005.007 3.8 5.424c.183.283.425.59.81.59.343 0 .57-.242.747-.495l.063-.095 3.8-5.424s1.543-2.238 2.924-3.482C76.506-.554 80.71.103 80.906.135l.007.001L70.59 15.348l10.295 15.164s-4.458.567-6.615-1.379c-1.332-1.2-2.695-3.125-2.79-3.26l-.006-.008-3.799-5.424c-.184-.283-.424-.59-.81-.59-.342 0-.571.242-.747.495l-.064.095-3.799 5.424s-1.336 2.024-2.716 3.268c-2.108 1.9-6.485 1.404-6.687 1.38l-.008-.001 10.297-15.164L52.818.136s4.357-.735 6.514 1.212zm-9.888 4.114v1.086h.003v18.166c-.016 3.727-.419 4.555-2.172 5.413-1.203.59-2.97.461-3.366.423l-.081-.008V10.195c0-1.022.354-1.691 1.66-2.293.779-.359 1.505-.634 2.261-1.04 1.178-.633 1.695-1.4 1.695-1.4zM5.237 1.466C6.48 2.546 6.875 4.241 6.903 4.37l.002.008 4.278 16.336 3.557-13.37c.347-1.42.971-3.178 1.96-4.367 1.258-1.513 3.817-1.608 4.09-1.608.272 0 2.83.095 4.09 1.608.917 1.104 1.522 2.698 1.88 4.057l.079.31 3.558 13.37 4.277-16.336s.378-1.79 1.67-2.912C38.38-.304 41.406.015 41.573.034h.007l-8.191 30.53s-2.702.192-4.053-.487c-1.777-.893-2.622-1.582-3.698-5.736-.958-3.702-3.641-14.579-3.887-15.355-.12-.383-.265-1.297-.96-1.297-.683 0-.84.914-.963 1.297-.25.775-2.929 11.653-3.887 15.355-1.076 4.154-1.92 4.843-3.695 5.736-1.305.655-3.863.5-4.044.487h-.01L0 .034s3.142-.388 5.237 1.432zM166.015 9.79l4.811 17.077 4.982-17.077h3.35l4.983 17.244 4.94-17.244h3.264l-6.357 20.543h-3.694l-4.853-16.493-4.811 16.493h-3.737l-6.27-20.543h3.392zM104.17.477l11.64 29.855h-3.608l-3.178-8.268h-13.53l-3.179 8.268h-3.479L100.476.477h3.694zm26.786 8.644c2.434 0 4.345.772 5.734 2.317 1.389 1.545 2.083 3.779 2.083 6.702v12.192h-3.307V18.515l-.004-.357c-.05-1.994-.513-3.51-1.392-4.549-.93-1.1-2.183-1.65-3.758-1.65-1.146 0-2.22.314-3.222.94-1.002.627-1.818 1.615-2.448 2.965-.63 1.35-.945 3.097-.945 5.24v9.228h-3.307V9.789h3.264v4.217l.133-.328c.683-1.61 1.655-2.76 2.917-3.451 1.345-.738 2.763-1.106 4.252-1.106zm101.56.334v3.09h-.73l-.328.006c-1.193.05-2.308.375-3.345.975-1.13.654-2.04 1.656-2.727 3.006-.687 1.35-1.031 3.083-1.031 5.198v8.602h-3.307V9.789h3.264v4.593l.138-.328c.712-1.61 1.725-2.767 3.04-3.472 1.404-.752 2.85-1.127 4.339-1.127h.687zM102.28 4.36l-5.67 14.782h11.297L102.28 4.36zm103.665 7.558c-1.776 0-3.286.612-4.532 1.837-1.245 1.225-1.997 2.826-2.255 4.802h13.144c-.2-2.032-.867-3.646-1.998-4.843-1.13-1.197-2.584-1.796-4.36-1.796zM49.447.001c0 2.084-.21 3.323-1.559 4.285-.432.307-1.178.777-2.052 1.084-1.2.424-2.008 1.185-2.008 1.185 0-3.798.595-5.173 2.192-5.986C47.247-.057 49.447 0 49.447 0z"/>
</svg>
