<svg xmlns="http://www.w3.org/2000/svg" width="39" height="41" viewBox="0 0 39 41">
    <g fill="#1D1E1E">
        <path d="M19.953 23.46c-1.291 0-2.054 1.005-2.054 2.247 0 1.24.763 2.246 2.054 2.246 1.29 0 2.054-1.006 2.054-2.246 0-1.242-.763-2.246-2.054-2.246M12.03 23.46h-.763v2.66h.763c.94 0 1.291-.531 1.291-1.3 0-.768-.352-1.36-1.29-1.36"/>
        <path d="M30.28 14.715h-2.053v6.205h-2.113v-6.205H24.06v-1.773h6.22v1.773zm-5.046 15.129c-.587-.06-1.115-.533-1.115-1.182 0-.71.528-1.182 1.115-1.182s1.115.472 1.115 1.182c0 .708-.528 1.182-1.115 1.182zm-5.282 0c-2.23-.06-4.166-1.715-4.166-4.137 0-2.423 1.936-4.078 4.166-4.078 2.23 0 4.167 1.714 4.167 4.078 0 2.422-1.937 4.137-4.167 4.137zm-7.805-1.892h-.88v1.714H9.213v-7.978h2.934c2.113 0 3.287 1.36 3.287 3.133 0 1.772-1.174 3.131-3.287 3.131zm-1.29-15.01l1.76 3.25 1.702-3.25h2.171l-2.875 5.2v2.778h-2.113V18.2l-2.934-5.26h2.288zm9.154-.06c2.23 0 4.167 1.714 4.167 4.078 0 2.423-1.937 4.137-4.167 4.137-2.23-.06-4.166-1.714-4.166-4.137 0-2.423 1.936-4.077 4.166-4.077zM19.424.592C8.697.59 0 9.613 0 20.742c0 11.13 8.697 20.152 19.424 20.152 10.728 0 19.425-9.022 19.425-20.152S30.152.591 19.424.591z"/>
        <path d="M19.953 19.206c1.35 0 2.054-1.004 2.054-2.246 0-1.24-.763-2.246-2.054-2.246s-2.054 1.006-2.054 2.246c0 1.242.763 2.246 2.054 2.246"/>
    </g>
</svg>
