<svg xmlns="http://www.w3.org/2000/svg" width="139" height="18" viewBox="0 0 139 18">
    <path fill="#FFF" d="M83.807 5.097c.977 0 1.85.197 2.622.591.772.394 1.457.952 2.055 1.675l-1.18 1.305-.194-.253c-.394-.49-.838-.885-1.33-1.188-.575-.353-1.233-.53-1.973-.53-.772 0-1.401.185-1.89.555-.488.37-.732.841-.732 1.416 0 .46.205.824.614 1.095.41.271 1.134.489 2.174.653 1.716.263 2.929.685 3.637 1.268.709.583 1.063 1.408 1.063 2.475 0 .755-.204 1.424-.614 2.007-.41.582-.972 1.034-1.689 1.354-.716.32-1.531.48-2.445.48-1.134 0-2.11-.201-2.929-.603-.819-.402-1.551-.957-2.197-1.662l1.181-1.305.22.252c.451.49.956.886 1.517 1.188.653.353 1.39.53 2.208.53.85 0 1.54-.206 2.067-.616.528-.41.792-.944.792-1.6 0-.542-.225-.973-.674-1.293-.449-.32-1.216-.563-2.303-.727-1.653-.279-2.815-.681-3.484-1.206-.67-.526-1.004-1.256-1.004-2.192 0-1.116.417-2.007 1.252-2.672.835-.664 1.913-.997 3.236-.997zm29.864 0c1.055 0 1.988.271 2.8.813.81.541 1.444 1.292 1.901 2.253.457.96.685 2.064.685 3.312v.738h-9.142l.035.277c.16 1.09.577 1.99 1.253 2.703.732.771 1.673 1.157 2.823 1.157.724 0 1.378-.18 1.96-.542.583-.36 1.11-.919 1.583-1.674l1.228 1.231-.208.287c-.567.744-1.218 1.309-1.953 1.695-.827.435-1.736.653-2.728.653-1.166 0-2.193-.28-3.083-.837-.89-.558-1.583-1.326-2.079-2.303-.496-.976-.744-2.08-.744-3.311 0-1.232.248-2.336.744-3.312.496-.977 1.173-1.745 2.032-2.303.858-.558 1.822-.837 2.893-.837zm20.463 0c.976 0 1.85.197 2.622.591.772.394 1.457.952 2.055 1.675l-1.181 1.305-.193-.253c-.394-.49-.838-.885-1.33-1.188-.576-.353-1.233-.53-1.973-.53-.772 0-1.402.185-1.89.555-.488.37-.732.841-.732 1.416 0 .46.205.824.614 1.095.41.271 1.134.489 2.173.653 1.717.263 2.93.685 3.638 1.268.709.583 1.063 1.408 1.063 2.475 0 .755-.205 1.424-.614 2.007-.41.582-.973 1.034-1.69 1.354-.716.32-1.53.48-2.444.48-1.134 0-2.11-.201-2.93-.603-.818-.402-1.55-.957-2.196-1.662l1.181-1.305.22.252c.45.49.956.886 1.516 1.188.654.353 1.39.53 2.209.53.85 0 1.54-.206 2.067-.616.527-.41.791-.944.791-1.6 0-.542-.224-.973-.673-1.293-.449-.32-1.217-.563-2.303-.727-1.654-.279-2.815-.681-3.484-1.206-.67-.526-1.004-1.256-1.004-2.192 0-1.116.417-2.007 1.252-2.672.834-.664 1.913-.997 3.236-.997zM57.699 0L64.1 17.606h-1.985l-1.748-4.875h-7.44l-1.749 4.875h-1.913L55.667 0H57.7zM72.43 5.097c1.339 0 2.39.456 3.154 1.367.764.91 1.145 2.228 1.145 3.952v7.19h-1.818v-6.969l-.005-.29c-.036-1.136-.29-2.004-.763-2.603-.512-.648-1.201-.972-2.067-.972-.63 0-1.22.184-1.772.554-.551.369-1 .952-1.346 1.748-.347.796-.52 1.826-.52 3.09v5.442H66.62V5.491h1.795v2.487l.099-.256c.374-.916.9-1.574 1.579-1.972.74-.435 1.52-.653 2.338-.653zm19.282.394l2.645 10.071 2.74-10.07h1.843l2.74 10.169 2.717-10.17h1.795l-3.496 12.115h-2.032L97.995 7.88l-2.646 9.726h-2.055L89.845 5.491h1.867zm36.572-.197v1.822h-.401l-.24.007c-.633.039-1.227.229-1.78.572-.622.386-1.122.977-1.5 1.773-.378.796-.567 1.818-.567 3.066v5.072h-1.819V5.491h1.796V8.2l.102-.257c.39-.916.938-1.578 1.646-1.984.771-.443 1.567-.665 2.386-.665h.377zM2.871.838c.666.604.888 1.545.911 1.654l.003.01L6.13 11.84l1.95-7.642c.19-.811.531-1.816 1.074-2.495C9.807.882 11.1.79 11.36.782h.068c.26.008 1.554.1 2.208.92.481.604.805 1.464 1.005 2.218l.069.277 1.95 7.642 2.344-9.337s.207-1.022.915-1.664c1.104-1 2.739-.833 2.863-.819h.007L18.3 17.47s-1.48.11-2.221-.278c-.974-.51-1.437-.904-2.027-3.278-.525-2.116-1.995-8.333-2.13-8.777-.066-.219-.145-.74-.527-.74-.373 0-.46.521-.527.74-.137.443-1.605 6.66-2.13 8.777-.59 2.374-1.053 2.768-2.026 3.278-.703.368-2.068.289-2.21.28l-.012-.002L0 .02s1.722-.221 2.87.819zM27.1 3.122v.62h.001v10.384c-.009 2.13-.23 2.603-1.19 3.094-.703.359-1.757.252-1.878.238l-.012-.001V5.827c0-.584.195-.966.91-1.31.427-.205.825-.363 1.24-.595.645-.361.929-.8.929-.8zM32.52.77c.68.64 1.433 1.74 1.577 1.954l.024.037 2.083 3.1c.1.162.233.337.444.337.181 0 .304-.129.399-.267l.045-.07 2.082-3.1.025-.037c.144-.213.897-1.314 1.578-1.954C41.92-.304 44.185.05 44.34.076l.009.002-5.658 8.694 5.643 8.668s-2.444.324-3.626-.788c-.717-.674-1.451-1.748-1.526-1.86l-.007-.009-2.082-3.1c-.1-.161-.233-.336-.444-.336-.18 0-.304.128-.399.267l-.045.07-2.083 3.1s-.732 1.157-1.488 1.868c-1.142 1.073-3.5.808-3.661.789l-.009-.001 5.644-8.668L28.95.078s2.388-.42 3.57.692zM56.66 2.29l-3.119 8.717h6.213L56.66 2.29zm57.011 4.457c-.976 0-1.807.361-2.492 1.083-.685.723-1.098 1.667-1.24 2.832h7.228c-.11-1.198-.476-2.15-1.098-2.856-.622-.706-1.421-1.06-2.398-1.06zM27.102 0c0 1.19-.115 1.9-.854 2.449-.237.175-.646.444-1.125.62-.657.242-1.1.677-1.1.677 0-2.171.325-2.957 1.2-3.422.515-.274 1.341-.318 1.701-.324h.178z"/>
</svg>
