<svg xmlns="http://www.w3.org/2000/svg" width="156" height="194" viewBox="0 0 156 194">
    <g fill="none" fill-rule="evenodd" transform="translate(1)">
        <path fill="#116DFF" d="M79.859 192.5c0-.828.674-1.5 1.506-1.5s1.506.672 1.506 1.5-.674 1.5-1.506 1.5-1.506-.672-1.506-1.5zm0-10c0-.828.674-1.5 1.506-1.5s1.506.672 1.506 1.5-.674 1.5-1.506 1.5-1.506-.672-1.506-1.5zm0-9c0-.828.674-1.5 1.506-1.5s1.506.672 1.506 1.5-.674 1.5-1.506 1.5-1.506-.672-1.506-1.5zm0-10c0-.828.674-1.5 1.506-1.5s1.506.672 1.506 1.5-.674 1.5-1.506 1.5-1.506-.672-1.506-1.5zm0-9c0-.828.674-1.5 1.506-1.5s1.506.672 1.506 1.5-.674 1.5-1.506 1.5-1.506-.672-1.506-1.5zm0-10c0-.828.674-1.5 1.506-1.5s1.506.672 1.506 1.5-.674 1.5-1.506 1.5-1.506-.672-1.506-1.5zm0-10c0-.828.674-1.5 1.506-1.5s1.506.672 1.506 1.5-.674 1.5-1.506 1.5-1.506-.672-1.506-1.5zm0-9c0-.828.674-1.5 1.506-1.5s1.506.672 1.506 1.5-.674 1.5-1.506 1.5-1.506-.672-1.506-1.5zm0-9c0-.828.674-1.5 1.506-1.5s1.506.672 1.506 1.5-.674 1.5-1.506 1.5-1.506-.672-1.506-1.5zm-9.037 57c0-.828.674-1.5 1.506-1.5s1.506.672 1.506 1.5-.674 1.5-1.506 1.5-1.506-.672-1.506-1.5zm0-29c0-.828.674-1.5 1.506-1.5s1.506.672 1.506 1.5-.674 1.5-1.506 1.5-1.506-.672-1.506-1.5zm0 48c0-.828.674-1.5 1.506-1.5s1.506.672 1.506 1.5-.674 1.5-1.506 1.5-1.506-.672-1.506-1.5zm0-58c0-.828.674-1.5 1.506-1.5s1.506.672 1.506 1.5-.674 1.5-1.506 1.5-1.506-.672-1.506-1.5zm0 29c0-.828.674-1.5 1.506-1.5s1.506.672 1.506 1.5-.674 1.5-1.506 1.5-1.506-.672-1.506-1.5zm0-38c0-.828.674-1.5 1.506-1.5s1.506.672 1.506 1.5-.674 1.5-1.506 1.5-1.506-.672-1.506-1.5zm0 57c0-.828.674-1.5 1.506-1.5s1.506.672 1.506 1.5-.674 1.5-1.506 1.5-1.506-.672-1.506-1.5zm0-66c0-.828.674-1.5 1.506-1.5s1.506.672 1.506 1.5-.674 1.5-1.506 1.5-1.506-.672-1.506-1.5zm0 38c0-.828.674-1.5 1.506-1.5s1.506.672 1.506 1.5-.674 1.5-1.506 1.5-1.506-.672-1.506-1.5zm-8.034 0c0-.828.675-1.5 1.506-1.5.832 0 1.507.672 1.507 1.5s-.675 1.5-1.507 1.5c-.831 0-1.506-.672-1.506-1.5zm0-10c0-.828.675-1.5 1.506-1.5.832 0 1.507.672 1.507 1.5s-.675 1.5-1.507 1.5c-.831 0-1.506-.672-1.506-1.5zm0-10c0-.828.675-1.5 1.506-1.5.832 0 1.507.672 1.507 1.5s-.675 1.5-1.507 1.5c-.831 0-1.506-.672-1.506-1.5zm0-9c0-.828.675-1.5 1.506-1.5.832 0 1.507.672 1.507 1.5s-.675 1.5-1.507 1.5c-.831 0-1.506-.672-1.506-1.5zm0 67c0-.828.675-1.5 1.506-1.5.832 0 1.507.672 1.507 1.5s-.675 1.5-1.507 1.5c-.831 0-1.506-.672-1.506-1.5zm0-10c0-.828.675-1.5 1.506-1.5.832 0 1.507.672 1.507 1.5s-.675 1.5-1.507 1.5c-.831 0-1.506-.672-1.506-1.5zm0-66c0-.828.675-1.5 1.506-1.5.832 0 1.507.672 1.507 1.5s-.675 1.5-1.507 1.5c-.831 0-1.506-.672-1.506-1.5zm0 57c0-.828.675-1.5 1.506-1.5.832 0 1.507.672 1.507 1.5s-.675 1.5-1.507 1.5c-.831 0-1.506-.672-1.506-1.5zm0-10c0-.828.675-1.5 1.506-1.5.832 0 1.507.672 1.507 1.5s-.675 1.5-1.507 1.5c-.831 0-1.506-.672-1.506-1.5zm-7.029 29c0-.828.674-1.5 1.506-1.5s1.507.672 1.507 1.5-.675 1.5-1.507 1.5c-.832 0-1.506-.672-1.506-1.5zm0-48c0-.828.674-1.5 1.506-1.5s1.507.672 1.507 1.5-.675 1.5-1.507 1.5c-.832 0-1.506-.672-1.506-1.5zm0-10c0-.828.674-1.5 1.506-1.5s1.507.672 1.507 1.5-.675 1.5-1.507 1.5c-.832 0-1.506-.672-1.506-1.5zm0-9c0-.828.674-1.5 1.506-1.5s1.507.672 1.507 1.5-.675 1.5-1.507 1.5c-.832 0-1.506-.672-1.506-1.5zm0 57c0-.828.674-1.5 1.506-1.5s1.507.672 1.507 1.5-.675 1.5-1.507 1.5c-.832 0-1.506-.672-1.506-1.5zm0-9c0-.828.674-1.5 1.506-1.5s1.507.672 1.507 1.5-.675 1.5-1.507 1.5c-.832 0-1.506-.672-1.506-1.5zm0-57c0-.828.674-1.5 1.506-1.5s1.507.672 1.507 1.5-.675 1.5-1.507 1.5c-.832 0-1.506-.672-1.506-1.5zm0 47c0-.828.674-1.5 1.506-1.5s1.507.672 1.507 1.5-.675 1.5-1.507 1.5c-.832 0-1.506-.672-1.506-1.5zm0-9c0-.828.674-1.5 1.506-1.5s1.507.672 1.507 1.5-.675 1.5-1.507 1.5c-.832 0-1.506-.672-1.506-1.5zm-8.033 38c0-.828.674-1.5 1.506-1.5s1.506.672 1.506 1.5-.674 1.5-1.506 1.5-1.506-.672-1.506-1.5zm0-10c0-.828.674-1.5 1.506-1.5s1.506.672 1.506 1.5-.674 1.5-1.506 1.5-1.506-.672-1.506-1.5zm0-9c0-.828.674-1.5 1.506-1.5s1.506.672 1.506 1.5-.674 1.5-1.506 1.5-1.506-.672-1.506-1.5zm0-10c0-.828.674-1.5 1.506-1.5s1.506.672 1.506 1.5-.674 1.5-1.506 1.5-1.506-.672-1.506-1.5zm0-9c0-.828.674-1.5 1.506-1.5s1.506.672 1.506 1.5-.674 1.5-1.506 1.5-1.506-.672-1.506-1.5zm0-10c0-.828.674-1.5 1.506-1.5s1.506.672 1.506 1.5-.674 1.5-1.506 1.5-1.506-.672-1.506-1.5zm0-10c0-.828.674-1.5 1.506-1.5s1.506.672 1.506 1.5-.674 1.5-1.506 1.5-1.506-.672-1.506-1.5zm0-9c0-.828.674-1.5 1.506-1.5s1.506.672 1.506 1.5-.674 1.5-1.506 1.5-1.506-.672-1.506-1.5zm0-9c0-.828.674-1.5 1.506-1.5s1.506.672 1.506 1.5-.674 1.5-1.506 1.5-1.506-.672-1.506-1.5zm-8.033 9c0-.828.674-1.5 1.506-1.5s1.506.672 1.506 1.5-.674 1.5-1.506 1.5-1.506-.672-1.506-1.5zm0 57c0-.828.674-1.5 1.506-1.5s1.506.672 1.506 1.5-.674 1.5-1.506 1.5-1.506-.672-1.506-1.5zm0-48c0-.828.674-1.5 1.506-1.5s1.506.672 1.506 1.5-.674 1.5-1.506 1.5-1.506-.672-1.506-1.5zm0 58c0-.828.674-1.5 1.506-1.5s1.506.672 1.506 1.5-.674 1.5-1.506 1.5-1.506-.672-1.506-1.5zm0-29c0-.828.674-1.5 1.506-1.5s1.506.672 1.506 1.5-.674 1.5-1.506 1.5-1.506-.672-1.506-1.5zm0-47c0-.828.674-1.5 1.506-1.5s1.506.672 1.506 1.5-.674 1.5-1.506 1.5-1.506-.672-1.506-1.5zm0 38c0-.828.674-1.5 1.506-1.5s1.506.672 1.506 1.5-.674 1.5-1.506 1.5-1.506-.672-1.506-1.5zm0-10c0-.828.674-1.5 1.506-1.5s1.506.672 1.506 1.5-.674 1.5-1.506 1.5-1.506-.672-1.506-1.5zm0 29c0-.828.674-1.5 1.506-1.5s1.506.672 1.506 1.5-.674 1.5-1.506 1.5-1.506-.672-1.506-1.5zm-8.034-39c0-.828.675-1.5 1.506-1.5.832 0 1.507.672 1.507 1.5s-.675 1.5-1.507 1.5c-.831 0-1.506-.672-1.506-1.5zm0-9c0-.828.675-1.5 1.506-1.5.832 0 1.507.672 1.507 1.5s-.675 1.5-1.507 1.5c-.831 0-1.506-.672-1.506-1.5zm0 48c0-.828.675-1.5 1.506-1.5.832 0 1.507.672 1.507 1.5s-.675 1.5-1.507 1.5c-.831 0-1.506-.672-1.506-1.5zm0-29c0-.828.675-1.5 1.506-1.5.832 0 1.507.672 1.507 1.5s-.675 1.5-1.507 1.5c-.831 0-1.506-.672-1.506-1.5zm0 10c0-.828.675-1.5 1.506-1.5.832 0 1.507.672 1.507 1.5s-.675 1.5-1.507 1.5c-.831 0-1.506-.672-1.506-1.5zm0-38c0-.828.675-1.5 1.506-1.5.832 0 1.507.672 1.507 1.5s-.675 1.5-1.507 1.5c-.831 0-1.506-.672-1.506-1.5zm0 66c0-.828.675-1.5 1.506-1.5.832 0 1.507.672 1.507 1.5s-.675 1.5-1.507 1.5c-.831 0-1.506-.672-1.506-1.5zm0 10c0-.828.675-1.5 1.506-1.5.832 0 1.507.672 1.507 1.5s-.675 1.5-1.507 1.5c-.831 0-1.506-.672-1.506-1.5zm0-29c0-.828.675-1.5 1.506-1.5.832 0 1.507.672 1.507 1.5s-.675 1.5-1.507 1.5c-.831 0-1.506-.672-1.506-1.5zm-8.033 29c0-.828.674-1.5 1.506-1.5s1.506.672 1.506 1.5-.674 1.5-1.506 1.5-1.506-.672-1.506-1.5zm0-10c0-.828.674-1.5 1.506-1.5s1.506.672 1.506 1.5-.674 1.5-1.506 1.5-1.506-.672-1.506-1.5zm0-28c0-.828.674-1.5 1.506-1.5s1.506.672 1.506 1.5-.674 1.5-1.506 1.5-1.506-.672-1.506-1.5zm0-29c0-.828.674-1.5 1.506-1.5s1.506.672 1.506 1.5-.674 1.5-1.506 1.5-1.506-.672-1.506-1.5zm0 19c0-.828.674-1.5 1.506-1.5s1.506.672 1.506 1.5-.674 1.5-1.506 1.5-1.506-.672-1.506-1.5zm0 29c0-.828.674-1.5 1.506-1.5s1.506.672 1.506 1.5-.674 1.5-1.506 1.5-1.506-.672-1.506-1.5zm0-57c0-.828.674-1.5 1.506-1.5s1.506.672 1.506 1.5-.674 1.5-1.506 1.5-1.506-.672-1.506-1.5zm0 47c0-.828.674-1.5 1.506-1.5s1.506.672 1.506 1.5-.674 1.5-1.506 1.5-1.506-.672-1.506-1.5zm0-29c0-.828.674-1.5 1.506-1.5s1.506.672 1.506 1.5-.674 1.5-1.506 1.5-1.506-.672-1.506-1.5zm-8.033 58c0-.828.674-1.5 1.506-1.5s1.506.672 1.506 1.5-.674 1.5-1.506 1.5-1.506-.672-1.506-1.5zm0-38c0-.828.674-1.5 1.506-1.5s1.506.672 1.506 1.5-.674 1.5-1.506 1.5-1.506-.672-1.506-1.5zm0-10c0-.828.674-1.5 1.506-1.5s1.506.672 1.506 1.5-.674 1.5-1.506 1.5-1.506-.672-1.506-1.5zm0-28c0-.828.674-1.5 1.506-1.5s1.506.672 1.506 1.5-.674 1.5-1.506 1.5-1.506-.672-1.506-1.5zm0 18c0-.828.674-1.5 1.506-1.5s1.506.672 1.506 1.5-.674 1.5-1.506 1.5-1.506-.672-1.506-1.5zm0-9c0-.828.674-1.5 1.506-1.5s1.506.672 1.506 1.5-.674 1.5-1.506 1.5-1.506-.672-1.506-1.5zm0 57c0-.828.674-1.5 1.506-1.5s1.506.672 1.506 1.5-.674 1.5-1.506 1.5-1.506-.672-1.506-1.5zm0-9c0-.828.674-1.5 1.506-1.5s1.506.672 1.506 1.5-.674 1.5-1.506 1.5-1.506-.672-1.506-1.5zm0-10c0-.828.674-1.5 1.506-1.5s1.506.672 1.506 1.5-.674 1.5-1.506 1.5-1.506-.672-1.506-1.5zm-8.034 29c0-.828.675-1.5 1.507-1.5.831 0 1.506.672 1.506 1.5s-.675 1.5-1.506 1.5c-.832 0-1.507-.672-1.507-1.5zm0-48c0-.828.675-1.5 1.507-1.5.831 0 1.506.672 1.506 1.5s-.675 1.5-1.506 1.5c-.832 0-1.507-.672-1.507-1.5zm0-10c0-.828.675-1.5 1.507-1.5.831 0 1.506.672 1.506 1.5s-.675 1.5-1.506 1.5c-.832 0-1.507-.672-1.507-1.5zm0-9c0-.828.675-1.5 1.507-1.5.831 0 1.506.672 1.506 1.5s-.675 1.5-1.506 1.5c-.832 0-1.507-.672-1.507-1.5zm0 57c0-.828.675-1.5 1.507-1.5.831 0 1.506.672 1.506 1.5s-.675 1.5-1.506 1.5c-.832 0-1.507-.672-1.507-1.5zm0-9c0-.828.675-1.5 1.507-1.5.831 0 1.506.672 1.506 1.5s-.675 1.5-1.506 1.5c-.832 0-1.507-.672-1.507-1.5zm0-57c0-.828.675-1.5 1.507-1.5.831 0 1.506.672 1.506 1.5s-.675 1.5-1.506 1.5c-.832 0-1.507-.672-1.507-1.5zm0 47c0-.828.675-1.5 1.507-1.5.831 0 1.506.672 1.506 1.5s-.675 1.5-1.506 1.5c-.832 0-1.507-.672-1.507-1.5zm0-9c0-.828.675-1.5 1.507-1.5.831 0 1.506.672 1.506 1.5s-.675 1.5-1.506 1.5c-.832 0-1.507-.672-1.507-1.5zm-8.033 38c0-.828.674-1.5 1.506-1.5s1.507.672 1.507 1.5-.675 1.5-1.507 1.5c-.832 0-1.506-.672-1.506-1.5zm0-10c0-.828.674-1.5 1.506-1.5s1.507.672 1.507 1.5-.675 1.5-1.507 1.5c-.832 0-1.506-.672-1.506-1.5zm0-9c0-.828.674-1.5 1.506-1.5s1.507.672 1.507 1.5-.675 1.5-1.507 1.5c-.832 0-1.506-.672-1.506-1.5zm0-10c0-.828.674-1.5 1.506-1.5s1.507.672 1.507 1.5-.675 1.5-1.507 1.5c-.832 0-1.506-.672-1.506-1.5zm0-9c0-.828.674-1.5 1.506-1.5s1.507.672 1.507 1.5-.675 1.5-1.507 1.5c-.832 0-1.506-.672-1.506-1.5zm0-10c0-.828.674-1.5 1.506-1.5s1.507.672 1.507 1.5-.675 1.5-1.507 1.5c-.832 0-1.506-.672-1.506-1.5zm0-10c0-.828.674-1.5 1.506-1.5s1.507.672 1.507 1.5-.675 1.5-1.507 1.5c-.832 0-1.506-.672-1.506-1.5zm0-9c0-.828.674-1.5 1.506-1.5s1.507.672 1.507 1.5-.675 1.5-1.507 1.5c-.832 0-1.506-.672-1.506-1.5zm0-9c0-.828.674-1.5 1.506-1.5s1.507.672 1.507 1.5-.675 1.5-1.507 1.5c-.832 0-1.506-.672-1.506-1.5z"/>
        <circle fill="#8CB9FF" style="mix-blend-mode:multiply" cx="81" cy="74" r="74" opacity=".118" transform="rotate(-90 81 74)"/>
    </g>
</svg>
