<?xml version="1.0" encoding="UTF-8"?>
<svg width="159px" height="131px" viewBox="0 0 159 131" version="1.1" xmlns="http://www.w3.org/2000/svg" xmlns:xlink="http://www.w3.org/1999/xlink">
    <!-- Generator: Sketch 64 (93537) - https://sketch.com -->
    <title>iPhone 8 Copy 2@1x</title>
    <desc>Created with Sketch.</desc>
    <g id="iPhone-8-Copy-2" stroke="none" stroke-width="1" fill="none" fill-rule="evenodd">
        <path d="M61.5,97.4614789 C62.3284271,97.4614789 63,98.1358467 63,98.9677216 C63,99.7995965 62.3284271,100.473964 61.5,100.473964 C60.6715729,100.473964 60,99.7995965 60,98.9677216 C60,98.1358467 60.6715729,97.4614789 61.5,97.4614789 Z M71.5,97.4614789 C72.3284271,97.4614789 73,98.1358467 73,98.9677216 C73,99.7995965 72.3284271,100.473964 71.5,100.473964 C70.6715729,100.473964 70,99.7995965 70,98.9677216 C70,98.1358467 70.6715729,97.4614789 71.5,97.4614789 Z M81.5,97.4614789 C82.3284271,97.4614789 83,98.1358467 83,98.9677216 C83,99.7995965 82.3284271,100.473964 81.5,100.473964 C80.6715729,100.473964 80,99.7995965 80,98.9677216 C80,98.1358467 80.6715729,97.4614789 81.5,97.4614789 Z M91.5,97.4614789 C92.3284271,97.4614789 93,98.1358467 93,98.9677216 C93,99.7995965 92.3284271,100.473964 91.5,100.473964 C90.6715729,100.473964 90,99.7995965 90,98.9677216 C90,98.1358467 90.6715729,97.4614789 91.5,97.4614789 Z M99.5,97.4614789 C100.328427,97.4614789 101,98.1358467 101,98.9677216 C101,99.7995965 100.328427,100.473964 99.5,100.473964 C98.6715729,100.473964 98,99.7995965 98,98.9677216 C98,98.1358467 98.6715729,97.4614789 99.5,97.4614789 Z M109.5,97.4614789 C110.328427,97.4614789 111,98.1358467 111,98.9677216 C111,99.7995965 110.328427,100.473964 109.5,100.473964 C108.671573,100.473964 108,99.7995965 108,98.9677216 C108,98.1358467 108.671573,97.4614789 109.5,97.4614789 Z M119.5,97.4614789 C120.328427,97.4614789 121,98.1358467 121,98.9677216 C121,99.7995965 120.328427,100.473964 119.5,100.473964 C118.671573,100.473964 118,99.7995965 118,98.9677216 C118,98.1358467 118.671573,97.4614789 119.5,97.4614789 Z M129.5,97.4614789 C130.328427,97.4614789 131,98.1358467 131,98.9677216 C131,99.7995965 130.328427,100.473964 129.5,100.473964 C128.671573,100.473964 128,99.7995965 128,98.9677216 C128,98.1358467 128.671573,97.4614789 129.5,97.4614789 Z M138.5,97.4614789 C139.328427,97.4614789 140,98.1358467 140,98.9677216 C140,99.7995965 139.328427,100.473964 138.5,100.473964 C137.671573,100.473964 137,99.7995965 137,98.9677216 C137,98.1358467 137.671573,97.4614789 138.5,97.4614789 Z M81.5,88.4240225 C82.3284271,88.4240225 83,89.0983903 83,89.9302652 C83,90.7621401 82.3284271,91.4365079 81.5,91.4365079 C80.6715729,91.4365079 80,90.7621401 80,89.9302652 C80,89.0983903 80.6715729,88.4240225 81.5,88.4240225 Z M109.5,88.4240225 C110.328427,88.4240225 111,89.0983903 111,89.9302652 C111,90.7621401 110.328427,91.4365079 109.5,91.4365079 C108.671573,91.4365079 108,90.7621401 108,89.9302652 C108,89.0983903 108.671573,88.4240225 109.5,88.4240225 Z M61.5,88.4240225 C62.3284271,88.4240225 63,89.0983903 63,89.9302652 C63,90.7621401 62.3284271,91.4365079 61.5,91.4365079 C60.6715729,91.4365079 60,90.7621401 60,89.9302652 C60,89.0983903 60.6715729,88.4240225 61.5,88.4240225 Z M119.5,88.4240225 C120.328427,88.4240225 121,89.0983903 121,89.9302652 C121,90.7621401 120.328427,91.4365079 119.5,91.4365079 C118.671573,91.4365079 118,90.7621401 118,89.9302652 C118,89.0983903 118.671573,88.4240225 119.5,88.4240225 Z M91.5,88.4240225 C92.3284271,88.4240225 93,89.0983903 93,89.9302652 C93,90.7621401 92.3284271,91.4365079 91.5,91.4365079 C90.6715729,91.4365079 90,90.7621401 90,89.9302652 C90,89.0983903 90.6715729,88.4240225 91.5,88.4240225 Z M129.5,88.4240225 C130.328427,88.4240225 131,89.0983903 131,89.9302652 C131,90.7621401 130.328427,91.4365079 129.5,91.4365079 C128.671573,91.4365079 128,90.7621401 128,89.9302652 C128,89.0983903 128.671573,88.4240225 129.5,88.4240225 Z M71.5,88.4240225 C72.3284271,88.4240225 73,89.0983903 73,89.9302652 C73,90.7621401 72.3284271,91.4365079 71.5,91.4365079 C70.6715729,91.4365079 70,90.7621401 70,89.9302652 C70,89.0983903 70.6715729,88.4240225 71.5,88.4240225 Z M138.5,88.4240225 C139.328427,88.4240225 140,89.0983903 140,89.9302652 C140,90.7621401 139.328427,91.4365079 138.5,91.4365079 C137.671573,91.4365079 137,90.7621401 137,89.9302652 C137,89.0983903 137.671573,88.4240225 138.5,88.4240225 Z M99.5,88.4240225 C100.328427,88.4240225 101,89.0983903 101,89.9302652 C101,90.7621401 100.328427,91.4365079 99.5,91.4365079 C98.6715729,91.4365079 98,90.7621401 98,89.9302652 C98,89.0983903 98.6715729,88.4240225 99.5,88.4240225 Z M99.5,80.3907278 C100.328427,80.3907278 101,81.0650957 101,81.8969706 C101,82.7288455 100.328427,83.4032133 99.5,83.4032133 C98.6715729,83.4032133 98,82.7288455 98,81.8969706 C98,81.0650957 98.6715729,80.3907278 99.5,80.3907278 Z M109.5,80.3907278 C110.328427,80.3907278 111,81.0650957 111,81.8969706 C111,82.7288455 110.328427,83.4032133 109.5,83.4032133 C108.671573,83.4032133 108,82.7288455 108,81.8969706 C108,81.0650957 108.671573,80.3907278 109.5,80.3907278 Z M119.5,80.3907278 C120.328427,80.3907278 121,81.0650957 121,81.8969706 C121,82.7288455 120.328427,83.4032133 119.5,83.4032133 C118.671573,83.4032133 118,82.7288455 118,81.8969706 C118,81.0650957 118.671573,80.3907278 119.5,80.3907278 Z M129.5,80.3907278 C130.328427,80.3907278 131,81.0650957 131,81.8969706 C131,82.7288455 130.328427,83.4032133 129.5,83.4032133 C128.671573,83.4032133 128,82.7288455 128,81.8969706 C128,81.0650957 128.671573,80.3907278 129.5,80.3907278 Z M61.5,80.3907278 C62.3284271,80.3907278 63,81.0650957 63,81.8969706 C63,82.7288455 62.3284271,83.4032133 61.5,83.4032133 C60.6715729,83.4032133 60,82.7288455 60,81.8969706 C60,81.0650957 60.6715729,80.3907278 61.5,80.3907278 Z M71.5,80.3907278 C72.3284271,80.3907278 73,81.0650957 73,81.8969706 C73,82.7288455 72.3284271,83.4032133 71.5,83.4032133 C70.6715729,83.4032133 70,82.7288455 70,81.8969706 C70,81.0650957 70.6715729,80.3907278 71.5,80.3907278 Z M138.5,80.3907278 C139.328427,80.3907278 140,81.0650957 140,81.8969706 C140,82.7288455 139.328427,83.4032133 138.5,83.4032133 C137.671573,83.4032133 137,82.7288455 137,81.8969706 C137,81.0650957 137.671573,80.3907278 138.5,80.3907278 Z M81.5,80.3907278 C82.3284271,80.3907278 83,81.0650957 83,81.8969706 C83,82.7288455 82.3284271,83.4032133 81.5,83.4032133 C80.6715729,83.4032133 80,82.7288455 80,81.8969706 C80,81.0650957 80.6715729,80.3907278 81.5,80.3907278 Z M91.5,80.3907278 C92.3284271,80.3907278 93,81.0650957 93,81.8969706 C93,82.7288455 92.3284271,83.4032133 91.5,83.4032133 C90.6715729,83.4032133 90,82.7288455 90,81.8969706 C90,81.0650957 90.6715729,80.3907278 91.5,80.3907278 Z M61.5,72.3574332 C62.3284271,72.3574332 63,73.0318011 63,73.863676 C63,74.6955509 62.3284271,75.3699187 61.5,75.3699187 C60.6715729,75.3699187 60,74.6955509 60,73.863676 C60,73.0318011 60.6715729,72.3574332 61.5,72.3574332 Z M109.5,72.3574332 C110.328427,72.3574332 111,73.0318011 111,73.863676 C111,74.6955509 110.328427,75.3699187 109.5,75.3699187 C108.671573,75.3699187 108,74.6955509 108,73.863676 C108,73.0318011 108.671573,72.3574332 109.5,72.3574332 Z M119.5,72.3574332 C120.328427,72.3574332 121,73.0318011 121,73.863676 C121,74.6955509 120.328427,75.3699187 119.5,75.3699187 C118.671573,75.3699187 118,74.6955509 118,73.863676 C118,73.0318011 118.671573,72.3574332 119.5,72.3574332 Z M129.5,72.3574332 C130.328427,72.3574332 131,73.0318011 131,73.863676 C131,74.6955509 130.328427,75.3699187 129.5,75.3699187 C128.671573,75.3699187 128,74.6955509 128,73.863676 C128,73.0318011 128.671573,72.3574332 129.5,72.3574332 Z M71.5,72.3574332 C72.3284271,72.3574332 73,73.0318011 73,73.863676 C73,74.6955509 72.3284271,75.3699187 71.5,75.3699187 C70.6715729,75.3699187 70,74.6955509 70,73.863676 C70,73.0318011 70.6715729,72.3574332 71.5,72.3574332 Z M81.5,72.3574332 C82.3284271,72.3574332 83,73.0318011 83,73.863676 C83,74.6955509 82.3284271,75.3699187 81.5,75.3699187 C80.6715729,75.3699187 80,74.6955509 80,73.863676 C80,73.0318011 80.6715729,72.3574332 81.5,72.3574332 Z M138.5,72.3574332 C139.328427,72.3574332 140,73.0318011 140,73.863676 C140,74.6955509 139.328427,75.3699187 138.5,75.3699187 C137.671573,75.3699187 137,74.6955509 137,73.863676 C137,73.0318011 137.671573,72.3574332 138.5,72.3574332 Z M91.5,72.3574332 C92.3284271,72.3574332 93,73.0318011 93,73.863676 C93,74.6955509 92.3284271,75.3699187 91.5,75.3699187 C90.6715729,75.3699187 90,74.6955509 90,73.863676 C90,73.0318011 90.6715729,72.3574332 91.5,72.3574332 Z M99.5,72.3574332 C100.328427,72.3574332 101,73.0318011 101,73.863676 C101,74.6955509 100.328427,75.3699187 99.5,75.3699187 C98.6715729,75.3699187 98,74.6955509 98,73.863676 C98,73.0318011 98.6715729,72.3574332 99.5,72.3574332 Z M61.5,64.3241386 C62.3284271,64.3241386 63,64.9985064 63,65.8303813 C63,66.6622562 62.3284271,67.3366241 61.5,67.3366241 C60.6715729,67.3366241 60,66.6622562 60,65.8303813 C60,64.9985064 60.6715729,64.3241386 61.5,64.3241386 Z M71.5,64.3241386 C72.3284271,64.3241386 73,64.9985064 73,65.8303813 C73,66.6622562 72.3284271,67.3366241 71.5,67.3366241 C70.6715729,67.3366241 70,66.6622562 70,65.8303813 C70,64.9985064 70.6715729,64.3241386 71.5,64.3241386 Z M81.5,64.3241386 C82.3284271,64.3241386 83,64.9985064 83,65.8303813 C83,66.6622562 82.3284271,67.3366241 81.5,67.3366241 C80.6715729,67.3366241 80,66.6622562 80,65.8303813 C80,64.9985064 80.6715729,64.3241386 81.5,64.3241386 Z M91.5,64.3241386 C92.3284271,64.3241386 93,64.9985064 93,65.8303813 C93,66.6622562 92.3284271,67.3366241 91.5,67.3366241 C90.6715729,67.3366241 90,66.6622562 90,65.8303813 C90,64.9985064 90.6715729,64.3241386 91.5,64.3241386 Z M99.5,64.3241386 C100.328427,64.3241386 101,64.9985064 101,65.8303813 C101,66.6622562 100.328427,67.3366241 99.5,67.3366241 C98.6715729,67.3366241 98,66.6622562 98,65.8303813 C98,64.9985064 98.6715729,64.3241386 99.5,64.3241386 Z M109.5,64.3241386 C110.328427,64.3241386 111,64.9985064 111,65.8303813 C111,66.6622562 110.328427,67.3366241 109.5,67.3366241 C108.671573,67.3366241 108,66.6622562 108,65.8303813 C108,64.9985064 108.671573,64.3241386 109.5,64.3241386 Z M119.5,64.3241386 C120.328427,64.3241386 121,64.9985064 121,65.8303813 C121,66.6622562 120.328427,67.3366241 119.5,67.3366241 C118.671573,67.3366241 118,66.6622562 118,65.8303813 C118,64.9985064 118.671573,64.3241386 119.5,64.3241386 Z M129.5,64.3241386 C130.328427,64.3241386 131,64.9985064 131,65.8303813 C131,66.6622562 130.328427,67.3366241 129.5,67.3366241 C128.671573,67.3366241 128,66.6622562 128,65.8303813 C128,64.9985064 128.671573,64.3241386 129.5,64.3241386 Z M138.5,64.3241386 C139.328427,64.3241386 140,64.9985064 140,65.8303813 C140,66.6622562 139.328427,67.3366241 138.5,67.3366241 C137.671573,67.3366241 137,66.6622562 137,65.8303813 C137,64.9985064 137.671573,64.3241386 138.5,64.3241386 Z M129.5,56.290844 C130.328427,56.290844 131,56.9652118 131,57.7970867 C131,58.6289616 130.328427,59.3033295 129.5,59.3033295 C128.671573,59.3033295 128,58.6289616 128,57.7970867 C128,56.9652118 128.671573,56.290844 129.5,56.290844 Z M71.5,56.290844 C72.3284271,56.290844 73,56.9652118 73,57.7970867 C73,58.6289616 72.3284271,59.3033295 71.5,59.3033295 C70.6715729,59.3033295 70,58.6289616 70,57.7970867 C70,56.9652118 70.6715729,56.290844 71.5,56.290844 Z M119.5,56.290844 C120.328427,56.290844 121,56.9652118 121,57.7970867 C121,58.6289616 120.328427,59.3033295 119.5,59.3033295 C118.671573,59.3033295 118,58.6289616 118,57.7970867 C118,56.9652118 118.671573,56.290844 119.5,56.290844 Z M61.5,56.290844 C62.3284271,56.290844 63,56.9652118 63,57.7970867 C63,58.6289616 62.3284271,59.3033295 61.5,59.3033295 C60.6715729,59.3033295 60,58.6289616 60,57.7970867 C60,56.9652118 60.6715729,56.290844 61.5,56.290844 Z M91.5,56.290844 C92.3284271,56.290844 93,56.9652118 93,57.7970867 C93,58.6289616 92.3284271,59.3033295 91.5,59.3033295 C90.6715729,59.3033295 90,58.6289616 90,57.7970867 C90,56.9652118 90.6715729,56.290844 91.5,56.290844 Z M138.5,56.290844 C139.328427,56.290844 140,56.9652118 140,57.7970867 C140,58.6289616 139.328427,59.3033295 138.5,59.3033295 C137.671573,59.3033295 137,58.6289616 137,57.7970867 C137,56.9652118 137.671573,56.290844 138.5,56.290844 Z M99.5,56.290844 C100.328427,56.290844 101,56.9652118 101,57.7970867 C101,58.6289616 100.328427,59.3033295 99.5,59.3033295 C98.6715729,59.3033295 98,58.6289616 98,57.7970867 C98,56.9652118 98.6715729,56.290844 99.5,56.290844 Z M109.5,56.290844 C110.328427,56.290844 111,56.9652118 111,57.7970867 C111,58.6289616 110.328427,59.3033295 109.5,59.3033295 C108.671573,59.3033295 108,58.6289616 108,57.7970867 C108,56.9652118 108.671573,56.290844 109.5,56.290844 Z M81.5,56.290844 C82.3284271,56.290844 83,56.9652118 83,57.7970867 C83,58.6289616 82.3284271,59.3033295 81.5,59.3033295 C80.6715729,59.3033295 80,58.6289616 80,57.7970867 C80,56.9652118 80.6715729,56.290844 81.5,56.290844 Z M119.5,48.2575494 C120.328427,48.2575494 121,48.9319172 121,49.7637921 C121,50.595667 120.328427,51.2700348 119.5,51.2700348 C118.671573,51.2700348 118,50.595667 118,49.7637921 C118,48.9319172 118.671573,48.2575494 119.5,48.2575494 Z M129.5,48.2575494 C130.328427,48.2575494 131,48.9319172 131,49.7637921 C131,50.595667 130.328427,51.2700348 129.5,51.2700348 C128.671573,51.2700348 128,50.595667 128,49.7637921 C128,48.9319172 128.671573,48.2575494 129.5,48.2575494 Z M81.5,48.2575494 C82.3284271,48.2575494 83,48.9319172 83,49.7637921 C83,50.595667 82.3284271,51.2700348 81.5,51.2700348 C80.6715729,51.2700348 80,50.595667 80,49.7637921 C80,48.9319172 80.6715729,48.2575494 81.5,48.2575494 Z M109.5,48.2575494 C110.328427,48.2575494 111,48.9319172 111,49.7637921 C111,50.595667 110.328427,51.2700348 109.5,51.2700348 C108.671573,51.2700348 108,50.595667 108,49.7637921 C108,48.9319172 108.671573,48.2575494 109.5,48.2575494 Z M99.5,48.2575494 C100.328427,48.2575494 101,48.9319172 101,49.7637921 C101,50.595667 100.328427,51.2700348 99.5,51.2700348 C98.6715729,51.2700348 98,50.595667 98,49.7637921 C98,48.9319172 98.6715729,48.2575494 99.5,48.2575494 Z M138.5,48.2575494 C139.328427,48.2575494 140,48.9319172 140,49.7637921 C140,50.595667 139.328427,51.2700348 138.5,51.2700348 C137.671573,51.2700348 137,50.595667 137,49.7637921 C137,48.9319172 137.671573,48.2575494 138.5,48.2575494 Z M71.5,48.2575494 C72.3284271,48.2575494 73,48.9319172 73,49.7637921 C73,50.595667 72.3284271,51.2700348 71.5,51.2700348 C70.6715729,51.2700348 70,50.595667 70,49.7637921 C70,48.9319172 70.6715729,48.2575494 71.5,48.2575494 Z M61.5,48.2575494 C62.3284271,48.2575494 63,48.9319172 63,49.7637921 C63,50.595667 62.3284271,51.2700348 61.5,51.2700348 C60.6715729,51.2700348 60,50.595667 60,49.7637921 C60,48.9319172 60.6715729,48.2575494 61.5,48.2575494 Z M91.5,48.2575494 C92.3284271,48.2575494 93,48.9319172 93,49.7637921 C93,50.595667 92.3284271,51.2700348 91.5,51.2700348 C90.6715729,51.2700348 90,50.595667 90,49.7637921 C90,48.9319172 90.6715729,48.2575494 91.5,48.2575494 Z M61.5,40.2242547 C62.3284271,40.2242547 63,40.8986226 63,41.7304975 C63,42.5623724 62.3284271,43.2367402 61.5,43.2367402 C60.6715729,43.2367402 60,42.5623724 60,41.7304975 C60,40.8986226 60.6715729,40.2242547 61.5,40.2242547 Z M71.5,40.2242547 C72.3284271,40.2242547 73,40.8986226 73,41.7304975 C73,42.5623724 72.3284271,43.2367402 71.5,43.2367402 C70.6715729,43.2367402 70,42.5623724 70,41.7304975 C70,40.8986226 70.6715729,40.2242547 71.5,40.2242547 Z M99.5,40.2242547 C100.328427,40.2242547 101,40.8986226 101,41.7304975 C101,42.5623724 100.328427,43.2367402 99.5,43.2367402 C98.6715729,43.2367402 98,42.5623724 98,41.7304975 C98,40.8986226 98.6715729,40.2242547 99.5,40.2242547 Z M129.5,40.2242547 C130.328427,40.2242547 131,40.8986226 131,41.7304975 C131,42.5623724 130.328427,43.2367402 129.5,43.2367402 C128.671573,43.2367402 128,42.5623724 128,41.7304975 C128,40.8986226 128.671573,40.2242547 129.5,40.2242547 Z M109.5,40.2242547 C110.328427,40.2242547 111,40.8986226 111,41.7304975 C111,42.5623724 110.328427,43.2367402 109.5,43.2367402 C108.671573,43.2367402 108,42.5623724 108,41.7304975 C108,40.8986226 108.671573,40.2242547 109.5,40.2242547 Z M81.5,40.2242547 C82.3284271,40.2242547 83,40.8986226 83,41.7304975 C83,42.5623724 82.3284271,43.2367402 81.5,43.2367402 C80.6715729,43.2367402 80,42.5623724 80,41.7304975 C80,40.8986226 80.6715729,40.2242547 81.5,40.2242547 Z M138.5,40.2242547 C139.328427,40.2242547 140,40.8986226 140,41.7304975 C140,42.5623724 139.328427,43.2367402 138.5,43.2367402 C137.671573,43.2367402 137,42.5623724 137,41.7304975 C137,40.8986226 137.671573,40.2242547 138.5,40.2242547 Z M91.5,40.2242547 C92.3284271,40.2242547 93,40.8986226 93,41.7304975 C93,42.5623724 92.3284271,43.2367402 91.5,43.2367402 C90.6715729,43.2367402 90,42.5623724 90,41.7304975 C90,40.8986226 90.6715729,40.2242547 91.5,40.2242547 Z M119.5,40.2242547 C120.328427,40.2242547 121,40.8986226 121,41.7304975 C121,42.5623724 120.328427,43.2367402 119.5,43.2367402 C118.671573,43.2367402 118,42.5623724 118,41.7304975 C118,40.8986226 118.671573,40.2242547 119.5,40.2242547 Z M61.5,33.195122 C62.3284271,33.195122 63,33.8694898 63,34.7013647 C63,35.5332396 62.3284271,36.2076074 61.5,36.2076074 C60.6715729,36.2076074 60,35.5332396 60,34.7013647 C60,33.8694898 60.6715729,33.195122 61.5,33.195122 Z M99.5,33.195122 C100.328427,33.195122 101,33.8694898 101,34.7013647 C101,35.5332396 100.328427,36.2076074 99.5,36.2076074 C98.6715729,36.2076074 98,35.5332396 98,34.7013647 C98,33.8694898 98.6715729,33.195122 99.5,33.195122 Z M109.5,33.195122 C110.328427,33.195122 111,33.8694898 111,34.7013647 C111,35.5332396 110.328427,36.2076074 109.5,36.2076074 C108.671573,36.2076074 108,35.5332396 108,34.7013647 C108,33.8694898 108.671573,33.195122 109.5,33.195122 Z M138.5,33.195122 C139.328427,33.195122 140,33.8694898 140,34.7013647 C140,35.5332396 139.328427,36.2076074 138.5,36.2076074 C137.671573,36.2076074 137,35.5332396 137,34.7013647 C137,33.8694898 137.671573,33.195122 138.5,33.195122 Z M119.5,33.195122 C120.328427,33.195122 121,33.8694898 121,34.7013647 C121,35.5332396 120.328427,36.2076074 119.5,36.2076074 C118.671573,36.2076074 118,35.5332396 118,34.7013647 C118,33.8694898 118.671573,33.195122 119.5,33.195122 Z M129.5,33.195122 C130.328427,33.195122 131,33.8694898 131,34.7013647 C131,35.5332396 130.328427,36.2076074 129.5,36.2076074 C128.671573,36.2076074 128,35.5332396 128,34.7013647 C128,33.8694898 128.671573,33.195122 129.5,33.195122 Z M71.5,33.195122 C72.3284271,33.195122 73,33.8694898 73,34.7013647 C73,35.5332396 72.3284271,36.2076074 71.5,36.2076074 C70.6715729,36.2076074 70,35.5332396 70,34.7013647 C70,33.8694898 70.6715729,33.195122 71.5,33.195122 Z M81.5,33.195122 C82.3284271,33.195122 83,33.8694898 83,34.7013647 C83,35.5332396 82.3284271,36.2076074 81.5,36.2076074 C80.6715729,36.2076074 80,35.5332396 80,34.7013647 C80,33.8694898 80.6715729,33.195122 81.5,33.195122 Z M91.5,33.195122 C92.3284271,33.195122 93,33.8694898 93,34.7013647 C93,35.5332396 92.3284271,36.2076074 91.5,36.2076074 C90.6715729,36.2076074 90,35.5332396 90,34.7013647 C90,33.8694898 90.6715729,33.195122 91.5,33.195122 Z M61.5,25.1618273 C62.3284271,25.1618273 63,25.8361952 63,26.6680701 C63,27.499945 62.3284271,28.1743128 61.5,28.1743128 C60.6715729,28.1743128 60,27.499945 60,26.6680701 C60,25.8361952 60.6715729,25.1618273 61.5,25.1618273 Z M109.5,25.1618273 C110.328427,25.1618273 111,25.8361952 111,26.6680701 C111,27.499945 110.328427,28.1743128 109.5,28.1743128 C108.671573,28.1743128 108,27.499945 108,26.6680701 C108,25.8361952 108.671573,25.1618273 109.5,25.1618273 Z M119.5,25.1618273 C120.328427,25.1618273 121,25.8361952 121,26.6680701 C121,27.499945 120.328427,28.1743128 119.5,28.1743128 C118.671573,28.1743128 118,27.499945 118,26.6680701 C118,25.8361952 118.671573,25.1618273 119.5,25.1618273 Z M129.5,25.1618273 C130.328427,25.1618273 131,25.8361952 131,26.6680701 C131,27.499945 130.328427,28.1743128 129.5,28.1743128 C128.671573,28.1743128 128,27.499945 128,26.6680701 C128,25.8361952 128.671573,25.1618273 129.5,25.1618273 Z M71.5,25.1618273 C72.3284271,25.1618273 73,25.8361952 73,26.6680701 C73,27.499945 72.3284271,28.1743128 71.5,28.1743128 C70.6715729,28.1743128 70,27.499945 70,26.6680701 C70,25.8361952 70.6715729,25.1618273 71.5,25.1618273 Z M81.5,25.1618273 C82.3284271,25.1618273 83,25.8361952 83,26.6680701 C83,27.499945 82.3284271,28.1743128 81.5,28.1743128 C80.6715729,28.1743128 80,27.499945 80,26.6680701 C80,25.8361952 80.6715729,25.1618273 81.5,25.1618273 Z M138.5,25.1618273 C139.328427,25.1618273 140,25.8361952 140,26.6680701 C140,27.499945 139.328427,28.1743128 138.5,28.1743128 C137.671573,28.1743128 137,27.499945 137,26.6680701 C137,25.8361952 137.671573,25.1618273 138.5,25.1618273 Z M91.5,25.1618273 C92.3284271,25.1618273 93,25.8361952 93,26.6680701 C93,27.499945 92.3284271,28.1743128 91.5,28.1743128 C90.6715729,28.1743128 90,27.499945 90,26.6680701 C90,25.8361952 90.6715729,25.1618273 91.5,25.1618273 Z M99.5,25.1618273 C100.328427,25.1618273 101,25.8361952 101,26.6680701 C101,27.499945 100.328427,28.1743128 99.5,28.1743128 C98.6715729,28.1743128 98,27.499945 98,26.6680701 C98,25.8361952 98.6715729,25.1618273 99.5,25.1618273 Z M61.5,17.1285327 C62.3284271,17.1285327 63,17.8029006 63,18.6347755 C63,19.4666504 62.3284271,20.1410182 61.5,20.1410182 C60.6715729,20.1410182 60,19.4666504 60,18.6347755 C60,17.8029006 60.6715729,17.1285327 61.5,17.1285327 Z M71.5,17.1285327 C72.3284271,17.1285327 73,17.8029006 73,18.6347755 C73,19.4666504 72.3284271,20.1410182 71.5,20.1410182 C70.6715729,20.1410182 70,19.4666504 70,18.6347755 C70,17.8029006 70.6715729,17.1285327 71.5,17.1285327 Z M81.5,17.1285327 C82.3284271,17.1285327 83,17.8029006 83,18.6347755 C83,19.4666504 82.3284271,20.1410182 81.5,20.1410182 C80.6715729,20.1410182 80,19.4666504 80,18.6347755 C80,17.8029006 80.6715729,17.1285327 81.5,17.1285327 Z M91.5,17.1285327 C92.3284271,17.1285327 93,17.8029006 93,18.6347755 C93,19.4666504 92.3284271,20.1410182 91.5,20.1410182 C90.6715729,20.1410182 90,19.4666504 90,18.6347755 C90,17.8029006 90.6715729,17.1285327 91.5,17.1285327 Z M99.5,17.1285327 C100.328427,17.1285327 101,17.8029006 101,18.6347755 C101,19.4666504 100.328427,20.1410182 99.5,20.1410182 C98.6715729,20.1410182 98,19.4666504 98,18.6347755 C98,17.8029006 98.6715729,17.1285327 99.5,17.1285327 Z M109.5,17.1285327 C110.328427,17.1285327 111,17.8029006 111,18.6347755 C111,19.4666504 110.328427,20.1410182 109.5,20.1410182 C108.671573,20.1410182 108,19.4666504 108,18.6347755 C108,17.8029006 108.671573,17.1285327 109.5,17.1285327 Z M119.5,17.1285327 C120.328427,17.1285327 121,17.8029006 121,18.6347755 C121,19.4666504 120.328427,20.1410182 119.5,20.1410182 C118.671573,20.1410182 118,19.4666504 118,18.6347755 C118,17.8029006 118.671573,17.1285327 119.5,17.1285327 Z M129.5,17.1285327 C130.328427,17.1285327 131,17.8029006 131,18.6347755 C131,19.4666504 130.328427,20.1410182 129.5,20.1410182 C128.671573,20.1410182 128,19.4666504 128,18.6347755 C128,17.8029006 128.671573,17.1285327 129.5,17.1285327 Z M138.5,17.1285327 C139.328427,17.1285327 140,17.8029006 140,18.6347755 C140,19.4666504 139.328427,20.1410182 138.5,20.1410182 C137.671573,20.1410182 137,19.4666504 137,18.6347755 C137,17.8029006 137.671573,17.1285327 138.5,17.1285327 Z" id="Combined-Shape-Copy" fill="#116DFF" transform="translate(100.000000, 58.500000) rotate(-90.000000) translate(-100.000000, -58.500000) "></path>
        <circle id="Oval-Copy" fill="#F2F7FF" style="mix-blend-mode: multiply;" transform="translate(59.000000, 68.000000) rotate(-90.000000) translate(-59.000000, -68.000000) " cx="59" cy="68" r="47"></circle>
    </g>
</svg>