<svg xmlns="http://www.w3.org/2000/svg" width="130" height="97" viewBox="0 0 130 97">
    <g fill="none" fill-rule="evenodd">
        <path fill="#116DFF" d="M126.961 79c0-.828.675-1.5 1.507-1.5.832 0 1.506.672 1.506 1.5s-.674 1.5-1.506 1.5-1.507-.672-1.507-1.5zm0-10c0-.828.675-1.5 1.507-1.5.832 0 1.506.672 1.506 1.5s-.674 1.5-1.506 1.5-1.507-.672-1.507-1.5zm0-10c0-.828.675-1.5 1.507-1.5.832 0 1.506.672 1.506 1.5s-.674 1.5-1.506 1.5-1.507-.672-1.507-1.5zm0-10c0-.828.675-1.5 1.507-1.5.832 0 1.506.672 1.506 1.5s-.674 1.5-1.506 1.5-1.507-.672-1.507-1.5zm0-8c0-.828.675-1.5 1.507-1.5.832 0 1.506.672 1.506 1.5s-.674 1.5-1.506 1.5-1.507-.672-1.507-1.5zm0-10c0-.828.675-1.5 1.507-1.5.832 0 1.506.672 1.506 1.5s-.674 1.5-1.506 1.5-1.507-.672-1.507-1.5zm0-10c0-.828.675-1.5 1.507-1.5.832 0 1.506.672 1.506 1.5s-.674 1.5-1.506 1.5-1.507-.672-1.507-1.5zm0-10c0-.828.675-1.5 1.507-1.5.832 0 1.506.672 1.506 1.5s-.674 1.5-1.506 1.5-1.507-.672-1.507-1.5zm0-9c0-.828.675-1.5 1.507-1.5.832 0 1.506.672 1.506 1.5s-.674 1.5-1.506 1.5-1.507-.672-1.507-1.5zm-9.037 57c0-.828.674-1.5 1.506-1.5s1.507.672 1.507 1.5-.675 1.5-1.507 1.5c-.832 0-1.506-.672-1.506-1.5zm0-28c0-.828.674-1.5 1.506-1.5s1.507.672 1.507 1.5-.675 1.5-1.507 1.5c-.832 0-1.506-.672-1.506-1.5zm0 48c0-.828.674-1.5 1.506-1.5s1.507.672 1.507 1.5-.675 1.5-1.507 1.5c-.832 0-1.506-.672-1.506-1.5zm0-58c0-.828.674-1.5 1.506-1.5s1.507.672 1.507 1.5-.675 1.5-1.507 1.5c-.832 0-1.506-.672-1.506-1.5zm0 28c0-.828.674-1.5 1.506-1.5s1.507.672 1.507 1.5-.675 1.5-1.507 1.5c-.832 0-1.506-.672-1.506-1.5zm0-38c0-.828.674-1.5 1.506-1.5s1.507.672 1.507 1.5-.675 1.5-1.507 1.5c-.832 0-1.506-.672-1.506-1.5zm0 58c0-.828.674-1.5 1.506-1.5s1.507.672 1.507 1.5-.675 1.5-1.507 1.5c-.832 0-1.506-.672-1.506-1.5zm0-67c0-.828.674-1.5 1.506-1.5s1.507.672 1.507 1.5-.675 1.5-1.507 1.5c-.832 0-1.506-.672-1.506-1.5zm0 39c0-.828.674-1.5 1.506-1.5s1.507.672 1.507 1.5-.675 1.5-1.507 1.5c-.832 0-1.506-.672-1.506-1.5zm-8.033 0c0-.828.674-1.5 1.506-1.5s1.506.672 1.506 1.5-.674 1.5-1.506 1.5-1.506-.672-1.506-1.5zm0-10c0-.828.674-1.5 1.506-1.5s1.506.672 1.506 1.5-.674 1.5-1.506 1.5-1.506-.672-1.506-1.5zm0-10c0-.828.674-1.5 1.506-1.5s1.506.672 1.506 1.5-.674 1.5-1.506 1.5-1.506-.672-1.506-1.5zm0-10c0-.828.674-1.5 1.506-1.5s1.506.672 1.506 1.5-.674 1.5-1.506 1.5-1.506-.672-1.506-1.5zm0 68c0-.828.674-1.5 1.506-1.5s1.506.672 1.506 1.5-.674 1.5-1.506 1.5-1.506-.672-1.506-1.5zm0-10c0-.828.674-1.5 1.506-1.5s1.506.672 1.506 1.5-.674 1.5-1.506 1.5-1.506-.672-1.506-1.5zm0-67c0-.828.674-1.5 1.506-1.5s1.506.672 1.506 1.5-.674 1.5-1.506 1.5-1.506-.672-1.506-1.5zm0 57c0-.828.674-1.5 1.506-1.5s1.506.672 1.506 1.5-.674 1.5-1.506 1.5-1.506-.672-1.506-1.5zm0-10c0-.828.674-1.5 1.506-1.5s1.506.672 1.506 1.5-.674 1.5-1.506 1.5-1.506-.672-1.506-1.5zm-8.034 30c0-.828.675-1.5 1.507-1.5.832 0 1.506.672 1.506 1.5s-.674 1.5-1.506 1.5-1.507-.672-1.507-1.5zm0-48c0-.828.675-1.5 1.507-1.5.832 0 1.506.672 1.506 1.5s-.674 1.5-1.506 1.5-1.507-.672-1.507-1.5zm0-10c0-.828.675-1.5 1.507-1.5.832 0 1.506.672 1.506 1.5s-.674 1.5-1.506 1.5-1.507-.672-1.507-1.5zm0-10c0-.828.675-1.5 1.507-1.5.832 0 1.506.672 1.506 1.5s-.674 1.5-1.506 1.5-1.507-.672-1.507-1.5zm0 58c0-.828.675-1.5 1.507-1.5.832 0 1.506.672 1.506 1.5s-.674 1.5-1.506 1.5-1.507-.672-1.507-1.5zm0-10c0-.828.675-1.5 1.507-1.5.832 0 1.506.672 1.506 1.5s-.674 1.5-1.506 1.5-1.507-.672-1.507-1.5zm0-57c0-.828.675-1.5 1.507-1.5.832 0 1.506.672 1.506 1.5s-.674 1.5-1.506 1.5-1.507-.672-1.507-1.5zm0 47c0-.828.675-1.5 1.507-1.5.832 0 1.506.672 1.506 1.5s-.674 1.5-1.506 1.5-1.507-.672-1.507-1.5zm0-8c0-.828.675-1.5 1.507-1.5.832 0 1.506.672 1.506 1.5s-.674 1.5-1.506 1.5-1.507-.672-1.507-1.5zm-8.033 38c0-.828.675-1.5 1.506-1.5.832 0 1.507.672 1.507 1.5s-.675 1.5-1.507 1.5c-.831 0-1.506-.672-1.506-1.5zm0-10c0-.828.675-1.5 1.506-1.5.832 0 1.507.672 1.507 1.5s-.675 1.5-1.507 1.5c-.831 0-1.506-.672-1.506-1.5zm0-10c0-.828.675-1.5 1.506-1.5.832 0 1.507.672 1.507 1.5s-.675 1.5-1.507 1.5c-.831 0-1.506-.672-1.506-1.5zm0-10c0-.828.675-1.5 1.506-1.5.832 0 1.507.672 1.507 1.5s-.675 1.5-1.507 1.5c-.831 0-1.506-.672-1.506-1.5zm0-8c0-.828.675-1.5 1.506-1.5.832 0 1.507.672 1.507 1.5s-.675 1.5-1.507 1.5c-.831 0-1.506-.672-1.506-1.5zm0-10c0-.828.675-1.5 1.506-1.5.832 0 1.507.672 1.507 1.5s-.675 1.5-1.507 1.5c-.831 0-1.506-.672-1.506-1.5zm0-10c0-.828.675-1.5 1.506-1.5.832 0 1.507.672 1.507 1.5s-.675 1.5-1.507 1.5c-.831 0-1.506-.672-1.506-1.5zm0-10c0-.828.675-1.5 1.506-1.5.832 0 1.507.672 1.507 1.5s-.675 1.5-1.507 1.5c-.831 0-1.506-.672-1.506-1.5zm0-9c0-.828.675-1.5 1.506-1.5.832 0 1.507.672 1.507 1.5s-.675 1.5-1.507 1.5c-.831 0-1.506-.672-1.506-1.5zm-8.033 9c0-.828.674-1.5 1.506-1.5s1.506.672 1.506 1.5-.674 1.5-1.506 1.5-1.506-.672-1.506-1.5zm0 58c0-.828.674-1.5 1.506-1.5s1.506.672 1.506 1.5-.674 1.5-1.506 1.5-1.506-.672-1.506-1.5zm0-48c0-.828.674-1.5 1.506-1.5s1.506.672 1.506 1.5-.674 1.5-1.506 1.5-1.506-.672-1.506-1.5zm0 58c0-.828.674-1.5 1.506-1.5s1.506.672 1.506 1.5-.674 1.5-1.506 1.5-1.506-.672-1.506-1.5zm0-30c0-.828.674-1.5 1.506-1.5s1.506.672 1.506 1.5-.674 1.5-1.506 1.5-1.506-.672-1.506-1.5zm0-47c0-.828.674-1.5 1.506-1.5s1.506.672 1.506 1.5-.674 1.5-1.506 1.5-1.506-.672-1.506-1.5zm0 39c0-.828.674-1.5 1.506-1.5s1.506.672 1.506 1.5-.674 1.5-1.506 1.5-1.506-.672-1.506-1.5zm0-10c0-.828.674-1.5 1.506-1.5s1.506.672 1.506 1.5-.674 1.5-1.506 1.5-1.506-.672-1.506-1.5zm0 28c0-.828.674-1.5 1.506-1.5s1.506.672 1.506 1.5-.674 1.5-1.506 1.5-1.506-.672-1.506-1.5zm-8.033-38c0-.828.674-1.5 1.506-1.5s1.506.672 1.506 1.5-.674 1.5-1.506 1.5-1.506-.672-1.506-1.5zm0-10c0-.828.674-1.5 1.506-1.5s1.506.672 1.506 1.5-.674 1.5-1.506 1.5-1.506-.672-1.506-1.5zm0 48c0-.828.674-1.5 1.506-1.5s1.506.672 1.506 1.5-.674 1.5-1.506 1.5-1.506-.672-1.506-1.5zm0-28c0-.828.674-1.5 1.506-1.5s1.506.672 1.506 1.5-.674 1.5-1.506 1.5-1.506-.672-1.506-1.5zm0 10c0-.828.674-1.5 1.506-1.5s1.506.672 1.506 1.5-.674 1.5-1.506 1.5-1.506-.672-1.506-1.5zm0-39c0-.828.674-1.5 1.506-1.5s1.506.672 1.506 1.5-.674 1.5-1.506 1.5-1.506-.672-1.506-1.5zm0 67c0-.828.674-1.5 1.506-1.5s1.506.672 1.506 1.5-.674 1.5-1.506 1.5-1.506-.672-1.506-1.5zm0 10c0-.828.674-1.5 1.506-1.5s1.506.672 1.506 1.5-.674 1.5-1.506 1.5-1.506-.672-1.506-1.5zm0-30c0-.828.674-1.5 1.506-1.5s1.506.672 1.506 1.5-.674 1.5-1.506 1.5-1.506-.672-1.506-1.5zm-8.034 30c0-.828.675-1.5 1.506-1.5.832 0 1.507.672 1.507 1.5s-.675 1.5-1.507 1.5c-.831 0-1.506-.672-1.506-1.5zm0-10c0-.828.675-1.5 1.506-1.5.832 0 1.507.672 1.507 1.5s-.675 1.5-1.507 1.5c-.831 0-1.506-.672-1.506-1.5zm0-28c0-.828.675-1.5 1.506-1.5.832 0 1.507.672 1.507 1.5s-.675 1.5-1.507 1.5c-.831 0-1.506-.672-1.506-1.5zm0-30c0-.828.675-1.5 1.506-1.5.832 0 1.507.672 1.507 1.5s-.675 1.5-1.507 1.5c-.831 0-1.506-.672-1.506-1.5zm0 20c0-.828.675-1.5 1.506-1.5.832 0 1.507.672 1.507 1.5s-.675 1.5-1.507 1.5c-.831 0-1.506-.672-1.506-1.5zm0 28c0-.828.675-1.5 1.506-1.5.832 0 1.507.672 1.507 1.5s-.675 1.5-1.507 1.5c-.831 0-1.506-.672-1.506-1.5zm0-57c0-.828.675-1.5 1.506-1.5.832 0 1.507.672 1.507 1.5s-.675 1.5-1.507 1.5c-.831 0-1.506-.672-1.506-1.5zm0 47c0-.828.675-1.5 1.506-1.5.832 0 1.507.672 1.507 1.5s-.675 1.5-1.507 1.5c-.831 0-1.506-.672-1.506-1.5zm0-28c0-.828.675-1.5 1.506-1.5.832 0 1.507.672 1.507 1.5s-.675 1.5-1.507 1.5c-.831 0-1.506-.672-1.506-1.5zm-7.029 58c0-.828.674-1.5 1.506-1.5s1.507.672 1.507 1.5-.675 1.5-1.507 1.5c-.832 0-1.506-.672-1.506-1.5zm0-38c0-.828.674-1.5 1.506-1.5s1.507.672 1.507 1.5-.675 1.5-1.507 1.5c-.832 0-1.506-.672-1.506-1.5zm0-10c0-.828.674-1.5 1.506-1.5s1.507.672 1.507 1.5-.675 1.5-1.507 1.5c-.832 0-1.506-.672-1.506-1.5zm0-29c0-.828.674-1.5 1.506-1.5s1.507.672 1.507 1.5-.675 1.5-1.507 1.5c-.832 0-1.506-.672-1.506-1.5zm0 19c0-.828.674-1.5 1.506-1.5s1.507.672 1.507 1.5-.675 1.5-1.507 1.5c-.832 0-1.506-.672-1.506-1.5zm0-10c0-.828.674-1.5 1.506-1.5s1.507.672 1.507 1.5-.675 1.5-1.507 1.5c-.832 0-1.506-.672-1.506-1.5zm0 58c0-.828.674-1.5 1.506-1.5s1.507.672 1.507 1.5-.675 1.5-1.507 1.5c-.832 0-1.506-.672-1.506-1.5zm0-10c0-.828.674-1.5 1.506-1.5s1.507.672 1.507 1.5-.675 1.5-1.507 1.5c-.832 0-1.506-.672-1.506-1.5zm0-10c0-.828.674-1.5 1.506-1.5s1.507.672 1.507 1.5-.675 1.5-1.507 1.5c-.832 0-1.506-.672-1.506-1.5zm-8.033 30c0-.828.674-1.5 1.506-1.5s1.506.672 1.506 1.5-.674 1.5-1.506 1.5-1.506-.672-1.506-1.5zm0-48c0-.828.674-1.5 1.506-1.5s1.506.672 1.506 1.5-.674 1.5-1.506 1.5-1.506-.672-1.506-1.5zm0-10c0-.828.674-1.5 1.506-1.5s1.506.672 1.506 1.5-.674 1.5-1.506 1.5-1.506-.672-1.506-1.5zm0-10c0-.828.674-1.5 1.506-1.5s1.506.672 1.506 1.5-.674 1.5-1.506 1.5-1.506-.672-1.506-1.5zm0 58c0-.828.674-1.5 1.506-1.5s1.506.672 1.506 1.5-.674 1.5-1.506 1.5-1.506-.672-1.506-1.5zm0-10c0-.828.674-1.5 1.506-1.5s1.506.672 1.506 1.5-.674 1.5-1.506 1.5-1.506-.672-1.506-1.5zm0-57c0-.828.674-1.5 1.506-1.5s1.506.672 1.506 1.5S57 3.5 56.168 3.5s-1.506-.672-1.506-1.5zm0 47c0-.828.674-1.5 1.506-1.5s1.506.672 1.506 1.5-.674 1.5-1.506 1.5-1.506-.672-1.506-1.5zm0-8c0-.828.674-1.5 1.506-1.5s1.506.672 1.506 1.5-.674 1.5-1.506 1.5-1.506-.672-1.506-1.5zm-8.033 38c0-.828.674-1.5 1.506-1.5s1.506.672 1.506 1.5-.674 1.5-1.506 1.5-1.506-.672-1.506-1.5zm0-10c0-.828.674-1.5 1.506-1.5s1.506.672 1.506 1.5-.674 1.5-1.506 1.5-1.506-.672-1.506-1.5zm0-10c0-.828.674-1.5 1.506-1.5s1.506.672 1.506 1.5-.674 1.5-1.506 1.5-1.506-.672-1.506-1.5zm0-10c0-.828.674-1.5 1.506-1.5s1.506.672 1.506 1.5-.674 1.5-1.506 1.5-1.506-.672-1.506-1.5zm0-8c0-.828.674-1.5 1.506-1.5s1.506.672 1.506 1.5-.674 1.5-1.506 1.5-1.506-.672-1.506-1.5zm0-10c0-.828.674-1.5 1.506-1.5s1.506.672 1.506 1.5-.674 1.5-1.506 1.5-1.506-.672-1.506-1.5zm0-10c0-.828.674-1.5 1.506-1.5s1.506.672 1.506 1.5-.674 1.5-1.506 1.5-1.506-.672-1.506-1.5zm0-10c0-.828.674-1.5 1.506-1.5s1.506.672 1.506 1.5-.674 1.5-1.506 1.5-1.506-.672-1.506-1.5zm0-9c0-.828.674-1.5 1.506-1.5s1.506.672 1.506 1.5-.674 1.5-1.506 1.5-1.506-.672-1.506-1.5z"/>
        <circle fill="#F2F7FF" style="mix-blend-mode:multiply" cx="47" cy="50" r="47" transform="rotate(-90 47 50)"/>
    </g>
</svg>
