<svg xmlns="http://www.w3.org/2000/svg" width="32" height="32" viewBox="0 0 32 32">
    <g fill="none">
        <circle cx="16" cy="16" r="16" fill="#FFC1B3"/>
        <path fill="#20303C" d="M9.87 9.95v12.857h10.846v.757c0 .417-.347.756-.775.756H9.095c-.428 0-.775-.339-.775-.756V10.705c0-.417.347-.756.775-.756h.774zm12.395-2.27c.428 0 .775.338.775.756v12.101c0 .419-.347.758-.775.758h-10.07c-.428 0-.775-.34-.775-.758V8.436c0-.418.347-.756.774-.756h10.071zm-4.648 9.076h-3.099v1.513h3.1v-1.513zm2.324-3.025h-5.423v1.513h5.423V13.73zm0-3.026h-5.423v1.513h5.423v-1.513z"/>
    </g>
</svg>
