<svg xmlns="http://www.w3.org/2000/svg" width="32" height="32" viewBox="0 0 32 32">
    <g fill="none">
        <circle cx="16" cy="16" r="16" fill="#B0D6FF"/>
        <path fill="#20303C" d="M10.276 9.856c1.852-1.709 4.367-2.466 6.909-2.076 3.379.518 6.152 3.19 6.745 6.498.351 1.953.009 3.872-.99 5.546-.264.444-.576.867-.923 1.257-.042.046-.092.122-.092.222v2.058c0 .476-.469.813-.928.67l-2.173-.683c-.07-.022-.144-.02-.213.004-.464.16-.942.282-1.421.358-.658.104-1.332.131-2.006.076-3.914-.314-7.126-3.456-7.471-7.307-.225-2.502.71-4.916 2.563-6.623zm9.514 6.372h-7.836v1.425h7.836v-1.425zm0-2.85h-7.836v1.425h7.836V13.38z"/>
    </g>
</svg>
