<svg xmlns="http://www.w3.org/2000/svg" width="32" height="32" viewBox="0 0 32 32">
    <g fill="none">
        <circle cx="16" cy="16" r="16" fill="#AFECDA"/>
        <path fill="#20303C" d="M11.093 14.817c.378 0 .683.303.683.676v4.057c0 .373-.305.676-.683.676h-.682v2.03c0 .372.306.675.682.675h2.92c.237-.402.673-.676 1.176-.676.754 0 1.366.606 1.366 1.353 0 .746-.612 1.352-1.366 1.352-.503 0-.939-.274-1.176-.676h-2.92c-1.129 0-2.048-.91-2.048-2.029v-2.404c-.812-.469-1.365-1.33-1.365-2.33 0-1.493 1.223-2.704 2.73-2.704h.683zm10.24 0c1.508 0 2.731 1.21 2.731 2.705 0 1.493-1.223 2.704-2.73 2.704h-.683c-.378 0-.683-.303-.683-.676v-4.057c0-.373.305-.676.683-.676h.682zm-5.46-7.777c3.258 0 5.771 2.39 6.105 5.673.04.4-.276.751-.683.751h-.686c-.343 0-.636-.253-.673-.592-.246-2.237-1.878-3.803-4.064-3.803s-3.818 1.566-4.064 3.803c-.037.339-.33.592-.673.592h-.686c-.407 0-.723-.35-.683-.751.334-3.283 2.847-5.673 6.106-5.673z"/>
    </g>
</svg>
