<svg xmlns="http://www.w3.org/2000/svg" width="32" height="32" viewBox="0 0 32 32">
    <g fill="none">
        <circle cx="16" cy="16" r="16" fill="#FF9C9C"/>
        <path fill="#20303C" d="M23.284 11.979c.43 0 .78.338.78.755v9.995c0 .519-.662.764-1.02.378l-.757-.816c-.296-.318-.719-.501-1.162-.501h-7.984c-.43 0-.78-.338-.78-.755v-1.51h7.814c1.286 0 2.329-1.007 2.329-2.252V11.98h.78zM20.163 8.96c.43 0 .78.338.78.755v7.547c0 .416-.35.754-.78.754H10.63c-.44 0-.86.18-1.155.495l-.777.828c-.36.382-1.018.136-1.018-.382V9.715c0-.417.35-.755.78-.755h11.703zm-4.681 5.283H10.8v1.51h4.68v-1.51zm2.34-3.019h-7.021v1.51h7.021v-1.51z"/>
    </g>
</svg>
