<svg xmlns="http://www.w3.org/2000/svg" width="63" height="16" viewBox="0 0 63 16">
    <g fill="none" fill-rule="evenodd">
        <path fill="#1D1E1E" fill-rule="nonzero" d="M30.8 4.57c.745-.172 1.49-.195 2.248-.092.97.126 1.84.492 2.563 1.156.678.619 1.107 1.386 1.344 2.29.204.734.272 1.501.204 2.268l-.034.447c0 .046-.011.103-.023.16h-6.799c.011.046 0 .07.011.104.271 1.168 1.107 1.729 2.022 1.866.542.069 1.073.012 1.604-.137.621-.172 1.208-.447 1.75-.79.034-.023.068-.035.113-.07.43.848.87 1.684 1.31 2.543-.237.195-.474.355-.734.504-.87.504-1.807.813-2.8.95-1.096.15-2.192.104-3.253-.274-1.954-.699-3.152-2.096-3.603-4.134-.271-1.237-.158-2.463.316-3.63.711-1.719 1.988-2.76 3.761-3.162zM5.218.262C5.851.183 6.472.195 7.093.24l.395.046v2.875l-.497-.035c-.339-.022-.689-.022-1.028.046-.146.035-.282.08-.417.15-.271.137-.418.377-.44.686-.012.218 0 .447 0 .687h7.917l.022.023c.011 0 .011.012.011.012v8.154s0 .011-.01.057h1.332v2.634H8.087c-.034-.103-.045-2.393-.011-2.634h1.31c.034-.103.045-5.417.011-5.589H5.083c-.023.103-.034 5.44 0 5.589H6.64v2.634H.113v-2.634h1.333v-5.6H0V4.695c.474-.011.949 0 1.446-.011v-.183c0-.424.022-.848.101-1.271.249-1.226.95-2.062 2.079-2.554C4.134.458 4.665.332 5.218.263zm8.742 4.444c.09-.034 5.5-.046 5.704-.012v2.623h-.938c.012.057.023.103.034.137l1.22 3.883c.124.378.203.767.248 1.156.012.07.023.126.034.195.09-.011.08-.08.08-.126.045-.378.101-.744.214-1.11.135-.447.282-.883.418-1.33.282-.881.565-1.774.836-2.656.022-.046.022-.092.045-.149h-.938V4.684h5.693c0 .87 0 1.74-.012 2.645h-1.197l-2.981 8.246h-4.27c-.994-2.737-1.988-5.486-2.982-8.246H13.96zm41.812-.23c.18-.01.361.012.542.07V8.13c-.18-.023-.35-.034-.52-.046-.417-.034-.835 0-1.242.126-.892.264-1.445.87-1.728 1.752-.124.39-.18.802-.192 1.214v1.661c0 .023.011.046.011.092h1.446v2.634h-6.505V12.93h1.434c0-.058.011-.092.011-.138V7.8c0-.126-.022-.24-.101-.332-.102-.126-.249-.149-.396-.149h-.96V4.684c.045-.011.08-.011.125-.011h3.309c.237 0 .463.034.677.103.452.148.7.458.78.927.022.126.034.252.034.378 0 .367-.012.722-.012 1.1.023-.046.034-.08.046-.115.316-.893.87-1.603 1.671-2.096.474-.297 1.005-.458 1.57-.492zm-9.566 0c.18-.01.361.012.542.047v3.584c-.204-.023-.418-.034-.621-.046-.418-.011-.836.023-1.232.16-.813.276-1.344.848-1.615 1.661-.158.435-.203.894-.214 1.363v1.558c0 .023.011.057.011.103h1.446v2.634h-6.506c-.034-.103-.034-2.394-.011-2.634.474 0 .949.011 1.434 0 .012-.058.012-.103.012-.15V7.823c0-.355-.159-.515-.509-.515h-.802c-.045 0-.09-.012-.146-.012V4.673c.033 0 .067-.012.101-.012h3.411c.215 0 .418.034.61.103.44.138.689.447.768.893.023.103.034.218.034.321.011.298 0 .584 0 .87 0 .104-.011.207 0 .321.023-.057.034-.103.056-.149.34-.905.915-1.626 1.751-2.107.463-.263.96-.4 1.48-.435zm-13.61 2.795c-.565-.229-1.096-.103-1.559.275-.361.298-.53.722-.644 1.168-.01.012 0 .035 0 .057h3.05l.011-.091c-.022-.16-.034-.32-.079-.481-.124-.412-.361-.756-.78-.928zM11.249 0c.96 0 1.75.802 1.74 1.775-.012.962-.791 1.74-1.751 1.74-.96-.01-1.728-.79-1.728-1.763C9.52.78 10.29 0 11.25 0z"/>
        <path d="M59.365 1.578c-.517.603-.517 1.593.01 2.185.291.323.646.496 1.077.496.323 0 .624-.097.883-.291.786-.603.84-1.852.097-2.52-.603-.548-1.53-.495-2.067.13zm1.42 2.11c-.096-.226-.193-.463-.29-.7h-.161v.7h-.657V1.621c.032 0 .054-.01.086-.01h.937c.107 0 .215.02.312.064.258.107.366.312.387.57.011.237-.075.431-.29.56-.011.011-.022.011-.033.022 0 0 0 .01-.01.01.14.28.29.55.441.84-.258.011-.484.011-.721.011z"/>
        <path fill="#2D2E2E" fill-rule="nonzero" d="M62.573 2.105C62.207.598 60.409-.048 59.182.878c-.97.732-1.174 2.143-.442 3.122.517.7 1.227 1.002 2.089.862 1.066-.173 1.82-1.11 1.84-2.197-.042-.194-.053-.377-.096-.56zm-1.238 1.863c-.259.194-.55.301-.883.29-.43 0-.797-.172-1.077-.495-.527-.592-.527-1.582-.01-2.185.538-.625 1.464-.678 2.067-.14.743.667.7 1.927-.097 2.53z"/>
        <path fill="#2D2E2E" fill-rule="nonzero" d="M61.066 2.827c.01-.011.021-.011.032-.022.215-.129.301-.323.29-.56-.02-.258-.129-.473-.387-.57-.097-.043-.204-.065-.312-.065-.312-.01-.625 0-.937 0-.021 0-.054.01-.086.01v2.068h.657v-.7h.161c.097.237.194.474.291.7h.71c-.15-.29-.3-.57-.44-.84.02-.01.02-.021.02-.021zm-.388-.377c-.086.13-.215.086-.344.086v-.495c.14.01.269-.033.355.097.054.107.054.215-.01.312z"/>
    </g>
</svg>
