<svg xmlns="http://www.w3.org/2000/svg" width="91" height="23" viewBox="0 0 91 23">
    <g fill="none" fill-rule="evenodd">
        <path fill="#1D1E1E" fill-rule="nonzero" d="M44.352 6.58c1.073-.247 2.147-.28 3.237-.132 1.398.181 2.65.71 3.691 1.666.976.89 1.594 1.995 1.936 3.298.293 1.055.39 2.16.293 3.265l-.05.643c0 .066-.015.149-.032.231h-9.79c.016.066 0 .1.016.149.39 1.682 1.594 2.49 2.91 2.688.782.099 1.546.016 2.31-.198.895-.248 1.74-.643 2.521-1.138.05-.033.098-.05.163-.099.618 1.22 1.252 2.424 1.887 3.661-.342.28-.683.511-1.058.726-1.252.725-2.602 1.17-4.033 1.368-1.578.215-3.155.149-4.684-.395-2.814-1.006-4.538-3.018-5.188-5.954-.39-1.78-.228-3.545.455-5.227 1.025-2.474 2.863-3.975 5.416-4.552zM7.514.38c.91-.116 1.805-.1 2.7-.034l.57.066v4.14l-.717-.05c-.487-.033-.992-.033-1.48.066-.211.05-.406.116-.601.214-.39.198-.602.545-.635.99-.016.313 0 .643 0 .99h11.401l.033.032c.016 0 .016.017.016.017v11.742s0 .016-.016.082h1.92v3.793h-9.06c-.049-.148-.065-3.447-.016-3.793h1.886c.05-.148.065-7.8.017-8.048H7.319c-.033.149-.049 7.834 0 8.048h2.244v3.793h-9.4v-3.793h1.919v-8.064H0V6.76c.683-.016 1.366 0 2.082-.016V6.48c0-.61.032-1.22.146-1.83.358-1.765 1.366-2.969 2.993-3.678C5.953.66 6.717.478 7.514.379zm12.588 6.398c.13-.05 7.92-.066 8.214-.017v3.777h-1.35c.016.082.032.148.049.198l1.756 5.59c.179.545.293 1.105.358 1.666.016.099.032.181.049.28.13-.016.114-.115.114-.181.065-.544.146-1.072.309-1.6.195-.643.406-1.27.601-1.913.407-1.27.814-2.556 1.204-3.826.032-.066.032-.132.065-.214h-1.35V6.745h8.197c0 1.253 0 2.507-.016 3.81h-1.724l-4.294 11.873h-6.148c-1.43-3.941-2.862-7.9-4.293-11.874h-1.74zm60.21-.33c.26-.016.52.017.78.099v5.162c-.26-.033-.504-.05-.748-.066-.601-.05-1.203 0-1.789.181-1.285.38-2.082 1.254-2.488 2.523-.179.561-.26 1.155-.277 1.748v2.392c0 .033.017.066.017.132h2.081v3.793H68.52v-3.793h2.066c0-.083.016-.132.016-.198v-7.19c0-.182-.032-.347-.146-.479-.147-.181-.358-.214-.57-.214h-1.382V6.745c.065-.017.114-.017.179-.017h4.765c.342 0 .667.05.976.149.65.214 1.009.66 1.122 1.336.033.181.05.362.05.544 0 .528-.017 1.039-.017 1.583.032-.066.049-.115.065-.165.455-1.286 1.252-2.309 2.407-3.018.683-.429 1.448-.66 2.26-.709zm-13.776 0c.26-.016.52.017.78.066v5.162c-.292-.033-.601-.05-.894-.066-.601-.017-1.203.033-1.772.23-1.171.396-1.936 1.221-2.326 2.392-.228.627-.293 1.286-.31 1.962v2.243c0 .033.017.083.017.149h2.082v3.793h-9.368c-.05-.149-.05-3.447-.017-3.793.684 0 1.367.016 2.066 0 .016-.083.016-.149.016-.215v-7.107c0-.512-.227-.743-.732-.743h-1.154c-.065 0-.13-.016-.212-.016V6.728c.049 0 .098-.016.147-.016h4.911c.31 0 .602.05.879.148.634.198.992.644 1.106 1.287.032.148.048.313.048.461.017.43 0 .841 0 1.254 0 .148-.016.297 0 .462.033-.083.05-.149.082-.215.488-1.303 1.317-2.342 2.52-3.034.667-.38 1.383-.577 2.131-.627zm-19.598 4.024c-.813-.33-1.578-.148-2.244.396-.52.428-.765 1.039-.928 1.682-.016.016 0 .05 0 .082h4.392c0-.05.016-.082.016-.132-.032-.23-.049-.461-.114-.692-.179-.594-.52-1.089-1.122-1.336zM16.199 0c1.382 0 2.52 1.154 2.505 2.556-.017 1.385-1.139 2.507-2.521 2.507-1.383-.017-2.489-1.138-2.489-2.54C13.711 1.121 14.817 0 16.2 0z"/>
        <path d="M85.485 2.272c-.744.868-.744 2.295.015 3.147.42.466.93.714 1.55.714.466 0 .9-.14 1.272-.419 1.132-.868 1.21-2.667.14-3.628-.869-.79-2.202-.713-2.977.186zm2.046 3.039c-.14-.326-.279-.667-.418-1.008h-.233v1.008h-.945V2.334c.046 0 .077-.015.124-.015h1.348c.155 0 .31.03.45.093.372.155.527.45.558.821.016.341-.108.62-.418.807-.016.015-.031.015-.047.03 0 0 0 .016-.015.016.201.403.418.79.635 1.21-.372.015-.697.015-1.039.015z"/>
        <path fill="#2D2E2E" fill-rule="nonzero" d="M90.105 3.032C89.578.862 86.99-.07 85.221 1.264c-1.395 1.055-1.69 3.086-.635 4.496.744 1.008 1.767 1.442 3.007 1.24 1.535-.247 2.62-1.596 2.652-3.162-.062-.28-.078-.543-.14-.806zm-1.783 2.682c-.372.279-.79.434-1.271.419-.62 0-1.147-.248-1.55-.714-.76-.852-.76-2.279-.016-3.147.775-.9 2.108-.977 2.977-.201 1.07.96 1.007 2.775-.14 3.643z"/>
        <path fill="#2D2E2E" fill-rule="nonzero" d="M87.935 4.07c.015-.015.03-.015.046-.03.31-.187.434-.466.419-.807-.031-.372-.186-.682-.558-.821-.14-.062-.295-.093-.45-.093-.45-.016-.9 0-1.349 0-.03 0-.077.015-.124.015v2.977h.946V4.303h.232c.14.341.28.682.419 1.008h1.023c-.217-.419-.434-.822-.635-1.21.03-.015.03-.03.03-.03zm-.559-.542c-.124.186-.31.124-.496.124v-.713c.202.015.388-.047.512.14.077.154.077.31-.016.449z"/>
    </g>
</svg>
