<svg xmlns="http://www.w3.org/2000/svg" width="71" height="22" viewBox="0 0 71 22">
    <path fill="#1D1E1E" d="M11.854.242l10.173 7.007c.28.184.467.507.467.876v12.941c-.008.888-.093.888-1.12.888-.56 0-.7-.092-.7-.738V8.954c0-.23-.093-.46-.327-.599l-8.82-6.085c-.187-.138-.42-.138-.56 0C8.027 4.345 5.04 6.373 2.1 8.401c-.14.139-.28.323-.28.553V20.11c0 .277.093.415.42.415h12.787c.327 0 .42-.092.42-.415v-8.528c0-.184-.093-.369-.28-.507-1.213-.83-2.38-1.66-3.593-2.49-.14-.138-.374-.138-.514 0-1.213.83-2.426 1.66-3.593 2.536-.187.138-.28.323-.327.507V16.1c.047.507-.326.921-.84.968-.14 0-.326 0-.467-.093-.326-.138-.513-.414-.513-.737v-5.532c.047-.23.187-.46.373-.645C7.327 8.908 8.96 7.756 10.64 6.65c.374-.277.887-.277 1.214 0 1.633 1.106 3.22 2.212 4.853 3.319.327.184.467.553.467.922v10.418c0 .599-.14.691-.747.691l-7.84-.092H.653c-.56 0-.653-.092-.653-.646V8.08c0-.323.14-.646.42-.784C3.827 4.944 7.234 2.593 10.594.242c.373-.323.886-.323 1.26 0zm58.895 11.063s.046 0 .046.046c.327.185.187.415.094.646-.607 1.429-1.167 2.904-1.774 4.333-.606 1.429-1.166 2.858-1.726 4.241-.28.553-.98.83-1.54.553-.28-.138-.187-.369-.094-.553.327-.738.654-1.521 1.027-2.259.093-.23.093-.507 0-.737-.747-1.798-1.493-3.642-2.193-5.44-.28-.691-.187-.876.56-.876.653 0 .746.046.98.646.513 1.244.98 2.489 1.493 3.734.047.092.093.184.14.322.093-.184.14-.276.187-.415.513-1.244.98-2.489 1.493-3.734.233-.507.793-.691 1.307-.507zm-14.607-.184c.513.138 1.073.23 1.586.415.374.138.42.415.28.784-.186.46-.373.46-.793.368-.467-.138-.933-.184-1.4-.184-.373 0-.653.23-.7.6-.047.368.14.69.467.829.186.092.42.184.606.23l1.074.37c1.633.552 1.493 2.58.466 3.41-1.166.922-3.126.738-4.106.047-.327-.231-.327-.461-.094-.83.187-.323.42-.415.794-.185.56.37 1.213.507 1.866.323.374-.046.7-.323.747-.737.093-.415-.14-.784-.56-.922l-.84-.277c-.327-.092-.607-.23-.933-.323-.98-.46-1.354-1.567-.934-2.535.14-.277.327-.553.607-.738.607-.415 1.213-.599 1.867-.645zm5.366-1.475c.14.092.28.276.28.46.047.277.047.554 0 .877 0 .23.094.276.28.276h.56c.467 0 .607.185.607.646 0 .46-.14.553-.607.599-.84.044-.884.046-.886.752v3.305c0 .645.233.83.886.737.514-.046.7.046.794.553.046.369-.094.553-.607.646-1.073.23-2.193-.277-2.427-1.153-.046-.276-.093-.6-.093-.876V13.15c.093-.23.093-.368.047-.599h-.327c-.513 0-.7-.23-.653-.738.046-.322.186-.553.56-.507.373.046.56-.092.513-.507 0-.138.047-.322.047-.46.046-.646.466-.923 1.026-.692zm-22.26 1.613c.466 0 .606.139.606.6v4.01c0 1.106.7 1.613 1.82 1.337.187-.046.374-.138.514-.23.42-.185.7-.6.653-1.06-.046-1.338 0-2.675 0-3.965 0-.553.14-.692.794-.692.653 0 .746.139.746.692v4.471c0 .461.047.968.14 1.43.094.23-.046.46-.28.552h-.046c-.654.185-.887.093-1.214-.553-.513.23-1.026.461-1.586.6-.607.184-1.307.092-1.867-.185-.7-.276-1.167-.968-1.167-1.705-.047-1.614 0-3.227 0-4.795 0-.23.187-.46.42-.507h.467zm10.92 0c1.26.23 2.007 1.199 2.193 2.582.187 1.383-.093 1.66-1.446 1.613-.98-.046-1.96 0-2.94 0h-.514c-.093.876.56 1.706 1.447 1.798.793.092 1.587-.046 2.287-.415.233-.138.56-.092.7.138 0 0 0 .046.046.046.327.461.28.738-.233.969-1.4.691-3.033.691-4.387.046-1.026-.507-1.4-1.475-1.493-2.49-.047-.737 0-1.475.187-2.212.233-1.107 1.166-1.936 2.333-2.075.607-.092 1.213-.092 1.82 0zM35.514 9.14c.187.046.327.092.467.184.187.138.513.369.467.553-.047.323-.234.6-.42.784-.047.046-.327 0-.467-.046-.887-.415-1.913-.553-2.893-.369-1.027.138-1.867.922-2.1 1.936-.28.968-.28 2.029 0 2.997.373 1.383 1.12 2.028 2.66 2.12.56 0 1.073 0 1.633-.092.233 0 .373-.138.373-.415v-1.706c0-.276-.093-.368-.373-.368h-1.12c-.373 0-.467-.277-.467-.6 0-.322 0-.691.467-.691h2.473c.374 0 .514.23.514.6v3.18c0 .553-.14.83-.7 1.014-.514.138-1.027.23-1.587.277-.887.046-1.773 0-2.66-.139-1.68-.368-2.754-1.751-2.894-3.55-.093-.921-.046-1.843.14-2.765.374-1.798 1.96-3.135 3.827-3.135.887-.092 1.82 0 2.66.23zm13.254 3.319c-.84.138-1.4.876-1.307 1.705.047 0 .094.047.14.047h2.894c.28 0 .28-.185.28-.37-.14-1.106-.934-1.613-2.007-1.382z"/>
</svg>
