<svg xmlns="http://www.w3.org/2000/svg" width="109" height="19" viewBox="0 0 109 19">
    <path fill="#1D1E1E" fill-rule="evenodd" d="M20.77 8.841c-.047-4.722-3.922-8.55-8.76-8.55-4.84 0-8.762 3.828-8.762 8.55 0 4.128 2.998 7.572 6.96 8.351 1.326.261 1.51-3.032 1.146-5.215-.006 0-.4-.023-.531-.028-.272-.01-.53.293-.696.352-.283.1-.337-.175-.541-.175-.18 0-.42.272-1.082.15-.669-.124-.886-.715-.886-.715l-.2-.103c-.683-.166-.72-.894-.725-.935-.039-.357.599-.626.419-.737-.773-.478-.524-.854-.516-.873.098-.254.473-.801.336-.887-.379-.235.243-1.607.79-1.988.083-.434.563-1.144 1.026-1.294-.025-.492.68-.771.68-.771.494-.155.148-.553 1.095-.49.221.015.215-.23.764-.243.16-.004.334-.124.82-.124.854-.037.815.526 1.1.43.36-.12 1.563.455 1.687 1.64.54-.041 1.957 1.48 1.915 2.604.931 1.02-.338 1.986-.389 2.174.037.106.224.57.15.928-.089.421-.635.88-.657.896-.383.269-.667.573-1.122.49-.47-.086-.382-.51-.521-.612-.303.262-.758.485-1.34.439-.07-.01-.323-.036-.355-.04-.28 1.608-.24 5.2.927 5.198 3.52-.524 7.315-3.83 7.268-8.422zm-18.233 0C2.537 4.29 6.183.314 10.78.052 4.19-.54 0 4.025 0 8.842c0 4.815 4.287 9.47 10.78 8.788-4.597-.263-8.243-4.237-8.243-8.789zM13.238.052c4.597.262 8.243 4.237 8.243 8.79 0 4.55-3.646 8.525-8.243 8.788 6.66.571 10.78-3.973 10.78-8.789S19.915-.509 13.238.052zm51.143 9.515h-2.863v-.035c0-.636.13-1.123.388-1.458.259-.336.622-.503 1.09-.503.48 0 .843.176 1.09.53.11.165.188.347.23.547.044.2.065.471.065.812v.107zm2.263-1.192c-.204-.63-.52-1.157-.951-1.581-.308-.306-.702-.542-1.183-.707-.48-.165-.997-.247-1.551-.247-.628 0-1.183.1-1.662.3-.481.2-.918.507-1.312.918-.419.448-.72.955-.905 1.52-.185.565-.277 1.254-.277 2.066 0 .707.104 1.349.314 1.926.209.577.508 1.068.896 1.475.387.406.858.721 1.413.945.554.223 1.17.335 1.847.335 1.22 0 2.337-.365 3.353-1.095.149-.096.169-.24.067-.371l-.628-.927c-.157-.242-.31-.179-.437-.09-.688.478-1.405.717-2.152.717-.64 0-1.133-.189-1.478-.565-.344-.377-.517-.92-.517-1.625v-.07h5.09c.439 0 .378-.549.378-.549 0-.953-.102-1.745-.305-2.375zm36.922 1.157c0-.636.13-1.123.388-1.458.26-.336.622-.503 1.09-.503.48 0 .844.176 1.09.53.11.165.188.347.23.547.044.2.066.471.066.812v.107h-2.864v-.035zm5.053 1.766c.439 0 .378-.548.378-.548 0-.953-.102-1.745-.304-2.375-.204-.63-.521-1.157-.952-1.581-.308-.306-.702-.542-1.182-.707-.48-.165-.998-.247-1.551-.247-.628 0-1.183.1-1.663.3-.48.2-.918.507-1.312.918-.418.448-.72.955-.905 1.52-.184.565-.277 1.254-.277 2.066 0 .707.105 1.349.314 1.926.21.577.508 1.068.896 1.475.388.406.859.721 1.413.945.554.223 1.17.335 1.848.335 1.22 0 2.337-.365 3.353-1.095.148-.096.168-.24.066-.371l-.628-.927c-.156-.242-.31-.179-.436-.09-.688.478-1.406.717-2.153.717-.64 0-1.133-.189-1.477-.565-.345-.377-.518-.92-.518-1.625v-.07h5.09zm-12.94-1.06c-.43 0-.782-.1-1.052-.3-.271-.2-.407-.53-.407-.99 0-.423.13-.753.388-.988.259-.236.621-.354 1.09-.354.468 0 .834.118 1.099.354.265.235.397.565.397.989 0 .86-.505 1.289-1.514 1.289zm4.157-2.544c.344 0 .652-.053.923-.158.194-.076.387-.185.58-.327.16-.106.179-.289.057-.441l-.62-.899c-.14-.226-.258-.293-.507-.135-.209.147-.43.268-.664.362-.34.135-.68.203-1.025.203-.16 0-.33-.018-.509-.053-.178-.035-.397-.082-.655-.141-.345-.083-.647-.141-.905-.177-.258-.035-.524-.053-.794-.053-.604 0-1.152.074-1.645.221-.492.147-.91.353-1.256.618-.344.265-.613.586-.803.962-.191.378-.286.796-.286 1.255 0 1.342.677 2.179 2.031 2.508-.394.095-.705.2-.932.318-.228.118-.4.242-.517.371-.118.13-.195.265-.231.406-.037.142-.056.283-.056.424 0 .307.064.56.194.76.13.2.305.341.527.424.43.176 1.188.27 2.271.282l1.054.018c.492.012.905.091 1.237.238.333.148.5.427.5.839 0 .189-.057.363-.167.522-.112.159-.259.292-.444.397-.197.118-.425.197-.683.239-.258.04-.549.061-.869.061-.578 0-1.019-.094-1.32-.283-.302-.188-.453-.465-.453-.83 0-.13.007-.232.019-.309.012-.077.043-.302-.183-.273H91.69c-.05.094-.1.209-.148.344-.05.135-.074.326-.074.574 0 .613.259 1.148.776 1.608.431.376.966.632 1.607.767.64.136 1.3.204 1.976.204.739 0 1.44-.088 2.107-.265.664-.177 1.206-.477 1.624-.9.505-.52.758-1.144.758-1.874 0-.8-.272-1.442-.813-1.925-.332-.293-.715-.5-1.145-.618-.431-.117-1.004-.182-1.718-.194l-1.33-.018c-.271 0-.406-.07-.406-.212 0-.13.083-.25.25-.362.166-.112.409-.238.729-.38.098.012.166.018.203.018h.167c.504 0 .97-.067 1.393-.203.425-.135.795-.32 1.11-.556.313-.236.557-.519.729-.848.172-.33.258-.69.258-1.078 0-.306-.046-.577-.138-.812-.093-.236-.23-.46-.416-.672.074.012.169.024.286.035.117.012.237.018.36.018zm-11.693 5.37c-.184.2-.388.354-.61.46-.22.106-.449.158-.682.158-.32 0-.582-.108-.786-.326-.203-.218-.304-.504-.304-.857 0-.542.169-.906.508-1.095.339-.188.938-.283 1.801-.283h.11l-.037 1.943zm2.854.592c-.117-.135-.206-.28-.267-.433-.062-.153-.1-.32-.111-.503-.013-.183-.019-.398-.019-.645l.055-3.038v-.618c0-.165-.009-.306-.027-.424-.018-.118-.037-.22-.055-.31-.02-.088-.047-.179-.083-.273-.185-.506-.54-.895-1.063-1.166-.523-.27-1.185-.406-1.985-.406-.432 0-.853.041-1.266.124-.413.082-.852.217-1.32.406-.333.13-.61.247-.832.353-.128.061-.262.131-.398.209-.225.136-.201.3-.139.445l.702 1.13c.145.217.315.199.503.106.4-.236.782-.425 1.143-.565.455-.177.88-.265 1.274-.265.456 0 .755.097.896.291.141.194.213.545.213 1.051v.371c-.1-.012-.192-.018-.278-.018h-.277c-1.514 0-2.65.25-3.408.751-.757.501-1.136 1.287-1.136 2.358 0 .907.277 1.605.831 2.093.555.489 1.36.734 2.42.734.788 0 1.423-.166 1.903-.495.098-.059.194-.13.286-.212.093-.082.188-.17.286-.265.123.236.305.448.545.636.142.11.292.207.447.296.242.14.411.088.599-.112.254-.272.635-.686.85-.952.09-.11.14-.264-.02-.394-.109-.088-.196-.177-.269-.26zm-8.425.014c-.035-.153-.193-.16-.298-.133-.106.027-.197.049-.272.066-.13.03-.25.044-.36.044-.432 0-.718-.097-.86-.291-.14-.195-.212-.58-.212-1.157v-4.54h1.589l.503-1.303c.09-.25-.066-.322-.204-.322H80.57c0-.46.012-.928.037-1.404.015-.292.035-.571.06-.838.045-.439-.272-.407-.472-.37l-1.99.475c-.048.341-.076.671-.082.989-.006.318-.01.7-.01 1.148h-.941v1.625h.942v4.91c0 .213.003.386.01.521.005.136.011.251.017.345.006.095.021.183.047.265.024.083.055.171.092.265.148.401.453.721.914.963.461.24 1.007.362 1.635.362.598 0 1.21-.114 1.839-.34.092-.04.158-.103.136-.241-.06-.264-.17-.762-.232-1.04zM74.974 2.077c-.432 0-.797.142-1.099.425-.302.282-.453.63-.453 1.042 0 .412.148.76.443 1.042.296.282.653.424 1.072.424.43 0 .794-.142 1.09-.424.295-.283.443-.63.443-1.042 0-.413-.145-.76-.434-1.042-.29-.283-.644-.425-1.062-.425zm.968 3.78l-2.002.3c-.228.039-.241.107-.241.25v8.425c0 .195.119.246.263.246h1.994c.173 0 .218-.047.218-.232V6.054c0-.217-.077-.22-.232-.197zm-3.153 0c-.117-.023-.267-.035-.452-.035-.469 0-.887.13-1.256.389-.37.259-.69.56-.961.9-.037-.482-.166-.911-.388-1.29l-2.216.567c.098.259.182.612.249 1.06.068.447.102.977.102 1.589v5.777c0 .12.062.264.263.264h1.938c.158 0 .274-.045.274-.264v-6.13c.455-.506.96-.76 1.514-.76.129 0 .255.002.38.03.228.033.371.068.452-.192l.454-1.381c.11-.338-.06-.45-.353-.524zM57.766 2.802H55.66c-.247 0-.284.071-.284.28v4.489h-3.694V3.082c0-.259-.125-.29-.373-.28h-1.887c-.27 0-.308.086-.308.29v11.704c0 .215.103.282.238.282h2.051c.15 0 .279-.033.279-.273V9.602h3.694v5.199c0 .19.129.277.288.277h2.084c.175 0 .25-.095.25-.264V3.073c0-.224-.077-.271-.232-.271zm-9.484 3.232h-2.035c-.222 0-.268.034-.325.227l-1.35 4.083c-.074.212-.144.436-.212.671-.068.236-.12.43-.157.583l-.093.406c-.036.166-.07.321-.1.469-.032.147-.056.276-.075.388-.018.112-.028.174-.028.186l-.498-1.873-1.565-5.025c-.063-.2-.199-.24-.368-.224l-1.944.217c-.233.026-.268.143-.206.296l3.03 8.64h.628c-.062.13-.11.241-.148.336-.037.094-.074.18-.11.256-.038.076-.078.15-.121.22-.043.071-.095.153-.157.248-.21.317-.443.565-.702.742-.184.13-.418.244-.702.345-.18.063-.359.121-.534.173-.195.065-.224.217-.144.361.167.306.43.79.582 1.065.083.163.25.196.401.166.327-.06.641-.142.942-.247.388-.135.742-.315 1.062-.539.173-.117.333-.259.48-.423.148-.165.293-.362.434-.592.142-.23.287-.507.435-.83.148-.325.302-.704.462-1.14l3.334-8.912c.093-.259-.051-.273-.216-.273zM38.361 3.07c-.028-.216-.11-.268-.334-.268h-2.704c-.16 0-.291.04-.353.275l-1.658 5.819c-.197.718-.35 1.383-.462 1.996-.025-.153-.052-.3-.083-.442-.03-.142-.062-.286-.092-.433-.03-.147-.068-.306-.111-.477-.043-.17-.096-.367-.157-.591l-1.608-5.88c-.088-.265-.24-.267-.417-.267h-2.708c-.217 0-.268.115-.282.285L26.246 14.8c-.017.206.104.273.311.278h1.886c.2 0 .333-.04.362-.264l.425-6.148c.024-.377.043-.748.055-1.113.025-.341.037-.683.037-1.024.061.33.141.683.24 1.06.098.388.191.735.277 1.041 0 0 1.412 4.975 1.754 6.185.057.181.141.263.342.263h1.61c.26-.01.324-.039.398-.254l1.955-6.458c.11-.377.2-.698.268-.963.067-.265.138-.574.212-.928 0 .33.01.657.028.98.018.325.04.681.065 1.07 0 0 .397 5.196.464 6.334.012.205.119.219.27.219h2.027c.131 0 .248-.058.225-.264-.184-1.61-.944-10.12-1.096-11.744z"/>
</svg>
