<svg xmlns="http://www.w3.org/2000/svg" width="76" height="13" viewBox="0 0 76 13">
    <path fill="#1D1E1E" fill-rule="evenodd" d="M14.482 6.05C14.45 2.818 11.747.2 8.373.2 5 .2 2.265 2.819 2.265 6.05c0 2.823 2.09 5.18 4.853 5.713.924.179 1.052-2.075.799-3.568l-.37-.02c-.19-.007-.37.2-.486.242-.197.068-.235-.12-.378-.12-.125 0-.292.186-.754.102-.466-.085-.617-.489-.617-.489l-.14-.07c-.476-.114-.502-.612-.506-.64-.026-.244.418-.428.293-.504-.54-.327-.365-.585-.36-.598.069-.173.33-.548.234-.606-.264-.162.17-1.1.551-1.36.058-.298.393-.783.716-.886-.018-.337.474-.528.474-.528.344-.106.103-.378.763-.335.154.01.15-.158.533-.166.111-.003.233-.085.572-.085.595-.025.568.36.767.294.251-.082 1.089.312 1.176 1.122.376-.028 1.364 1.013 1.335 1.782.65.698-.236 1.36-.271 1.487.025.073.156.39.104.636-.061.288-.442.602-.458.612-.267.184-.464.393-.782.336-.328-.06-.266-.349-.364-.419-.21.18-.528.332-.934.3-.048-.007-.224-.024-.247-.027-.195 1.1-.168 3.558.646 3.557 2.454-.36 5.1-2.621 5.068-5.763zm-12.713 0C1.77 2.934 4.311.214 7.516.035 2.921-.37 0 2.754 0 6.049s2.99 6.48 7.517 6.014c-3.206-.18-5.748-2.9-5.748-6.014zM9.23.035c3.206.179 5.748 2.899 5.748 6.013 0 3.115-2.542 5.834-5.748 6.014 4.644.39 7.517-2.719 7.517-6.014 0-3.295-2.862-6.398-7.517-6.013zm35.66 6.51h-1.997v-.024c0-.436.09-.768.27-.998.181-.23.434-.344.76-.344.336 0 .589.12.76.363.078.113.132.237.161.374.03.137.046.323.046.556v.073zm1.577-.816c-.142-.431-.362-.792-.663-1.082-.215-.21-.49-.37-.824-.483-.335-.113-.696-.17-1.082-.17-.438 0-.825.07-1.16.206-.334.137-.639.347-.914.628-.292.307-.502.653-.63 1.04-.13.387-.194.858-.194 1.414 0 .484.073.923.22 1.317.145.395.353.731.624 1.01.27.277.598.493.985.646.386.153.816.23 1.288.23.85 0 1.63-.25 2.338-.75.104-.065.118-.164.047-.254l-.439-.633c-.109-.166-.215-.123-.304-.062-.48.327-.98.49-1.5.49-.447 0-.79-.129-1.03-.387-.241-.257-.361-.628-.361-1.111V7.73h3.548c.306 0 .264-.374.264-.374 0-.653-.071-1.195-.213-1.626zm25.744.792c0-.436.09-.768.27-.998.182-.23.434-.344.76-.344.336 0 .589.12.761.363.077.113.13.237.16.374s.046.323.046.556v.073H72.21v-.024zm3.523 1.208c.306 0 .264-.374.264-.374 0-.653-.071-1.195-.212-1.626-.142-.431-.363-.792-.664-1.082-.215-.21-.49-.37-.824-.483-.335-.113-.696-.17-1.082-.17-.437 0-.824.07-1.16.206-.334.137-.639.347-.914.628-.291.307-.502.653-.63 1.04-.13.387-.194.858-.194 1.414 0 .484.073.923.22 1.317.145.395.353.731.624 1.01.27.277.599.493.985.646.387.153.816.23 1.288.23.85 0 1.63-.25 2.338-.75.104-.065.118-.164.047-.254l-.439-.633c-.108-.166-.215-.123-.303-.062-.48.327-.98.49-1.501.49-.447 0-.79-.129-1.03-.387-.241-.257-.361-.628-.361-1.111V7.73h3.548zm-9.021-.725c-.301 0-.546-.068-.735-.206-.188-.136-.283-.362-.283-.676 0-.29.09-.516.27-.677.18-.161.433-.242.76-.242s.581.08.766.242c.185.161.277.387.277.677 0 .588-.352.882-1.055.882zm2.897-1.74c.24 0 .455-.037.644-.109.135-.052.27-.126.405-.223.111-.073.124-.198.039-.303l-.432-.614c-.097-.155-.18-.201-.354-.093-.145.101-.3.184-.463.248-.236.093-.474.139-.715.139-.111 0-.23-.012-.354-.036-.124-.025-.277-.056-.457-.097-.24-.056-.45-.097-.631-.12-.18-.025-.365-.037-.554-.037-.42 0-.803.05-1.146.151-.344.1-.636.241-.876.423-.24.181-.427.4-.56.658-.133.259-.2.544-.2.859 0 .918.472 1.49 1.417 1.716-.275.064-.492.137-.65.217-.16.081-.28.166-.36.254-.083.089-.136.181-.162.278-.026.097-.039.193-.039.29 0 .21.045.383.136.52.09.137.212.234.367.29.3.12.828.185 1.584.193l.734.013c.343.007.63.062.863.162.232.101.348.292.348.574 0 .13-.04.249-.116.357-.078.11-.18.2-.31.272-.137.08-.296.135-.476.163-.18.028-.382.042-.606.042-.403 0-.71-.064-.92-.193-.21-.129-.316-.318-.316-.568 0-.089.005-.16.013-.212.009-.052.03-.206-.127-.186H63.93c-.035.064-.07.142-.103.235-.035.092-.052.223-.052.393 0 .419.18.785.541 1.1.3.257.674.432 1.12.525.447.093.906.14 1.378.14.515 0 1.005-.06 1.469-.182.463-.12.841-.326 1.133-.616.352-.355.528-.782.528-1.282 0-.547-.19-.986-.567-1.317-.232-.2-.498-.342-.798-.423-.3-.08-.7-.125-1.198-.133l-.927-.012c-.19 0-.284-.048-.284-.145 0-.088.058-.171.174-.248.116-.076.286-.163.509-.26.069.009.116.013.141.013h.117c.352 0 .676-.047.972-.14.296-.092.554-.219.773-.38.219-.161.388-.355.508-.58.12-.226.18-.472.18-.737 0-.21-.031-.395-.096-.556-.064-.161-.16-.314-.29-.46.052.009.118.016.2.024.082.008.165.013.251.013zm-8.152 3.674c-.13.137-.27.241-.425.314-.154.073-.314.109-.477.109-.223 0-.405-.075-.547-.224-.142-.15-.213-.344-.213-.586 0-.37.119-.62.355-.75.236-.128.654-.193 1.256-.193h.077l-.026 1.33zm1.99.405c-.082-.093-.144-.192-.187-.297-.043-.104-.07-.219-.077-.344-.009-.125-.013-.272-.013-.441l.038-2.08V5.76c0-.113-.006-.21-.02-.29-.012-.08-.025-.15-.037-.211-.014-.06-.033-.123-.058-.188-.13-.346-.376-.612-.741-.797-.365-.186-.826-.278-1.384-.278-.301 0-.595.028-.883.084-.288.057-.594.15-.92.278-.232.089-.426.17-.58.242-.09.042-.183.09-.278.143-.157.093-.14.206-.097.304l.49.773c.1.15.22.137.35.073.28-.162.545-.29.797-.387.317-.12.614-.181.889-.181.317 0 .526.067.624.2.099.132.148.372.148.719v.253c-.068-.008-.133-.012-.193-.012h-.193c-1.056 0-1.848.171-2.376.514-.528.343-.792.88-.792 1.613 0 .62.193 1.098.58 1.432.386.335.948.502 1.686.502.55 0 .992-.113 1.327-.338.068-.04.135-.09.2-.145l.2-.181c.085.16.211.306.38.434.098.076.203.142.31.203.17.096.287.06.418-.077.177-.186.443-.469.593-.65.062-.076.097-.181-.014-.27-.076-.06-.137-.121-.187-.178zm-5.875.01c-.025-.106-.135-.11-.207-.092l-.19.046c-.09.02-.174.03-.252.03-.3 0-.5-.067-.599-.2-.098-.133-.148-.397-.148-.792V5.241h1.108s.224-.568.35-.892c.064-.17-.045-.22-.142-.22h-1.316c0-.315.009-.635.026-.961.01-.2.024-.39.041-.574.032-.3-.189-.278-.328-.253l-1.387.325c-.034.234-.054.46-.058.677-.004.217-.006.48-.006.785h-.657v1.113h.657V8.6c0 .144.002.263.006.356.004.093.008.171.013.235.004.065.015.126.032.182.017.056.039.117.064.181.104.274.316.494.638.659.322.165.702.248 1.14.248.416 0 .844-.078 1.282-.233.064-.027.11-.07.095-.165l-.162-.71zM52.275 1.42c-.3 0-.556.097-.766.29-.21.194-.315.431-.315.714 0 .282.103.52.308.712.206.194.456.29.747.29.3 0 .554-.096.76-.29.206-.193.31-.43.31-.712 0-.283-.102-.52-.303-.713-.202-.194-.45-.29-.74-.29zm.676 2.586c-.327.05-1.065.157-1.397.206-.158.026-.168.073-.168.17v5.766c0 .133.083.167.184.167h1.39c.12 0 .152-.031.152-.158V4.142c0-.149-.054-.15-.161-.135zm-2.199 0c-.081-.015-.186-.024-.315-.024-.327 0-.619.09-.876.266-.258.178-.481.383-.67.617-.026-.33-.116-.624-.27-.883l-1.546.388c.069.177.127.418.174.725.047.306.071.668.071 1.087v3.953c0 .083.043.18.183.18h1.352c.11 0 .19-.03.19-.18V5.941c.318-.346.67-.52 1.057-.52.09 0 .177.002.264.021.16.023.26.047.316-.131l.316-.945c.076-.232-.042-.308-.246-.358zm-10.475-2.09H38.81c-.173 0-.198.049-.198.192V5.18h-2.576V2.109c0-.177-.087-.198-.26-.192H34.46c-.189 0-.215.06-.215.198v8.009c0 .147.072.192.166.192h1.43c.105 0 .194-.022.194-.186V6.57h2.576v3.557c0 .13.09.19.2.19h1.454c.122 0 .174-.066.174-.181V2.102c0-.153-.054-.185-.162-.185zm-6.612 2.211h-1.42c-.154 0-.186.024-.226.156l-.941 2.793c-.052.146-.1.299-.148.46-.048.161-.084.294-.11.399l-.064.277c-.026.114-.05.22-.07.32-.022.101-.04.19-.052.267-.013.076-.02.119-.02.127l-.347-1.281-1.091-3.439c-.044-.136-.139-.163-.257-.153l-1.355.148c-.163.018-.187.098-.144.203l2.112 5.911h.439c-.044.089-.078.166-.103.23-.026.065-.052.123-.078.175-.026.053-.054.103-.084.151-.03.049-.066.105-.109.17-.146.217-.309.386-.49.507-.128.089-.291.167-.49.236-.125.043-.25.083-.372.119-.136.045-.156.148-.1.247l.406.729c.058.111.174.134.28.113.228-.04.447-.097.656-.169.27-.092.518-.216.741-.368.12-.08.232-.178.335-.29.103-.113.204-.248.302-.405.1-.157.2-.347.303-.568.103-.222.21-.482.322-.78l2.325-6.098c.065-.177-.036-.187-.15-.187zM26.747 2.1c-.02-.147-.076-.183-.233-.183h-1.885c-.112 0-.203.028-.246.188l-1.156 3.981c-.138.492-.245.947-.322 1.366-.018-.104-.037-.205-.058-.302-.022-.097-.043-.195-.064-.296-.022-.1-.048-.21-.078-.326-.03-.117-.067-.252-.11-.405L21.476 2.1c-.062-.181-.168-.183-.291-.183h-1.889c-.15 0-.187.08-.196.195l-.799 8.014c-.012.141.073.187.217.19h1.315c.139 0 .232-.027.252-.18l.296-4.207c.018-.258.03-.511.039-.761.017-.234.026-.467.026-.7.043.225.098.466.167.724.069.266.133.504.193.713l1.223 4.231c.04.125.099.18.239.18h1.122c.18-.006.226-.026.278-.174l1.363-4.418c.077-.258.14-.477.186-.659.048-.181.097-.393.149-.634 0 .225.006.449.019.67l.045.732s.277 3.555.324 4.334c.008.14.083.15.188.15h1.414c.09 0 .172-.04.156-.181-.128-1.102-.658-6.925-.764-8.036z"/>
</svg>
