<svg xmlns="http://www.w3.org/2000/svg" width="58" height="28" viewBox="0 0 58 28">
    <g fill="none">
        <path fill="#1D1E1E" d="M14.193 10.472c.011-.735-.819-1.584-1.528-1.567-.166.005-.329.023-.39.2-.091.266.101.329.298.36.656.106 1 .492 1.066 1.146.018.178.13.321.302.301.238-.028.259-.24.252-.44m1.214.288c.013-1.522-1.291-2.907-2.888-3.1-.25-.03-.578-.147-.636.199-.06.362.306.325.541.378 1.598.357 2.155.94 2.418 2.525.038.231-.038.59.355.531.291-.044.186-.353.21-.533m14.586-3.084c-.06-.714-.462-1.124-1.146-1.2-.643-.07-1.222.536-1.218 1.2.004.684.55 1.227 1.226 1.185.73-.045 1.057-.5 1.138-1.185m-17.906-1.29c-.187.026-.575-.13-.6.29-.016.284.311.237.526.27 2.588.398 3.781 1.629 4.11 4.235.031.241-.058.603.285.61.36.007.272-.35.276-.591.03-2.455-2.11-4.731-4.597-4.815m15.602 6.951c0 .83.013 1.66-.003 2.489-.015.726.31 1.209 1.03 1.234.723.025 1.094-.44 1.095-1.165.004-1.723.009-3.446-.003-5.168-.005-.66-.294-1.116-1.02-1.123-.759-.008-1.091.428-1.096 1.15-.006.86-.001 1.722-.003 2.583m19.216-.394c0 .991-.015 1.982.006 2.972.014.62.339 1.066.97 1.113.676.05 1.09-.357 1.159-1.018.06-.57.092-1.155.026-1.721-.187-1.622.099-2.909 1.953-3.345.448-.106.617-.508.516-.995-.104-.505-.411-.785-.9-.862-.434-.069-.827.066-1.152.357-.23.205-.359.367-.633-.022-.305-.433-.814-.442-1.305-.234-.475.202-.647.574-.643 1.07.01.895.003 1.79.003 2.685M14.69 16.973c.806.008 1.75-.768 2.023-1.539.263-.741-.292-1.036-.731-1.389-.323-.26-.669-.493-1.008-.732-.678-.476-1.298-.513-1.804.253-.284.43-.681.449-1.097.26-1.146-.52-2.031-1.32-2.55-2.485-.23-.516-.226-.978.31-1.342.285-.193.57-.421.548-.842-.03-.55-1.364-2.385-1.89-2.579-.218-.08-.435-.075-.657 0-1.235.415-1.746 1.43-1.256 2.633 1.46 3.588 4.033 6.085 7.572 7.61.202.086.427.121.54.152m28.614-3.192c.543 0 1.086.005 1.63-.002 1.156-.015 1.473-.412 1.25-1.556-.396-2.045-2.144-3.405-4.12-3.209-1.96.195-3.416 1.928-3.392 4.083.019 1.67.69 3.012 2.266 3.686 1.622.693 3.195.398 4.622-.609.454-.32.698-.77.33-1.32-.323-.48-.75-.539-1.25-.268-.337.182-.674.373-1.03.51-.98.376-2.159.025-2.547-.725-.194-.375-.182-.602.325-.592.639.011 1.278.003 1.916.002m-20.621-.633c-.784-2.107-1.452-3.93-2.142-5.744-.246-.643-.641-1.165-1.439-.881-.79.28-.946.885-.657 1.627 1.043 2.675 2.087 5.35 3.14 8.02.198.502.519.892 1.127.88.558-.012.866-.367 1.058-.837.326-.797.635-1.6.95-2.403.745-1.901 1.496-3.8 2.23-5.705.264-.689.144-1.278-.613-1.564-.721-.273-1.156.11-1.441.728-.12.26-.212.534-.312.802l-1.901 5.077m8.08-1.462c0 1.344.005 2.688-.002 4.031-.002.514.121.963.619 1.2.49.233.957.15 1.286-.283.222-.29.336-.2.595-.042 1.62.991 3.39.53 4.35-1.111.943-1.612.849-3.246.007-4.85-.73-1.39-2.166-1.95-3.668-1.504-1.063.316-1.063.316-1.065-.842 0-.16-.006-.32.001-.48.034-.735-.218-1.326-1.022-1.333-.85-.007-1.11.605-1.104 1.375.01 1.28.002 2.56.003 3.84m-1.202 11.19c-3.997.053-8.377-.057-12.751-.324-.459-.027-.707.177-.97.473-1.13 1.265-2.262 2.527-3.407 3.778-.18.198-.348.56-.674.425-.324-.134-.184-.508-.187-.78-.012-1.057-.052-2.115.01-3.168.05-.824-.153-1.194-1.071-1.22-1.146-.03-2.304-.173-3.424-.419C3.135 20.775.532 18.618.163 14.21 0 12.29-.114 10.378.188 8.472.82 4.489 3.115 2.228 7.073 1.577 12.83.629 18.64.328 24.462.222c6.08-.111 12.155.102 18.224.42 2.938.154 5.86.539 8.742 1.147 3.456.73 5.821 3.388 6.113 6.986.167 2.068.203 4.156-.107 6.225-.414 2.758-1.93 4.68-4.472 5.794-2.2.964-4.545 1.282-6.911 1.444-5.362.368-10.727.674-16.49.639"/>
        <path fill="#FAF9FB" d="M36.127 13.11c.015-1.2-.66-2.12-1.573-2.143-.953-.026-1.652.831-1.67 2.047-.017 1.17.685 2.128 1.581 2.155.938.028 1.647-.85 1.662-2.06m-5.364-1.423c0-1.28.006-2.56-.003-3.839-.006-.77.254-1.382 1.104-1.375.804.007 1.056.598 1.022 1.333-.007.16 0 .32 0 .48 0 1.158 0 1.158 1.064.842 1.502-.445 2.939.115 3.668 1.505.842 1.603.936 3.237-.006 4.849-.96 1.641-2.731 2.102-4.35 1.111-.26-.159-.374-.249-.596.042-.329.433-.797.516-1.286.283-.498-.238-.621-.686-.619-1.2.007-1.343.002-2.687.002-4.03M22.683 13.148l1.9-5.077c.101-.268.193-.542.313-.802.286-.618.72-1 1.44-.728.758.286.878.875.613 1.564-.733 1.905-1.484 3.804-2.23 5.705-.314.802-.623 1.606-.95 2.403-.192.47-.499.825-1.057.836-.608.013-.929-.377-1.127-.878-1.053-2.671-2.097-5.346-3.14-8.021-.289-.742-.133-1.347.657-1.627.798-.284 1.193.238 1.439.881.69 1.814 1.358 3.637 2.142 5.744"/>
        <path fill="#F9F7F9" d="M42.366 12.326c.19 0 .384.024.57-.005.352-.054.913.213 1.014-.183.132-.521-.298-.944-.778-1.18-.626-.308-1.235-.253-1.767.23-.286.259-.603.586-.462.97.13.356.56.118.852.164.186.03.38.006.57.004m.94 1.455c-.64 0-1.279.01-1.917-.002-.507-.01-.519.217-.325.592.388.75 1.567 1.101 2.548.724.355-.137.692-.327 1.029-.51.499-.27.927-.211 1.25.27.368.548.125.998-.33 1.32-1.427 1.006-3 1.3-4.622.608-1.577-.674-2.247-2.016-2.266-3.686-.024-2.155 1.431-3.888 3.392-4.083 1.976-.196 3.724 1.164 4.12 3.21.223 1.143-.094 1.54-1.25 1.555-.544.007-1.087.002-1.63.002"/>
        <path fill="#FAF9FB" d="M14.69 16.973c-.113-.031-.338-.066-.54-.153-3.54-1.524-6.111-4.021-7.572-7.609-.49-1.202.021-2.218 1.256-2.633.222-.075.439-.08.657 0 .526.194 1.86 2.03 1.89 2.579.023.42-.263.649-.547.842-.537.364-.54.826-.31 1.342.518 1.165 1.403 1.965 2.549 2.485.416.189.813.17 1.097-.26.506-.766 1.126-.729 1.804-.253.34.239.685.472 1.008.732.439.353.993.648.731 1.389-.273.77-1.217 1.547-2.023 1.54"/>
        <path fill="#F9F7F9" d="M46.905 12.942c0-.895.006-1.79-.003-2.685-.004-.495.168-.868.643-1.07.49-.208 1-.2 1.305.234.274.39.404.227.633.022.325-.291.718-.426 1.152-.357.489.077.796.357.9.862.101.487-.068.89-.516.995-1.854.436-2.14 1.723-1.953 3.345.066.566.034 1.152-.026 1.721-.07.661-.483 1.068-1.159 1.018-.631-.047-.956-.493-.97-1.113-.021-.99-.006-1.981-.006-2.972"/>
        <path fill="#FAF9FB" d="M27.69 13.336c0-.861-.004-1.723.002-2.584.005-.721.337-1.156 1.095-1.15.727.008 1.016.464 1.02 1.123.013 1.723.008 3.446.004 5.17-.001.724-.372 1.189-1.095 1.164-.72-.025-1.045-.508-1.03-1.234.016-.83.004-1.66.004-2.489"/>
        <path fill="#EFE9F3" d="M12.087 6.385c2.486.084 4.627 2.36 4.596 4.815-.002.24.084.598-.275.59-.344-.006-.254-.368-.284-.609-.33-2.607-1.523-3.837-4.111-4.235-.215-.033-.542.014-.526-.27.025-.42.413-.264.6-.29"/>
        <path fill="#F9F7F9" d="M29.993 7.676c-.08.684-.407 1.14-1.138 1.185-.676.042-1.222-.5-1.226-1.185-.004-.664.575-1.27 1.218-1.2.684.076 1.085.486 1.146 1.2"/>
        <path fill="#EFE9F3" d="M15.407 10.76c-.024.18.08.489-.21.533-.393.06-.317-.3-.355-.531-.263-1.586-.82-2.168-2.418-2.525-.235-.052-.602-.016-.54-.378.057-.346.386-.228.635-.198 1.597.191 2.901 1.577 2.888 3.1"/>
        <path fill="#EFE9F3" d="M14.193 10.471c.007.201-.014.413-.252.441-.172.02-.284-.123-.302-.3-.065-.655-.41-1.041-1.066-1.147-.197-.031-.39-.094-.298-.36.061-.178.224-.195.39-.2.71-.017 1.54.832 1.528 1.566"/>
        <path fill="#1D1E1E" d="M36.127 13.11c-.015 1.208-.724 2.087-1.662 2.059-.896-.027-1.598-.984-1.581-2.155.018-1.216.717-2.073 1.67-2.047.914.024 1.588.942 1.573 2.142M42.366 12.327c-.19 0-.385.024-.571-.005-.293-.046-.721.192-.852-.163-.141-.385.176-.712.462-.972.532-.482 1.141-.537 1.767-.229.48.237.91.659.778 1.18-.1.396-.662.129-1.014.183-.186.029-.38.005-.57.006"/>
    </g>
</svg>
