<svg xmlns="http://www.w3.org/2000/svg" width="27" height="29" viewBox="0 0 27 29">
    <g fill="#1D1E1E">
        <path d="M13.856 16.292c-.897 0-1.426.698-1.426 1.56 0 .861.53 1.56 1.426 1.56.897 0 1.426-.699 1.426-1.56 0-.862-.53-1.56-1.426-1.56M8.354 16.292h-.53v1.847h.53c.652 0 .897-.37.897-.903s-.245-.944-.897-.944"/>
        <path d="M21.028 10.219h-1.426v4.309h-1.467v-4.31h-1.427v-1.23h4.32v1.23zm-3.504 10.506c-.408-.042-.775-.37-.775-.821 0-.493.367-.82.775-.82.407 0 .774.327.774.82 0 .492-.367.82-.774.82zm-3.668 0c-1.549-.042-2.894-1.19-2.894-2.873 0-1.683 1.345-2.832 2.894-2.832 1.548 0 2.893 1.19 2.893 2.832 0 1.682-1.345 2.873-2.893 2.873zm-5.42-1.314h-.612v1.19H6.398v-5.54h2.038c1.467 0 2.282.944 2.282 2.176 0 1.23-.815 2.174-2.282 2.174zM7.539 8.987l1.223 2.257 1.182-2.257h1.507L9.455 12.6v1.929H7.987V12.64L5.95 8.987h1.59zm6.358-.04c1.548 0 2.893 1.19 2.893 2.831 0 1.683-1.345 2.873-2.893 2.873-1.549-.041-2.894-1.19-2.894-2.873 0-1.683 1.345-2.832 2.894-2.832zM13.489.41C6.039.41-.001 6.676-.001 14.404 0 22.134 6.04 28.4 13.49 28.4s13.49-6.266 13.49-13.995c0-7.728-6.04-13.994-13.49-13.994z"/>
        <path d="M13.856 13.338c.937 0 1.426-.698 1.426-1.56 0-.862-.53-1.56-1.426-1.56-.897 0-1.426.698-1.426 1.56 0 .862.53 1.56 1.426 1.56"/>
    </g>
</svg>
