<svg xmlns="http://www.w3.org/2000/svg" width="49" height="15" viewBox="0 0 49 15">
    <path fill="#1D1E1E" fill-rule="evenodd" d="M26.139 2.009v2.868h2.665V6.23h-2.665v5.348c0 1.23.36 1.926 1.395 1.926.487 0 .825-.062 1.08-.123l.084 1.353c-.36.163-.93.266-1.67.266-.847 0-1.566-.287-2.01-.758-.486-.574-.698-1.435-.698-2.603V6.23h-1.586V4.877h1.586V2.48l1.819-.471zm8.079 2.643c3.32 0 4.208 2.828 4.208 4.651 0 .37-.042.656-.085.84h-7.169c.043 2.44 1.629 3.443 3.51 3.443 1.333 0 2.158-.226 2.835-.512l.317 1.291c-.635.287-1.776.635-3.405.635-3.151 0-5.033-2.029-5.033-5 0-3.012 1.819-5.348 4.822-5.348zM48.916.226v12.007c0 .861.042 1.845.084 2.541h-1.65l-.084-1.72h-.064C46.652 14.18 45.405 15 43.755 15c-2.496 0-4.399-2.029-4.399-5.02-.02-3.32 2.094-5.328 4.59-5.328 1.565 0 2.622.697 3.087 1.495h.043V.226h1.84zM7.72.82c1.65 0 2.96.369 3.552.635l-.444 1.455c-.761-.328-1.713-.594-3.15-.594-3.47 0-5.732 2.09-5.732 5.553 0 3.504 2.157 5.574 5.498 5.574 1.206 0 2.03-.164 2.454-.37V8.956H7V7.52h4.695v6.64c-.825.287-2.453.758-4.377.758-2.158 0-3.934-.533-5.33-1.824C.762 11.946 0 10.103 0 7.951.021 3.852 2.94.82 7.72.82zm7.93 4.057v9.898h-1.84V4.877h1.84zM21.973 0c.677 0 1.29.144 1.607.308l-.317 1.372c-.296-.122-.634-.245-1.142-.245-1.565 0-1.967 1.352-1.967 2.889v.553h2.475V6.23h-2.475v8.545h-1.84V6.23h-1.438V4.877h1.438v-.491c0-1.394.317-2.664 1.185-3.463C20.197.267 21.127 0 21.973 0zm22.332 6.066c-1.924 0-3.087 1.618-3.087 3.811 0 2.008 1.036 3.689 3.045 3.689 1.248 0 2.368-.82 2.728-2.173.063-.246.085-.491.085-.778V8.894c0-.226-.022-.533-.064-.758-.296-1.148-1.311-2.07-2.707-2.07zm-10.257-.123c-1.882 0-2.707 1.66-2.855 2.91h5.435c.021-1.127-.486-2.91-2.58-2.91zm-19.307-5c.676 0 1.141.492 1.163 1.127 0 .614-.466 1.106-1.185 1.106-.677 0-1.142-.492-1.12-1.106-.022-.615.465-1.127 1.142-1.127z"/>
</svg>
