<svg xmlns="http://www.w3.org/2000/svg" width="32" height="32" viewBox="0 0 32 32">
    <g fill="none">
        <circle cx="16" cy="16" r="16" fill="#D6AFFF"/>
        <path fill="#20303C" d="M16.341 8.96c.377 0 .683.31.683.691v12.442c0 .381-.306.691-.683.691h-.682c-.377 0-.683-.31-.683-.691V9.65c0-.381.306-.691.683-.691h.682zm-4.096 4.838c.377 0 .683.31.683.692v7.603c0 .381-.306.691-.683.691h-.682c-.377 0-.683-.31-.683-.691V14.49c0-.382.306-.692.683-.692h.682zm8.192-2.073c.377 0 .683.31.683.691v9.677c0 .381-.306.691-.683.691h-.682c-.377 0-.683-.31-.683-.691v-9.677c0-.382.306-.691.683-.691h.682z"/>
    </g>
</svg>
