<svg xmlns="http://www.w3.org/2000/svg" width="84" height="40" viewBox="0 0 84 40">
    <g fill="none">
        <path fill="#1D1E1E" d="M20.438 15.08c.016-1.059-1.18-2.282-2.2-2.256-.239.006-.473.032-.562.287-.132.383.146.474.429.519.944.152 1.44.708 1.535 1.65.026.256.188.463.435.433.342-.04.373-.345.363-.634m1.749.416c.018-2.192-1.86-4.187-4.16-4.464-.358-.043-.832-.212-.915.286-.088.522.44.469.779.545 2.301.514 3.103 1.352 3.482 3.635.055.333-.055.85.51.765.42-.064.268-.508.304-.767m21.003-4.441c-.087-1.028-.666-1.619-1.65-1.728-.927-.102-1.76.772-1.755 1.728.006.985.793 1.767 1.767 1.707 1.051-.066 1.522-.722 1.638-1.707m-25.784-1.86c-.27.04-.829-.186-.864.42-.023.408.447.34.756.388 3.727.573 5.445 2.345 5.92 6.099.044.347-.085.868.41.878.517.01.392-.504.396-.851.044-3.536-3.038-6.813-6.618-6.934m22.467 10.01c0 1.195.019 2.39-.006 3.584-.021 1.045.448 1.74 1.484 1.777 1.042.035 1.575-.634 1.577-1.677.005-2.481.013-4.963-.005-7.443-.007-.95-.423-1.607-1.47-1.617-1.091-.01-1.57.616-1.576 1.655-.008 1.24-.002 2.48-.004 3.721m27.67-.567c0 1.426-.022 2.854.009 4.28.02.891.488 1.534 1.397 1.602.974.072 1.568-.514 1.668-1.466.087-.82.133-1.664.039-2.479-.27-2.335.141-4.188 2.81-4.816.647-.153.89-.731.745-1.433-.151-.727-.593-1.13-1.296-1.241-.626-.1-1.191.095-1.66.514-.33.296-.516.529-.91-.032-.44-.623-1.174-.637-1.88-.337-.685.292-.932.827-.926 1.541.013 1.289.004 2.578.005 3.867m-46.39 5.804c1.16.012 2.52-1.106 2.913-2.216.378-1.068-.421-1.491-1.053-2-.466-.375-.963-.71-1.452-1.054-.976-.686-1.869-.739-2.597.364-.41.62-.981.646-1.58.374-1.65-.748-2.925-1.9-3.671-3.578-.33-.742-.327-1.408.446-1.933.41-.277.821-.606.788-1.213-.043-.79-1.963-3.434-2.721-3.712-.314-.116-.627-.108-.946 0-1.778.597-2.515 2.06-1.81 3.791 2.105 5.166 5.808 8.762 10.906 10.957.29.125.613.175.777.22m41.204-4.597c.782 0 1.564.008 2.346-.002 1.665-.022 2.122-.593 1.802-2.24-.572-2.945-3.088-4.905-5.934-4.621-2.823.28-4.92 2.775-4.884 5.88.027 2.404.992 4.336 3.263 5.307 2.335.997 4.6.572 6.655-.877.655-.462 1.005-1.11.475-1.901-.464-.691-1.08-.776-1.8-.387-.484.263-.97.537-1.481.735-1.413.542-3.11.036-3.67-1.044-.279-.54-.262-.866.469-.853.92.017 1.84.005 2.76.003m-29.696-.91c-1.128-3.034-2.09-5.66-3.084-8.272-.354-.927-.923-1.677-2.072-1.27-1.137.405-1.362 1.275-.946 2.344 1.502 3.852 3.005 7.704 4.522 11.55.285.722.747 1.284 1.623 1.265.803-.016 1.246-.528 1.522-1.204.47-1.147.915-2.306 1.368-3.46 1.073-2.738 2.156-5.472 3.211-8.216.381-.991.208-1.84-.882-2.252-1.038-.393-1.664.159-2.075 1.049-.173.374-.304.768-.45 1.155l-2.737 7.31m11.636-2.105c0 1.935.007 3.87-.003 5.805-.003.74.174 1.386.891 1.727.705.336 1.378.216 1.852-.406.32-.42.483-.29.857-.061 2.332 1.427 4.882.763 6.265-1.6 1.357-2.321 1.221-4.674.009-6.984-1.05-2-3.119-2.807-5.283-2.166-1.53.454-1.53.454-1.532-1.213 0-.23-.009-.46.001-.691.049-1.059-.314-1.91-1.472-1.92-1.224-.01-1.598.871-1.59 1.98.013 1.844.004 3.686.005 5.53m-1.731 16.113c-5.756.078-12.063-.08-18.362-.465-.66-.04-1.017.254-1.398.68-1.625 1.822-3.256 3.639-4.904 5.44-.26.285-.502.808-.972.613-.466-.193-.265-.732-.269-1.124-.017-1.52-.074-3.045.016-4.561.07-1.187-.22-1.72-1.544-1.756-1.649-.045-3.318-.25-4.93-.604C4.515 29.916.767 26.81.234 20.461c-.232-2.763-.398-5.517.037-8.262.909-5.734 4.214-8.99 9.914-9.929C18.477.905 26.84.473 35.225.32 43.98.16 52.728.465 61.47.923c4.23.222 8.437.776 12.587 1.652 4.977 1.05 8.383 4.879 8.802 10.06.242 2.978.293 5.984-.154 8.963-.595 3.972-2.778 6.74-6.44 8.344-3.168 1.389-6.543 1.847-9.951 2.08-7.72.53-15.446.97-23.745.92"/>
        <path fill="#FAF9FB" d="M52.023 18.878c.022-1.729-.95-3.051-2.266-3.086-1.372-.036-2.378 1.197-2.404 2.949-.025 1.685.987 3.063 2.277 3.102 1.35.04 2.372-1.225 2.393-2.965m-7.724-2.05c-.001-1.843.008-3.685-.005-5.528-.008-1.11.366-1.99 1.59-1.98 1.158.01 1.52.86 1.472 1.92-.01.229-.001.46-.001.69.002 1.667.002 1.667 1.532 1.213 2.164-.641 4.232.165 5.283 2.167 1.212 2.308 1.348 4.662-.01 6.983-1.382 2.363-3.932 3.027-6.264 1.6-.374-.229-.538-.359-.857.06-.473.623-1.147.743-1.852.407-.717-.342-.894-.987-.89-1.727.009-1.935.002-3.87.002-5.805M32.663 18.933l2.737-7.31c.145-.387.277-.78.45-1.155.412-.89 1.037-1.442 2.075-1.05 1.09.413 1.263 1.262.882 2.253-1.056 2.744-2.138 5.478-3.21 8.215-.454 1.155-.898 2.314-1.369 3.461-.276.676-.72 1.188-1.523 1.204-.875.019-1.337-.543-1.622-1.265-1.517-3.846-3.02-7.698-4.521-11.55-.417-1.069-.192-1.94.945-2.343 1.149-.408 1.718.342 2.071 1.27.995 2.611 1.957 5.237 3.085 8.27"/>
        <path fill="#F9F7F9" d="M61.006 17.75c.275 0 .554.034.822-.007.507-.079 1.315.306 1.46-.265.19-.75-.43-1.358-1.12-1.698-.901-.443-1.78-.364-2.545.33-.411.373-.869.844-.665 1.399.188.511.805.168 1.226.235.268.042.548.008.822.006m1.352 2.095c-.92 0-1.84.013-2.76-.004-.73-.013-.746.314-.467.853.559 1.08 2.256 1.586 3.668 1.043.513-.197.998-.471 1.482-.734.72-.39 1.336-.304 1.8.387.53.79.18 1.439-.475 1.901-2.055 1.45-4.32 1.874-6.655.876-2.27-.97-3.236-2.902-3.263-5.307-.035-3.104 2.06-5.598 4.884-5.88 2.846-.283 5.362 1.677 5.934 4.621.32 1.648-.137 2.22-1.802 2.241-.782.01-1.564.002-2.346.003"/>
        <path fill="#FAF9FB" d="M21.154 24.441c-.164-.045-.487-.095-.777-.22-5.098-2.195-8.801-5.791-10.905-10.957-.706-1.732.031-3.194 1.81-3.792.318-.107.63-.115.945 0 .758.28 2.678 2.923 2.721 3.714.033.606-.379.934-.788 1.212-.773.525-.777 1.19-.447 1.933.747 1.677 2.021 2.83 3.672 3.578.599.272 1.17.245 1.58-.374.728-1.103 1.62-1.05 2.597-.364.49.343.986.68 1.452 1.054.632.509 1.43.932 1.053 2-.393 1.11-1.753 2.228-2.913 2.216"/>
        <path fill="#F9F7F9" d="M67.543 18.636c0-1.288.009-2.577-.004-3.866-.006-.713.241-1.25.926-1.54.706-.3 1.44-.287 1.88.336.394.56.58.327.91.032.469-.42 1.034-.614 1.66-.514.703.111 1.145.514 1.296 1.241.145.701-.098 1.28-.744 1.432-2.67.629-3.082 2.482-2.811 4.817.094.815.048 1.66-.039 2.48-.1.95-.694 1.537-1.668 1.465-.91-.068-1.378-.71-1.397-1.602-.031-1.426-.008-2.854-.009-4.28"/>
        <path fill="#FAF9FB" d="M39.874 19.204c0-1.24-.005-2.48.003-3.72.006-1.04.485-1.666 1.577-1.656 1.046.01 1.462.667 1.47 1.617.017 2.48.01 4.962.004 7.443-.002 1.044-.535 1.713-1.577 1.677-1.036-.036-1.505-.732-1.484-1.777.024-1.194.006-2.39.007-3.584"/>
        <path fill="#EFE9F3" d="M17.406 9.195c3.58.12 6.662 3.398 6.618 6.933-.004.347.12.86-.397.85-.494-.009-.365-.53-.409-.877-.475-3.754-2.193-5.526-5.92-6.099-.309-.047-.78.02-.756-.388.035-.606.594-.38.864-.42"/>
        <path fill="#F9F7F9" d="M43.19 11.054c-.116.985-.587 1.641-1.638 1.706-.974.06-1.76-.721-1.767-1.706-.005-.956.828-1.83 1.755-1.728.984.11 1.563.7 1.65 1.728"/>
        <path fill="#EFE9F3" d="M22.186 15.495c-.034.26.117.703-.302.767-.566.086-.456-.432-.511-.765-.38-2.283-1.18-3.121-3.482-3.635-.34-.076-.867-.023-.78-.545.084-.498.558-.329.916-.286 2.3.276 4.178 2.272 4.16 4.464"/>
        <path fill="#EFE9F3" d="M20.437 15.079c.011.29-.02.594-.362.634-.247.03-.41-.177-.435-.433-.094-.942-.59-1.498-1.535-1.65-.283-.045-.56-.136-.429-.518.089-.257.323-.282.562-.288 1.02-.025 2.216 1.197 2.2 2.255"/>
        <path fill="#1D1E1E" d="M52.023 18.878c-.021 1.74-1.042 3.005-2.393 2.965-1.29-.039-2.302-1.417-2.277-3.102.026-1.752 1.032-2.985 2.404-2.949 1.316.035 2.288 1.357 2.266 3.086M61.006 17.75c-.274.002-.554.036-.822-.006-.42-.066-1.038.276-1.226-.235-.204-.555.254-1.026.665-1.4.766-.694 1.644-.773 2.545-.329.69.34 1.31.948 1.12 1.698-.145.571-.953.186-1.46.265-.268.041-.547.007-.822.008"/>
    </g>
</svg>
