<svg xmlns="http://www.w3.org/2000/svg" width="334" height="152" viewBox="0 0 334 152">
    <g fill="none" fill-rule="evenodd">
        <g>
            <g>
                <path fill="#F2F2F2" d="M292 95L304 95 304 58 292 58z" transform="translate(-533 -276) translate(533 276)"/>
                <path fill="#F2F2F2" d="M307 91.039L282.147 62 232.261 62.448 202 91.398 202.611 91.784 202.393 91.784 202.393 152 306.933 152 306.933 91.784z" transform="translate(-533 -276) translate(533 276)"/>
                <path fill="#E6E6E6" d="M283.155 62L252 97.378 252 151 308 151 308 90.648z" transform="translate(-533 -276) translate(533 276)"/>
                <path fill="#002764" d="M274 132L286 132 286 120 274 120zM274 116L286 116 286 105 274 105z" transform="translate(-533 -276) translate(533 276)"/>
                <path fill="#FFF" d="M274 132L286 132 286 120 274 120zM274 116L286 116 286 105 274 105zM224 129L236 129 236 117 224 117zM224 112L236 112 236 101 224 101z" transform="translate(-533 -276) translate(533 276)"/>
                <path fill="#F2F2F2" d="M212 95L224 95 224 58 212 58z" transform="translate(-533 -276) translate(533 276)"/>
                <path fill="#F2F2F2" d="M232 91.039L207.147 62 157.262 62.448 127 91.398 127.611 91.784 127.393 91.784 127.393 152 231.933 152 231.933 91.784z" transform="translate(-533 -276) translate(533 276)"/>
                <path fill="#E6E6E6" d="M206.155 62L175 97.378 175 151 231 151 231 90.648z" transform="translate(-533 -276) translate(533 276)"/>
                <path fill="#002764" d="M197 132L209 132 209 120 197 120zM197 116L209 116 209 105 197 105z" transform="translate(-533 -276) translate(533 276)"/>
                <path fill="#FFF" d="M197 132L209 132 209 120 197 120zM197 116L209 116 209 105 197 105zM146 129L158 129 158 117 146 117zM146 112L158 112 158 101 146 101z" transform="translate(-533 -276) translate(533 276)"/>
                <path fill="#F2F2F2" d="M129 78L141 78 141 32 129 32z" transform="translate(-533 -276) translate(533 276)"/>
                <path fill="#F2F2F2" d="M151 70.04L118.338 31 52.772 31.602 13 70.524 13.803 71.042 13.516 71.042 13.516 152 150.912 152 150.912 71.042z" transform="translate(-533 -276) translate(533 276)"/>
                <path fill="#E6E6E6" d="M118.169 31L77 79.098 77 152 151 152 151 69.948z" transform="translate(-533 -276) translate(533 276)"/>
                <path fill="#002764" d="M107 123L121 123 121 110 107 110zM107 101L121 101 121 88 107 88z" transform="translate(-533 -276) translate(533 276)"/>
                <path fill="#FFF" d="M107 123L121 123 121 110 107 110zM107 101L121 101 121 88 107 88zM41 121L55 121 55 108 41 108zM41 97L55 97 55 84 41 84z" transform="translate(-533 -276) translate(533 276)"/>
                <path fill="#002568" d="M0 151.927L322 151.927 322 151.073 0 151.073zM49 98c5.524 0 10 8.73 10 19.5S54.524 137 49 137c-5.523 0-10-8.73-10-19.5S43.477 98 49 98" transform="translate(-533 -276) translate(533 276)"/>
                <path fill="#4DDDB1" d="M53.09 152c-4.678-23.426-.048-46.767 0-47l.91.129c-.048.232-4.652 23.45 0 46.744l-.91.127z" transform="translate(-533 -276) translate(533 276)"/>
                <path fill="#4DDDB1" d="M51 118.119L61.565 112 62 112.881 51.436 119zM41 115.881L41.435 115 52 121.119 51.565 122z" transform="translate(-533 -276) translate(533 276)"/>
                <path fill="#116DFF" d="M29 49c9.94 0 18 17.685 18 39.5S38.94 128 29 128c-9.942 0-18-17.685-18-39.5S19.058 49 29 49" transform="translate(-533 -276) translate(533 276)"/>
                <path fill="#002568" d="M31.088 152c-9.151-45.357-.093-90.549 0-91l.911.128c-.092.45-9.124 45.52.001 90.747l-.912.125z" transform="translate(-533 -276) translate(533 276)"/>
                <path fill="#002568" d="M27 91.177L44.629 80 45 80.823 27.371 92zM11 83.823L11.372 83 29 94.177 28.629 95z" transform="translate(-533 -276) translate(533 276)"/>
                <path fill="#4DDDB1" d="M73 10c14.912 0 27 24.176 27 54s-12.088 54-27 54-27-24.176-27-54 12.088-54 27-54" transform="translate(-533 -276) translate(533 276)"/>
                <path fill="#002568" d="M76.018 152c-13.473-63.3-.136-126.37 0-127l.982.13c-.137.628-13.444 63.575 0 126.743l-.982.127z" transform="translate(-533 -276) translate(533 276)"/>
                <path fill="#002568" d="M73 65.336L95.651 53 96 53.665 73.349 66zM48 60.664L48.349 60 71 72.336 70.651 73zM300 117.5c0 10.77-4.476 19.5-10 19.5-5.523 0-10-8.73-10-19.5S284.477 98 290 98c5.524 0 10 8.73 10 19.5z" transform="translate(-533 -276) translate(533 276)"/>
                <path fill="#4DDDB1" d="M289.91 152c4.678-23.426.048-46.767 0-47l-.91.129c.047.232 4.651 23.45 0 46.744l.91.127z" transform="translate(-533 -276) translate(533 276)"/>
                <path fill="#4DDDB1" d="M281 112.881L281.435 112 292 118.119 291.565 119zM292 121.119L302.564 115 303 115.881 292.436 122z" transform="translate(-533 -276) translate(533 276)"/>
                <path fill="#116DFF" d="M316 49c9.941 0 18 17.685 18 39.5s-8.059 39.5-18 39.5-18-17.685-18-39.5S306.059 49 316 49" transform="translate(-533 -276) translate(533 276)"/>
                <path fill="#002568" d="M311.912 152c9.151-45.357.093-90.549 0-91l-.912.128c.092.45 9.126 45.52 0 90.747l.912.125z" transform="translate(-533 -276) translate(533 276)"/>
                <path fill="#002568" d="M299 80.823L299.371 80 317 91.177 316.629 92zM315 94.177L332.629 83 333 83.823 315.372 95z" transform="translate(-533 -276) translate(533 276)"/>
                <path fill="#4DDDB1" d="M271 10c14.912 0 27 24.176 27 54s-12.088 54-27 54c-14.911 0-27-24.176-27-54s12.089-54 27-54" transform="translate(-533 -276) translate(533 276)"/>
                <path fill="#002568" d="M267.982 152c13.473-63.3.136-126.37-.001-127l-.981.13c.136.628 13.445 63.575 0 126.743l.982.127z" transform="translate(-533 -276) translate(533 276)"/>
                <path fill="#002568" d="M247 53.664L247.349 53 270 65.335 269.651 66zM274 72.336L296.651 60 297 60.664 274.349 73zM197.392 35.268L201 32.045c-2.803-.345-3.955 1.363-4.427 2.713-2.19-1.014-4.573.316-4.573.316L199.22 38c-.365-1.085-1-2.033-1.828-2.732M121.391 13.267L125 10.045c-2.803-.345-3.956 1.362-4.427 2.713-2.19-1.014-4.573.316-4.573.316L123.219 16c-.364-1.085-.998-2.033-1.828-2.733M246.392 3.268L250 .045c-2.803-.346-3.955 1.361-4.427 2.714-2.19-1.016-4.573.315-4.573.315L248.22 6c-.365-1.086-1-2.034-1.828-2.732M250.75 145.933c-.746 0-1.478.3-2.123.873-1.87-2.59-4.757-2.368-6.447.496-.761 1.288-1.181 2.962-1.18 4.698h14c-.158-3.417-2.014-6.065-4.25-6.067M96.75 145.933c-.746 0-1.478.3-2.123.873-1.87-2.59-4.757-2.368-6.447.496-.761 1.288-1.181 2.962-1.18 4.698h14c-.158-3.417-2.014-6.065-4.25-6.067M193 131L133 131 133 132.904 142.358 132.904 142.358 151 144.293 151 144.293 132.904 180.739 132.904 180.739 151 182.675 151 182.675 132.904 193 132.904zM133 127L193 127 193 125 133 125zM133 121L193 121 193 119 133 119zM133 116L193 116 193 114 133 114z" transform="translate(-533 -276) translate(533 276)"/>
            </g>
        </g>
    </g>
</svg>
