<svg xmlns="http://www.w3.org/2000/svg" width="177" height="22" viewBox="0 0 177 22">
    <g fill="none" fill-rule="evenodd">
        <g fill="#002568" fill-rule="nonzero">
            <path d="M718.882 139.23c1.24 0 2.35.24 3.331.722.98.482 1.85 1.164 2.61 2.047l-1.5 1.595-.214-.271c-.508-.616-1.082-1.112-1.721-1.49-.73-.431-1.566-.647-2.506-.647-.98 0-1.78.226-2.4.677-.621.452-.931 1.028-.931 1.73 0 .562.26 1.009.78 1.34.52.331 1.44.597 2.761.798 2.18.32 3.721.837 4.622 1.55.9.712 1.35 1.72 1.35 3.024 0 .923-.26 1.74-.78 2.453-.52.712-1.236 1.264-2.146 1.655-.91.391-1.946.587-3.106.587-1.44 0-2.68-.246-3.721-.737-1.04-.492-1.97-1.17-2.791-2.032l1.5-1.595.245.271c.58.616 1.235 1.112 1.961 1.49.83.431 1.766.647 2.806.647 1.08 0 1.956-.251 2.626-.753.67-.501 1.005-1.153 1.005-1.956 0-.662-.285-1.189-.855-1.58-.57-.391-1.546-.687-2.926-.888-2.1-.34-3.576-.832-4.427-1.474-.85-.642-1.275-1.535-1.275-2.679 0-1.364.53-2.453 1.59-3.265 1.06-.813 2.431-1.22 4.112-1.22zm37.94 0c1.34 0 2.526.33 3.556.993 1.03.662 1.836 1.58 2.416 2.754.58 1.173.87 2.523.87 4.048v.902H752.05l.04.315c.2 1.342.732 2.451 1.596 3.327.93.943 2.126 1.415 3.586 1.415.92 0 1.75-.221 2.49-.663.741-.44 1.411-1.123 2.012-2.046l1.56 1.505-.216.288c-.732.94-1.575 1.651-2.53 2.134-1.05.532-2.206.798-3.466.798-1.48 0-2.786-.341-3.916-1.023-1.13-.682-2.01-1.62-2.641-2.814-.63-1.194-.945-2.543-.945-4.048s.315-2.854.945-4.048c.63-1.194 1.49-2.132 2.58-2.814 1.091-.682 2.316-1.023 3.677-1.023zm25.996 0c1.24 0 2.35.24 3.331.722.98.482 1.85 1.164 2.61 2.047l-1.5 1.595-.214-.271c-.508-.616-1.082-1.112-1.721-1.49-.73-.431-1.566-.647-2.506-.647-.98 0-1.78.226-2.4.677-.621.452-.931 1.028-.931 1.73 0 .562.26 1.009.78 1.34.52.331 1.44.597 2.761.798 2.18.32 3.721.837 4.622 1.55.9.712 1.35 1.72 1.35 3.024 0 .923-.26 1.74-.78 2.453-.52.712-1.236 1.264-2.146 1.655-.91.391-1.946.587-3.106.587-1.44 0-2.68-.246-3.721-.737-1.04-.492-1.97-1.17-2.791-2.032l1.5-1.595.245.271c.58.616 1.235 1.112 1.961 1.49.83.431 1.766.647 2.806.647 1.08 0 1.956-.251 2.626-.753.67-.501 1.005-1.153 1.005-1.956 0-.662-.285-1.189-.855-1.58-.57-.391-1.546-.687-2.926-.888-2.1-.34-3.576-.832-4.427-1.474-.85-.642-1.275-1.535-1.275-2.679 0-1.364.53-2.453 1.59-3.265 1.06-.813 2.431-1.22 4.112-1.22zm-53.894.481l3.361 12.31 3.481-12.31h2.341l3.481 12.43 3.451-12.43h2.281l-4.441 14.807h-2.581l-3.391-11.887-3.361 11.887h-2.611l-4.382-14.807h2.371zM685.714 133l8.132 21.518h-2.52l-2.221-5.958h-9.453l-2.221 5.958H675L683.133 133h2.58zm18.714 6.23c1.701 0 3.036.557 4.007 1.67.97 1.114 1.455 2.724 1.455 4.83v8.788h-2.31v-8.517l-.005-.307c-.04-1.413-.364-2.49-.97-3.229-.651-.792-1.526-1.189-2.627-1.189-.8 0-1.55.226-2.25.677-.7.452-1.27 1.164-1.711 2.137-.44.973-.66 2.232-.66 3.777v6.651h-2.311v-14.807h2.28v3.04l.107-.27c.477-1.142 1.151-1.96 2.024-2.454.94-.531 1.931-.797 2.971-.797zm70.959.24v2.228h-.51l-.305.008c-.805.047-1.559.28-2.261.699-.79.471-1.426 1.194-1.906 2.167-.48.973-.72 2.222-.72 3.747v6.2h-2.31V139.71h2.28v3.31l.11-.269c.497-1.143 1.2-1.966 2.11-2.469.981-.542 1.991-.812 3.032-.812h.48zm-121.478-5.545c.933.817 1.97 2.26 2.059 2.383l.006.008 2.683 3.724c.13.195.301.405.573.405.238 0 .398-.16.522-.331l.05-.074 2.684-3.724s1.09-1.536 2.065-2.39c1.476-1.296 4.41-.862 4.593-.834l.009.001-7.292 10.444 7.272 10.412-.036.004c-.351.038-3.208.301-4.637-.95-.932-.818-1.887-2.125-1.969-2.237l-.005-.008-2.684-3.724c-.13-.194-.3-.404-.572-.404-.238 0-.398.16-.522.33l-.05.074-2.684 3.724s-.944 1.39-1.919 2.244c-1.478 1.295-4.536.969-4.72.948l-.008-.001 7.272-10.412-7.291-10.444s3.077-.504 4.601.832zm-6.984 2.825v.746h.002v12.472c-.011 2.56-.296 3.127-1.534 3.717-.917.436-2.296.3-2.426.285h-.01V140c0-.702.251-1.161 1.173-1.575.55-.246 1.063-.435 1.598-.714.832-.434 1.197-.96 1.197-.96zm-31.226-2.743c.867.732 1.15 1.877 1.176 1.99l.002.009 3.022 11.216 2.513-9.18c.245-.975.686-2.182 1.384-2.998.889-1.039 2.696-1.104 2.889-1.104.192 0 2 .065 2.889 1.104.634.742 1.057 1.807 1.312 2.727l.072.27 2.513 9.18 3.021-11.215s.267-1.229 1.18-2c1.428-1.206 3.546-.999 3.69-.983h.008l-5.786 20.961s-1.909.132-2.863-.334c-1.254-.613-1.852-1.086-2.612-3.938-.676-2.542-2.572-10.01-2.745-10.542-.085-.263-.187-.89-.679-.89-.481 0-.593.627-.68.89-.176.532-2.068 8-2.745 10.542-.76 2.852-1.356 3.325-2.61 3.938-.915.446-2.7.344-2.853.335h-.011L612 133.023s2.22-.267 3.7.983zm68.694 1.792l-3.961 10.654h7.892l-3.93-10.654zm72.429 5.447c-1.24 0-2.296.442-3.166 1.324-.87.883-1.396 2.037-1.576 3.461h9.183c-.14-1.464-.605-2.628-1.395-3.49-.79-.863-1.806-1.295-3.046-1.295zm-109.907-8.245h.012c0 1.43-.148 2.281-1.101 2.941-.305.211-.833.534-1.45.745-.847.29-1.418.813-1.418.813 0-2.607.42-3.551 1.548-4.11.693-.343 1.827-.386 2.252-.39h.157z" transform="translate(-612 -133)"/>
        </g>
    </g>
</svg>
