<?xml version="1.0" encoding="UTF-8"?>
<svg data-bbox="0 -0.001 163 21.001" xmlns="http://www.w3.org/2000/svg" viewBox="0 0 163 21" height="21" width="163" data-type="shape">
    <g>
        <path d="M98.086 6.178c1.149 0 2.177.227 3.084.68a7.614 7.614 0 012.417 1.923l-1.389 1.499-.198-.255a6.1 6.1 0 00-1.594-1.4c-.676-.405-1.45-.608-2.32-.608-.907 0-1.648.212-2.222.636-.574.425-.862.967-.862 1.627 0 .528.241.947.723 1.259.481.31 1.333.56 2.556.75 2.019.3 3.445.786 4.278 1.456.834.67 1.25 1.617 1.25 2.842 0 .868-.24 1.636-.722 2.306-.481.67-1.144 1.188-1.986 1.555-.843.368-1.802.552-2.876.552-1.333 0-2.482-.231-3.445-.693a8.64 8.64 0 01-2.584-1.91l1.39-1.498.226.254a6.8 6.8 0 001.816 1.4c.768.406 1.634.608 2.597.608 1 0 1.81-.235 2.431-.707.62-.471.93-1.084.93-1.838 0-.623-.263-1.118-.79-1.485-.529-.368-1.432-.646-2.71-.835-1.944-.32-3.31-.782-4.098-1.386-.787-.603-1.18-1.442-1.18-2.517 0-1.282.49-2.305 1.472-3.069.982-.764 2.25-1.146 3.806-1.146zm35.124 0c1.241 0 2.339.312 3.293.934.953.622 1.699 1.485 2.236 2.588.537 1.103.806 2.371.806 3.804v.849h-10.752l.037.295c.185 1.262.677 2.304 1.477 3.127.861.887 1.968 1.33 3.32 1.33.852 0 1.62-.208 2.306-.622.685-.415 1.306-1.056 1.861-1.924l1.445 1.414-.22.298c-.673.87-1.447 1.53-2.322 1.98-.972.5-2.042.749-3.209.749-1.37 0-2.579-.32-3.626-.962a6.613 6.613 0 01-2.444-2.644c-.584-1.122-.876-2.39-.876-3.805 0-1.414.292-2.682.876-3.804.583-1.122 1.38-2.004 2.389-2.645 1.01-.641 2.144-.962 3.403-.962zm24.067 0c1.148 0 2.176.227 3.084.68a7.614 7.614 0 012.417 1.923l-1.39 1.499-.198-.255a6.1 6.1 0 00-1.593-1.4c-.676-.405-1.45-.608-2.32-.608-.908 0-1.649.212-2.223.636-.574.425-.861.967-.861 1.627 0 .528.24.947.722 1.259.482.31 1.334.56 2.556.75 2.02.3 3.445.786 4.279 1.456.833.67 1.25 1.617 1.25 2.842 0 .868-.24 1.636-.722 2.306-.482.67-1.144 1.188-1.987 1.555-.843.368-1.801.552-2.875.552-1.334 0-2.482-.231-3.445-.693a8.64 8.64 0 01-2.584-1.91l1.389-1.498.226.254a6.8 6.8 0 001.816 1.4c.769.406 1.635.608 2.598.608 1 0 1.81-.235 2.43-.707.621-.471.931-1.084.931-1.838 0-.623-.264-1.118-.791-1.485-.528-.368-1.431-.646-2.71-.835-1.944-.32-3.31-.782-4.097-1.386-.787-.603-1.18-1.442-1.18-2.517 0-1.282.49-2.305 1.472-3.069.981-.764 2.25-1.146 3.806-1.146zM38.377.913c.77.727 1.619 1.954 1.837 2.279l.054.08 2.458 3.675c.119.191.275.4.524.4.218 0 .365-.16.478-.328l.046-.072 2.457-3.675s.999-1.516 1.892-2.36c1.35-1.275 4.033-.85 4.205-.821l.008.001-6.677 10.305 6.66 10.272s-2.884.384-4.28-.934c-.852-.804-1.724-2.09-1.802-2.206l-.006-.008-2.457-3.674c-.119-.192-.275-.4-.524-.4-.218 0-.365.16-.478.328l-.046.072-2.458 3.674s-.864 1.371-1.757 2.214c-1.35 1.276-4.142.957-4.32.935h-.01l6.66-10.273L34.164.092s2.818-.498 4.213.82zM31.982 3.7v.736h.001v12.306c-.01 2.525-.27 3.085-1.404 3.667-.838.43-2.096.296-2.22.282l-.01-.001V6.906c0-.692.23-1.145 1.074-1.553.504-.243.973-.43 1.462-.704.763-.43 1.097-.949 1.097-.949zM3.388.993c.79.72 1.051 1.846 1.076 1.963l.002.01 2.768 11.066 2.3-9.057c.225-.963.628-2.153 1.268-2.958.777-.979 2.32-1.082 2.613-1.09h.065c.292.008 1.836.111 2.613 1.09.575.724.96 1.761 1.194 2.663l.073.295 2.301 9.057 2.767-11.066s.244-1.212 1.08-1.973c1.307-1.189 3.243-.986 3.38-.97h.007l-5.298 20.681s-1.748.13-2.622-.33c-1.149-.604-1.696-1.07-2.392-3.885-.62-2.508-2.355-9.876-2.514-10.402-.078-.26-.171-.878-.621-.878-.441 0-.543.619-.623.878-.162.525-1.894 7.894-2.514 10.402-.696 2.814-1.241 3.28-2.39 3.885-.836.44-2.466.341-2.612.331h-.01L0 .023s2.032-.264 3.388.97zm103.995 5.638l3.112 11.569 3.222-11.569h2.167l3.223 11.682 3.195-11.682h2.112l-4.112 13.916h-2.39l-3.139-11.172-3.112 11.172h-2.417l-4.056-13.916h2.195zM67.38.323l7.529 20.224h-2.334l-2.056-5.6h-8.751l-2.056 5.6h-2.25L64.99.323h2.39zm17.326 5.855c1.574 0 2.81.524 3.709 1.57.898 1.047 1.347 2.56 1.347 4.54v8.26h-2.14v-8.005l-.004-.31c-.04-1.318-.34-2.322-.898-3.014-.602-.745-1.412-1.117-2.431-1.117-.741 0-1.436.212-2.084.636-.648.425-1.176 1.094-1.583 2.009-.408.914-.612 2.097-.612 3.55v6.25h-2.139V6.631h2.112v2.857l.106-.272c.44-1.064 1.063-1.827 1.866-2.288.87-.5 1.787-.75 2.75-.75zm65.691.227v2.093h-.472l-.282.008a4.494 4.494 0 00-2.094.657c-.731.443-1.32 1.122-1.764 2.036-.444.915-.666 2.088-.666 3.522v5.826h-2.14V6.631h2.112v3.111l.11-.272c.46-1.064 1.108-1.832 1.946-2.302.907-.509 1.843-.763 2.806-.763h.444zm-84.24-3.451L62.49 12.967h7.307l-3.64-10.013zm67.053 5.12c-1.148 0-2.125.414-2.93 1.244-.806.83-1.293 1.914-1.46 3.253h8.502c-.13-1.377-.56-2.47-1.292-3.281-.731-.811-1.671-1.216-2.82-1.216zM31.813 0l.17.001c0 1.412-.135 2.251-1.008 2.902-.28.208-.762.527-1.327.735-.776.287-1.3.802-1.3.802 0-2.572.386-3.504 1.419-4.055.626-.335 1.645-.38 2.046-.385l.17.001z"/>
    </g>
</svg>
