<svg xmlns="http://www.w3.org/2000/svg" width="184" height="55" viewBox="0 0 184 55">
    <g fill="none" fill-rule="evenodd">
        <g fill="#FFF">
            <g>
                <text font-family="WixMadeforDisplay-Regular, Wix Madefor Display" font-size="13.986" letter-spacing=".151" transform="translate(-135 -812) translate(135 812)">
                    <tspan x="0" y="14">Conversations Ignited by</tspan>
                </text>
                <path fill-opacity=".953" fill-rule="nonzero" d="M101.836 39.739c1.192 0 2.26.226 3.201.678.943.452 1.78 1.092 2.51 1.921l-1.442 1.498-.206-.255c-.49-.578-1.04-1.044-1.655-1.398-.702-.405-1.505-.608-2.408-.608-.943 0-1.712.212-2.308.636-.596.424-.894.966-.894 1.625 0 .527.25.947.75 1.257.5.311 1.384.56 2.654.75 2.096.3 3.576.786 4.442 1.454.865.67 1.298 1.616 1.298 2.84 0 .867-.25 1.634-.75 2.303s-1.188 1.187-2.063 1.554c-.875.368-1.87.551-2.985.551-1.385 0-2.577-.23-3.577-.692-1-.461-1.894-1.097-2.682-1.907l1.442-1.498.235.255c.558.578 1.187 1.044 1.885 1.398.798.405 1.697.608 2.697.608 1.038 0 1.88-.236 2.524-.707.644-.47.966-1.083.966-1.836 0-.622-.274-1.117-.822-1.484-.548-.367-1.486-.645-2.812-.834-2.02-.32-3.438-.781-4.255-1.384-.817-.603-1.226-1.441-1.226-2.515 0-1.281.51-2.303 1.529-3.066 1.02-.763 2.336-1.144 3.952-1.144zm36.466 0c1.289 0 2.428.31 3.418.932.99.622 1.765 1.484 2.322 2.586.558 1.102.837 2.369.837 3.8v.848h-11.163l.039.295c.191 1.26.703 2.302 1.533 3.124.894.885 2.043 1.328 3.447 1.328.884 0 1.682-.207 2.394-.621.711-.415 1.356-1.055 1.933-1.922l1.5 1.413-.23.297c-.698.87-1.501 1.528-2.41 1.978-1.01.499-2.12.748-3.331.748-1.423 0-2.678-.32-3.765-.96-1.086-.64-1.932-1.522-2.538-2.642-.606-1.121-.909-2.388-.909-3.801 0-1.413.303-2.68.91-3.8.605-1.121 1.432-2.002 2.48-2.643 1.048-.64 2.226-.96 3.533-.96zm24.987 0c1.192 0 2.26.226 3.201.678.943.452 1.78 1.092 2.51 1.921l-1.442 1.498-.206-.255c-.49-.578-1.04-1.044-1.655-1.398-.702-.405-1.505-.608-2.408-.608-.943 0-1.712.212-2.308.636-.596.424-.894.966-.894 1.625 0 .527.25.947.75 1.257.5.311 1.384.56 2.654.75 2.096.3 3.576.786 4.442 1.454.865.67 1.298 1.616 1.298 2.84 0 .867-.25 1.634-.75 2.303s-1.188 1.187-2.063 1.554c-.875.368-1.87.551-2.985.551-1.385 0-2.577-.23-3.577-.692-1-.461-1.894-1.097-2.682-1.907l1.442-1.498.235.255c.558.578 1.187 1.044 1.885 1.398.798.405 1.697.608 2.697.608 1.038 0 1.88-.236 2.524-.707.644-.47.966-1.083.966-1.836 0-.622-.274-1.117-.822-1.484-.548-.367-1.486-.645-2.812-.834-2.02-.32-3.438-.781-4.255-1.384-.817-.603-1.226-1.441-1.226-2.515 0-1.281.51-2.303 1.529-3.066 1.02-.763 2.336-1.144 3.952-1.144zm-123.445-5.26c.887.805 1.874 2.226 1.958 2.348l.006.008 2.55 3.671c.124.192.287.4.545.4.227 0 .379-.16.496-.328l.048-.072L48 36.836s1.036-1.515 1.963-2.358c1.404-1.276 4.193-.849 4.366-.82h.009l-6.932 10.295 6.913 10.262s-2.994.384-4.442-.933c-.885-.804-1.791-2.088-1.872-2.204L48 51.07l-2.552-3.67c-.123-.192-.285-.4-.544-.4-.226 0-.379.16-.496.327l-.048.072-2.551 3.671s-.898 1.37-1.824 2.212c-1.404 1.276-4.307.955-4.488.934h-.008l6.914-10.263-6.932-10.294s2.926-.498 4.374.82zm-6.64 2.784v.735h.002v12.294c-.01 2.522-.281 3.082-1.459 3.663-.869.429-2.176.296-2.304.282l-.01-.002v-13.77c0-.69.238-1.144 1.115-1.55.522-.244 1.01-.43 1.518-.705.791-.428 1.138-.947 1.138-.947zM3.517 34.559c.824.721 1.093 1.85 1.118 1.961l.002.01L7.51 47.583 9.9 38.536c.233-.961.652-2.15 1.316-2.955.808-.98 2.415-1.08 2.714-1.088h.065c.298.007 1.905.109 2.714 1.088.597.724.997 1.76 1.24 2.66l.076.295 2.39 9.048 2.871-11.055s.254-1.21 1.122-1.97c1.358-1.19 3.371-.985 3.509-.97h.007l-5.5 20.661s-1.815.13-2.723-.33c-1.192-.604-1.76-1.07-2.483-3.88-.643-2.506-2.445-9.867-2.61-10.392-.081-.26-.178-.878-.645-.878-.458 0-.564.619-.647.878-.168.524-1.966 7.886-2.61 10.391-.722 2.811-1.289 3.277-2.481 3.881-.87.44-2.567.34-2.713.33h-.01L0 33.59s2.11-.263 3.517.969zm107.97 5.632l3.231 11.557 3.346-11.557h2.25l3.346 11.67 3.317-11.67h2.192L124.9 54.093h-2.48l-3.26-11.161-3.23 11.161h-2.51l-4.211-13.902h2.279zm-41.532-6.302l7.817 20.204H75.35l-2.134-5.595h-9.086l-2.135 5.595h-2.336l7.817-20.204h2.48zm17.988 5.85c1.635 0 2.919.522 3.851 1.568.933 1.045 1.4 2.557 1.4 4.535v8.251h-2.222v-7.996l-.004-.29c-.039-1.326-.35-2.336-.933-3.03-.625-.745-1.467-1.117-2.524-1.117-.77 0-1.49.212-2.164.636-.673.424-1.22 1.093-1.644 2.006-.423.914-.634 2.096-.634 3.546v6.245h-2.221V40.191h2.192v2.854l.11-.272c.458-1.063 1.104-1.825 1.938-2.286.904-.499 1.855-.748 2.855-.748zm68.203.226v2.09h-.49l-.293.009c-.774.044-1.498.262-2.174.656-.76.442-1.37 1.12-1.831 2.034-.462.914-.692 2.087-.692 3.518v5.821h-2.221V40.191h2.192v3.108l.115-.272c.476-1.063 1.15-1.83 2.02-2.3.942-.508 1.913-.762 2.913-.762h.461zm-87.46-3.448L64.88 46.52h7.586l-3.779-10.003zm69.616 5.115c-1.192 0-2.206.414-3.043 1.243-.836.83-1.341 1.912-1.514 3.25h8.826c-.134-1.375-.582-2.468-1.341-3.278-.76-.81-1.736-1.215-2.928-1.215zM33.206 33.567c0 1.41-.14 2.25-1.047 2.9-.29.208-.791.526-1.378.734-.805.286-1.349.801-1.349.801 0-2.57.4-3.5 1.472-4.05.66-.34 1.737-.382 2.142-.385h.16z" transform="translate(-135 -812) translate(135 812)"/>
            </g>
        </g>
    </g>
</svg>
