<svg xmlns="http://www.w3.org/2000/svg" width="1091" height="75" viewBox="0 0 1091 75">
    <defs>
        <filter id="e5vj6r7uaa">
            <feColorMatrix in="SourceGraphic" values="0 0 0 0 1.000000 0 0 0 0 1.000000 0 0 0 0 1.000000 0 0 0 1.000000 0"/>
        </filter>
        <filter id="5cxsnpjiab">
            <feColorMatrix in="SourceGraphic" values="0 0 0 0 1.000000 0 0 0 0 1.000000 0 0 0 0 1.000000 0 0 0 1.000000 0"/>
        </filter>
        <filter id="x8d77bhrqc">
            <feColorMatrix in="SourceGraphic" values="0 0 0 0 1.000000 0 0 0 0 1.000000 0 0 0 0 1.000000 0 0 0 1.000000 0"/>
        </filter>
        <filter id="nzakryljcd" width="144.4%" height="142.9%" x="-22.2%" y="-21.4%" filterUnits="objectBoundingBox">
            <feOffset dy="2" in="SourceAlpha" result="shadowOffsetOuter1"/>
            <feGaussianBlur in="shadowOffsetOuter1" result="shadowBlurOuter1" stdDeviation="2"/>
            <feColorMatrix in="shadowBlurOuter1" result="shadowMatrixOuter1" values="0 0 0 0 0 0 0 0 0 0 0 0 0 0 0 0 0 0 0.5 0"/>
            <feMerge>
                <feMergeNode in="shadowMatrixOuter1"/>
                <feMergeNode in="SourceGraphic"/>
            </feMerge>
        </filter>
        <filter id="cduciwxnge">
            <feColorMatrix in="SourceGraphic" values="0 0 0 0 1.000000 0 0 0 0 1.000000 0 0 0 0 1.000000 0 0 0 1.000000 0"/>
        </filter>
    </defs>
    <g fill="none" fill-rule="evenodd">
        <g>
            <g>
                <g filter="url(#e5vj6r7uaa)" transform="translate(-415 -2636) translate(415 2645)">
                    <g>
                        <path fill="#1D1E1E" fill-rule="nonzero" d="M19.37.396l16.625 11.465c.457.302.762.83.762 1.433v20.742c0 1.886 0 1.886-1.83 1.886-.915 0-1.144-.15-1.144-1.207V14.652c0-.377-.152-.755-.534-.98-4.804-3.32-9.608-6.638-14.413-9.957-.305-.226-.686-.226-.915 0-4.804 3.394-9.685 6.713-14.49 10.032-.228.226-.457.528-.457.905v18.253c0 .453.153.679.686.679h20.896c.534 0 .686-.15.686-.679V18.951c0-.302-.152-.603-.457-.83-1.983-1.357-3.89-2.715-5.872-4.073-.23-.226-.61-.226-.84 0-1.982 1.358-3.965 2.716-5.871 4.149-.305.226-.458.528-.534.83v7.316c.076.83-.534 1.508-1.373 1.584-.229 0-.534 0-.762-.151-.534-.226-.84-.679-.84-1.207v-9.051c.077-.377.306-.754.61-1.056 2.67-1.886 5.339-3.771 8.084-5.582.61-.452 1.45-.452 1.983 0 2.67 1.81 5.262 3.62 7.931 5.431.534.302.763.905.763 1.509v17.046c0 .98-.229 1.132-1.22 1.132l-12.812-.151H1.068C.153 35.847 0 35.696 0 34.79V13.219c0-.528.229-1.056.686-1.283C6.253 8.09 11.82 4.243 17.311.396c.61-.528 1.449-.528 2.06 0zm96.24 18.103s.077 0 .077.075c.534.302.305.679.152 1.056-.991 2.338-1.906 4.752-2.898 7.09-.991 2.338-1.906 4.677-2.821 6.94-.458.904-1.602 1.357-2.517.904-.457-.226-.305-.603-.152-.905.533-1.206 1.067-2.489 1.677-3.696.153-.377.153-.83 0-1.206-1.22-2.942-2.44-5.96-3.584-8.9-.457-1.132-.305-1.434.915-1.434 1.068 0 1.22.076 1.602 1.056.839 2.037 1.601 4.073 2.44 6.11.076.15.153.301.229.528.152-.302.229-.453.305-.68.839-2.036 1.601-4.072 2.44-6.109.382-.83 1.297-1.131 2.135-.83zm-23.869-.302c.839.226 1.754.377 2.593.679.61.226.686.678.457 1.282-.305.754-.61.754-1.296.603-.763-.226-1.525-.301-2.288-.301-.61 0-1.067.377-1.144.98-.076.604.23 1.132.763 1.358.305.15.686.302.991.377l1.754.603c2.67.906 2.44 4.224.763 5.582-1.907 1.509-5.11 1.207-6.711.075-.534-.377-.534-.754-.153-1.357.306-.528.687-.68 1.297-.302.915.603 1.983.83 3.05.528.61-.075 1.144-.528 1.22-1.207.153-.679-.228-1.282-.915-1.508l-1.372-.453c-.534-.15-.992-.377-1.526-.528-1.601-.754-2.211-2.564-1.525-4.148.229-.453.534-.906.992-1.207.991-.68 1.982-.98 3.05-1.056zm8.77-2.414c.229.151.458.453.458.754.076.453.076.906 0 1.434 0 .377.152.452.457.452h.915c.763 0 .992.302.992 1.056s-.23.905-.992.98c-1.395.073-1.447.076-1.449 1.288v5.35c0 1.056.382 1.358 1.45 1.207.838-.075 1.143.075 1.296.905.076.604-.153.905-.992 1.056-1.754.377-3.584-.452-3.965-1.886-.077-.452-.153-.98-.153-1.433v-5.43c.153-.378.153-.604.076-.981h-.533c-.84 0-1.144-.377-1.068-1.207.076-.528.305-.905.915-.83.61.076.915-.15.839-.83 0-.225.076-.527.076-.753.077-1.056.763-1.509 1.678-1.132zm-36.376 2.64c.762 0 .991.226.991.98v6.563c0 1.81 1.144 2.64 2.974 2.187.305-.075.61-.226.84-.377.686-.302 1.143-.98 1.067-1.735-.076-2.187 0-4.375 0-6.487 0-.905.229-1.13 1.296-1.13 1.068 0 1.22.225 1.22 1.13v7.317c0 .754.077 1.584.23 2.338.152.377-.077.754-.458.905h-.077c-1.067.302-1.449.151-1.982-.905-.84.377-1.678.754-2.593.98-.992.302-2.135.152-3.05-.301-1.144-.453-1.907-1.584-1.907-2.79-.076-2.64 0-5.28 0-7.845 0-.377.305-.754.686-.83h.763zm-6.101-3.47c.305.076.534.151.763.302.305.226.838.604.762.905-.076.528-.381.98-.686 1.283-.076.075-.534 0-.763-.076-1.449-.679-3.126-.905-4.728-.603-1.678.226-3.05 1.508-3.432 3.168-.457 1.584-.457 3.318 0 4.902.61 2.263 1.83 3.32 4.347 3.47.915 0 1.754 0 2.67-.15.38 0 .61-.227.61-.68v-2.79c0-.453-.153-.604-.61-.604h-1.83c-.61 0-.763-.452-.763-.98s0-1.132.762-1.132h4.042c.61 0 .839.377.839.98v5.205c0 .905-.229 1.358-1.144 1.66-.839.226-1.678.377-2.593.452-1.449.076-2.898 0-4.347-.226-2.745-.604-4.5-2.866-4.728-5.808-.152-1.509-.076-3.017.229-4.526.61-2.941 3.203-5.129 6.253-5.129 1.45-.15 2.974 0 4.347.377zm23.946 3.47c2.059.377 3.279 1.961 3.584 4.224.305 2.263-.153 2.715-2.364 2.64-1.602-.075-3.203 0-4.804 0h-.84c-.152 1.433.916 2.79 2.365 2.942 1.296.15 2.593-.076 3.736-.68.382-.226.916-.15 1.144.227 0 0 0 .075.077.075.533.755.457 1.207-.382 1.584-2.287 1.132-4.957 1.132-7.168.076-1.678-.83-2.288-2.414-2.44-4.073-.077-1.207 0-2.414.305-3.62.38-1.811 1.906-3.169 3.813-3.395.991-.15 1.982-.15 2.974 0zm-2.288 1.961c-1.373.226-2.288 1.433-2.135 2.791.076 0 .152.075.228.075h4.729c.457 0 .457-.301.457-.603-.229-1.81-1.525-2.64-3.28-2.263z" transform="translate(487.845 4.9)"/>
                    </g>
                </g>
                <g filter="url(#5cxsnpjiab)" transform="translate(-415 -2636) translate(415 2645)">
                    <g>
                        <path fill="#1D1E1E" fill-rule="nonzero" d="M29.71 12.77C29.642 5.95 24.099.421 17.178.421S4.646 5.951 4.646 12.771c0 5.961 4.288 10.936 9.956 12.062 1.896.377 2.158-4.38 1.639-7.534-.01 0-.572-.033-.76-.04-.389-.016-.757.423-.995.509-.405.144-.483-.253-.775-.253-.256 0-.6.393-1.547.216-.957-.179-1.267-1.032-1.267-1.032l-.287-.148c-.977-.24-1.03-1.293-1.037-1.352-.055-.515.857-.904.6-1.063-1.106-.691-.75-1.234-.738-1.262.14-.366.677-1.157.48-1.28-.542-.341.348-2.322 1.13-2.872.12-.627.806-1.652 1.469-1.87-.037-.71.972-1.114.972-1.114.706-.224.212-.799 1.566-.707.317.021.308-.334 1.093-.35.228-.006.478-.18 1.174-.18 1.22-.054 1.164.76 1.573.621.515-.174 2.234.658 2.413 2.368.772-.06 2.798 2.139 2.74 3.761 1.33 1.475-.485 2.87-.557 3.14.051.154.32.824.213 1.342-.126.608-.907 1.271-.94 1.293-.547.39-.953.829-1.604.708-.673-.124-.546-.735-.746-.883-.432.379-1.083.7-1.917.633-.098-.015-.46-.052-.507-.057-.4 2.323-.343 7.511 1.326 7.508 5.034-.758 10.463-5.533 10.397-12.165zm-26.08 0C3.63 6.195 8.843.453 15.42.075 5.993-.78 0 5.814 0 12.77s6.133 13.681 15.42 12.695c-6.576-.38-11.79-6.12-11.79-12.695zM18.935.075c6.576.378 11.79 6.12 11.79 12.695s-5.214 12.316-11.79 12.695c9.527.825 15.42-5.739 15.42-12.695S28.486-.736 18.936.075zM92.09 13.818h-4.095v-.05c0-.92.185-1.621.554-2.106.37-.485.89-.727 1.56-.727.687 0 1.205.255 1.558.766.159.238.27.502.33.79.062.29.093.68.093 1.174v.153zm3.236-1.721c-.29-.91-.744-1.672-1.36-2.284-.44-.442-1.004-.782-1.691-1.02-.687-.239-1.427-.358-2.22-.358-.898 0-1.69.145-2.377.434-.688.29-1.313.731-1.877 1.326-.598.647-1.03 1.378-1.294 2.195-.264.816-.396 1.811-.396 2.984 0 1.022.15 1.949.449 2.781.299.834.727 1.544 1.281 2.131.555.587 1.228 1.042 2.022 1.366.792.322 1.673.484 2.641.484 1.746 0 3.344-.527 4.797-1.582.213-.139.242-.347.096-.537l-.9-1.337c-.223-.35-.442-.26-.624-.13-.984.69-2.01 1.035-3.077 1.035-.917 0-1.621-.273-2.114-.817-.494-.544-.74-1.327-.74-2.347v-.102h7.28c.628 0 .54-.791.54-.791 0-1.378-.145-2.521-.436-3.431zm52.814 1.67c0-.918.186-1.62.556-2.105.37-.485.889-.727 1.558-.727.687 0 1.207.255 1.56.766.158.238.268.502.33.79.06.29.092.68.092 1.174v.153h-4.096v-.05zm7.228 2.552c.628 0 .54-.791.54-.791 0-1.378-.145-2.521-.435-3.431-.29-.91-.745-1.672-1.36-2.284-.442-.442-1.005-.782-1.692-1.02-.687-.239-1.427-.358-2.219-.358-.898 0-1.691.145-2.379.434-.686.29-1.312.731-1.875 1.326-.6.647-1.03 1.378-1.295 2.195-.264.816-.396 1.811-.396 2.984 0 1.022.149 1.949.45 2.781.298.834.725 1.544 1.28 2.131.555.587 1.229 1.042 2.022 1.366.793.322 1.672.484 2.642.484 1.745 0 3.343-.527 4.796-1.582.213-.139.241-.347.096-.537l-.9-1.337c-.222-.35-.442-.26-.622-.13-.985.69-2.011 1.035-3.08 1.035-.915 0-1.62-.273-2.113-.817-.493-.544-.74-1.327-.74-2.347v-.102h7.28zm-18.508-1.531c-.617 0-1.12-.144-1.507-.434-.387-.289-.582-.765-.582-1.429 0-.612.186-1.088.556-1.428.37-.34.888-.51 1.559-.51.67 0 1.192.17 1.571.51.38.34.569.816.569 1.428 0 1.242-.723 1.863-2.166 1.863zm5.944-3.674c.493 0 .934-.077 1.321-.23.277-.109.553-.266.83-.47.229-.154.255-.418.08-.639l-.884-1.298c-.2-.326-.37-.424-.728-.195-.298.213-.614.387-.949.523-.485.196-.974.293-1.466.293-.23 0-.472-.025-.728-.076-.255-.051-.567-.119-.937-.204-.493-.12-.925-.204-1.295-.255-.37-.052-.75-.077-1.135-.077-.864 0-1.648.107-2.353.32-.704.212-1.303.509-1.797.892-.492.383-.876.846-1.148 1.39-.274.545-.41 1.149-.41 1.812 0 1.939.969 3.147 2.906 3.623-.564.136-1.008.29-1.334.459-.326.17-.573.349-.74.536-.167.187-.277.383-.33.586-.052.205-.08.409-.08.613 0 .443.093.808.278 1.097.186.29.436.493.754.613.616.255 1.699.39 3.249.407l1.506.027c.704.016 1.295.13 1.77.343.476.213.714.617.714 1.212 0 .273-.08.524-.238.753-.159.23-.37.422-.634.574-.282.17-.608.285-.978.345s-.784.089-1.242.089c-.828 0-1.457-.136-1.889-.409-.431-.272-.647-.672-.647-1.199 0-.187.01-.336.026-.446.018-.111.062-.436-.26-.395h-2.884c-.07.136-.141.302-.211.497s-.106.471-.106.83c0 .884.37 1.658 1.11 2.321.617.544 1.382.914 2.299 1.11.915.195 1.858.293 2.827.293 1.056 0 2.06-.127 3.012-.383.95-.255 1.726-.688 2.324-1.3.723-.75 1.084-1.651 1.084-2.706 0-1.156-.388-2.083-1.162-2.78-.476-.425-1.023-.723-1.638-.893-.617-.17-1.437-.264-2.458-.28l-1.902-.027c-.388 0-.582-.101-.582-.306 0-.186.119-.36.357-.522.238-.162.586-.345 1.044-.548.14.016.238.025.29.025h.239c.721 0 1.387-.098 1.994-.293.607-.196 1.136-.464 1.586-.804.449-.34.797-.749 1.043-1.225.247-.476.37-.995.37-1.556 0-.443-.066-.834-.198-1.174-.133-.34-.33-.663-.595-.97.106.018.242.034.41.05.167.018.338.027.515.027zm-16.724 7.756c-.265.29-.556.51-.873.664-.316.153-.642.229-.977.229-.458 0-.832-.157-1.123-.472-.29-.315-.436-.727-.436-1.237 0-.783.242-1.31.727-1.582s1.343-.408 2.577-.408h.158l-.053 2.806zm4.082.855c-.168-.196-.295-.404-.383-.625-.088-.221-.142-.464-.159-.727-.018-.264-.026-.575-.026-.932l.079-4.389v-.892c0-.238-.013-.442-.04-.613-.026-.17-.053-.318-.079-.446-.027-.127-.066-.26-.118-.395-.265-.731-.772-1.293-1.52-1.684-.75-.392-1.695-.587-2.84-.587-.617 0-1.22.06-1.81.179-.59.119-1.22.314-1.89.587-.475.187-.871.357-1.188.51-.185.088-.375.19-.57.301-.322.196-.288.435-.199.643l1.004 1.631c.207.316.45.289.72.154.572-.34 1.118-.613 1.634-.816.651-.255 1.26-.383 1.823-.383.652 0 1.08.141 1.281.421.203.281.305.787.305 1.519v.535c-.142-.017-.274-.026-.398-.026h-.396c-2.166 0-3.79.362-4.874 1.085-1.084.724-1.625 1.859-1.625 3.406 0 1.31.396 2.318 1.189 3.023.793.706 1.946 1.06 3.46 1.06 1.128 0 2.036-.24 2.723-.715.14-.085.277-.187.41-.306.132-.12.268-.247.408-.382.177.34.436.646.78.917.203.16.418.3.64.429.345.202.587.127.855-.162.364-.393.91-.991 1.216-1.375.128-.16.2-.381-.029-.57-.154-.127-.28-.255-.383-.375zm-12.051.02c-.052-.221-.277-.23-.427-.193-.152.04-.282.071-.39.097-.184.042-.356.063-.515.063-.616 0-1.026-.14-1.229-.42-.202-.282-.303-.839-.303-1.672v-6.557h2.272s.46-1.197.72-1.882c.13-.36-.094-.466-.292-.466h-2.7c0-.663.017-1.34.052-2.028.022-.42.05-.824.085-1.21.065-.634-.388-.588-.673-.536l-2.846.688c-.07.493-.11.969-.118 1.428-.01.46-.014 1.012-.014 1.658h-1.347v2.348h1.347v7.092c0 .307.004.558.014.753.007.196.016.362.025.498.01.136.03.264.067.383.035.119.08.246.131.382.212.58.648 1.042 1.308 1.39.66.35 1.44.524 2.339.524.855 0 1.731-.164 2.63-.492.132-.056.227-.148.194-.347l-.33-1.501zM107.242 3c-.617 0-1.14.204-1.571.612-.432.408-.648.91-.648 1.505 0 .596.212 1.097.634 1.505.423.409.934.613 1.532.613.617 0 1.136-.204 1.56-.613.422-.408.633-.91.633-1.505 0-.595-.206-1.097-.62-1.505-.415-.408-.921-.612-1.52-.612zm1.386 5.459c-.67.103-2.183.33-2.865.434-.325.055-.344.154-.344.36v12.17c0 .28.17.354.376.354h2.853c.247 0 .311-.066.311-.334v-12.7c0-.314-.11-.318-.33-.284zm-4.51 0c-.168-.033-.383-.05-.647-.05-.67 0-1.269.187-1.797.56-.528.375-.987.81-1.374 1.301-.053-.697-.238-1.316-.555-1.862l-3.17.818c.14.373.26.884.356 1.53.097.647.146 1.411.146 2.295v8.346c0 .174.088.38.376.38h2.773c.226 0 .391-.064.391-.38v-8.855c.652-.731 1.375-1.097 2.167-1.097.183 0 .364.003.542.043.326.048.532.098.647-.277.18-.553.47-1.448.65-1.995.155-.489-.087-.651-.505-.757zm-21.49-4.413h-3.012c-.354 0-.407.103-.407.405v6.483h-5.283V4.452c0-.374-.179-.418-.533-.405h-2.7c-.386 0-.44.125-.44.418V21.37c0 .312.148.407.34.407h2.934c.215 0 .399-.046.399-.394V13.87h5.283v7.51c0 .275.185.4.413.4h2.98c.251 0 .36-.138.36-.381V4.438c0-.323-.112-.391-.333-.391zM69.064 8.715h-2.911c-.317 0-.383.05-.465.329l-1.93 5.897c-.107.306-.207.63-.304.97-.098.34-.172.62-.225.842-.035.152-.08.348-.132.586-.053.239-.102.463-.145.676-.044.213-.08.4-.106.562-.026.162-.04.251-.04.268l-.713-2.705-2.238-7.259c-.09-.287-.284-.345-.527-.322l-2.78.312c-.333.038-.383.207-.295.428.74 2.127 4.333 12.48 4.333 12.48h.9c-.089.186-.16.348-.212.485-.053.136-.106.259-.159.37-.053.11-.11.216-.172.318-.061.102-.136.22-.224.358-.3.458-.634.816-1.004 1.07-.264.188-.599.354-1.004.5-.26.09-.514.175-.765.25-.279.094-.32.313-.206.522.24.441.617 1.14.833 1.538.119.235.356.283.574.239.468-.086.917-.204 1.347-.356.555-.196 1.062-.456 1.52-.779.246-.17.475-.374.686-.612.212-.238.419-.522.621-.854.203-.332.41-.732.621-1.199.212-.469.432-1.017.661-1.647l4.77-12.873c.132-.373-.074-.394-.309-.394zM54.871 4.434c-.039-.311-.156-.387-.478-.387h-3.866c-.23 0-.417.059-.506.397l-2.372 8.405c-.281 1.037-.501 1.999-.66 2.883-.035-.22-.075-.434-.119-.638l-.132-.625c-.044-.213-.097-.442-.159-.69-.061-.245-.137-.53-.224-.854l-2.3-8.493c-.126-.381-.343-.385-.597-.385h-3.873c-.31 0-.384.167-.403.412l-1.64 16.919c-.024.296.15.394.445.4h2.698c.285 0 .476-.057.518-.38l.607-8.88c.035-.546.062-1.081.08-1.609.035-.492.053-.986.053-1.479.087.476.202.987.343 1.53.14.562.273 1.064.396 1.506l2.509 8.932c.082.263.202.38.49.38h2.301c.371-.013.464-.055.57-.367l2.797-9.327c.158-.545.286-1.008.383-1.391.096-.383.197-.83.304-1.34 0 .477.013.949.04 1.416.025.469.056.983.092 1.544 0 0 .568 7.506.663 9.15.018.295.17.315.387.315h2.9c.187 0 .354-.084.32-.38-.262-2.326-1.349-14.619-1.567-16.964z" transform="translate(.555 11.56)"/>
                    </g>
                </g>
                <g filter="url(#x8d77bhrqc)" transform="translate(-415 -2636) translate(415 2645)">
                    <g fill="#FFF" fill-rule="nonzero" filter="url(#nzakryljcd)" transform="translate(295.815 .46)">
                        <path d="M27.701 31.776c-1.792 0-2.852 1.396-2.852 3.12 0 1.724 1.06 3.12 2.852 3.12 1.792 0 2.852-1.396 2.852-3.12 0-1.724-1.06-3.12-2.852-3.12M16.702 31.776h-1.059v3.695h1.06c1.303 0 1.792-.738 1.792-1.806s-.49-1.89-1.793-1.89"/>
                        <path d="M42.04 19.624h-2.852v8.621h-2.933v-8.621h-2.851V17.16h8.636v2.463zm-7.007 21.02c-.815-.082-1.548-.74-1.548-1.642 0-.986.733-1.642 1.548-1.642.815 0 1.548.656 1.548 1.642 0 .985-.733 1.643-1.548 1.643zm-7.332 0c-3.096-.082-5.785-2.381-5.785-5.747 0-3.367 2.689-5.666 5.785-5.666s5.784 2.382 5.784 5.666c0 3.366-2.688 5.748-5.784 5.748zm-10.836-2.628h-1.222v2.381H12.79V29.313h4.074c2.933 0 4.562 1.89 4.562 4.352 0 2.464-1.63 4.351-4.562 4.351zm-1.793-20.855l2.445 4.516 2.362-4.516h3.015l-3.992 7.225v3.86h-2.933v-3.778l-4.074-7.307h3.177zm12.71-.082c3.096 0 5.785 2.38 5.785 5.665 0 3.367-2.689 5.748-5.785 5.748-3.096-.082-5.784-2.381-5.784-5.748 0-3.366 2.688-5.665 5.784-5.665zM26.967 0C12.074 0 0 12.536 0 27.999c0 15.464 12.074 27.999 26.967 27.999 14.894 0 26.968-12.535 26.968-27.999C53.935 12.536 41.86 0 26.967 0z"/>
                        <path d="M27.701 25.865c1.874 0 2.852-1.396 2.852-3.121 0-1.724-1.06-3.12-2.852-3.12-1.792 0-2.852 1.396-2.852 3.12 0 1.725 1.06 3.12 2.852 3.12"/>
                    </g>
                </g>
                <g fill-rule="nonzero">
                    <g>
                        <path fill="#FFF" d="M27.372 20.175c.022-1.416-1.579-3.051-2.946-3.017-.32.008-.634.042-.752.384-.177.512.195.634.574.694 1.265.203 1.93.948 2.056 2.208.034.342.251.619.582.58.459-.055.5-.462.486-.849m2.342.556c.025-2.933-2.49-5.602-5.57-5.972-.48-.057-1.114-.283-1.226.382-.118.699.589.628 1.043.73 3.082.687 4.156 1.809 4.663 4.863.074.446-.073 1.139.685 1.024.561-.086.358-.68.405-1.027m28.131-5.942c-.118-1.375-.892-2.165-2.211-2.311-1.24-.137-2.357 1.032-2.35 2.311.009 1.318 1.062 2.365 2.366 2.284 1.409-.087 2.039-.966 2.195-2.284m-34.533-2.487c-.362.052-1.11-.25-1.157.56-.031.547.599.457 1.012.52 4.991.767 7.293 3.138 7.929 8.16.059.464-.114 1.162.548 1.175.693.013.526-.675.532-1.139.058-4.73-4.07-9.115-8.864-9.276m30.09 13.392c0 1.599.025 3.197-.008 4.795-.028 1.398.6 2.329 1.988 2.377 1.395.048 2.109-.847 2.112-2.243.007-3.32.017-6.64-.007-9.959-.01-1.27-.567-2.15-1.968-2.162-1.462-.015-2.103.823-2.112 2.213-.011 1.66-.003 3.32-.006 4.98m37.06-.76c0 1.909-.03 3.818.011 5.726.026 1.193.654 2.053 1.871 2.144 1.305.097 2.1-.688 2.235-1.96.116-1.098.178-2.227.051-3.318-.362-3.124.19-5.603 3.765-6.444.866-.204 1.191-.978.996-1.917-.201-.973-.794-1.511-1.736-1.66-.837-.133-1.594.126-2.22.687-.443.396-.693.708-1.222-.043-.588-.833-1.57-.851-2.516-.45-.918.39-1.25 1.107-1.24 2.062.016 1.724.004 3.449.005 5.173M28.331 32.7c1.555.016 3.376-1.48 3.901-2.965.507-1.428-.563-1.995-1.41-2.676-.623-.501-1.289-.95-1.944-1.41-1.308-.918-2.503-.989-3.479.487-.547.828-1.314.864-2.116.5-2.21-1-3.917-2.543-4.916-4.787-.443-.993-.437-1.884.598-2.586.548-.371 1.1-.811 1.055-1.623-.057-1.058-2.63-4.594-3.645-4.967-.42-.154-.839-.144-1.266 0-2.382.799-3.368 2.756-2.423 5.073 2.818 6.911 7.777 11.723 14.605 14.66.389.167.822.234 1.04.294m55.185-6.15c1.047 0 2.095.01 3.142-.003 2.23-.03 2.842-.794 2.413-2.998-.765-3.94-4.136-6.562-7.947-6.183-3.781.376-6.589 3.714-6.542 7.867.037 3.217 1.33 5.802 4.371 7.1 3.128 1.335 6.161.767 8.913-1.172.877-.618 1.347-1.485.636-2.543-.622-.925-1.447-1.039-2.41-.518-.65.352-1.299.719-1.985.983-1.891.725-4.165.049-4.913-1.396-.374-.722-.352-1.16.627-1.141 1.231.022 2.463.005 3.695.003m-39.77-1.218c-1.512-4.06-2.8-7.571-4.131-11.066-.473-1.24-1.237-2.245-2.775-1.699-1.523.54-1.824 1.705-1.266 3.135 2.01 5.154 4.024 10.307 6.055 15.454.382.965 1 1.717 2.173 1.692 1.077-.022 1.67-.707 2.04-1.61.63-1.536 1.225-3.086 1.832-4.631 1.437-3.663 2.887-7.32 4.3-10.992.51-1.326.278-2.462-1.182-3.013-1.39-.526-2.227.212-2.778 1.404-.231.5-.408 1.027-.602 1.545-1.159 3.087-2.315 6.175-3.667 9.781m15.585-2.817c0 2.59.008 5.178-.004 7.766-.005.991.233 1.854 1.193 2.311.944.45 1.846.29 2.48-.543.428-.562.648-.388 1.148-.081 3.124 1.908 6.539 1.02 8.39-2.142 1.819-3.105 1.636-6.253.013-9.343-1.407-2.677-4.177-3.756-7.075-2.898-2.05.608-2.05.608-2.053-1.623 0-.308-.012-.617.002-.925.065-1.416-.42-2.554-1.972-2.568-1.639-.013-2.14 1.165-2.129 2.65.018 2.465.005 4.93.007 7.396m-2.319 21.56c-7.71.103-16.155-.109-24.592-.623-.885-.053-1.362.34-1.872.91-2.176 2.438-4.361 4.869-6.568 7.28-.349.38-.672 1.08-1.302.82-.623-.26-.354-.98-.36-1.506-.023-2.034-.1-4.073.02-6.101.095-1.59-.294-2.302-2.066-2.35-2.21-.06-4.444-.334-6.603-.808C6.046 40.027 1.027 35.87.313 27.377c-.31-3.698-.533-7.383.05-11.055C1.58 8.649 6.007 4.293 13.64 3.038 24.746 1.21 35.948.632 47.177.428c11.726-.215 23.442.195 35.148.808 5.666.297 11.3 1.04 16.859 2.21 6.665 1.406 11.227 6.528 11.788 13.46.323 3.985.392 8.007-.206 11.993-.798 5.314-3.722 9.016-8.624 11.163-4.244 1.858-8.765 2.47-13.329 2.783-10.34.708-20.687 1.298-31.802 1.23" transform="translate(-415 -2636) translate(415 2645) translate(978.465 7.12)"/>
                        <path fill="#08091A" d="M69.675 25.257c.028-2.312-1.273-4.081-3.035-4.128-1.838-.049-3.185 1.602-3.22 3.945-.033 2.255 1.322 4.1 3.05 4.15 1.809.055 3.176-1.638 3.205-3.967m-10.346-2.742c-.001-2.466.012-4.931-.006-7.396-.01-1.485.49-2.663 2.129-2.65 1.552.014 2.037 1.152 1.972 2.569-.014.307-.002.616-.002.924.003 2.23.003 2.23 2.053 1.623 2.898-.858 5.668.22 7.075 2.898 1.623 3.09 1.806 6.238-.013 9.343-1.851 3.162-5.266 4.05-8.39 2.142-.5-.307-.72-.48-1.148.08-.634.834-1.536.993-2.48.544-.96-.457-1.198-1.32-1.193-2.31.012-2.59.004-5.178.003-7.767M43.745 25.332c1.352-3.606 2.508-6.694 3.667-9.781.194-.518.37-1.045.602-1.545.551-1.192 1.388-1.93 2.778-1.404 1.46.551 1.693 1.687 1.182 3.013-1.413 3.671-2.863 7.33-4.3 10.992-.607 1.545-1.202 3.095-1.832 4.63-.37.904-.964 1.59-2.04 1.611-1.173.025-1.791-.727-2.172-1.692-2.032-5.147-4.045-10.3-6.056-15.454-.559-1.43-.257-2.595 1.266-3.135 1.538-.546 2.302.458 2.774 1.699 1.333 3.495 2.62 7.007 4.131 11.066M81.706 23.748c.367 0 .742.046 1.1-.01.679-.104 1.761.411 1.955-.353.254-1.004-.575-1.817-1.5-2.272-1.207-.594-2.382-.488-3.407.441-.551.5-1.165 1.13-.892 1.871.252.685 1.079.227 1.643.316.359.056.734.01 1.1.007m1.812 2.803c-1.233.001-2.465.018-3.697-.004-.978-.018-1 .419-.626 1.14.748 1.446 3.022 2.122 4.913 1.396.686-.263 1.336-.63 1.985-.982.963-.521 1.788-.407 2.41.518.71 1.058.241 1.925-.636 2.543-2.752 1.94-5.785 2.507-8.913 1.173-3.041-1.299-4.334-3.884-4.37-7.101-.047-4.153 2.76-7.49 6.541-7.867 3.811-.379 7.182 2.243 7.948 6.183.428 2.204-.184 2.969-2.414 2.998-1.047.013-2.095.003-3.141.003M28.331 32.701c-.219-.06-.651-.127-1.04-.294-6.827-2.937-11.787-7.749-14.605-14.66-.945-2.317.042-4.274 2.423-5.074.427-.143.846-.153 1.266 0 1.016.374 3.588 3.91 3.645 4.969.044.811-.507 1.25-1.055 1.622-1.035.702-1.04 1.593-.599 2.586 1 2.244 2.707 3.786 4.917 4.788.802.363 1.569.327 2.117-.502.975-1.475 2.17-1.404 3.478-.486.656.46 1.32.909 1.944 1.41.847.68 1.917 1.248 1.41 2.676-.526 1.485-2.346 2.98-3.9 2.965M90.46 24.935c0-1.725.012-3.45-.005-5.173-.009-.955.323-1.672 1.24-2.062.946-.401 1.93-.383 2.517.45.529.75.779.439 1.221.043.627-.56 1.384-.82 2.221-.688.942.15 1.535.688 1.736 1.661.195.939-.13 1.713-.996 1.917-3.575.84-4.127 3.32-3.765 6.444.127 1.09.065 2.22-.051 3.317-.134 1.273-.93 2.058-2.235 1.96-1.217-.09-1.845-.95-1.87-2.143-.042-1.908-.012-3.817-.012-5.726M53.403 25.694c.001-1.66-.007-3.319.004-4.978.009-1.39.65-2.229 2.112-2.215 1.4.014 1.959.893 1.968 2.163.024 3.32.014 6.64.007 9.958-.003 1.397-.717 2.292-2.112 2.244-1.388-.048-2.016-.979-1.988-2.377.033-1.598.008-3.196.009-4.795" transform="translate(-415 -2636) translate(415 2645) translate(978.465 7.12)"/>
                        <path fill="#08081A" d="M23.312 12.302c4.794.161 8.922 4.546 8.863 9.276-.005.464.162 1.152-.53 1.139-.663-.013-.49-.711-.549-1.175-.636-5.022-2.937-7.393-7.929-8.16-.413-.063-1.043.027-1.012-.52.046-.81.795-.508 1.157-.56" transform="translate(-415 -2636) translate(415 2645) translate(978.465 7.12)"/>
                        <path fill="#08091A" d="M57.845 14.79c-.156 1.318-.786 2.196-2.195 2.283-1.304.08-2.357-.966-2.366-2.284-.007-1.279 1.11-2.448 2.35-2.311 1.319.146 2.093.936 2.211 2.312" transform="translate(-415 -2636) translate(415 2645) translate(978.465 7.12)"/>
                        <path fill="#08081A" d="M29.714 20.731c-.046.347.156.941-.405 1.027-.758.115-.61-.579-.685-1.024-.507-3.055-1.58-4.176-4.663-4.864-.454-.101-1.16-.03-1.043-.729.111-.666.746-.44 1.226-.382 3.08.37 5.595 3.04 5.57 5.972" transform="translate(-415 -2636) translate(415 2645) translate(978.465 7.12)"/>
                        <path fill="#08081A" d="M26.886 21.024c-.33.039-.548-.238-.582-.58-.126-1.26-.792-2.005-2.056-2.208-.379-.06-.75-.182-.574-.694.118-.342.432-.376.752-.384 1.367-.034 2.968 1.602 2.946 3.017.014.387-.027.794-.486.849z" transform="translate(-415 -2636) translate(415 2645) translate(978.465 7.12)"/>
                        <path fill="#FFF" d="M69.675 25.257c-.029 2.329-1.396 4.022-3.206 3.968-1.727-.052-3.082-1.896-3.05-4.15.036-2.344 1.383-3.995 3.22-3.946 1.763.047 3.064 1.816 3.036 4.128M81.706 23.75c-.367 0-.742.047-1.101-.01-.564-.088-1.39.37-1.643-.314-.273-.742.34-1.372.892-1.872 1.025-.929 2.2-1.035 3.407-.441.925.455 1.754 1.268 1.5 2.272-.194.764-1.276.249-1.954.354-.36.055-.734.01-1.101.01" transform="translate(-415 -2636) translate(415 2645) translate(978.465 7.12)"/>
                    </g>
                </g>
                <g filter="url(#cduciwxnge)" transform="translate(-415 -2636) translate(415 2645)">
                    <path fill="#1D1E1E" fill-rule="nonzero" d="M47.603 4.727l2.263 8.577h.054l2.341-8.577h3.27l-4.354 13.98c-1.444 3.968-2.607 5.055-5.299 5.055-.522.004-1.044-.033-1.56-.111v-2.72l.255.046c.362.056.728.077 1.095.063 1.131 0 1.77-.325 2.161-1.103.315-.495.505-1.062.554-1.65-.073-.568-.215-1.125-.421-1.659L44.294 4.727h3.309zm-35.339-.275l.256.005v2.23c-.719-.074-1.443.038-2.107.325.5.72.756 1.586.733 2.467 0 2.635-1.732 4.507-5.166 4.507-1.42 0-2.551.072-2.551.865 0 2.246 9.005-.793 9.005 4.76 0 1.984-1.975 4.127-6.344 4.127-3.683 0-5.985-1.032-6.087-3.23-.016-.343.03-.687.133-1.015l-.008.032 2.926.055c-.218 1.063.156 2.095 3.558 2 2.076-.096 2.856-.968 2.856-1.587 0-.96-1.186-1.595-3.628-1.754-3.012-.182-5.415-.889-5.415-2.698 0-1.34 1.521-2.356 2.138-2.539-1.14-.944-2.03-2.007-2.03-3.697 0-2.468 1.842-4.848 5.4-4.848 1.227.01 2.415.441 3.372 1.222.632-.85 1.654-1.278 3.215-1.222l-.256-.005zm96.336-.257v1.468c-.78-.076-1.558.154-2.177.643.671.812 1.017 1.852.968 2.912 0 3.427-2.396 4.863-5.283 4.863-.755-.009-1.503-.154-2.208-.428-.866.325-1.264.833-1.264 1.34 0 .802.53 1.199 4.237 1.199 4.097 0 5.813 1.341 5.813 3.618 0 2.031-1.537 3.77-6.242 3.77-4.706 0-5.97-1.635-5.97-3.294 0-1.198.468-2.213 2.396-2.943v-.048c-.999-.23-1.818-.643-1.818-1.817.081-1.172.92-2.145 2.052-2.38-1.217-.799-1.964-2.162-1.99-3.635 0-3.046 2.107-4.998 5.416-4.998 1.133-.02 2.244.315 3.183.96.753-.786 1.785-1.23 2.864-1.23h.023zm-6.515 13.394c-3.106 0-4.05 1.182-4.05 2.38 0 1.365 1.31 2.3 4.151 2.3 3.418 0 4.893-.935 4.893-2.38 0-1.15-.89-2.277-4.994-2.277v-.023zm30.01-10.649l-1.209.865c-.928-1.293-1.935-2.103-3.573-2.103-1.64 0-2.724.794-2.724 2.452 0 3.412 8.092 1.397 8.092 6.832 0 2.5-2.278 3.967-4.76 3.967-2.13.072-4.142-.993-5.306-2.809l1.155-.793-.008-.071c1.295 1.88 2.458 2.38 4.253 2.38s3.082-1.166 3.082-2.674c0-4.07-8.092-1.777-8.092-6.752 0-2.635 2.037-3.801 4.362-3.801 1.916-.14 3.746.83 4.729 2.507zM19.372 4.512c3.605-.071 5.602 3.008 5.602 6.348v1.357l-8.279.04c.055 2.888 1.303 4.014 2.864 4.014 1.236.017 2.395-.608 3.074-1.658l2.341 1.5c-1.264 1.983-3.105 2.84-5.758 2.84-3.574 0-5.806-2.817-5.806-7.228 0-4.412 2.232-7.213 5.962-7.213zm69.465-.085l.225.006c3.121 0 4.596 1.27 4.596 4.372v7.3c.002.85.073 1.7.211 2.539l-1.553.008-.218-1.667c-1.36 1.273-3.147 1.969-4.994 1.944-2.146 0-3.785-1.325-3.785-3.65 0-3.808 3.067-4.506 8.81-5.8v-.96c0-1.864-.78-2.809-3.121-2.809-1.684.054-3.21 1.024-3.996 2.54l-1.053-.643c.9-2.022 2.923-3.28 5.103-3.174l-.225-.006zm26.452.006c3.699 0 5.462 2.967 5.462 7.292h-9.504c0 3.182 1.287 5.919 4.409 5.919 1.77 0 2.637-.619 4.01-2.825l1.296.699c-1.506 2.475-2.848 3.404-5.463 3.404-3.589 0-5.852-2.325-5.852-7.253 0-4.324 2.162-7.236 5.642-7.236zM30.6.117v4.617h6.125V.117h3.262v4.617h2.66v2.674h-2.684v7.864c0 .745.398.96 1.179.96.51-.035 1.014-.122 1.506-.262v2.69c-.856.127-1.719.198-2.583.214-2.42 0-3.363-1.19-3.363-3.174V7.408h-6.126v7.864c0 .745.406.96 1.186.96.51-.034 1.015-.125 1.506-.27v2.698c-.858.126-1.723.198-2.59.214-2.412 0-3.364-1.19-3.364-3.174V.117H30.6zm46.53 4.308c2.396 0 3.613 1.325 3.613 3.769v10.45h-1.56V8.035c0-1.587-.843-2.333-2.342-2.333-1.217 0-3.23 1.318-4.073 2.659v10.315h-1.56V8.036c0-1.588-.851-2.334-2.342-2.334-1.217 0-3.222 1.318-4.065 2.659v10.315l-1.67-.032V4.71h1.56v2.094c1.405-1.5 2.435-2.38 4.573-2.38 1.547-.027 2.915 1.015 3.325 2.531 1.24-1.476 2.551-2.531 4.541-2.531zm-17.44.286v13.933h-1.584l.008-13.933h1.576zm32.391 6.078c-6.305 1.388-7.148 2.705-7.148 4.475-.03.663.225 1.306.698 1.763.473.457 1.119.682 1.768.617 1.79-.142 3.46-.963 4.682-2.301v-4.554zm10.144-5.047c-.953-.079-1.893.27-2.573.955-.68.685-1.03 1.637-.962 2.608h-.015c0 2.404 1.63 3.475 3.55 3.475 2.209 0 3.55-1.04 3.55-3.475 0-2.436-1.341-3.563-3.55-3.563zM5.973 6.98c-.961-.039-1.847.524-2.235 1.419-.388.894-.198 1.939.478 2.634.676.695 1.702.899 2.586.514.884-.385 1.446-1.28 1.418-2.258.006-.61-.228-1.198-.65-1.631-.422-.434-.997-.678-1.597-.678zm109.245-1.293c-2.802 0-4.02 2.904-4.02 4.76h7.968c-.312-2.896-1.553-4.76-3.948-4.76zM19.355 6.924c-1.6 0-2.606 1.135-2.66 3.055h5.313c-.054-1.92-1.053-3.055-2.653-3.055zm114.817-5.117c.886.004 1.603.733 1.607 1.634.003.666-.39 1.268-.993 1.524-.605.256-1.301.116-1.764-.355-.463-.47-.601-1.179-.349-1.793.252-.615.844-1.014 1.499-1.01zm0 .214c-.772 0-1.397.636-1.397 1.42 0 .785.625 1.42 1.397 1.42.365 0 .715-.15.968-.419.254-.268.389-.63.374-1 .015-.372-.12-.734-.374-1.002-.253-.268-.603-.42-.968-.42zm.132.452c.43 0 .617.19.617.532.015.27-.175.507-.437.547l.53.865h-.296l-.5-.865h-.366v.865h-.281V2.473h.733zm-.001.214h-.475v.643h.297c.257 0 .538 0 .538-.325 0-.293-.177-.316-.36-.318zM59.69.172v2.365h-1.576V.172h1.576z" transform="translate(724.275 16)"/>
                </g>
            </g>
        </g>
    </g>
</svg>
