<svg xmlns="http://www.w3.org/2000/svg" width="135" height="18" viewBox="0 0 135 18">
    <g fill="none" fill-opacity=".953" fill-rule="evenodd">
        <g fill="#FFF" fill-rule="nonzero">
            <g>
                <path d="M96.896 32.031c.944 0 1.79.184 2.537.553.746.368 1.41.89 1.988 1.566l-1.143 1.22-.186-.235c-.382-.458-.811-.829-1.288-1.112-.556-.33-1.192-.495-1.908-.495-.747 0-1.357.173-1.829.518-.472.346-.709.787-.709 1.325 0 .43.199.771.595 1.025.396.253 1.097.456 2.103.61 1.66.246 2.834.641 3.52 1.186.685.545 1.028 1.317 1.028 2.315 0 .706-.198 1.332-.594 1.877-.396.545-.941.967-1.635 1.267-.693.3-1.481.449-2.365.449-1.097 0-2.042-.188-2.834-.564-.793-.376-1.501-.895-2.126-1.555l1.143-1.22.213.235c.436.458.925.829 1.467 1.112.632.33 1.344.495 2.137.495.823 0 1.49-.192 2-.576.51-.384.765-.883.765-1.497 0-.507-.217-.91-.65-1.21-.435-.299-1.178-.525-2.23-.679-1.6-.26-2.723-.637-3.37-1.128-.648-.492-.972-1.175-.972-2.05 0-1.044.404-1.877 1.211-2.5.808-.621 1.852-.932 3.132-.932zm28.896 0c1.02 0 1.924.253 2.709.76.784.507 1.398 1.21 1.84 2.108.441.898.662 1.93.662 3.097v.691h-8.845l.036.28c.157 1.01.56 1.846 1.21 2.507.708.722 1.619 1.083 2.73 1.083.702 0 1.334-.17 1.898-.507.564-.338 1.074-.86 1.531-1.566l1.189 1.152-.202.268c-.549.695-1.178 1.224-1.89 1.586-.8.407-1.68.61-2.64.61-1.127 0-2.121-.261-2.982-.783-.861-.522-1.532-1.24-2.012-2.154-.48-.913-.72-1.946-.72-3.098 0-1.151.24-2.184.72-3.097.48-.914 1.136-1.632 1.966-2.154.83-.522 1.764-.783 2.8-.783zm19.8 0c.944 0 1.79.184 2.537.553.746.368 1.41.89 1.988 1.566l-1.143 1.22-.187-.235c-.381-.458-.81-.829-1.287-1.112-.556-.33-1.192-.495-1.908-.495-.747 0-1.357.173-1.829.518-.472.346-.709.787-.709 1.325 0 .43.199.771.595 1.025.396.253 1.097.456 2.103.61 1.66.246 2.834.641 3.52 1.186.685.545 1.028 1.317 1.028 2.315 0 .706-.198 1.332-.594 1.877-.396.545-.941.967-1.635 1.267-.693.3-1.481.449-2.365.449-1.097 0-2.042-.188-2.834-.564-.793-.376-1.501-.895-2.126-1.555l1.143-1.22.213.235c.436.458.925.829 1.467 1.112.632.33 1.344.495 2.137.495.823 0 1.49-.192 2-.576.51-.384.765-.883.765-1.497 0-.507-.217-.91-.651-1.21-.434-.299-1.177-.525-2.228-.679-1.6-.26-2.724-.637-3.372-1.128-.647-.492-.971-1.175-.971-2.05 0-1.044.404-1.877 1.211-2.5.808-.621 1.852-.932 3.132-.932zm-86.344-4.957l.01.001-5.494 8.39 5.478 8.366s-2.372.313-3.52-.76c-.696-.651-1.408-1.687-1.481-1.795l-.006-.009-2.022-2.992c-.098-.156-.226-.325-.431-.325-.176 0-.295.124-.388.258l-.044.067-2.021 2.992s-.712 1.117-1.446 1.803c-1.023.957-3.053.812-3.482.77l-.08-.01 5.479-8.364-5.493-8.39s2.318-.406 3.466.667c.698.652 1.474 1.8 1.55 1.912l.006.01 2.021 2.991c.098.157.227.326.432.326.176 0 .295-.124.387-.258l.044-.068 2.022-2.991s.821-1.235 1.556-1.922c1.107-1.035 3.302-.695 3.457-.67zm-16.737 2.94v.598h.002v10.02c-.009 2.057-.223 2.513-1.156 2.987-.683.346-1.705.243-1.823.23l-.011-.002V32.624c0-.564.188-.933.883-1.265.415-.198.801-.35 1.203-.574.531-.295.81-.643.883-.744l.02-.028zm-23.524-2.205c.647.583.862 1.491.885 1.596l.002.01 2.277 9.011 1.893-7.375c.185-.784.517-1.753 1.043-2.409.634-.79 1.89-.88 2.144-.886h.065c.253.007 1.509.095 2.144.886.467.583.782 1.414.975 2.141l.067.268 1.894 7.375 2.276-9.011s.2-.987.888-1.606c1.07-.964 2.654-.805 2.779-.79h.008l-4.36 16.84s-1.437.106-2.156-.268c-.945-.493-1.396-.873-1.968-3.164-.51-2.042-1.938-8.042-2.068-8.47-.065-.211-.141-.715-.512-.715-.362 0-.446.504-.512.715-.133.427-1.558 6.428-2.068 8.47-.572 2.291-1.021 2.671-1.967 3.164-.682.355-2.008.278-2.145.27l-.012-.002L16.2 27.02s1.672-.214 2.787.79zm85.557 4.59l2.56 9.42 2.651-9.42h1.783l2.651 9.513 2.629-9.512h1.737l-3.383 11.331h-1.965l-2.584-9.097-2.56 9.097h-1.988L102.738 32.4h1.806zm-32.91-5.136l6.193 16.468h-1.92l-1.69-4.56h-7.2l-1.692 4.56h-1.852l6.195-16.468h1.965zm14.253 4.768c1.295 0 2.313.426 3.052 1.278.739.852 1.108 2.085 1.108 3.697v6.725h-1.76v-6.518l-.004-.27c-.035-1.064-.282-1.876-.739-2.436-.495-.607-1.162-.91-2-.91-.61 0-1.18.173-1.714.518-.533.346-.967.891-1.303 1.636-.335.744-.503 1.708-.503 2.89v5.09h-1.76V32.4h1.738v2.326l.095-.24c.362-.857.87-1.472 1.527-1.845.717-.407 1.47-.61 2.263-.61zm54.045.184v1.705h-.389l-.26.008c-.603.04-1.167.217-1.694.533-.602.36-1.086.914-1.452 1.658-.365.745-.548 1.7-.548 2.868v4.744h-1.76V32.4h1.737v2.533l.1-.24c.376-.857.907-1.476 1.591-1.856.747-.414 1.517-.622 2.309-.622h.366zm-69.304-2.81L67.61 37.56h6.012l-2.994-8.154zm55.164 4.17c-.945 0-1.749.337-2.411 1.013-.663.675-1.063 1.558-1.2 2.648h6.994c-.107-1.12-.461-2.011-1.063-2.671-.602-.66-1.375-.99-2.32-.99zM42.512 27c0 1.15-.11 1.833-.829 2.363-.23.17-.627.429-1.092.598-.638.234-1.068.654-1.068.654 0-2.095.316-2.854 1.166-3.302.5-.264 1.301-.308 1.651-.313h.173z" transform="translate(-93 -52) translate(77 25)"/>
            </g>
        </g>
    </g>
</svg>
