<svg xmlns="http://www.w3.org/2000/svg" width="157" height="29" viewBox="0 0 157 29">
    <defs>
        <filter id="m1wadk4aka">
            <feColorMatrix in="SourceGraphic" values="0 0 0 0 1.000000 0 0 0 0 1.000000 0 0 0 0 1.000000 0 0 0 1.000000 0"/>
        </filter>
    </defs>
    <g fill="none" fill-rule="evenodd">
        <g>
            <g filter="url(#m1wadk4aka)" transform="translate(-415 -2656) translate(415 2645)">
                <g>
                    <path fill="#1D1E1E" fill-rule="nonzero" d="M29.71 12.77C29.642 5.95 24.099.421 17.178.421S4.646 5.951 4.646 12.771c0 5.961 4.288 10.936 9.956 12.062 1.896.377 2.158-4.38 1.639-7.534-.01 0-.572-.033-.76-.04-.389-.016-.757.423-.995.509-.405.144-.483-.253-.775-.253-.256 0-.6.393-1.547.216-.957-.179-1.267-1.032-1.267-1.032l-.287-.148c-.977-.24-1.03-1.293-1.037-1.352-.055-.515.857-.904.6-1.063-1.106-.691-.75-1.234-.738-1.262.14-.366.677-1.157.48-1.28-.542-.341.348-2.322 1.13-2.872.12-.627.806-1.652 1.469-1.87-.037-.71.972-1.114.972-1.114.706-.224.212-.799 1.566-.707.317.021.308-.334 1.093-.35.228-.006.478-.18 1.174-.18 1.22-.054 1.164.76 1.573.621.515-.174 2.234.658 2.413 2.368.772-.06 2.798 2.139 2.74 3.761 1.33 1.475-.485 2.87-.557 3.14.051.154.32.824.213 1.342-.126.608-.907 1.271-.94 1.293-.547.39-.953.829-1.604.708-.673-.124-.546-.735-.746-.883-.432.379-1.083.7-1.917.633-.098-.015-.46-.052-.507-.057-.4 2.323-.343 7.511 1.326 7.508 5.034-.758 10.463-5.533 10.397-12.165zm-26.08 0C3.63 6.195 8.843.453 15.42.075 5.993-.78 0 5.814 0 12.77s6.133 13.681 15.42 12.695c-6.576-.38-11.79-6.12-11.79-12.695zM18.935.075c6.576.378 11.79 6.12 11.79 12.695s-5.214 12.316-11.79 12.695c9.527.825 15.42-5.739 15.42-12.695S28.486-.736 18.936.075zM92.09 13.818h-4.095v-.05c0-.92.185-1.621.554-2.106.37-.485.89-.727 1.56-.727.687 0 1.205.255 1.558.766.159.238.27.502.33.79.062.29.093.68.093 1.174v.153zm3.236-1.721c-.29-.91-.744-1.672-1.36-2.284-.44-.442-1.004-.782-1.691-1.02-.687-.239-1.427-.358-2.22-.358-.898 0-1.69.145-2.377.434-.688.29-1.313.731-1.877 1.326-.598.647-1.03 1.378-1.294 2.195-.264.816-.396 1.811-.396 2.984 0 1.022.15 1.949.449 2.781.299.834.727 1.544 1.281 2.131.555.587 1.228 1.042 2.022 1.366.792.322 1.673.484 2.641.484 1.746 0 3.344-.527 4.797-1.582.213-.139.242-.347.096-.537l-.9-1.337c-.223-.35-.442-.26-.624-.13-.984.69-2.01 1.035-3.077 1.035-.917 0-1.621-.273-2.114-.817-.494-.544-.74-1.327-.74-2.347v-.102h7.28c.628 0 .54-.791.54-.791 0-1.378-.145-2.521-.436-3.431zm52.814 1.67c0-.918.186-1.62.556-2.105.37-.485.889-.727 1.558-.727.687 0 1.207.255 1.56.766.158.238.268.502.33.79.06.29.092.68.092 1.174v.153h-4.096v-.05zm7.228 2.552c.628 0 .54-.791.54-.791 0-1.378-.145-2.521-.435-3.431-.29-.91-.745-1.672-1.36-2.284-.442-.442-1.005-.782-1.692-1.02-.687-.239-1.427-.358-2.219-.358-.898 0-1.691.145-2.379.434-.686.29-1.312.731-1.875 1.326-.6.647-1.03 1.378-1.295 2.195-.264.816-.396 1.811-.396 2.984 0 1.022.149 1.949.45 2.781.298.834.725 1.544 1.28 2.131.555.587 1.229 1.042 2.022 1.366.793.322 1.672.484 2.642.484 1.745 0 3.343-.527 4.796-1.582.213-.139.241-.347.096-.537l-.9-1.337c-.222-.35-.442-.26-.622-.13-.985.69-2.011 1.035-3.08 1.035-.915 0-1.62-.273-2.113-.817-.493-.544-.74-1.327-.74-2.347v-.102h7.28zm-18.508-1.531c-.617 0-1.12-.144-1.507-.434-.387-.289-.582-.765-.582-1.429 0-.612.186-1.088.556-1.428.37-.34.888-.51 1.559-.51.67 0 1.192.17 1.571.51.38.34.569.816.569 1.428 0 1.242-.723 1.863-2.166 1.863zm5.944-3.674c.493 0 .934-.077 1.321-.23.277-.109.553-.266.83-.47.229-.154.255-.418.08-.639l-.884-1.298c-.2-.326-.37-.424-.728-.195-.298.213-.614.387-.949.523-.485.196-.974.293-1.466.293-.23 0-.472-.025-.728-.076-.255-.051-.567-.119-.937-.204-.493-.12-.925-.204-1.295-.255-.37-.052-.75-.077-1.135-.077-.864 0-1.648.107-2.353.32-.704.212-1.303.509-1.797.892-.492.383-.876.846-1.148 1.39-.274.545-.41 1.149-.41 1.812 0 1.939.969 3.147 2.906 3.623-.564.136-1.008.29-1.334.459-.326.17-.573.349-.74.536-.167.187-.277.383-.33.586-.052.205-.08.409-.08.613 0 .443.093.808.278 1.097.186.29.436.493.754.613.616.255 1.699.39 3.249.407l1.506.027c.704.016 1.295.13 1.77.343.476.213.714.617.714 1.212 0 .273-.08.524-.238.753-.159.23-.37.422-.634.574-.282.17-.608.285-.978.345s-.784.089-1.242.089c-.828 0-1.457-.136-1.889-.409-.431-.272-.647-.672-.647-1.199 0-.187.01-.336.026-.446.018-.111.062-.436-.26-.395h-2.884c-.07.136-.141.302-.211.497s-.106.471-.106.83c0 .884.37 1.658 1.11 2.321.617.544 1.382.914 2.299 1.11.915.195 1.858.293 2.827.293 1.056 0 2.06-.127 3.012-.383.95-.255 1.726-.688 2.324-1.3.723-.75 1.084-1.651 1.084-2.706 0-1.156-.388-2.083-1.162-2.78-.476-.425-1.023-.723-1.638-.893-.617-.17-1.437-.264-2.458-.28l-1.902-.027c-.388 0-.582-.101-.582-.306 0-.186.119-.36.357-.522.238-.162.586-.345 1.044-.548.14.016.238.025.29.025h.239c.721 0 1.387-.098 1.994-.293.607-.196 1.136-.464 1.586-.804.449-.34.797-.749 1.043-1.225.247-.476.37-.995.37-1.556 0-.443-.066-.834-.198-1.174-.133-.34-.33-.663-.595-.97.106.018.242.034.41.05.167.018.338.027.515.027zm-16.724 7.756c-.265.29-.556.51-.873.664-.316.153-.642.229-.977.229-.458 0-.832-.157-1.123-.472-.29-.315-.436-.727-.436-1.237 0-.783.242-1.31.727-1.582s1.343-.408 2.577-.408h.158l-.053 2.806zm4.082.855c-.168-.196-.295-.404-.383-.625-.088-.221-.142-.464-.159-.727-.018-.264-.026-.575-.026-.932l.079-4.389v-.892c0-.238-.013-.442-.04-.613-.026-.17-.053-.318-.079-.446-.027-.127-.066-.26-.118-.395-.265-.731-.772-1.293-1.52-1.684-.75-.392-1.695-.587-2.84-.587-.617 0-1.22.06-1.81.179-.59.119-1.22.314-1.89.587-.475.187-.871.357-1.188.51-.185.088-.375.19-.57.301-.322.196-.288.435-.199.643l1.004 1.631c.207.316.45.289.72.154.572-.34 1.118-.613 1.634-.816.651-.255 1.26-.383 1.823-.383.652 0 1.08.141 1.281.421.203.281.305.787.305 1.519v.535c-.142-.017-.274-.026-.398-.026h-.396c-2.166 0-3.79.362-4.874 1.085-1.084.724-1.625 1.859-1.625 3.406 0 1.31.396 2.318 1.189 3.023.793.706 1.946 1.06 3.46 1.06 1.128 0 2.036-.24 2.723-.715.14-.085.277-.187.41-.306.132-.12.268-.247.408-.382.177.34.436.646.78.917.203.16.418.3.64.429.345.202.587.127.855-.162.364-.393.91-.991 1.216-1.375.128-.16.2-.381-.029-.57-.154-.127-.28-.255-.383-.375zm-12.051.02c-.052-.221-.277-.23-.427-.193-.152.04-.282.071-.39.097-.184.042-.356.063-.515.063-.616 0-1.026-.14-1.229-.42-.202-.282-.303-.839-.303-1.672v-6.557h2.272s.46-1.197.72-1.882c.13-.36-.094-.466-.292-.466h-2.7c0-.663.017-1.34.052-2.028.022-.42.05-.824.085-1.21.065-.634-.388-.588-.673-.536l-2.846.688c-.07.493-.11.969-.118 1.428-.01.46-.014 1.012-.014 1.658h-1.347v2.348h1.347v7.092c0 .307.004.558.014.753.007.196.016.362.025.498.01.136.03.264.067.383.035.119.08.246.131.382.212.58.648 1.042 1.308 1.39.66.35 1.44.524 2.339.524.855 0 1.731-.164 2.63-.492.132-.056.227-.148.194-.347l-.33-1.501zM107.242 3c-.617 0-1.14.204-1.571.612-.432.408-.648.91-.648 1.505 0 .596.212 1.097.634 1.505.423.409.934.613 1.532.613.617 0 1.136-.204 1.56-.613.422-.408.633-.91.633-1.505 0-.595-.206-1.097-.62-1.505-.415-.408-.921-.612-1.52-.612zm1.386 5.459c-.67.103-2.183.33-2.865.434-.325.055-.344.154-.344.36v12.17c0 .28.17.354.376.354h2.853c.247 0 .311-.066.311-.334v-12.7c0-.314-.11-.318-.33-.284zm-4.51 0c-.168-.033-.383-.05-.647-.05-.67 0-1.269.187-1.797.56-.528.375-.987.81-1.374 1.301-.053-.697-.238-1.316-.555-1.862l-3.17.818c.14.373.26.884.356 1.53.097.647.146 1.411.146 2.295v8.346c0 .174.088.38.376.38h2.773c.226 0 .391-.064.391-.38v-8.855c.652-.731 1.375-1.097 2.167-1.097.183 0 .364.003.542.043.326.048.532.098.647-.277.18-.553.47-1.448.65-1.995.155-.489-.087-.651-.505-.757zm-21.49-4.413h-3.012c-.354 0-.407.103-.407.405v6.483h-5.283V4.452c0-.374-.179-.418-.533-.405h-2.7c-.386 0-.44.125-.44.418V21.37c0 .312.148.407.34.407h2.934c.215 0 .399-.046.399-.394V13.87h5.283v7.51c0 .275.185.4.413.4h2.98c.251 0 .36-.138.36-.381V4.438c0-.323-.112-.391-.333-.391zM69.064 8.715h-2.911c-.317 0-.383.05-.465.329l-1.93 5.897c-.107.306-.207.63-.304.97-.098.34-.172.62-.225.842-.035.152-.08.348-.132.586-.053.239-.102.463-.145.676-.044.213-.08.4-.106.562-.026.162-.04.251-.04.268l-.713-2.705-2.238-7.259c-.09-.287-.284-.345-.527-.322l-2.78.312c-.333.038-.383.207-.295.428.74 2.127 4.333 12.48 4.333 12.48h.9c-.089.186-.16.348-.212.485-.053.136-.106.259-.159.37-.053.11-.11.216-.172.318-.061.102-.136.22-.224.358-.3.458-.634.816-1.004 1.07-.264.188-.599.354-1.004.5-.26.09-.514.175-.765.25-.279.094-.32.313-.206.522.24.441.617 1.14.833 1.538.119.235.356.283.574.239.468-.086.917-.204 1.347-.356.555-.196 1.062-.456 1.52-.779.246-.17.475-.374.686-.612.212-.238.419-.522.621-.854.203-.332.41-.732.621-1.199.212-.469.432-1.017.661-1.647l4.77-12.873c.132-.373-.074-.394-.309-.394zM54.871 4.434c-.039-.311-.156-.387-.478-.387h-3.866c-.23 0-.417.059-.506.397l-2.372 8.405c-.281 1.037-.501 1.999-.66 2.883-.035-.22-.075-.434-.119-.638l-.132-.625c-.044-.213-.097-.442-.159-.69-.061-.245-.137-.53-.224-.854l-2.3-8.493c-.126-.381-.343-.385-.597-.385h-3.873c-.31 0-.384.167-.403.412l-1.64 16.919c-.024.296.15.394.445.4h2.698c.285 0 .476-.057.518-.38l.607-8.88c.035-.546.062-1.081.08-1.609.035-.492.053-.986.053-1.479.087.476.202.987.343 1.53.14.562.273 1.064.396 1.506l2.509 8.932c.082.263.202.38.49.38h2.301c.371-.013.464-.055.57-.367l2.797-9.327c.158-.545.286-1.008.383-1.391.096-.383.197-.83.304-1.34 0 .477.013.949.04 1.416.025.469.056.983.092 1.544 0 0 .568 7.506.663 9.15.018.295.17.315.387.315h2.9c.187 0 .354-.084.32-.38-.262-2.326-1.349-14.619-1.567-16.964z" transform="translate(.555 11.56)"/>
                </g>
            </g>
        </g>
    </g>
</svg>
