<svg xmlns="http://www.w3.org/2000/svg" width="66" height="69" viewBox="0 0 66 69">
    <defs>
        <filter id="nou2qsc9ga">
            <feColorMatrix in="SourceGraphic" values="0 0 0 0 0.913725 0 0 0 0 0.639216 0 0 0 0 0.462745 0 0 0 1.000000 0"/>
        </filter>
    </defs>
    <g fill="none" fill-rule="evenodd" stroke-linecap="round" stroke-linejoin="round">
        <g filter="url(#nou2qsc9ga)" transform="translate(-472 -3235)">
            <g stroke="#2287F7" stroke-width="1.07">
                <path d="M62.912 24.922L33.336.639c-1.036-.85-2.537-.852-3.577-.005M29.759.634L0 24.921" transform="translate(473.57 3236.51)"/>
                <path d="M0 24.394V63.65c0 1.365 1.107 2.472 2.47 2.472h57.971c1.365 0 2.471-1.107 2.471-2.472V24.394l-31.55 26.053L0 24.394" transform="translate(473.57 3236.51)"/>
                <path d="M14.662 36.574L14.662 20.25 48.25 20.25 48.25 36.501M21.318 26.153L41.831 26.153M21.318 30.06L41.831 30.06M21.318 33.967L41.831 33.967M21.318 37.875L41.831 37.875" transform="translate(473.57 3236.51)"/>
            </g>
        </g>
    </g>
</svg>
