<svg xmlns="http://www.w3.org/2000/svg" xmlns:xlink="http://www.w3.org/1999/xlink" width="67" height="66" viewBox="0 0 67 66">
    <defs>
        <path id="gfz4waghmb" d="M.495 4.052c0 2.177 1.766 3.941 3.943 3.941s3.94-1.764 3.94-3.941C8.379 1.875 6.616.11 4.439.11S.495 1.875.495 4.05z"/>
        <path id="nhjab32hkd" d="M.202 4.052c0 2.177 1.766 3.941 3.942 3.941 2.177 0 3.941-1.764 3.941-3.941C8.085 1.875 6.321.11 4.145.11 1.967.11.201 1.875.201 4.05z"/>
        <path id="vir00q59bf" d="M.09 4.052c0 2.177 1.766 3.941 3.943 3.941 2.176 0 3.941-1.764 3.941-3.941C7.974 1.875 6.21.11 4.034.11 1.855.11.09 1.875.09 4.05z"/>
        <filter id="zyeyghjxja">
            <feColorMatrix in="SourceGraphic" values="0 0 0 0 0.913725 0 0 0 0 0.639216 0 0 0 0 0.462745 0 0 0 1.000000 0"/>
        </filter>
    </defs>
    <g fill="none" fill-rule="evenodd">
        <g filter="url(#zyeyghjxja)" transform="translate(-771 -3236)">
            <g>
                <path stroke="#2287F7" stroke-linecap="round" stroke-linejoin="round" stroke-width="1.07" d="M25.781.162C12.191 1.252 1.286 12.499.498 26.202c-.444 7.759 2.28 14.874 6.986 20.166l-4.199 9.469c-.92 2.073 1.297 4.14 3.282 3.06l10.344-5.635c4.114 1.829 8.749 2.685 13.625 2.25 13.309-1.186 24.016-12.11 25.015-25.522C56.765 13.682 43.981.073 28.041.072c-.748 0-1.5.029-2.26.09" transform="translate(772.16 3237.62)"/>
                <g transform="translate(772.16 3237.62) translate(9.63 23.362)">
                    <mask id="08m3p6zdyc" fill="#fff">
                        <use xlink:href="#gfz4waghmb"/>
                    </mask>
                    <path stroke="#2287F7" stroke-linecap="round" stroke-linejoin="round" stroke-width="1.07" d="M-1.296 9.785L10.171 9.785 10.171 -1.681 -1.296 -1.681z" mask="url(#08m3p6zdyc)"/>
                    <path stroke="#2287F7" stroke-linecap="round" stroke-linejoin="round" stroke-width="1.07" d="M-334.888 358.426L238.418 358.426 238.418 -214.879 -334.888 -214.879z" mask="url(#08m3p6zdyc)"/>
                </g>
                <path stroke="#2287F7" stroke-linecap="round" stroke-linejoin="round" stroke-width="1.07" d="M14.067 31.355c2.177 0 3.94-1.765 3.94-3.941 0-2.178-1.763-3.941-3.94-3.941s-3.942 1.763-3.942 3.94 1.765 3.942 3.942 3.942z" transform="translate(772.16 3237.62)"/>
                <g transform="translate(772.16 3237.62) translate(23.538 23.362)">
                    <mask id="ulx4lv6ese" fill="#fff">
                        <use xlink:href="#nhjab32hkd"/>
                    </mask>
                    <path stroke="#2287F7" stroke-linecap="round" stroke-linejoin="round" stroke-width="1.07" d="M-1.589 9.785L9.878 9.785 9.878 -1.681 -1.589 -1.681z" mask="url(#ulx4lv6ese)"/>
                    <path stroke="#2287F7" stroke-linecap="round" stroke-linejoin="round" stroke-width="1.07" d="M-348.797 358.426L224.509 358.426 224.509 -214.879 -348.797 -214.879z" mask="url(#ulx4lv6ese)"/>
                </g>
                <path stroke="#2287F7" stroke-linecap="round" stroke-linejoin="round" stroke-width="1.07" d="M27.683 31.355c2.177 0 3.94-1.765 3.94-3.941 0-2.178-1.763-3.941-3.94-3.941s-3.942 1.763-3.942 3.94 1.765 3.942 3.942 3.942z" transform="translate(772.16 3237.62)"/>
                <g transform="translate(772.16 3237.62) translate(37.982 23.362)">
                    <mask id="t3umv7gagg" fill="#fff">
                        <use xlink:href="#vir00q59bf"/>
                    </mask>
                    <path stroke="#2287F7" stroke-linecap="round" stroke-linejoin="round" stroke-width="1.07" d="M-1.7 9.785L9.766 9.785 9.766 -1.681 -1.7 -1.681z" mask="url(#t3umv7gagg)"/>
                    <path stroke="#2287F7" stroke-linecap="round" stroke-linejoin="round" stroke-width="1.07" d="M-363.241 358.426L210.065 358.426 210.065 -214.879 -363.241 -214.879z" mask="url(#t3umv7gagg)"/>
                </g>
                <g stroke="#2287F7" stroke-linecap="round" stroke-linejoin="round" stroke-width="1.07">
                    <path d="M9.383 7.993c2.176 0 3.94-1.764 3.94-3.941 0-2.177-1.764-3.941-3.94-3.941C7.206.11 5.44 1.875 5.44 4.05c0 2.178 1.765 3.942 3.942 3.942zM23.155 3.366c4.36 3.156 7.303 8.193 7.63 13.866.294 5.138-1.511 9.852-4.628 13.357l2.78 6.27c.61 1.374-.858 2.743-2.173 2.028l-6.852-3.732c-2.723 1.211-5.794 1.778-9.023 1.49-4.045-.36-7.728-2.08-10.593-4.692" transform="translate(772.16 3237.62) translate(32.633 23.362)"/>
                </g>
            </g>
        </g>
    </g>
</svg>
