<svg xmlns="http://www.w3.org/2000/svg" width="137" height="24" viewBox="0 0 137 24">
    <defs>
        <filter id="1g2nvio3ya">
            <feColorMatrix in="SourceGraphic" values="0 0 0 0 1.000000 0 0 0 0 1.000000 0 0 0 0 1.000000 0 0 0 1.000000 0"/>
        </filter>
    </defs>
    <g fill="none" fill-rule="evenodd">
        <g>
            <g filter="url(#1g2nvio3ya)" transform="translate(-1139 -2661) translate(415 2645)">
                <path fill="#1D1E1E" fill-rule="nonzero" d="M47.603 4.727l2.263 8.577h.054l2.341-8.577h3.27l-4.354 13.98c-1.444 3.968-2.607 5.055-5.299 5.055-.522.004-1.044-.033-1.56-.111v-2.72l.255.046c.362.056.728.077 1.095.063 1.131 0 1.77-.325 2.161-1.103.315-.495.505-1.062.554-1.65-.073-.568-.215-1.125-.421-1.659L44.294 4.727h3.309zm-35.339-.275l.256.005v2.23c-.719-.074-1.443.038-2.107.325.5.72.756 1.586.733 2.467 0 2.635-1.732 4.507-5.166 4.507-1.42 0-2.551.072-2.551.865 0 2.246 9.005-.793 9.005 4.76 0 1.984-1.975 4.127-6.344 4.127-3.683 0-5.985-1.032-6.087-3.23-.016-.343.03-.687.133-1.015l-.008.032 2.926.055c-.218 1.063.156 2.095 3.558 2 2.076-.096 2.856-.968 2.856-1.587 0-.96-1.186-1.595-3.628-1.754-3.012-.182-5.415-.889-5.415-2.698 0-1.34 1.521-2.356 2.138-2.539-1.14-.944-2.03-2.007-2.03-3.697 0-2.468 1.842-4.848 5.4-4.848 1.227.01 2.415.441 3.372 1.222.632-.85 1.654-1.278 3.215-1.222l-.256-.005zm96.336-.257v1.468c-.78-.076-1.558.154-2.177.643.671.812 1.017 1.852.968 2.912 0 3.427-2.396 4.863-5.283 4.863-.755-.009-1.503-.154-2.208-.428-.866.325-1.264.833-1.264 1.34 0 .802.53 1.199 4.237 1.199 4.097 0 5.813 1.341 5.813 3.618 0 2.031-1.537 3.77-6.242 3.77-4.706 0-5.97-1.635-5.97-3.294 0-1.198.468-2.213 2.396-2.943v-.048c-.999-.23-1.818-.643-1.818-1.817.081-1.172.92-2.145 2.052-2.38-1.217-.799-1.964-2.162-1.99-3.635 0-3.046 2.107-4.998 5.416-4.998 1.133-.02 2.244.315 3.183.96.753-.786 1.785-1.23 2.864-1.23h.023zm-6.515 13.394c-3.106 0-4.05 1.182-4.05 2.38 0 1.365 1.31 2.3 4.151 2.3 3.418 0 4.893-.935 4.893-2.38 0-1.15-.89-2.277-4.994-2.277v-.023zm30.01-10.649l-1.209.865c-.928-1.293-1.935-2.103-3.573-2.103-1.64 0-2.724.794-2.724 2.452 0 3.412 8.092 1.397 8.092 6.832 0 2.5-2.278 3.967-4.76 3.967-2.13.072-4.142-.993-5.306-2.809l1.155-.793-.008-.071c1.295 1.88 2.458 2.38 4.253 2.38s3.082-1.166 3.082-2.674c0-4.07-8.092-1.777-8.092-6.752 0-2.635 2.037-3.801 4.362-3.801 1.916-.14 3.746.83 4.729 2.507zM19.372 4.512c3.605-.071 5.602 3.008 5.602 6.348v1.357l-8.279.04c.055 2.888 1.303 4.014 2.864 4.014 1.236.017 2.395-.608 3.074-1.658l2.341 1.5c-1.264 1.983-3.105 2.84-5.758 2.84-3.574 0-5.806-2.817-5.806-7.228 0-4.412 2.232-7.213 5.962-7.213zm69.465-.085l.225.006c3.121 0 4.596 1.27 4.596 4.372v7.3c.002.85.073 1.7.211 2.539l-1.553.008-.218-1.667c-1.36 1.273-3.147 1.969-4.994 1.944-2.146 0-3.785-1.325-3.785-3.65 0-3.808 3.067-4.506 8.81-5.8v-.96c0-1.864-.78-2.809-3.121-2.809-1.684.054-3.21 1.024-3.996 2.54l-1.053-.643c.9-2.022 2.923-3.28 5.103-3.174l-.225-.006zm26.452.006c3.699 0 5.462 2.967 5.462 7.292h-9.504c0 3.182 1.287 5.919 4.409 5.919 1.77 0 2.637-.619 4.01-2.825l1.296.699c-1.506 2.475-2.848 3.404-5.463 3.404-3.589 0-5.852-2.325-5.852-7.253 0-4.324 2.162-7.236 5.642-7.236zM30.6.117v4.617h6.125V.117h3.262v4.617h2.66v2.674h-2.684v7.864c0 .745.398.96 1.179.96.51-.035 1.014-.122 1.506-.262v2.69c-.856.127-1.719.198-2.583.214-2.42 0-3.363-1.19-3.363-3.174V7.408h-6.126v7.864c0 .745.406.96 1.186.96.51-.034 1.015-.125 1.506-.27v2.698c-.858.126-1.723.198-2.59.214-2.412 0-3.364-1.19-3.364-3.174V.117H30.6zm46.53 4.308c2.396 0 3.613 1.325 3.613 3.769v10.45h-1.56V8.035c0-1.587-.843-2.333-2.342-2.333-1.217 0-3.23 1.318-4.073 2.659v10.315h-1.56V8.036c0-1.588-.851-2.334-2.342-2.334-1.217 0-3.222 1.318-4.065 2.659v10.315l-1.67-.032V4.71h1.56v2.094c1.405-1.5 2.435-2.38 4.573-2.38 1.547-.027 2.915 1.015 3.325 2.531 1.24-1.476 2.551-2.531 4.541-2.531zm-17.44.286v13.933h-1.584l.008-13.933h1.576zm32.391 6.078c-6.305 1.388-7.148 2.705-7.148 4.475-.03.663.225 1.306.698 1.763.473.457 1.119.682 1.768.617 1.79-.142 3.46-.963 4.682-2.301v-4.554zm10.144-5.047c-.953-.079-1.893.27-2.573.955-.68.685-1.03 1.637-.962 2.608h-.015c0 2.404 1.63 3.475 3.55 3.475 2.209 0 3.55-1.04 3.55-3.475 0-2.436-1.341-3.563-3.55-3.563zM5.973 6.98c-.961-.039-1.847.524-2.235 1.419-.388.894-.198 1.939.478 2.634.676.695 1.702.899 2.586.514.884-.385 1.446-1.28 1.418-2.258.006-.61-.228-1.198-.65-1.631-.422-.434-.997-.678-1.597-.678zm109.245-1.293c-2.802 0-4.02 2.904-4.02 4.76h7.968c-.312-2.896-1.553-4.76-3.948-4.76zM19.355 6.924c-1.6 0-2.606 1.135-2.66 3.055h5.313c-.054-1.92-1.053-3.055-2.653-3.055zm114.817-5.117c.886.004 1.603.733 1.607 1.634.003.666-.39 1.268-.993 1.524-.605.256-1.301.116-1.764-.355-.463-.47-.601-1.179-.349-1.793.252-.615.844-1.014 1.499-1.01zm0 .214c-.772 0-1.397.636-1.397 1.42 0 .785.625 1.42 1.397 1.42.365 0 .715-.15.968-.419.254-.268.389-.63.374-1 .015-.372-.12-.734-.374-1.002-.253-.268-.603-.42-.968-.42zm.132.452c.43 0 .617.19.617.532.015.27-.175.507-.437.547l.53.865h-.296l-.5-.865h-.366v.865h-.281V2.473h.733zm-.001.214h-.475v.643h.297c.257 0 .538 0 .538-.325 0-.293-.177-.316-.36-.318zM59.69.172v2.365h-1.576V.172h1.576z" transform="translate(724.275 16)"/>
            </g>
        </g>
    </g>
</svg>
