<svg xmlns="http://www.w3.org/2000/svg" width="76" height="61" viewBox="0 0 76 61">
    <defs>
        <filter id="rxrjjzh85a">
            <feColorMatrix in="SourceGraphic" values="0 0 0 0 0.913725 0 0 0 0 0.639216 0 0 0 0 0.462745 0 0 0 1.000000 0"/>
        </filter>
    </defs>
    <g fill="none" fill-rule="evenodd" stroke-linecap="round" stroke-linejoin="round">
        <g filter="url(#rxrjjzh85a)" transform="translate(-1367 -3239)">
            <g stroke="#2287F7" stroke-width="1.07">
                <path d="M64.297 57.724H8.31C3.72 57.724 0 54.004 0 49.415v-33.89c0-4.59 3.72-8.31 8.309-8.31h55.988c4.59 0 8.31 3.72 8.31 8.31v33.89c0 4.589-3.72 8.309-8.31 8.309zM15.244 0L15.244 13.269M58.567 0L58.567 13.269M0 20.28L72.607 20.28" transform="translate(1368.23 3240.95)"/>
                <path d="M37.03 30.38l1.684 5.18c.102.315.396.53.728.53h5.446c.741 0 1.05.948.45 1.384l-4.406 3.2c-.268.195-.38.541-.278.856l1.683 5.18c.23.705-.578 1.291-1.178.856l-4.406-3.201c-.268-.196-.632-.196-.9 0l-4.406 3.2c-.6.436-1.407-.15-1.178-.855l1.683-5.18c.103-.315-.01-.66-.278-.856l-4.405-3.2c-.6-.436-.292-1.385.45-1.385h5.445c.332 0 .625-.214.728-.529l1.683-5.18c.23-.704 1.227-.704 1.456 0z" transform="translate(1368.23 3240.95)"/>
            </g>
        </g>
    </g>
</svg>
