<svg xmlns="http://www.w3.org/2000/svg" width="82" height="60" viewBox="0 0 82 60">
    <defs>
        <filter id="s8i2biudfa">
            <feColorMatrix in="SourceGraphic" values="0 0 0 0 0.913725 0 0 0 0 0.639216 0 0 0 0 0.462745 0 0 0 1.000000 0"/>
        </filter>
    </defs>
    <g fill="none" fill-rule="evenodd" stroke-linecap="round" stroke-linejoin="round">
        <g filter="url(#s8i2biudfa)" transform="translate(-1061 -3241)">
            <g stroke="#2287F7" stroke-width="1.07">
                <path d="M5.486 46.81s15.844-.7 22.354.653c4.463.926 5.053 2.59 7.675 3.744 1.836.807 3.895-.541 3.895-2.547V9.02c0-4.982-4.038-9.02-9.02-9.02H5.487v46.81z" transform="translate(1062.98 3242.06)"/>
                <path d="M5.486 4.937H0v46.976s18.405-.703 25.968.653c5.185.93 5.87 2.6 8.917 3.758 2.133.81 4.525-.543 4.525-2.555V48.66M11.744 8.095L32.394 8.095M11.744 13.357L32.394 13.357M11.744 18.619L32.394 18.619M11.744 23.881L32.394 23.881M11.744 29.143L32.394 29.143M11.744 34.405L32.394 34.405M11.744 39.667L32.394 39.667" transform="translate(1062.98 3242.06)"/>
                <path d="M73.335 46.81s-15.843-.7-22.353.653c-4.464.926-5.054 2.59-7.676 3.744-1.835.807-3.896-.541-3.896-2.547V9.02C39.41 4.037 43.45 0 48.43 0h24.905v46.81z" transform="translate(1062.98 3242.06)"/>
                <path d="M73.335 4.937h5.486v46.976s-18.405-.703-25.968.653c-5.185.93-5.87 2.6-8.917 3.758-2.133.81-4.526-.543-4.526-2.555V48.66M67.078 8.095L46.426 8.095M67.078 13.357L46.426 13.357M67.078 18.619L46.426 18.619M67.078 23.881L46.426 23.881M67.078 29.143L46.426 29.143M67.078 34.405L46.426 34.405M67.078 39.667L46.426 39.667" transform="translate(1062.98 3242.06)"/>
            </g>
        </g>
    </g>
</svg>
