<svg xmlns="http://www.w3.org/2000/svg" width="965" height="68" viewBox="0 0 965 68">
    <g fill="none" fill-rule="evenodd">
        <g fill="#E9A376" fill-rule="nonzero">
            <path d="M493.47 484.544V461.33h7.374l16.459 23.213h18.707l-19.067-25.58c3.778-1.7 6.76-4.157 8.949-7.374 2.189-3.216 3.283-6.948 3.283-11.196 0-4.188-1.02-7.844-3.058-10.97-2.039-3.125-4.887-5.568-8.544-7.328-3.658-1.76-7.885-2.64-12.682-2.64H478v65.088h15.47zm11.421-36.23H493.47v-15.84h11.422c2.639 0 4.737.713 6.296 2.14 1.56 1.425 2.339 3.352 2.339 5.78 0 2.427-.78 4.354-2.339 5.78-1.559 1.426-3.657 2.14-6.296 2.14zm175.838 36.23v-13.018h-31.478v-13.2h29.77V445.31h-29.77v-12.835h31.478v-13.018h-46.947v65.088h46.947zM807.641 486c5.456 0 10.268-.834 14.435-2.503 4.167-1.67 7.45-4.051 9.848-7.146 2.399-3.095 3.598-6.767 3.598-11.015 0-5.765-2.114-10.347-6.34-13.746-4.228-3.398-10.538-5.765-18.933-7.1-3.597-.607-6.415-1.199-8.454-1.775-2.038-.577-3.462-1.26-4.272-2.048-.81-.79-1.214-1.73-1.214-2.822 0-1.942 1.02-3.52 3.058-4.734s4.677-1.82 7.914-1.82c3.298 0 6.55.819 9.759 2.457 3.207 1.639 5.83 3.884 7.87 6.737l10.072-10.378c-3.118-3.58-7.03-6.493-11.737-8.739-4.706-2.245-10.088-3.368-16.143-3.368-5.097 0-9.639.895-13.626 2.685s-7.12 4.264-9.399 7.42c-2.278 3.155-3.417 6.766-3.417 10.832 0 5.34 2.023 9.665 6.07 12.972 4.048 3.307 10.418 5.568 19.112 6.782 5.397.789 9.084 1.805 11.063 3.05 1.978 1.243 2.968 2.776 2.968 4.596 0 1.882-1.005 3.399-3.013 4.552-2.009 1.153-4.962 1.73-8.86 1.73-2.457 0-4.946-.365-7.464-1.093-2.518-.728-4.872-1.79-7.06-3.186-2.189-1.396-3.972-3.034-5.351-4.916l-10.163 10.378c3.177 3.58 7.3 6.509 12.366 8.784 5.067 2.276 10.838 3.414 17.313 3.414zm160.189 0c5.096 0 9.773-.85 14.03-2.549 4.257-1.7 7.96-4.066 11.108-7.1 3.147-3.035 5.576-6.63 7.285-10.787 1.708-4.157 2.563-8.694 2.563-13.61 0-4.915-.855-9.436-2.563-13.563-1.71-4.127-4.138-7.707-7.285-10.742-3.148-3.034-6.85-5.4-11.108-7.1-4.257-1.7-8.934-2.549-14.03-2.549-5.097 0-9.773.85-14.03 2.549-4.257 1.7-7.96 4.066-11.108 7.1-3.148 3.035-5.576 6.615-7.285 10.742-1.709 4.127-2.563 8.648-2.563 13.563 0 4.916.854 9.453 2.563 13.61 1.71 4.157 4.137 7.752 7.285 10.787 3.148 3.034 6.85 5.4 11.108 7.1 4.257 1.7 8.933 2.549 14.03 2.549zm0-13.746c-3.658 0-6.895-.864-9.713-2.594-2.818-1.73-5.022-4.127-6.61-7.191-1.59-3.065-2.384-6.57-2.384-10.515 0-3.944.794-7.434 2.383-10.468 1.59-3.034 3.793-5.416 6.61-7.146 2.819-1.73 6.056-2.594 9.714-2.594 3.717 0 6.97.864 9.758 2.594 2.788 1.73 4.977 4.112 6.566 7.146 1.589 3.034 2.383 6.524 2.383 10.468 0 3.945-.794 7.45-2.383 10.515-1.59 3.064-3.778 5.461-6.566 7.191-2.788 1.73-6.04 2.594-9.758 2.594zm179.885 12.29v-13.382h-28.78v-51.706h-15.47v65.088h44.25zm124.124 0l25.542-65.088h-16.369l-16.638 46.7-16.639-46.7h-16.818l25.542 65.088h15.38zm171.161 0v-13.018h-31.478v-13.2h29.77V445.31h-29.77v-12.835H1443v-13.018h-46.948v65.088H1443z" transform="translate(-478 -418)"/>
        </g>
    </g>
</svg>
