<svg xmlns="http://www.w3.org/2000/svg" width="113" height="54" viewBox="0 0 113 54">
    <g fill="none" fill-rule="evenodd">
        <g fill-rule="nonzero">
            <g>
                <g>
                    <path fill="#FFF" d="M27.372 20.175c.022-1.416-1.579-3.051-2.946-3.017-.32.008-.634.042-.752.384-.177.512.195.634.574.694 1.265.203 1.93.948 2.056 2.208.034.342.251.619.582.58.459-.055.5-.462.486-.849m2.342.556c.025-2.933-2.49-5.602-5.57-5.972-.48-.057-1.114-.283-1.226.382-.118.699.589.628 1.043.73 3.082.687 4.156 1.809 4.663 4.863.074.446-.073 1.139.685 1.024.561-.086.358-.68.405-1.027m28.131-5.942c-.118-1.375-.892-2.165-2.211-2.311-1.24-.137-2.357 1.032-2.35 2.311.009 1.318 1.062 2.365 2.366 2.284 1.409-.087 2.039-.966 2.195-2.284m-34.533-2.487c-.362.052-1.11-.25-1.157.56-.031.547.599.457 1.012.52 4.991.767 7.293 3.138 7.929 8.16.059.464-.114 1.162.548 1.175.693.013.526-.675.532-1.139.058-4.73-4.07-9.115-8.864-9.276m30.09 13.392c0 1.599.025 3.197-.008 4.795-.028 1.398.6 2.329 1.988 2.377 1.395.048 2.109-.847 2.112-2.243.007-3.32.017-6.64-.007-9.959-.01-1.27-.567-2.15-1.968-2.162-1.462-.015-2.103.823-2.112 2.213-.011 1.66-.003 3.32-.006 4.98m37.06-.76c0 1.909-.03 3.818.011 5.726.026 1.193.654 2.053 1.871 2.144 1.305.097 2.1-.688 2.235-1.96.116-1.098.178-2.227.051-3.318-.362-3.124.19-5.603 3.765-6.444.866-.204 1.191-.978.996-1.917-.201-.973-.794-1.511-1.736-1.66-.837-.133-1.594.126-2.22.687-.443.396-.693.708-1.222-.043-.588-.833-1.57-.851-2.516-.45-.918.39-1.25 1.107-1.24 2.062.016 1.724.004 3.449.005 5.173M28.331 32.7c1.555.016 3.376-1.48 3.901-2.965.507-1.428-.563-1.995-1.41-2.676-.623-.501-1.289-.95-1.944-1.41-1.308-.918-2.503-.989-3.479.487-.547.828-1.314.864-2.116.5-2.21-1-3.917-2.543-4.916-4.787-.443-.993-.437-1.884.598-2.586.548-.371 1.1-.811 1.055-1.623-.057-1.058-2.63-4.594-3.645-4.967-.42-.154-.839-.144-1.266 0-2.382.799-3.368 2.756-2.423 5.073 2.818 6.911 7.777 11.723 14.605 14.66.389.167.822.234 1.04.294m55.185-6.15c1.047 0 2.095.01 3.142-.003 2.23-.03 2.842-.794 2.413-2.998-.765-3.94-4.136-6.562-7.947-6.183-3.781.376-6.589 3.714-6.542 7.867.037 3.217 1.33 5.802 4.371 7.1 3.128 1.335 6.161.767 8.913-1.172.877-.618 1.347-1.485.636-2.543-.622-.925-1.447-1.039-2.41-.518-.65.352-1.299.719-1.985.983-1.891.725-4.165.049-4.913-1.396-.374-.722-.352-1.16.627-1.141 1.231.022 2.463.005 3.695.003m-39.77-1.218c-1.512-4.06-2.8-7.571-4.131-11.066-.473-1.24-1.237-2.245-2.775-1.699-1.523.54-1.824 1.705-1.266 3.135 2.01 5.154 4.024 10.307 6.055 15.454.382.965 1 1.717 2.173 1.692 1.077-.022 1.67-.707 2.04-1.61.63-1.536 1.225-3.086 1.832-4.631 1.437-3.663 2.887-7.32 4.3-10.992.51-1.326.278-2.462-1.182-3.013-1.39-.526-2.227.212-2.778 1.404-.231.5-.408 1.027-.602 1.545-1.159 3.087-2.315 6.175-3.667 9.781m15.585-2.817c0 2.59.008 5.178-.004 7.766-.005.991.233 1.854 1.193 2.311.944.45 1.846.29 2.48-.543.428-.562.648-.388 1.148-.081 3.124 1.908 6.539 1.02 8.39-2.142 1.819-3.105 1.636-6.253.013-9.343-1.407-2.677-4.177-3.756-7.075-2.898-2.05.608-2.05.608-2.053-1.623 0-.308-.012-.617.002-.925.065-1.416-.42-2.554-1.972-2.568-1.639-.013-2.14 1.165-2.129 2.65.018 2.465.005 4.93.007 7.396m-2.319 21.56c-7.71.103-16.155-.109-24.592-.623-.885-.053-1.362.34-1.872.91-2.176 2.438-4.361 4.869-6.568 7.28-.349.38-.672 1.08-1.302.82-.623-.26-.354-.98-.36-1.506-.023-2.034-.1-4.073.02-6.101.095-1.59-.294-2.302-2.066-2.35-2.21-.06-4.444-.334-6.603-.808C6.046 40.027 1.027 35.87.313 27.377c-.31-3.698-.533-7.383.05-11.055C1.58 8.649 6.007 4.293 13.64 3.038 24.746 1.21 35.948.632 47.177.428c11.726-.215 23.442.195 35.148.808 5.666.297 11.3 1.04 16.859 2.21 6.665 1.406 11.227 6.528 11.788 13.46.323 3.985.392 8.007-.206 11.993-.798 5.314-3.722 9.016-8.624 11.163-4.244 1.858-8.765 2.47-13.329 2.783-10.34.708-20.687 1.298-31.802 1.23" transform="translate(-1393 -2652) translate(415 2645) translate(978.465 7.12)"/>
                    <path fill="#08091A" d="M69.675 25.257c.028-2.312-1.273-4.081-3.035-4.128-1.838-.049-3.185 1.602-3.22 3.945-.033 2.255 1.322 4.1 3.05 4.15 1.809.055 3.176-1.638 3.205-3.967m-10.346-2.742c-.001-2.466.012-4.931-.006-7.396-.01-1.485.49-2.663 2.129-2.65 1.552.014 2.037 1.152 1.972 2.569-.014.307-.002.616-.002.924.003 2.23.003 2.23 2.053 1.623 2.898-.858 5.668.22 7.075 2.898 1.623 3.09 1.806 6.238-.013 9.343-1.851 3.162-5.266 4.05-8.39 2.142-.5-.307-.72-.48-1.148.08-.634.834-1.536.993-2.48.544-.96-.457-1.198-1.32-1.193-2.31.012-2.59.004-5.178.003-7.767M43.745 25.332c1.352-3.606 2.508-6.694 3.667-9.781.194-.518.37-1.045.602-1.545.551-1.192 1.388-1.93 2.778-1.404 1.46.551 1.693 1.687 1.182 3.013-1.413 3.671-2.863 7.33-4.3 10.992-.607 1.545-1.202 3.095-1.832 4.63-.37.904-.964 1.59-2.04 1.611-1.173.025-1.791-.727-2.172-1.692-2.032-5.147-4.045-10.3-6.056-15.454-.559-1.43-.257-2.595 1.266-3.135 1.538-.546 2.302.458 2.774 1.699 1.333 3.495 2.62 7.007 4.131 11.066M81.706 23.748c.367 0 .742.046 1.1-.01.679-.104 1.761.411 1.955-.353.254-1.004-.575-1.817-1.5-2.272-1.207-.594-2.382-.488-3.407.441-.551.5-1.165 1.13-.892 1.871.252.685 1.079.227 1.643.316.359.056.734.01 1.1.007m1.812 2.803c-1.233.001-2.465.018-3.697-.004-.978-.018-1 .419-.626 1.14.748 1.446 3.022 2.122 4.913 1.396.686-.263 1.336-.63 1.985-.982.963-.521 1.788-.407 2.41.518.71 1.058.241 1.925-.636 2.543-2.752 1.94-5.785 2.507-8.913 1.173-3.041-1.299-4.334-3.884-4.37-7.101-.047-4.153 2.76-7.49 6.541-7.867 3.811-.379 7.182 2.243 7.948 6.183.428 2.204-.184 2.969-2.414 2.998-1.047.013-2.095.003-3.141.003M28.331 32.701c-.219-.06-.651-.127-1.04-.294-6.827-2.937-11.787-7.749-14.605-14.66-.945-2.317.042-4.274 2.423-5.074.427-.143.846-.153 1.266 0 1.016.374 3.588 3.91 3.645 4.969.044.811-.507 1.25-1.055 1.622-1.035.702-1.04 1.593-.599 2.586 1 2.244 2.707 3.786 4.917 4.788.802.363 1.569.327 2.117-.502.975-1.475 2.17-1.404 3.478-.486.656.46 1.32.909 1.944 1.41.847.68 1.917 1.248 1.41 2.676-.526 1.485-2.346 2.98-3.9 2.965M90.46 24.935c0-1.725.012-3.45-.005-5.173-.009-.955.323-1.672 1.24-2.062.946-.401 1.93-.383 2.517.45.529.75.779.439 1.221.043.627-.56 1.384-.82 2.221-.688.942.15 1.535.688 1.736 1.661.195.939-.13 1.713-.996 1.917-3.575.84-4.127 3.32-3.765 6.444.127 1.09.065 2.22-.051 3.317-.134 1.273-.93 2.058-2.235 1.96-1.217-.09-1.845-.95-1.87-2.143-.042-1.908-.012-3.817-.012-5.726M53.403 25.694c.001-1.66-.007-3.319.004-4.978.009-1.39.65-2.229 2.112-2.215 1.4.014 1.959.893 1.968 2.163.024 3.32.014 6.64.007 9.958-.003 1.397-.717 2.292-2.112 2.244-1.388-.048-2.016-.979-1.988-2.377.033-1.598.008-3.196.009-4.795" transform="translate(-1393 -2652) translate(415 2645) translate(978.465 7.12)"/>
                    <path fill="#08081A" d="M23.312 12.302c4.794.161 8.922 4.546 8.863 9.276-.005.464.162 1.152-.53 1.139-.663-.013-.49-.711-.549-1.175-.636-5.022-2.937-7.393-7.929-8.16-.413-.063-1.043.027-1.012-.52.046-.81.795-.508 1.157-.56" transform="translate(-1393 -2652) translate(415 2645) translate(978.465 7.12)"/>
                    <path fill="#08091A" d="M57.845 14.79c-.156 1.318-.786 2.196-2.195 2.283-1.304.08-2.357-.966-2.366-2.284-.007-1.279 1.11-2.448 2.35-2.311 1.319.146 2.093.936 2.211 2.312" transform="translate(-1393 -2652) translate(415 2645) translate(978.465 7.12)"/>
                    <path fill="#08081A" d="M29.714 20.731c-.046.347.156.941-.405 1.027-.758.115-.61-.579-.685-1.024-.507-3.055-1.58-4.176-4.663-4.864-.454-.101-1.16-.03-1.043-.729.111-.666.746-.44 1.226-.382 3.08.37 5.595 3.04 5.57 5.972" transform="translate(-1393 -2652) translate(415 2645) translate(978.465 7.12)"/>
                    <path fill="#08081A" d="M26.886 21.024c-.33.039-.548-.238-.582-.58-.126-1.26-.792-2.005-2.056-2.208-.379-.06-.75-.182-.574-.694.118-.342.432-.376.752-.384 1.367-.034 2.968 1.602 2.946 3.017.014.387-.027.794-.486.849z" transform="translate(-1393 -2652) translate(415 2645) translate(978.465 7.12)"/>
                    <path fill="#FFF" d="M69.675 25.257c-.029 2.329-1.396 4.022-3.206 3.968-1.727-.052-3.082-1.896-3.05-4.15.036-2.344 1.383-3.995 3.22-3.946 1.763.047 3.064 1.816 3.036 4.128M81.706 23.75c-.367 0-.742.047-1.101-.01-.564-.088-1.39.37-1.643-.314-.273-.742.34-1.372.892-1.872 1.025-.929 2.2-1.035 3.407-.441.925.455 1.754 1.268 1.5 2.272-.194.764-1.276.249-1.954.354-.36.055-.734.01-1.101.01" transform="translate(-1393 -2652) translate(415 2645) translate(978.465 7.12)"/>
                </g>
            </g>
        </g>
    </g>
</svg>
