<svg xmlns="http://www.w3.org/2000/svg" width="118" height="37" viewBox="0 0 118 37">
    <defs>
        <filter id="qo2t6e13ga">
            <feColorMatrix in="SourceGraphic" values="0 0 0 0 1.000000 0 0 0 0 1.000000 0 0 0 0 1.000000 0 0 0 1.000000 0"/>
        </filter>
    </defs>
    <g fill="none" fill-rule="evenodd">
        <g>
            <g filter="url(#qo2t6e13ga)" transform="translate(-902 -2649) translate(415 2645)">
                <g>
                    <path fill="#1D1E1E" fill-rule="nonzero" d="M19.37.396l16.625 11.465c.457.302.762.83.762 1.433v20.742c0 1.886 0 1.886-1.83 1.886-.915 0-1.144-.15-1.144-1.207V14.652c0-.377-.152-.755-.534-.98-4.804-3.32-9.608-6.638-14.413-9.957-.305-.226-.686-.226-.915 0-4.804 3.394-9.685 6.713-14.49 10.032-.228.226-.457.528-.457.905v18.253c0 .453.153.679.686.679h20.896c.534 0 .686-.15.686-.679V18.951c0-.302-.152-.603-.457-.83-1.983-1.357-3.89-2.715-5.872-4.073-.23-.226-.61-.226-.84 0-1.982 1.358-3.965 2.716-5.871 4.149-.305.226-.458.528-.534.83v7.316c.076.83-.534 1.508-1.373 1.584-.229 0-.534 0-.762-.151-.534-.226-.84-.679-.84-1.207v-9.051c.077-.377.306-.754.61-1.056 2.67-1.886 5.339-3.771 8.084-5.582.61-.452 1.45-.452 1.983 0 2.67 1.81 5.262 3.62 7.931 5.431.534.302.763.905.763 1.509v17.046c0 .98-.229 1.132-1.22 1.132l-12.812-.151H1.068C.153 35.847 0 35.696 0 34.79V13.219c0-.528.229-1.056.686-1.283C6.253 8.09 11.82 4.243 17.311.396c.61-.528 1.449-.528 2.06 0zm96.24 18.103s.077 0 .077.075c.534.302.305.679.152 1.056-.991 2.338-1.906 4.752-2.898 7.09-.991 2.338-1.906 4.677-2.821 6.94-.458.904-1.602 1.357-2.517.904-.457-.226-.305-.603-.152-.905.533-1.206 1.067-2.489 1.677-3.696.153-.377.153-.83 0-1.206-1.22-2.942-2.44-5.96-3.584-8.9-.457-1.132-.305-1.434.915-1.434 1.068 0 1.22.076 1.602 1.056.839 2.037 1.601 4.073 2.44 6.11.076.15.153.301.229.528.152-.302.229-.453.305-.68.839-2.036 1.601-4.072 2.44-6.109.382-.83 1.297-1.131 2.135-.83zm-23.869-.302c.839.226 1.754.377 2.593.679.61.226.686.678.457 1.282-.305.754-.61.754-1.296.603-.763-.226-1.525-.301-2.288-.301-.61 0-1.067.377-1.144.98-.076.604.23 1.132.763 1.358.305.15.686.302.991.377l1.754.603c2.67.906 2.44 4.224.763 5.582-1.907 1.509-5.11 1.207-6.711.075-.534-.377-.534-.754-.153-1.357.306-.528.687-.68 1.297-.302.915.603 1.983.83 3.05.528.61-.075 1.144-.528 1.22-1.207.153-.679-.228-1.282-.915-1.508l-1.372-.453c-.534-.15-.992-.377-1.526-.528-1.601-.754-2.211-2.564-1.525-4.148.229-.453.534-.906.992-1.207.991-.68 1.982-.98 3.05-1.056zm8.77-2.414c.229.151.458.453.458.754.076.453.076.906 0 1.434 0 .377.152.452.457.452h.915c.763 0 .992.302.992 1.056s-.23.905-.992.98c-1.395.073-1.447.076-1.449 1.288v5.35c0 1.056.382 1.358 1.45 1.207.838-.075 1.143.075 1.296.905.076.604-.153.905-.992 1.056-1.754.377-3.584-.452-3.965-1.886-.077-.452-.153-.98-.153-1.433v-5.43c.153-.378.153-.604.076-.981h-.533c-.84 0-1.144-.377-1.068-1.207.076-.528.305-.905.915-.83.61.076.915-.15.839-.83 0-.225.076-.527.076-.753.077-1.056.763-1.509 1.678-1.132zm-36.376 2.64c.762 0 .991.226.991.98v6.563c0 1.81 1.144 2.64 2.974 2.187.305-.075.61-.226.84-.377.686-.302 1.143-.98 1.067-1.735-.076-2.187 0-4.375 0-6.487 0-.905.229-1.13 1.296-1.13 1.068 0 1.22.225 1.22 1.13v7.317c0 .754.077 1.584.23 2.338.152.377-.077.754-.458.905h-.077c-1.067.302-1.449.151-1.982-.905-.84.377-1.678.754-2.593.98-.992.302-2.135.152-3.05-.301-1.144-.453-1.907-1.584-1.907-2.79-.076-2.64 0-5.28 0-7.845 0-.377.305-.754.686-.83h.763zm-6.101-3.47c.305.076.534.151.763.302.305.226.838.604.762.905-.076.528-.381.98-.686 1.283-.076.075-.534 0-.763-.076-1.449-.679-3.126-.905-4.728-.603-1.678.226-3.05 1.508-3.432 3.168-.457 1.584-.457 3.318 0 4.902.61 2.263 1.83 3.32 4.347 3.47.915 0 1.754 0 2.67-.15.38 0 .61-.227.61-.68v-2.79c0-.453-.153-.604-.61-.604h-1.83c-.61 0-.763-.452-.763-.98s0-1.132.762-1.132h4.042c.61 0 .839.377.839.98v5.205c0 .905-.229 1.358-1.144 1.66-.839.226-1.678.377-2.593.452-1.449.076-2.898 0-4.347-.226-2.745-.604-4.5-2.866-4.728-5.808-.152-1.509-.076-3.017.229-4.526.61-2.941 3.203-5.129 6.253-5.129 1.45-.15 2.974 0 4.347.377zm23.946 3.47c2.059.377 3.279 1.961 3.584 4.224.305 2.263-.153 2.715-2.364 2.64-1.602-.075-3.203 0-4.804 0h-.84c-.152 1.433.916 2.79 2.365 2.942 1.296.15 2.593-.076 3.736-.68.382-.226.916-.15 1.144.227 0 0 0 .075.077.075.533.755.457 1.207-.382 1.584-2.287 1.132-4.957 1.132-7.168.076-1.678-.83-2.288-2.414-2.44-4.073-.077-1.207 0-2.414.305-3.62.38-1.811 1.906-3.169 3.813-3.395.991-.15 1.982-.15 2.974 0zm-2.288 1.961c-1.373.226-2.288 1.433-2.135 2.791.076 0 .152.075.228.075h4.729c.457 0 .457-.301.457-.603-.229-1.81-1.525-2.64-3.28-2.263z" transform="translate(487.845 4.9)"/>
                </g>
            </g>
        </g>
    </g>
</svg>
