<svg xmlns="http://www.w3.org/2000/svg" xmlns:xlink="http://www.w3.org/1999/xlink" width="45" height="47" viewBox="0 0 45 47">
    <defs>
        <path id="prefix__a" d="M0.133 0.262L37.896 0.262 37.896 15.755 0.133 15.755z"/>
        <path id="prefix__c" d="M0 0.465L25.764 0.465 25.764 30.83 0 30.83z"/>
        <path id="prefix__e" d="M0.372 0.266L18.087 0.266 18.087 35.06 0.372 35.06z"/>
    </defs>
    <g fill="none" fill-rule="evenodd">
        <path fill="#116DFF" d="M39.501 39.46L39.503 39.459 39.497 39.457z" transform="translate(0 -1)"/>
        <g transform="translate(0 -1) translate(0 .958)">
            <g transform="translate(.573 30.948)">
                <mask id="prefix__b" fill="#fff">
                    <use xlink:href="#prefix__a"/>
                </mask>
                <path fill="#116DFF" d="M4.443 5.338c-.233.1-.477.151-.725.151-.655 0-1.262-.362-1.58-.995-.098-.216-.148-.441-.148-.67.001-.677.414-1.292 1.054-1.57.232-.103.477-.156.725-.156.688.002 1.31.392 1.581.992.095.21.142.437.142.671 0 .679-.413 1.298-1.05 1.577m31.451 1.72l-.008.008c-1.796 1.88-3.913 3.363-6.292 4.403-2.523 1.106-5.194 1.666-7.94 1.666-5.83-.002-11.475-2.644-15.153-7.08.55-.638.85-1.438.85-2.277 0-.494-.104-.974-.31-1.425-.575-1.27-1.864-2.09-3.284-2.09-.51 0-1.006.104-1.475.31C.976 1.141.133 2.412.133 3.81c0 .494.105.975.31 1.428.576 1.268 1.865 2.087 3.283 2.087.125 0 .25-.006.376-.019 4.175 5.293 10.721 8.448 17.548 8.448h.003c3.118 0 6.155-.635 9.025-1.89 2.74-1.201 5.167-2.913 7.218-5.084-.298-.115-.58-.262-.841-.445-.49-.345-.881-.785-1.162-1.277" mask="url(#prefix__b)"/>
            </g>
            <mask id="prefix__d" fill="#fff">
                <use xlink:href="#prefix__c"/>
            </mask>
            <path fill="#116DFF" d="M21.458 2.456c.232-.102.477-.154.725-.154.688 0 1.31.39 1.581.99.095.212.142.438.142.672 0 .679-.413 1.298-1.05 1.576-.232.101-.476.152-.724.152-.655 0-1.262-.363-1.58-.996-.098-.215-.148-.44-.148-.67.001-.676.414-1.292 1.054-1.57zM.852 30.83c.31-.293.661-.533 1.047-.712.453-.21.932-.327 1.411-.363-.428-1.591-.645-3.23-.645-4.868.002-7.585 4.556-14.477 11.602-17.558 1.529-.669 3.163-1.142 4.863-1.407.661 1.01 1.773 1.606 3.011 1.606.51 0 1.005-.103 1.476-.308 1.304-.576 2.147-1.848 2.147-3.241 0-.491-.104-.97-.308-1.425-.577-1.27-1.866-2.09-3.284-2.09-.509 0-1.005.105-1.475.311-1.095.477-1.86 1.43-2.078 2.576-1.897.303-3.725.837-5.434 1.586C5.174 8.439-.001 16.27 0 24.886c0 1.944.272 3.893.807 5.793l.045.15z" mask="url(#prefix__d)"/>
            <g transform="translate(26.34 3.376)">
                <mask id="prefix__f" fill="#fff">
                    <use xlink:href="#prefix__e"/>
                </mask>
                <path fill="#116DFF" d="M14.984 33.071c-.233.1-.477.152-.725.152-.655-.001-1.262-.363-1.579-.996-.098-.215-.148-.44-.148-.67.001-.677.413-1.292 1.053-1.57.233-.103.477-.155.726-.155.688.002 1.308.391 1.581.991.094.211.142.437.142.672 0 .678-.413 1.298-1.05 1.576m1.757-4.13c.893-2.41 1.346-4.916 1.346-7.452 0-3.065-.648-6.048-1.924-8.866C13.328 6.37 7.808 1.87 1.017.276L.973.266c.041.344.04.688-.013 1.029-.088.555-.294 1.07-.588 1.522l.12.029c5.936 1.424 10.76 5.376 13.235 10.841 1.126 2.482 1.696 5.107 1.696 7.802 0 2.215-.394 4.404-1.17 6.509-.494.006-.974.11-1.428.31-1.307.57-2.15 1.84-2.15 3.237 0 .494.105.975.312 1.43.576 1.267 1.863 2.085 3.279 2.085h.003c.51 0 1.006-.103 1.475-.308 1.304-.576 2.147-1.847 2.147-3.24 0-.494-.103-.973-.307-1.426-.195-.428-.484-.82-.843-1.145" mask="url(#prefix__f)"/>
            </g>
            <path fill="#116DFF" d="M32.52 25.056c0 5.584-4.624 10.127-10.307 10.127-5.682 0-10.305-4.543-10.305-10.127 0-5.584 4.623-10.128 10.305-10.128 5.683 0 10.307 4.544 10.307 10.128m-23.52 0c0 7.16 5.927 12.985 13.213 12.985 7.287 0 13.215-5.825 13.215-12.985 0-7.16-5.928-12.985-13.215-12.985C14.927 12.07 9 17.895 9 25.056M43.013 34.921c0 1.233-1.017 2.233-2.272 2.233s-2.273-1-2.273-2.233 1.018-2.233 2.273-2.233c1.255 0 2.272 1 2.272 2.233M7.073 35.025c0 1.093-1.17 1.979-2.612 1.979-1.442 0-2.611-.886-2.611-1.98 0-1.092 1.169-1.978 2.611-1.978 1.443 0 2.612.886 2.612 1.979M24.286 4.166c0 1.249-.87 2.261-1.941 2.261-1.072 0-1.94-1.012-1.94-2.261s.868-2.261 1.94-2.261c1.071 0 1.94 1.012 1.94 2.261"/>
        </g>
    </g>
</svg>
