<svg xmlns="http://www.w3.org/2000/svg" width="141" height="25" viewBox="0 0 141 25">
    <path fill="#E26D2F" fill-rule="evenodd" d="M26.868 11.633C26.806 5.42 21.794.383 15.535.383 9.275.384 4.2 5.42 4.2 11.634c0 5.431 3.878 9.963 9.004 10.989 1.715.343 1.952-3.99 1.482-6.863-.008 0-.516-.03-.687-.036-.351-.015-.685.384-.9.463-.366.132-.436-.23-.7-.23-.232 0-.544.358-1.4.196-.865-.163-1.145-.94-1.145-.94l-.26-.135c-.883-.219-.932-1.178-.937-1.231-.05-.47.774-.823.542-.969-1-.63-.678-1.124-.668-1.15.127-.333.613-1.053.435-1.166-.49-.31.315-2.115 1.022-2.616.108-.571.728-1.505 1.328-1.702-.033-.648.88-1.016.88-1.016.638-.204.19-.727 1.415-.644.287.02.279-.304.989-.32.206-.005.432-.163 1.06-.163 1.105-.049 1.054.693 1.424.566.466-.159 2.02.599 2.182 2.157.698-.054 2.53 1.948 2.477 3.426 1.205 1.344-.438 2.615-.503 2.861.047.14.29.75.193 1.222-.114.554-.82 1.158-.85 1.178-.495.354-.862.755-1.451.645-.609-.113-.493-.67-.674-.804-.391.344-.98.637-1.734.577-.088-.015-.416-.048-.459-.053-.361 2.116-.31 6.843 1.2 6.84 4.552-.69 9.462-5.04 9.402-11.082zm-23.586 0C3.282 5.643 7.998.413 13.945.07 5.419-.711 0 5.296 0 11.633s5.546 12.463 13.945 11.564c-5.947-.345-10.663-5.575-10.663-11.564zM17.124.07c5.948.344 10.663 5.575 10.663 11.564 0 5.99-4.715 11.219-10.663 11.564 8.616.752 13.946-5.227 13.946-11.564S25.76-.67 17.124.07zm66.158 12.519H79.58v-.046c0-.837.167-1.477.501-1.918.335-.442.804-.662 1.41-.662.621 0 1.09.232 1.41.697.143.217.243.457.298.72.056.264.084.62.084 1.069v.14zm2.927-1.569c-.263-.829-.673-1.522-1.23-2.08-.399-.403-.908-.713-1.53-.93-.62-.216-1.29-.325-2.007-.325-.812 0-1.53.132-2.15.396-.622.263-1.187.665-1.697 1.207-.541.59-.931 1.256-1.17 2-.24.743-.359 1.65-.359 2.718 0 .931.135 1.775.406 2.534.27.76.658 1.406 1.16 1.94.5.535 1.11.95 1.827 1.245.717.294 1.513.44 2.39.44 1.577 0 3.023-.48 4.337-1.44.192-.126.218-.317.087-.49-.218-.325-.576-.861-.813-1.218-.202-.318-.4-.236-.565-.118-.89.629-1.818.943-2.784.943-.828 0-1.465-.249-1.911-.744-.446-.496-.67-1.209-.67-2.138v-.093h6.585c.567 0 .488-.72.488-.72 0-1.256-.131-2.297-.394-3.127zm47.762 1.523c0-.837.168-1.477.502-1.918.335-.442.804-.662 1.41-.662.621 0 1.09.232 1.41.697.143.217.243.457.298.72.056.264.084.62.084 1.069v.14h-3.704v-.046zm6.536 2.324c.568 0 .49-.72.49-.72 0-1.256-.133-2.297-.395-3.127-.262-.829-.673-1.522-1.23-2.08-.4-.403-.909-.713-1.53-.93-.621-.216-1.29-.325-2.007-.325-.811 0-1.529.132-2.15.396-.621.263-1.187.665-1.697 1.207-.541.59-.932 1.256-1.17 2-.24.743-.359 1.65-.359 2.718 0 .931.135 1.775.406 2.534.27.76.657 1.406 1.159 1.94.502.535 1.111.95 1.828 1.245.717.294 1.513.44 2.39.44 1.577 0 3.023-.48 4.337-1.44.192-.126.218-.317.087-.49l-.814-1.218c-.201-.318-.4-.236-.563-.118-.89.629-1.819.943-2.785.943-.828 0-1.466-.249-1.91-.744-.447-.496-.67-1.209-.67-2.138v-.093h6.583zM123.77 13.47c-.558 0-1.012-.131-1.362-.395-.35-.263-.526-.697-.526-1.302 0-.557.167-.991.502-1.3.335-.31.804-.466 1.41-.466.606 0 1.078.155 1.421.465.343.31.514.744.514 1.301 0 1.132-.653 1.697-1.959 1.697zm5.376-3.347c.446 0 .844-.07 1.195-.209.25-.1.5-.242.75-.43.207-.139.23-.38.073-.58l-.8-1.182c-.181-.298-.335-.387-.658-.178-.27.194-.555.352-.858.476-.44.178-.881.267-1.327.267-.206 0-.426-.023-.657-.07-.23-.046-.514-.107-.848-.186-.446-.108-.836-.185-1.17-.232-.335-.046-.678-.07-1.028-.07-.78 0-1.49.098-2.127.291-.637.194-1.179.465-1.625.814-.445.348-.793.77-1.039 1.266-.247.496-.37 1.046-.37 1.65 0 1.766.875 2.867 2.628 3.3-.51.125-.912.264-1.206.419-.296.155-.519.318-.67.488-.151.17-.25.349-.298.534-.048.187-.072.372-.072.558 0 .404.083.736.251 1 .168.264.394.45.681.558.557.232 1.537.356 2.939.371l1.362.024c.637.015 1.17.12 1.601.313.43.194.645.562.645 1.104 0 .248-.072.477-.215.686-.144.21-.335.384-.574.523-.255.155-.55.26-.884.314-.334.054-.71.08-1.123.08-.749 0-1.318-.122-1.708-.371-.39-.248-.586-.612-.586-1.092 0-.17.009-.306.024-.407.016-.101.056-.397-.236-.36h-2.607c-.064.124-.128.275-.191.453-.064.178-.096.43-.096.755 0 .806.335 1.511 1.004 2.116.558.495 1.25.832 2.079 1.01.827.178 1.68.267 2.556.267.955 0 1.864-.115 2.725-.348.86-.232 1.56-.627 2.101-1.185.654-.683.98-1.504.98-2.464 0-1.053-.35-1.898-1.05-2.533-.431-.387-.926-.659-1.482-.814-.558-.155-1.299-.24-2.223-.255l-1.72-.024c-.35 0-.526-.092-.526-.279 0-.17.108-.329.323-.476.215-.147.53-.314.944-.5.127.016.215.024.262.024h.216c.653 0 1.255-.09 1.803-.267.55-.178 1.028-.423 1.435-.733.406-.31.72-.681.943-1.115.223-.434.334-.907.334-1.418 0-.403-.059-.76-.178-1.07-.12-.309-.299-.603-.539-.883.096.016.22.031.37.047.153.015.307.023.467.023zM114.02 17.19c-.239.264-.502.465-.788.604-.286.14-.582.21-.884.21-.414 0-.752-.144-1.016-.43-.263-.288-.394-.663-.394-1.127 0-.714.22-1.193.658-1.442.438-.247 1.213-.372 2.33-.372h.142l-.048 2.557zm3.692.779c-.152-.179-.267-.369-.346-.57-.08-.201-.128-.422-.144-.662-.016-.24-.024-.524-.024-.849l.072-3.998v-.813c0-.217-.012-.402-.036-.558-.023-.155-.048-.29-.071-.406-.025-.117-.06-.237-.107-.36-.24-.667-.698-1.178-1.375-1.535-.677-.356-1.533-.534-2.568-.534-.558 0-1.104.055-1.637.163-.534.108-1.103.286-1.709.534-.43.17-.788.326-1.075.465-.166.08-.339.173-.516.275-.29.178-.26.395-.179.585l.908 1.486c.187.288.407.263.65.14.518-.31 1.012-.558 1.479-.743.589-.232 1.139-.349 1.649-.349.589 0 .975.129 1.158.384.183.256.275.717.275 1.383v.488c-.127-.016-.247-.024-.359-.024h-.358c-1.959 0-3.429.33-4.408.989-.98.658-1.47 1.693-1.47 3.102 0 1.193.359 2.112 1.075 2.754.718.643 1.76.965 3.13.965 1.02 0 1.84-.217 2.462-.651.127-.077.25-.17.37-.279.12-.108.243-.225.37-.348.16.31.394.589.705.836.183.146.378.272.578.39.313.185.532.116.775-.147.329-.358.822-.903 1.1-1.253.115-.145.18-.347-.027-.518-.14-.117-.253-.233-.347-.342zm-10.898.018c-.047-.201-.25-.21-.386-.176-.137.036-.255.065-.352.088-.167.039-.323.058-.467.058-.557 0-.928-.128-1.11-.383-.183-.257-.275-.764-.275-1.523v-5.973h2.055s.415-1.09.65-1.714c.118-.33-.084-.425-.264-.425h-2.441c0-.604.016-1.22.047-1.847.02-.384.046-.751.077-1.103.06-.577-.351-.535-.609-.488l-2.574.626c-.063.45-.1.884-.106 1.302-.009.418-.013.922-.013 1.51h-1.218v2.139h1.218v6.46c0 .28.004.509.013.686.007.18.015.33.023.454s.027.24.06.349c.032.108.072.224.119.348.191.528.586.95 1.183 1.267.597.317 1.302.477 2.115.477.773 0 1.565-.15 2.378-.449.12-.05.205-.134.176-.316l-.3-1.367zm-9.83-15.254c-.558 0-1.03.186-1.42.559-.392.37-.586.828-.586 1.37 0 .543.19 1 .572 1.372.383.372.845.558 1.386.558.558 0 1.028-.186 1.41-.558.383-.372.573-.829.573-1.371 0-.543-.187-1-.561-1.371-.375-.373-.833-.559-1.374-.559zm1.253 4.974c-.606.093-1.974.3-2.59.395-.295.05-.312.14-.312.327v11.087c0 .256.154.323.34.323h2.58c.224 0 .282-.06.282-.305V7.966c0-.286-.1-.29-.3-.26zm-4.078 0c-.152-.03-.346-.047-.586-.047-.605 0-1.147.171-1.625.512-.477.34-.892.736-1.243 1.185-.047-.635-.214-1.2-.5-1.697l-2.868.745c.127.34.235.805.322 1.394.088.59.132 1.286.132 2.091v7.602c0 .16.08.347.34.347h2.508c.204 0 .354-.058.354-.347v-8.066c.589-.666 1.243-1 1.959-1 .166 0 .33.003.49.04.296.043.481.089.586-.252.162-.504.425-1.32.587-1.818.141-.445-.079-.593-.456-.689zm-19.434-4.02H72c-.32 0-.367.093-.367.368v5.907h-4.779V4.055c0-.34-.161-.38-.481-.369h-2.441c-.35 0-.4.114-.4.381v15.401c0 .284.135.371.31.371h2.652c.195 0 .36-.042.36-.359v-6.846h4.779v6.84c0 .252.167.365.373.365H74.7c.227 0 .325-.125.325-.347V4.043c0-.295-.1-.357-.3-.357zM62.457 7.938h-2.633c-.287 0-.346.046-.42.3l-1.746 5.371c-.096.28-.187.574-.275.883-.088.31-.155.567-.203.768l-.12.534c-.047.218-.092.422-.13.616-.04.194-.072.364-.097.512-.023.147-.036.229-.036.244l-.644-2.464-2.024-6.613c-.082-.262-.257-.314-.477-.294l-2.514.285c-.301.035-.347.188-.266.39l3.918 11.368h.814c-.08.17-.144.318-.192.442-.048.124-.096.236-.144.337-.047.1-.1.197-.155.29-.056.093-.123.201-.203.326-.271.418-.573.743-.908.976-.239.17-.541.321-.908.454-.234.083-.465.16-.692.227-.252.087-.289.286-.186.477l.753 1.4c.108.215.323.259.52.218.422-.078.829-.186 1.218-.324.502-.178.96-.415 1.374-.709.223-.154.43-.34.621-.558.191-.216.378-.476.561-.778.184-.302.371-.667.562-1.092.191-.427.39-.927.598-1.5l4.313-11.727c.12-.34-.066-.359-.279-.359zm-12.834-3.9c-.036-.284-.142-.353-.433-.353h-3.496c-.208 0-.378.054-.458.362l-2.145 7.657c-.254.944-.453 1.82-.597 2.626-.032-.2-.067-.395-.107-.58l-.12-.57c-.04-.194-.088-.403-.143-.628-.056-.224-.124-.484-.203-.779l-2.08-7.736c-.114-.348-.31-.352-.54-.352h-3.503c-.28 0-.347.153-.364.376L33.95 19.474c-.022.27.135.36.403.365h2.44c.257 0 .43-.052.468-.347l.549-8.09c.032-.496.056-.984.072-1.464.031-.449.048-.898.048-1.347.079.433.182.898.31 1.394.127.51.247.968.359 1.37l2.268 8.138c.074.24.183.346.443.346h2.082c.335-.012.419-.05.516-.334l2.528-8.497c.143-.496.259-.918.346-1.267.087-.349.18-.756.275-1.22 0 .434.012.864.036 1.29.024.426.052.895.083 1.406 0 0 .515 6.837.6 8.335.016.269.155.287.35.287h2.623c.17 0 .32-.076.29-.347-.238-2.119-1.22-13.316-1.417-15.453z"/>
</svg>
