<svg xmlns="http://www.w3.org/2000/svg" width="46" height="43" viewBox="0 0 46 43">
    <g fill="#116DFF">
        <path d="M35.696 33.186H13.293v2.446c-.435 2.508-2.592 4.414-5.188 4.414-2.909 0-5.267-2.395-5.267-5.348 0-1.822.898-3.432 2.27-4.397l-1.511-2.19C1.546 29.558.204 31.97.204 34.697c0 4.43 3.538 8.021 7.901 8.021 3.914 0 7.163-2.888 7.792-6.68h19.692c.456.797 1.306 1.333 2.279 1.333 1.454 0 2.633-1.197 2.633-2.674 0-1.477-1.179-2.674-2.633-2.674-.902 0-1.698.46-2.172 1.162z" transform="translate(0 .283)"/>
        <path d="M5.749 33.586c.045-.115.099-.228.161-.338.484-.855 1.36-1.335 2.263-1.34l9.876-17.445c-2.91-2.449-3.746-6.755-1.796-10.2 2.175-3.84 6.988-5.157 10.751-2.942 2.31 1.36 3.688 3.736 3.904 6.256l-2.613.234c-.144-1.68-1.063-3.265-2.603-4.172-2.509-1.477-5.718-.599-7.167 1.961-1.42 2.507-.626 5.698 1.764 7.216l1.445.85-11.187 19.76c.318.677.352 1.48.049 2.205-.37 1.02-1.333 1.748-2.463 1.748-1.45 0-2.624-1.198-2.624-2.675 0-.4.086-.778.24-1.118z" transform="translate(0 .283)"/>
        <path d="M22.838 10.923l11.075 19.561 1.32-.777.021.04.033-.02c2.51-1.478 5.71-.621 7.144 1.913 1.435 2.535.563 5.788-1.947 7.266-1.548.911-3.357.935-4.853.226l-1.117 2.412c2.242 1.06 4.95 1.022 7.269-.343 3.766-2.217 5.074-7.097 2.921-10.899-1.943-3.432-6.043-4.813-9.593-3.417L25.284 9.528c.424-.787.447-1.768-.022-2.597-.717-1.267-2.316-1.695-3.572-.956-1.255.739-1.69 2.365-.973 3.633.456.805 1.268 1.272 2.121 1.315z" transform="translate(0 .283)"/>
    </g>
</svg>
