<svg xmlns="http://www.w3.org/2000/svg" width="45" height="44" viewBox="0 0 45 44">
    <path fill="#116DFF" d="M38.963 14.832L44.708.08 29.897 5.802l-6.773 6.746L10.616.09.826 9.842 13.332 22.3l-9.248 9.212-2.081 2.072c-.75.748-1.165 1.743-1.165 2.8 0 1.059.414 2.053 1.165 2.801l3.443 3.43c.775.772 1.793 1.158 2.812 1.158 1.018 0 2.036-.386 2.811-1.158L22.4 31.33l12.512 12.463 9.79-9.751L32.19 21.578l6.773-6.746zm-27.618 20.29l22.893-22.804 1.807 1.8L13.15 36.92l-1.806-1.8zm26.032-23.298l-4.46-4.443 7.286-2.814-2.826 7.257zM13.35 18.696l2.383-2.373-1.817-1.81-2.383 2.373L4.46 9.842l6.155-6.131 10.69 10.648-6.155 6.13-1.8-1.793zm17.264-9.988l1.807 1.8L9.527 33.31l-1.806-1.8L30.614 8.709zM9.253 40.804c-.266.265-.619.41-.994.41-.376 0-.729-.145-.994-.41l-3.443-3.43c-.265-.264-.412-.615-.412-.99 0-.373.147-.725.412-.989l2.081-2.073 5.43 5.41-2.08 2.072zm31.814-6.762l-6.155 6.13-3.44-3.426 2.382-2.374-1.817-1.81-2.383 2.373-1.807-1.8 2.383-2.373-1.818-1.81-2.383 2.373-1.812-1.805 6.155-6.13 10.695 10.652z"/>
</svg>
