<svg width="115" height="21" xmlns="http://www.w3.org/2000/svg">
    <g fill="#1D1E1E" fill-rule="evenodd">
        <path d="M48.813 16.733h1.389V4.682h-1.39v12.051zm0-14.694h1.389V0h-1.39v2.04zM53.397 16.733V4.682h1.387v1.83c1.23-1.297 2.131-2.062 4.007-2.062 1.341 0 2.568.857 2.916 2.201 1.087-1.274 2.245-2.201 3.982-2.201 2.104 0 3.172 1.159 3.172 3.268v9.015h-1.39V7.58c0-1.345-.742-2.016-2.082-2.016-1.066 0-2.827 1.135-3.567 2.294v8.876h-1.39V7.58c0-1.345-.739-2.016-2.082-2.016-1.066 0-2.825 1.135-3.566 2.294v8.876h-1.387zM78.677 16.733l-.187-1.46c-1.434 1.136-2.522 1.695-4.372 1.695-1.877 0-3.311-1.162-3.311-3.155 0-3.29 2.684-3.894 7.708-5.005v-.835c0-1.599-.695-2.41-2.755-2.41-1.434 0-2.616.788-3.495 2.178l-.928-.556C72.38 5.237 73.86 4.45 75.806 4.45c2.731 0 4.028 1.113 4.028 3.777v6.305c0 .603.047 1.39.184 2.201h-1.341zm-.233-6.814c-5.508 1.206-6.25 2.343-6.25 3.87 0 1.324.902 2.064 2.154 2.064 1.296 0 2.892-.765 4.096-1.99V9.918zM92.335 5.47c-.624 0-1.434.069-1.922.556.535.65.858 1.367.858 2.526 0 2.967-2.108 4.218-4.652 4.218-.764 0-1.344-.163-1.946-.37-.764.278-1.111.719-1.111 1.158 0 .695.462 1.044 3.728 1.044 3.611 0 5.117 1.159 5.117 3.127 0 1.762-1.344 3.271-5.487 3.271s-5.255-1.416-5.255-2.852c0-1.044.416-1.924 2.105-2.55v-.046c-.879-.186-1.595-.556-1.595-1.576 0-1.022.925-1.854 1.803-2.038-1.087-.743-1.735-1.902-1.735-3.154 0-2.643 1.852-4.335 4.77-4.335 1.158 0 2.035.325 2.799.834.696-.694 1.574-1.066 2.523-1.066V5.47zm-9.283 12.424c0 1.182 1.158 1.992 3.66 1.992 3.007 0 4.304-.81 4.304-2.062 0-.997-.785-1.971-4.398-1.971-2.731 0-3.566.997-3.566 2.04zm3.706-6.235c1.942 0 3.124-.928 3.124-3.013 0-2.11-1.182-3.083-3.124-3.083-1.947 0-3.126 1.205-3.126 3.083 0 2.085 1.434 3.013 3.126 3.013zM94.42 10.755c0 2.733 1.135 5.098 3.866 5.098 1.552 0 2.316-.533 3.52-2.434l1.132.603c-1.297 2.133-2.476 2.946-4.77 2.946-3.146 0-5.136-2.018-5.136-6.261 0-3.73 1.897-6.256 4.953-6.256 3.265 0 4.814 2.573 4.814 6.304h-8.38zm6.992-1.114c-.28-2.48-1.366-4.056-3.473-4.078-2.455-.024-3.495 2.48-3.52 4.078h6.993zM104.792 13.813c1.135 1.624 2.153 2.04 3.726 2.04 1.53 0 2.685-.996 2.685-2.295 0-3.5-7.083-1.53-7.083-5.817 0-2.272 1.782-3.291 3.82-3.291 2.014 0 3.288.787 4.143 2.18l-1.065.74c-.81-1.113-1.69-1.807-3.124-1.807-1.344 0-2.383.647-2.383 2.108 0 2.943 7.082 1.207 7.082 5.887 0 2.156-1.99 3.41-4.168 3.41-1.852 0-3.517-.743-4.652-2.436l1.019-.72zM10.534 6.602c-.641 0-1.35 0-1.77.27.354.496.62 1.172.62 2.072 0 2.211-1.461 3.786-4.338 3.786-1.196 0-2.148.045-2.148.723 0 1.892 7.57-.678 7.57 4.01 0 1.667-1.66 3.472-5.334 3.472-3.098 0-5.134-.947-5.134-2.797 0-1.465 1.084-2.163 2.08-2.163v-.045c-.53-.336-1.703-.63-1.703-1.894 0-1.126 1.282-1.98 1.792-2.139-.952-.79-1.705-1.689-1.705-3.11 0-2.05 1.55-4.078 4.538-4.078.974 0 2.123.406 2.832 1.037.531-.721 1.394-1.082 2.7-1.037v1.893zM2.523 17.78c0 .901.752 1.306 3.054 1.306 1.77 0 2.368-.903 2.368-1.306 0-.544-.82-1.354-3.474-1.354-1.505 0-1.948.858-1.948 1.354zM4.98 6.782c-1.174 0-1.992.856-1.992 1.938 0 1.082.819 1.937 1.992 1.937 1.04 0 1.88-.855 1.88-1.937s-.84-1.938-1.88-1.938zM13.57 11.245c.045 2.432 1.107 3.38 2.39 3.38 1.286 0 1.881-.589 2.568-1.396l1.992 1.26c-1.063 1.665-2.612 2.388-4.825 2.388-2.988 0-4.869-2.367-4.869-6.083 0-3.718 1.88-6.085 5.002-6.085 3.01-.022 4.692 2.57 4.692 5.386v1.15h-6.95zm4.427-1.894c-.045-1.623-.885-2.568-2.213-2.568-1.329 0-2.17.946-2.214 2.568h4.427zM37.335 18.544c.42.093.752.093 1.15.093.952 0 1.483-.274 1.815-.928.265-.562.443-.899.443-1.373 0-.429-.222-.925-.353-1.397L37.312 4.934h2.767l1.903 7.213h.045l1.97-7.213h2.744l-3.63 11.74c-1.218 3.359-2.19 4.261-4.448 4.261-.664 0-.997-.045-1.328-.09v-2.3zM22.779 4.966V1.361h3.017v3.605h2.484v2.255h-2.484v6.623c0 .631.342.813 1.096.813.463 0 .95-.137 1.388-.227v2.298c-.829.092-1.557.182-2.386.182-2.24 0-3.115-1.036-3.115-2.704V7.221h-1.754V4.966h1.754zM30.674 4.966V1.361h3.018v3.605h2.483v2.255h-2.483v6.623c0 .631.342.813 1.095.813.463 0 .95-.137 1.388-.227v2.298c-.828.092-1.558.182-2.385.182-2.24 0-3.117-1.036-3.117-2.704V7.221h-1.752V4.966h1.753zM115 2.21a1.468 1.468 0 0 1-.886 1.36 1.421 1.421 0 0 1-1.573-.316 1.487 1.487 0 0 1-.31-1.602 1.44 1.44 0 0 1 1.336-.902c.79.004 1.43.655 1.433 1.46zm-.237 0a1.232 1.232 0 0 0-.332-.895 1.187 1.187 0 0 0-.864-.374c-.688 0-1.246.568-1.246 1.268 0 .701.558 1.269 1.246 1.269.326 0 .638-.135.864-.374.225-.24.346-.563.332-.895zm-1.503.871h-.23V1.345h.655c.383 0 .55.17.55.475a.466.466 0 0 1-.39.489l.473.772h-.264l-.446-.772h-.327v.772h-.02zm.265-.97c.23 0 .48 0 .48-.291 0-.29-.195-.284-.376-.284h-.369v.574h.265z"/>
    </g>
</svg>
