<svg width="93" height="30" xmlns="http://www.w3.org/2000/svg">
    <path d="m15.527.33 13.326 9.555c.366.251.61.691.61 1.194v17.6c-.007 1.258-.104 1.258-1.466 1.258-.734 0-.917-.126-.917-1.006v-16.72c0-.315-.122-.629-.428-.818L15.099 3.096c-.245-.189-.55-.189-.734 0-3.85 2.829-7.763 5.594-11.614 8.36-.184.189-.367.44-.367.755v15.212c0 .377.122.565.55.565h16.75c.427 0 .55-.125.55-.565v-11.63c0-.25-.123-.502-.367-.69-1.59-1.132-3.118-2.264-4.707-3.395a.47.47 0 0 0-.673 0c-1.589 1.131-3.178 2.263-4.706 3.457a1.2 1.2 0 0 0-.428.691v6.098a1.2 1.2 0 0 1-1.1 1.32c-.184 0-.429 0-.612-.126-.428-.188-.672-.565-.672-1.006V14.6c.06-.314.244-.628.489-.88 2.14-1.571 4.279-3.143 6.48-4.651.488-.378 1.16-.378 1.589 0 2.14 1.508 4.218 3.017 6.357 4.526.428.25.611.754.611 1.257v14.206c0 .817-.183.943-.978.943l-10.27-.126H.857c-.734 0-.856-.125-.856-.88V11.016c0-.44.183-.88.55-1.068C5.013 6.742 9.475 3.536 13.876.33a1.197 1.197 0 0 1 1.65 0zM92.67 15.416s.06 0 .06.063c.429.252.245.566.123.88-.794 1.949-1.528 3.96-2.323 5.91-.794 1.948-1.528 3.897-2.261 5.782-.367.755-1.284 1.132-2.018.755-.366-.189-.244-.503-.122-.755.428-1.005.856-2.074 1.345-3.08a1.425 1.425 0 0 0 0-1.006 370.008 370.008 0 0 1-2.873-7.417c-.367-.943-.245-1.194.733-1.194.856 0 .978.062 1.284.88.673 1.697 1.284 3.394 1.956 5.091.061.126.122.252.184.44.122-.251.183-.377.244-.565.673-1.698 1.284-3.395 1.956-5.092.306-.692 1.04-.943 1.712-.692zm-19.133-.251c.672.189 1.406.314 2.078.566.489.188.55.565.367 1.068-.245.629-.49.629-1.04.503a6.147 6.147 0 0 0-1.833-.251c-.49 0-.856.314-.917.817-.061.503.183.943.611 1.131.245.126.55.252.795.315l1.406.503c2.14.754 1.956 3.52.611 4.651-1.528 1.258-4.096 1.006-5.38.063-.427-.314-.427-.628-.122-1.131.245-.44.55-.566 1.04-.252.733.503 1.589.692 2.445.44a1.12 1.12 0 0 0 .978-1.005c.122-.566-.184-1.07-.734-1.258l-1.1-.377c-.428-.126-.795-.314-1.223-.44-1.283-.628-1.772-2.137-1.222-3.457.183-.377.428-.755.794-1.006a4.646 4.646 0 0 1 2.446-.88zm7.03-2.012c.183.126.366.378.366.63.061.376.061.753 0 1.193 0 .315.122.378.367.378h.733c.612 0 .795.251.795.88 0 .628-.183.754-.795.817-1.064.057-1.153.062-1.16.934l-.001 4.598c0 .88.306 1.131 1.161 1.005.673-.063.917.063 1.04.755.06.502-.123.754-.795.88-1.406.314-2.873-.378-3.179-1.572-.06-.377-.122-.817-.122-1.194V17.93c.122-.314.122-.503.061-.817h-.428c-.672 0-.917-.315-.856-1.006.062-.44.245-.754.734-.692.489.063.734-.125.672-.691 0-.189.062-.44.062-.629.06-.88.61-1.257 1.344-.943zm-29.159 2.2c.611 0 .795.19.795.818v5.469c0 1.508.917 2.2 2.384 1.823a2.23 2.23 0 0 0 .672-.315c.55-.251.917-.817.856-1.446-.061-1.822 0-3.645 0-5.406 0-.754.183-.942 1.04-.942.855 0 .977.188.977.942v6.098c0 .629.061 1.32.184 1.949.122.314-.062.628-.367.754h-.061c-.856.251-1.162.126-1.59-.754-.672.314-1.344.628-2.078.817-.795.251-1.712.125-2.445-.252-.917-.377-1.528-1.32-1.528-2.325-.061-2.2 0-4.4 0-6.538 0-.314.244-.629.55-.691h.611zm14.304 0c1.65.315 2.629 1.635 2.873 3.52.245 1.887-.122 2.264-1.895 2.2-1.283-.062-2.567 0-3.85 0h-.673c-.123 1.195.733 2.327 1.895 2.452a4.957 4.957 0 0 0 2.995-.565c.306-.189.734-.126.917.188 0 0 0 .063.061.063.428.629.367 1.006-.306 1.32a6.382 6.382 0 0 1-5.746.063c-1.345-.691-1.834-2.011-1.956-3.394-.06-1.006 0-2.012.245-3.018a3.55 3.55 0 0 1 3.056-2.828 7.582 7.582 0 0 1 2.384 0zM46.52 12.463c.244.063.428.126.611.251.245.189.672.503.611.755-.06.44-.305.817-.55 1.068-.06.063-.428 0-.611-.062a6.052 6.052 0 0 0-3.79-.503c-1.345.188-2.445 1.257-2.75 2.64a7.724 7.724 0 0 0 0 4.086c.488 1.886 1.466 2.766 3.483 2.891.734 0 1.406 0 2.14-.125.306 0 .489-.189.489-.566V20.57c0-.377-.122-.503-.489-.503h-1.467c-.49 0-.611-.377-.611-.817 0-.44 0-.943.61-.943h3.24c.49 0 .673.314.673.817v4.338c0 .754-.183 1.131-.917 1.382-.672.189-1.345.315-2.078.378-1.162.062-2.323 0-3.484-.189-2.201-.503-3.607-2.389-3.79-4.84a13.043 13.043 0 0 1 .183-3.772c.489-2.451 2.567-4.274 5.012-4.274a9.277 9.277 0 0 1 3.485.314zm17.36 4.526c-1.1.189-1.834 1.194-1.711 2.326.06 0 .122.063.183.063h3.79c.367 0 .367-.252.367-.503-.184-1.509-1.223-2.2-2.629-1.886z" fill="#1D1E1E" fill-rule="nonzero"/>
</svg>
