<svg width="136" height="23" xmlns="http://www.w3.org/2000/svg">
    <path d="M25.915 10.702C25.855 4.987 21.021.353 14.984.353c-6.037 0-10.932 4.634-10.932 10.35 0 4.996 3.74 9.166 8.685 10.109 1.654.316 1.883-3.671 1.43-6.314-.008 0-.499-.028-.663-.033-.34-.014-.66.354-.868.426-.354.121-.421-.212-.676-.212-.224 0-.524.33-1.35.181-.834-.15-1.105-.865-1.105-.865l-.25-.124c-.852-.201-.899-1.083-.904-1.133-.048-.431.747-.757.523-.891-.965-.58-.654-1.034-.644-1.057.122-.308.59-.97.419-1.074-.473-.285.303-1.945.986-2.406.104-.526.702-1.385 1.28-1.567-.032-.596.849-.934.849-.934.616-.188.184-.67 1.365-.593.277.018.269-.28.954-.293.199-.005.417-.151 1.024-.151 1.065-.045 1.016.637 1.372.521.45-.146 1.949.55 2.105 1.984.673-.05 2.44 1.793 2.39 3.152 1.16 1.236-.423 2.406-.486 2.632.045.129.28.69.186 1.124-.11.51-.791 1.066-.82 1.084-.478.326-.831.695-1.4.594-.587-.105-.475-.617-.65-.74a2.292 2.292 0 0 1-1.672.53c-.085-.013-.402-.043-.442-.048-.35 1.947-.3 6.295 1.157 6.293 4.39-.636 9.126-4.638 9.068-10.196zm-22.75 0C3.166 5.192 7.716.38 13.45.063 5.227-.655 0 4.873 0 10.703c0 5.83 5.35 11.465 13.45 10.638-5.736-.317-10.284-5.129-10.284-10.639zM16.518.063c5.736.317 10.285 5.13 10.285 10.64 0 5.51-4.549 10.32-10.285 10.638 8.31.692 13.45-4.809 13.45-10.639 0-5.83-5.12-11.32-13.45-10.639zM80.33 11.581h-3.572v-.043c0-.77.161-1.358.483-1.764.323-.407.776-.61 1.36-.61.6 0 1.052.214 1.36.642.138.2.235.42.288.663.054.243.08.57.08.983v.129zm2.823-1.443c-.254-.763-.65-1.401-1.187-1.914-.384-.37-.875-.656-1.475-.855-.599-.2-1.244-.3-1.936-.3-.784 0-1.475.122-2.074.364a4.84 4.84 0 0 0-1.637 1.111 4.868 4.868 0 0 0-1.129 1.84c-.23.684-.345 1.518-.345 2.501 0 .856.13 1.633.392 2.33.26.7.633 1.294 1.117 1.786a4.981 4.981 0 0 0 1.764 1.145c.69.27 1.459.405 2.304.405 1.522 0 2.916-.441 4.184-1.325.185-.116.21-.291.083-.45l-.784-1.12c-.195-.294-.386-.218-.544-.11-.86.578-1.754.867-2.685.867-.8 0-1.414-.228-1.844-.684-.43-.456-.646-1.112-.646-1.967v-.085h6.35c.548 0 .472-.663.472-.663 0-1.155-.127-2.113-.38-2.876zm46.068 1.4c0-.77.162-1.358.485-1.764.323-.407.775-.61 1.36-.61.598 0 1.052.214 1.36.642.137.2.233.42.287.663.054.243.081.57.081.983v.129h-3.573v-.043zm6.305 2.139c.547 0 .471-.663.471-.663 0-1.155-.127-2.113-.38-2.876a4.605 4.605 0 0 0-1.187-1.914c-.384-.37-.876-.656-1.475-.855-.599-.2-1.244-.3-1.935-.3-.784 0-1.476.122-2.075.364a4.842 4.842 0 0 0-1.636 1.111 4.862 4.862 0 0 0-1.13 1.84c-.23.684-.345 1.518-.345 2.501 0 .856.13 1.633.392 2.33a5.01 5.01 0 0 0 1.117 1.786 4.994 4.994 0 0 0 1.763 1.145c.692.27 1.46.405 2.305.405 1.522 0 2.916-.441 4.184-1.325.185-.116.21-.291.083-.45l-.784-1.12c-.195-.294-.386-.218-.543-.11-.86.578-1.755.867-2.687.867-.798 0-1.413-.228-1.843-.684-.43-.456-.646-1.112-.646-1.967v-.085h6.35zm-16.145-1.284c-.538 0-.976-.12-1.314-.363-.337-.242-.507-.642-.507-1.198 0-.513.161-.912.484-1.197.323-.285.775-.427 1.36-.427.584 0 1.04.142 1.371.427.33.285.496.684.496 1.197 0 1.041-.63 1.561-1.89 1.561zm5.186-3.079c.43 0 .814-.064 1.152-.192.241-.092.482-.223.724-.395.2-.128.222-.35.07-.535l-.772-1.087c-.175-.274-.323-.356-.634-.164-.26.178-.536.324-.828.438a3.52 3.52 0 0 1-1.28.246c-.2 0-.411-.021-.634-.064-.222-.043-.495-.1-.817-.171-.43-.1-.807-.17-1.13-.214a7.512 7.512 0 0 0-.99-.064c-.754 0-1.438.09-2.052.267-.615.179-1.137.428-1.568.749-.43.32-.764.71-1.002 1.164a3.232 3.232 0 0 0-.357 1.52c0 1.624.845 2.637 2.535 3.035-.492.115-.88.243-1.163.385-.285.143-.5.293-.646.45-.146.156-.242.32-.288.49-.046.172-.07.343-.07.514 0 .371.08.678.243.92.161.243.38.413.657.513.537.214 1.482.328 2.834.342l1.314.022c.614.014 1.13.11 1.544.288.415.178.623.516.623 1.015 0 .229-.07.44-.208.632a1.652 1.652 0 0 1-.553.48c-.246.143-.53.24-.853.29a7.14 7.14 0 0 1-1.083.074c-.723 0-1.272-.114-1.648-.342a1.105 1.105 0 0 1-.565-1.005c0-.157.008-.282.023-.374.016-.093.054-.366-.227-.331h-2.515a3.229 3.229 0 0 0-.184.417c-.062.163-.093.394-.093.694 0 .742.323 1.39.969 1.946.537.456 1.205.766 2.005.93.798.164 1.62.246 2.465.246.922 0 1.798-.106 2.628-.32.83-.214 1.506-.578 2.028-1.091.63-.628.945-1.384.945-2.267 0-.969-.339-1.746-1.014-2.33a3.58 3.58 0 0 0-1.429-.749c-.538-.142-1.253-.22-2.144-.235l-1.658-.022c-.34 0-.508-.085-.508-.256 0-.157.103-.303.311-.438.208-.136.51-.289.91-.46.123.014.208.022.254.022h.208c.63 0 1.21-.082 1.74-.246.53-.164.99-.389 1.383-.674.391-.285.695-.627.91-1.026.215-.4.322-.834.322-1.305 0-.37-.057-.698-.172-.983a2.77 2.77 0 0 0-.52-.813 5.991 5.991 0 0 0 .808.064zm-14.589 6.5c-.23.243-.484.428-.76.557-.277.128-.561.192-.853.192-.4 0-.726-.131-.98-.395-.253-.265-.38-.61-.38-1.037 0-.656.211-1.098.634-1.326.423-.228 1.171-.342 2.248-.342h.137l-.046 2.352zm3.561.717a1.85 1.85 0 0 1-.334-.524 1.906 1.906 0 0 1-.138-.61 11.305 11.305 0 0 1-.024-.78l.07-3.678v-.748c0-.2-.012-.37-.035-.513a6.985 6.985 0 0 0-.069-.374 2.227 2.227 0 0 0-.103-.332c-.231-.612-.673-1.083-1.326-1.411-.654-.328-1.479-.492-2.477-.492-.539 0-1.065.05-1.58.15-.514.1-1.063.264-1.647.492-.415.157-.76.3-1.037.428-.16.074-.327.158-.498.252-.28.164-.25.364-.172.539.237.371.626.98.875 1.367.18.264.393.242.628.129a9.95 9.95 0 0 1 1.425-.684c.568-.214 1.099-.32 1.59-.32.569 0 .942.117 1.118.352.177.235.266.66.266 1.272v.45a3.013 3.013 0 0 0-.347-.022h-.345c-1.89 0-3.307.303-4.252.909-.946.606-1.417 1.558-1.417 2.854 0 1.098.345 1.943 1.036 2.534.692.591 1.698.888 3.02.888.983 0 1.775-.2 2.374-.6.122-.07.241-.156.357-.256.116-.1.235-.207.357-.32a2.4 2.4 0 0 0 .68.769c.177.134.364.25.557.36.302.169.513.105.747-.137.317-.33.793-.83 1.06-1.152.112-.134.176-.32-.024-.477a2.7 2.7 0 0 1-.335-.315zm-10.512.017c-.045-.185-.241-.194-.372-.161-.133.032-.246.059-.34.08a2.102 2.102 0 0 1-.45.053c-.537 0-.895-.117-1.071-.352-.177-.236-.265-.703-.265-1.401V9.272h1.982l.628-1.578c.113-.302-.082-.39-.255-.39h-2.355c0-.555.015-1.123.046-1.7.019-.353.043-.69.074-1.014.057-.531-.34-.492-.588-.449l-2.482.576c-.061.414-.096.813-.103 1.197-.008.385-.012.849-.012 1.39h-1.175v1.968h1.175v5.944a13.089 13.089 0 0 0 .034 1.047c.008.115.027.222.058.322.031.1.07.206.115.32.185.486.565.873 1.14 1.165.577.292 1.257.44 2.04.44.746 0 1.511-.138 2.295-.413.115-.047.198-.124.17-.291l-.289-1.258zm-9.48-14.033c-.54 0-.995.17-1.372.513a1.635 1.635 0 0 0-.564 1.262c0 .499.184.919.552 1.26.369.343.815.514 1.337.514.538 0 .99-.17 1.36-.513.369-.342.553-.762.553-1.261 0-.5-.18-.92-.542-1.262a1.856 1.856 0 0 0-1.325-.513zm1.208 4.575-2.5.364c-.283.046-.3.129-.3.301v10.2c0 .235.149.297.328.297h2.49c.215 0 .27-.056.27-.28V7.328c0-.263-.095-.266-.288-.238zm-3.934 0a3.065 3.065 0 0 0-.565-.042c-.584 0-1.106.157-1.567.47-.46.314-.86.678-1.199 1.09a3.497 3.497 0 0 0-.483-1.56l-2.766.685c.122.313.227.74.31 1.282.085.542.128 1.183.128 1.924v6.994c0 .146.077.319.328.319h2.419c.197 0 .34-.054.34-.319v-7.421c.57-.613 1.2-.92 1.89-.92.16 0 .318.003.473.036.286.04.465.083.565-.232l.566-1.672c.137-.41-.075-.545-.44-.634zM72.075 3.391h-2.628c-.308 0-.354.087-.354.34v5.434h-4.61V3.73c0-.314-.155-.35-.464-.34h-2.354c-.338 0-.385.105-.385.35v14.17c0 .26.129.34.297.34h2.56c.187 0 .347-.038.347-.33v-6.297h4.609v6.293c0 .23.16.335.36.335h2.6c.218 0 .312-.115.312-.319V3.72c0-.272-.097-.329-.29-.329zM60.242 7.304h-2.54c-.276 0-.333.042-.405.275-.385 1.133-1.684 4.942-1.684 4.942-.092.257-.18.528-.264.813a16.586 16.586 0 0 0-.312 1.197c-.046.2-.089.389-.126.567a11.5 11.5 0 0 0-.128.695l-.622-2.266-1.952-6.084c-.079-.24-.248-.289-.46-.27l-2.424.262c-.291.032-.335.173-.257.358l3.78 10.459h.784a5.88 5.88 0 0 0-.185.407 4.644 4.644 0 0 1-.138.31 3.073 3.073 0 0 1-.15.267c-.054.085-.119.185-.196.3a3.245 3.245 0 0 1-.876.897c-.23.157-.522.296-.876.418-.226.076-.448.147-.667.21-.243.079-.279.262-.18.437l.727 1.29c.104.196.31.237.5.2.409-.072.8-.172 1.176-.299a5.509 5.509 0 0 0 1.325-.652c.215-.142.415-.314.6-.513.184-.2.364-.438.54-.716.177-.278.358-.614.543-1.005.184-.393.376-.853.576-1.38l4.16-10.789c.116-.312-.064-.33-.269-.33zM47.863 3.716c-.034-.261-.136-.325-.417-.325h-3.373c-.2 0-.364.05-.44.334l-2.07 7.043c-.245.87-.437 1.675-.575 2.417a10.056 10.056 0 0 0-.104-.535 52.14 52.14 0 0 1-.115-.524c-.039-.178-.085-.37-.139-.577-.053-.207-.12-.445-.196-.717l-2.006-7.117c-.11-.32-.3-.324-.52-.324h-3.38c-.27 0-.334.14-.35.346-.204 2.01-1.23 12.193-1.43 14.18-.022.248.13.33.387.335h2.354c.248 0 .415-.048.451-.319l.53-7.442c.03-.457.054-.906.07-1.348.03-.413.046-.826.046-1.24.076.4.176.827.3 1.283.122.47.237.89.345 1.261l2.188 7.486c.071.22.176.319.427.319h2.008c.324-.01.404-.046.498-.308l2.439-7.817c.137-.456.249-.844.333-1.166.084-.32.173-.695.266-1.122 0 .4.011.795.034 1.187.023.392.05.823.08 1.293 0 0 .497 6.291.58 7.669.015.247.148.264.337.264h2.53c.162 0 .308-.07.28-.319-.23-1.95-1.178-12.251-1.368-14.217z" fill="#1D1E1E" fill-rule="evenodd"/>
</svg>
