<svg width="111" height="23" xmlns="http://www.w3.org/2000/svg">
    <path d="M19.657 19.08v-2.645h10.068v-2.639H19.657V6.541H32.24V9.18H22.176v1.978H32.24v7.921H19.657zm14.782 0h2.519V6.54h-2.519V19.08zm46.859 0V6.54h-2.516v8.74l-7.538-8.74H68.73V19.08h2.515v-8.745l7.55 8.745h2.504zM53.882 9.185h12.63V6.54H53.897l-.014 2.645zm0 4.616h12.63v-2.644H53.897l-.014 2.644zm0 5.277h12.63v-2.644H53.897l-.014 2.644zm44.487-9.9H111V6.542H98.369V9.18zm0 4.617H111v-2.638H98.369v2.638zm0 5.277H111v-2.638H98.369v2.638zm-46.635 0v-7.915H41.678V9.18h10.064V6.54H39.16v7.255h10.068v2.639H39.159v2.644l12.575-.006zm44.306 0v-7.915H85.984V9.18h10.065V6.54H83.466v7.255h10.067v2.639H83.466v2.644l12.574-.006zM12.221 4.646 0 0v9.296l12.221-4.65zm0 12.89L0 12.889v9.293l12.221-4.646zm-8.114-6.34 12.218 4.647V6.55L4.107 11.197zm7.128 9.87L16.322 23v-3.867l-5.087 1.933z" fill="#000" fill-rule="nonzero"/>
</svg>
