<svg width="129" height="20" xmlns="http://www.w3.org/2000/svg">
    <g fill="#231815" fill-rule="nonzero">
        <path d="M73.33 16.96H35.68L38.677 20zM39.165 4.661v.458c-.637-.46-1.4-.71-2.183-.714-2.641 0-4.643 2.44-4.643 5.433 0 2.992 2.002 5.432 4.643 5.432a3.763 3.763 0 0 0 2.183-.714v.464h2.319V4.661h-2.319zm-2.183 8.116c-1.303 0-2.254-1.297-2.254-2.94 0-1.642.951-2.933 2.254-2.933s2.219 1.297 2.219 2.934c0 1.636-.898 2.939-2.219 2.939zM57.736 4.661v6.057c.07.732-.277 1.44-.893 1.829a1.886 1.886 0 0 1-2.012 0 1.942 1.942 0 0 1-.893-1.829V4.661H51.62v6.057c0 2.5 1.684 4.528 4.15 4.528a3.489 3.489 0 0 0 1.966-.637v.387h2.347V4.661h-2.347zM79.346 15.02V8.933c-.07-.732.276-1.44.893-1.828a1.886 1.886 0 0 1 2.012 0c.616.388.962 1.096.893 1.828v6.087h2.318V8.933c0-2.499-1.685-4.528-4.15-4.528a3.49 3.49 0 0 0-1.966.643v-.387h-2.348V15.02h2.348z"/>
        <path d="M25.654 15.02v-4.016h1.714l2.97 4.016h3.04l-3.592-4.843a4.496 4.496 0 0 0 1.641-4.991c-.581-1.849-2.274-3.105-4.188-3.107H23.23V15.02h2.424zm0-10.484h1.585c1.092 0 1.978.898 1.978 2.005 0 1.108-.886 2.006-1.978 2.006h-1.585v-4.01zM66.305 12.569a1.355 1.355 0 0 1-.775.25 1.133 1.133 0 0 1-.816-.395 1.165 1.165 0 0 1-.276-.873V7.148h1.984V4.691h-1.984V2.109H62.12V4.69h-1.227v2.457h1.227v4.469a3.598 3.598 0 0 0 .96 2.578 3.5 3.5 0 0 0 2.485 1.117 4.73 4.73 0 0 0 2.272-.655l-1.532-2.088zM47.247 9.516l3.98-4.855h-3.252l-2.782 3.606V1.222h-2.389v13.792h2.39V10.76l3.42 4.254h3.247z"/>
        <path d="M71.663 4.4c-2.682 0-4.607 2.38-4.607 5.438 0 3.207 2.412 5.444 4.836 5.444a4.84 4.84 0 0 0 4.109-2.32l-2.049-1.19c-1.584 2.38-4.225 1.19-4.53-1.19H76.1c.575-3.737-1.802-6.183-4.438-6.183zm2.025 4.105H69.51c.487-2.428 3.727-2.547 4.18 0zM92.928 14.127l-3.733-9.43a1.971 1.971 0 0 1-.118-.387 2.02 2.02 0 0 1-.04-.422c-.01-.377.14-.741.41-1a1.45 1.45 0 0 1 1.033-.398c.275-.01.543.09.746.28.243.267.425.586.534.933l2.535 6.938 2.448-6.837c.1-.38.289-.732.551-1.023.229-.202.525-.306.828-.291.363-.02.72.107.992.35.248.25.38.593.364.947a2.803 2.803 0 0 1-.047.488 3.553 3.553 0 0 1-.141.487l-3.616 9.258a2.24 2.24 0 0 1-.587.899 1.28 1.28 0 0 1-.839.268 1.198 1.198 0 0 1-.786-.244 1.99 1.99 0 0 1-.534-.816zM102.77 13.306c.033.495-.075.988-.31 1.422a1.057 1.057 0 0 1-.952.459 1.11 1.11 0 0 1-.974-.465 2.533 2.533 0 0 1-.317-1.416V8.1a2.533 2.533 0 0 1 .317-1.416c.223-.315.593-.489.974-.458.375-.028.736.146.951.458.237.432.345.924.311 1.416v5.206zM106.638 6.297c.287-.259.62-.46.98-.595a3.304 3.304 0 0 1 1.174-.196 3.754 3.754 0 0 1 2.964 1.41 5.245 5.245 0 0 1 1.21 3.529 4.972 4.972 0 0 1-1.24 3.403 3.766 3.766 0 0 1-2.934 1.416 3.109 3.109 0 0 1-1.238-.244 2.566 2.566 0 0 1-.969-.696c-.14.266-.342.494-.587.666-.21.147-.46.224-.716.22a1.168 1.168 0 0 1-1.027-.493 2.78 2.78 0 0 1-.328-1.512v-8.71a2.816 2.816 0 0 1 .328-1.518c.251-.312.627-.493 1.024-.493.398 0 .774.181 1.025.493.26.46.378.989.34 1.518l-.006 1.802zm-.211 4.1c-.032.653.16 1.296.546 1.82.333.445.852.707 1.402.707.551 0 1.07-.262 1.403-.706a2.847 2.847 0 0 0 .552-1.785 2.914 2.914 0 0 0-.546-1.833 1.753 1.753 0 0 0-1.406-.71c-.552 0-1.073.263-1.405.71a2.92 2.92 0 0 0-.546 1.797zM116 11.153c.098.484.378.91.78 1.19.412.307.916.46 1.426.434a4.024 4.024 0 0 0 1.702-.446 4.307 4.307 0 0 1 1.174-.447c.29-.014.572.094.781.298.205.198.316.475.305.761 0 .595-.405 1.125-1.22 1.595a5.562 5.562 0 0 1-2.87.714 4.5 4.5 0 0 1-3.358-1.386 4.796 4.796 0 0 1-1.344-3.481 4.917 4.917 0 0 1 1.309-3.499 4.479 4.479 0 0 1 3.189-1.403 4.476 4.476 0 0 1 3.226 1.314 4.477 4.477 0 0 1 1.268 3.225c.035.316-.066.633-.276.869-.32.198-.695.284-1.068.244l-5.024.018zm-.112-1.607h3.997a2.12 2.12 0 0 0-.587-1.386 1.864 1.864 0 0 0-1.32-.512 2.037 2.037 0 0 0-1.356.482c-.384.376-.64.866-.734 1.398v.018zM123.107 13.17V7.636a2.701 2.701 0 0 1 .335-1.505c.231-.334.62-.52 1.021-.488.258-.005.512.07.728.214.245.169.447.396.587.66.254-.282.556-.516.892-.69.294-.154.62-.235.95-.238.366-.004.718.142.975.405.261.25.408.6.405.964 0 .547-.499 1.011-1.497 1.38-.358.131-.628.238-.804.322-.277.11-.515.302-.68.553-.142.346-.2.721-.17 1.095v2.862a2.72 2.72 0 0 1-.335 1.51c-.236.334-.624.52-1.027.495a1.127 1.127 0 0 1-1.022-.494 2.719 2.719 0 0 1-.358-1.511zM100.135 3.923a1.39 1.39 0 0 1 .423-1.017c.265-.274.63-.427 1.01-.422.373-.005.732.148.991.422.27.267.421.635.417 1.017.001.38-.147.744-.411 1.012a1.393 1.393 0 0 1-.998.416c-.38.012-.75-.14-1.015-.416a1.372 1.372 0 0 1-.417-1.012zM16.34 1.918C15.859 1.466 13.91.032 9.573.014c0 0-5.118-.315-7.63 2.006C.552 3.43.065 5.488.012 8.04c-.053 2.553-.118 7.337 4.431 8.634v1.981s0 .804.493.964c.628.203.998-.41 1.602-1.065.329-.363.787-.892 1.127-1.297 1.935.183 3.887.039 5.776-.428.628-.209 4.184-.667 4.765-5.456.617-4.933-.27-8.05-1.866-9.455zm.528 9.104c-.493 3.992-3.375 4.242-3.903 4.414a15.877 15.877 0 0 1-4.971.435s-1.972 2.38-2.588 3.034a.332.332 0 0 1-.282.12c-.106-.03-.135-.155-.135-.34v-3.29c-3.85-1.089-3.627-5.159-3.58-7.289.047-2.13.44-3.88 1.614-5.057C5.13 1.115 9.479 1.4 9.479 1.4c3.668 0 5.429 1.136 5.834 1.511 1.367 1.178 2.054 3.986 1.555 8.11z"/>
        <path d="M11.357 8.178a.248.248 0 0 1-.247-.238 1.2 1.2 0 0 0-.323-.935 1.165 1.165 0 0 0-.91-.362.25.25 0 0 1-.23-.265.248.248 0 0 1 .26-.235c.466-.015.916.17 1.239.51.323.341.49.804.457 1.275a.252.252 0 0 1-.063.18.245.245 0 0 1-.171.082l-.012-.012z"/>
        <path d="M12.619 8.606a.245.245 0 0 1-.173-.077.252.252 0 0 1-.068-.179 2.892 2.892 0 0 0-.733-2.1 3.039 3.039 0 0 0-2.137-.946.246.246 0 0 1-.232-.13.253.253 0 0 1 .019-.269.245.245 0 0 1 .248-.095 3.54 3.54 0 0 1 2.465 1.1c.59.664.896 1.537.851 2.428a.246.246 0 0 1-.061.188.24.24 0 0 1-.18.08z"/>
        <path d="M13.904 9.118a.248.248 0 0 1-.246-.25 4.797 4.797 0 0 0-1.32-3.57 4.487 4.487 0 0 0-3.252-1.303.248.248 0 0 1-.247-.25c0-.138.11-.25.247-.25a4.988 4.988 0 0 1 3.592 1.446 5.324 5.324 0 0 1 1.467 3.903c0 .138-.11.25-.247.25l.006.024zM9.942 11.26c.197.015.39-.06.529-.203l.364-.464a.779.779 0 0 1 1.003-.137c.312.183.613.381.904.595.276.209.834.679.834.685a.703.703 0 0 1 .146.916c-.2.352-.453.669-.751.94a1.488 1.488 0 0 1-.769.375.324.324 0 0 1-.111 0 1.014 1.014 0 0 1-.323-.048 11.38 11.38 0 0 1-2.101-.987 12.279 12.279 0 0 1-1.761-1.19 9.298 9.298 0 0 1-.793-.714h-.029a10.517 10.517 0 0 1-.704-.81 12.992 12.992 0 0 1-1.174-1.785 11.33 11.33 0 0 1-.968-2.13 1.096 1.096 0 0 1-.053-.333.603.603 0 0 1 0-.113 1.49 1.49 0 0 1 .37-.773c.225-.347.505-.654.827-.91a.686.686 0 0 1 .91.148l.669.845c.2.25.446.684.587.916.2.332.14.76-.141 1.024l-.458.363a.696.696 0 0 0-.2.541 4.782 4.782 0 0 0 3.193 3.249z"/>
    </g>
</svg>
