<svg xmlns="http://www.w3.org/2000/svg" width="244" height="31" viewBox="0 0 244 31">
    <g fill="none" fill-rule="evenodd">
        <g fill="#FFF" fill-rule="nonzero">
            <path d="M328.434 120.778c1.708 0 3.237.34 4.588 1.018 1.35.679 2.548 1.64 3.595 2.884l-2.066 2.247-.262-.34c-.709-.887-1.51-1.6-2.404-2.14-1.006-.608-2.156-.912-3.451-.912-1.35 0-2.452.318-3.306.954-.855.636-1.282 1.449-1.282 2.438 0 .792.359 1.421 1.075 1.888.716.466 1.984.84 3.802 1.123 3.004.453 5.125 1.18 6.365 2.184 1.24 1.004 1.86 2.425 1.86 4.262 0 1.3-.358 2.453-1.075 3.457-.716 1.003-1.701 1.78-2.955 2.332-1.253.551-2.68.827-4.277.827-1.984 0-3.693-.346-5.125-1.039-1.433-.693-2.714-1.647-3.844-2.863l2.067-2.247.268.307c.817.902 1.74 1.627 2.77 2.174 1.143.608 2.43.912 3.864.912 1.487 0 2.693-.354 3.616-1.06.923-.707 1.384-1.626 1.384-2.757 0-.933-.392-1.675-1.177-2.227-.786-.55-2.129-.968-4.03-1.25-2.893-.481-4.925-1.174-6.096-2.079-1.171-.904-1.757-2.162-1.757-3.774 0-1.922.73-3.456 2.19-4.601 1.461-1.145 3.348-1.718 5.663-1.718zm52.25 0c1.847 0 3.48.467 4.898 1.4 1.42.933 2.528 2.226 3.327 3.88.8 1.654 1.199 3.555 1.199 5.704v1.272h-15.995l.045.365c.266 1.927 1.002 3.516 2.208 4.767 1.28 1.328 2.927 1.993 4.939 1.993 1.267 0 2.41-.311 3.43-.933 1.02-.622 1.942-1.584 2.769-2.884l2.15 2.12-.234.322c-1.022 1.366-2.205 2.397-3.549 3.092-1.446.75-3.037 1.124-4.773 1.124-2.039 0-3.837-.48-5.394-1.442-1.556-.961-2.769-2.283-3.637-3.965-.868-1.682-1.301-3.583-1.301-5.704 0-2.12.433-4.021 1.301-5.704.868-1.682 2.053-3.004 3.555-3.965 1.501-.961 3.189-1.442 5.063-1.442zm35.802 0c1.708 0 3.238.34 4.588 1.018 1.35.679 2.548 1.64 3.595 2.884l-2.066 2.247-.262-.34c-.709-.887-1.51-1.6-2.404-2.14-1.006-.608-2.156-.912-3.45-.912-1.351 0-2.453.318-3.307.954-.854.636-1.281 1.449-1.281 2.438 0 .792.358 1.421 1.074 1.888.716.466 1.984.84 3.802 1.123 3.004.453 5.125 1.18 6.365 2.184 1.24 1.004 1.86 2.425 1.86 4.262 0 1.3-.358 2.453-1.075 3.457-.716 1.003-1.701 1.78-2.955 2.332-1.253.551-2.68.827-4.277.827-1.984 0-3.692-.346-5.125-1.039-1.433-.693-2.714-1.647-3.844-2.863l2.067-2.247.268.307c.817.902 1.74 1.627 2.77 2.174 1.143.608 2.431.912 3.864.912 1.488 0 2.693-.354 3.616-1.06.923-.707 1.385-1.626 1.385-2.757 0-.933-.393-1.675-1.178-2.227-.786-.55-2.129-.968-4.03-1.25-2.893-.481-4.925-1.174-6.096-2.079-1.171-.904-1.757-2.162-1.757-3.774 0-1.922.73-3.456 2.191-4.601 1.46-1.145 3.348-1.718 5.662-1.718zm-74.222.679l4.629 17.345 4.794-17.345h3.224l4.794 17.514 4.753-17.514h3.14l-6.116 20.864h-3.554l-4.67-16.75-4.63 16.75h-3.595l-6.034-20.864h3.265zM282.754 112l11.201 30.321h-3.472l-3.058-8.396h-13.019l-3.058 8.396H268L279.2 112h3.555zm25.775 8.778c2.342 0 4.18.785 5.517 2.354 1.337 1.57 2.005 3.838 2.005 6.806v12.383h-3.183v-12l-.004-.384c-.05-2.016-.496-3.549-1.339-4.6-.895-1.117-2.1-1.675-3.616-1.675-1.102 0-2.136.318-3.1.954-.964.636-1.75 1.64-2.356 3.011-.606 1.371-.909 3.145-.909 5.322v9.372h-3.182v-20.864h3.14v4.283l.128-.333c.657-1.634 1.593-2.802 2.807-3.505 1.295-.749 2.659-1.124 4.092-1.124zm97.723.34v3.138h-.703l-.315.007c-1.148.05-2.22.38-3.218.99-1.089.664-1.963 1.682-2.625 3.053-.661 1.37-.992 3.13-.992 5.28v8.735h-3.182v-20.864h3.141v4.665l.133-.333c.685-1.635 1.66-2.81 2.925-3.526 1.35-.764 2.742-1.145 4.175-1.145h.661zm-146.658-8.985l.007.001-10.028 14.974 10.001 14.927s-4.33.558-6.426-1.357c-1.294-1.181-2.618-3.076-2.71-3.21l-.006-.008-3.69-5.339c-.18-.278-.413-.58-.788-.58-.332 0-.554.238-.725.487l-.062.093-3.69 5.34s-1.299 1.992-2.639 3.217c-2.046 1.87-6.295 1.382-6.496 1.358h-.007l10.002-14.928-10.028-14.974s4.232-.724 6.328 1.193c1.295 1.182 2.736 3.277 2.834 3.42l.006.008 3.69 5.34c.179.278.413.58.787.58.334 0 .555-.239.726-.487l.062-.094 3.69-5.34s1.5-2.203 2.841-3.427c2.046-1.871 6.128-1.226 6.32-1.194zm-30.562 5.244v1.07l.002-.002v17.883c-.015 3.67-.407 4.483-2.11 5.328-1.273.632-3.194.426-3.34.41l-.009-.001v-20.03c0-1.005.345-1.664 1.613-2.256.757-.353 1.462-.624 2.197-1.024 1.145-.623 1.647-1.378 1.647-1.378zm-42.944-3.934c1.204 1.061 1.589 2.727 1.618 2.858l.002.009 4.156 16.08 3.455-13.161c.337-1.398.943-3.128 1.904-4.298 1.178-1.437 3.532-1.575 3.936-1.583h.074c.403.008 2.757.146 3.936 1.583.886 1.08 1.471 2.637 1.82 3.97l.083.328 3.456 13.161 4.155-16.08s.367-1.762 1.622-2.867c1.977-1.74 4.914-1.429 5.08-1.41l.007.001-7.957 30.052s-2.625.19-3.938-.48c-1.725-.878-2.547-1.556-3.592-5.645-.93-3.644-3.537-14.352-3.775-15.115-.118-.377-.258-1.277-.934-1.277-.662 0-.815.9-.935 1.277-.243.762-2.845 11.47-3.775 15.115-1.045 4.09-1.865 4.767-3.59 5.646-1.268.645-3.753.491-3.929.48l-.01-.001L181 112.034s3.052-.382 5.088 1.41zm94.848 2.5l-5.455 15.013h10.87l-5.415-15.012zm99.749 7.677c-1.709 0-3.162.622-4.36 1.866-1.2 1.244-1.922 2.87-2.17 4.877H386.8c-.192-2.064-.833-3.704-1.921-4.92-1.089-1.215-2.487-1.823-4.195-1.823zM229.034 112c0 2.052-.203 3.271-1.514 4.218-.42.302-1.145.765-1.994 1.067-1.165.417-1.95 1.166-1.95 1.166 0-3.738.578-5.092 2.129-5.892 1.192-.616 3.329-.559 3.329-.559z" transform="translate(-181 -112)"/>
        </g>
    </g>
</svg>
