<svg xmlns="http://www.w3.org/2000/svg" width="126" height="16" viewBox="0 0 126 16">
    <g fill="none" fill-rule="evenodd">
        <g fill="#252525" fill-rule="nonzero">
            <g>
                <path d="M75.974 87.53c.885 0 1.677.176 2.377.526.7.35 1.32.846 1.863 1.488l-1.071 1.16-.175-.224c-.357-.435-.76-.787-1.206-1.056-.52-.314-1.117-.47-1.788-.47-.7 0-1.27.164-1.713.492-.442.328-.663.748-.663 1.259 0 .408.185.733.556.974.371.24 1.028.434 1.97.58 1.556.233 2.655.609 3.297 1.127.643.518.964 1.251.964 2.2 0 .67-.186 1.265-.557 1.783-.37.518-.881.92-1.53 1.204-.65.285-1.389.427-2.217.427-1.027 0-1.912-.179-2.655-.536-.742-.358-1.406-.85-1.99-1.478l1.07-1.16.2.225c.408.435.866.787 1.373 1.056.593.313 1.26.47 2.002.47.771 0 1.396-.182 1.874-.547.478-.365.717-.839.717-1.423 0-.481-.203-.864-.61-1.149-.407-.284-1.103-.5-2.088-.645-1.498-.248-2.551-.606-3.158-1.073-.606-.467-.91-1.116-.91-1.948 0-.992.378-1.784 1.135-2.375.757-.59 1.734-.886 2.933-.886zm27.069 0c.956 0 1.802.242 2.537.723.735.482 1.31 1.15 1.723 2.003.414.853.621 1.835.621 2.944v.656h-8.286l.035.266c.146.96.524 1.754 1.132 2.383.664.686 1.517 1.029 2.559 1.029.656 0 1.249-.161 1.777-.482.528-.321 1.006-.817 1.434-1.488l1.114 1.094-.19.255c-.513.661-1.103 1.163-1.77 1.507-.749.387-1.573.58-2.472.58-1.057 0-1.988-.248-2.794-.744-.807-.496-1.435-1.178-1.885-2.047-.45-.868-.674-1.85-.674-2.944 0-1.094.225-2.075.674-2.944.45-.868 1.064-1.55 1.842-2.046.778-.496 1.652-.744 2.623-.744zm18.546 0c.885 0 1.678.176 2.377.526.7.35 1.32.846 1.863 1.488l-1.07 1.16-.176-.224c-.357-.435-.76-.787-1.206-1.056-.52-.314-1.117-.47-1.788-.47-.699 0-1.27.164-1.712.492-.443.328-.664.748-.664 1.259 0 .408.185.733.556.974.372.24 1.028.434 1.97.58 1.556.233 2.655.609 3.298 1.127.642.518.963 1.251.963 2.2 0 .67-.186 1.265-.557 1.783-.37.518-.881.92-1.53 1.204-.65.285-1.389.427-2.217.427-1.027 0-1.912-.179-2.654-.536-.743-.358-1.406-.85-1.992-1.478l1.07-1.16.2.225c.409.435.867.787 1.375 1.056.592.313 1.26.47 2.001.47.771 0 1.396-.182 1.874-.547.478-.365.717-.839.717-1.423 0-.481-.203-.864-.61-1.149-.407-.284-1.103-.5-2.088-.645-1.498-.248-2.551-.606-3.158-1.073-.606-.467-.91-1.116-.91-1.948 0-.992.379-1.784 1.135-2.375.757-.59 1.734-.886 2.933-.886zm-38.45.351l2.398 8.952 2.483-8.952h1.67l2.484 9.04 2.462-9.04h1.627L93.095 98.65h-1.842l-2.419-8.646-2.398 8.646h-1.863L81.447 87.88h1.692zM52.31 83l5.803 15.65h-1.799l-1.584-4.334h-6.745l-1.584 4.334h-1.734L50.469 83h1.841zm13.352 4.53c1.214 0 2.166.406 2.859 1.216.692.81 1.038 1.98 1.038 3.513v6.39h-1.648v-6.193l-.005-.28c-.036-1-.266-1.764-.691-2.292-.464-.577-1.089-.865-1.874-.865-.57 0-1.106.164-1.606.493-.5.328-.906.846-1.22 1.554-.314.707-.471 1.623-.471 2.747v4.837h-1.649V87.88h1.628v2.21l.097-.247c.339-.804.813-1.382 1.423-1.733.67-.387 1.377-.58 2.12-.58zm50.626.176v1.62h-.364l-.244.008c-.565.037-1.094.206-1.587.506-.564.343-1.017.868-1.36 1.576-.342.708-.513 1.616-.513 2.725v4.509h-1.649V87.88h1.627v2.408l.102-.248c.353-.805.847-1.386 1.483-1.744.699-.394 1.42-.591 2.162-.591h.343zM29.67 83.685c.652.597 1.376 1.644 1.454 1.759l.007.01 1.9 2.756c.092.144.213.3.405.3.166 0 .278-.115.364-.238l.042-.062 1.9-2.756s.771-1.137 1.462-1.77c1.039-.952 3.097-.64 3.248-.616l.01.001-5.163 7.729 5.148 7.704s-2.229.288-3.308-.7c-.652-.598-1.319-1.548-1.391-1.652l-.007-.01-1.9-2.755c-.091-.144-.212-.3-.405-.3-.165 0-.277.115-.364.238l-.04.062-1.9 2.756s-.669 1.028-1.359 1.66c-1.04.954-3.187.72-3.34.702l-.008-.001 5.15-7.704-5.163-7.729s2.179-.373 3.258.616zm-4.945 2.09v.552h.001v9.23c-.008 1.893-.209 2.313-1.086 2.75-.641.319-1.602.224-1.713.211h-.01V88.18c0-.52.177-.86.83-1.165.39-.182.752-.322 1.13-.529.59-.321.848-.71.848-.71zM2.62 83.745c.605.535.809 1.367.832 1.469l.002.01 2.14 8.3L7.37 86.73c.174-.722.486-1.615.98-2.218.594-.727 1.769-.81 2.012-.817h.066c.243.007 1.418.09 2.012.817.44.536.735 1.302.917 1.972l.063.246 1.78 6.793 2.138-8.3s.189-.909.835-1.48c1.004-.885 2.489-.74 2.61-.727h.009l-4.097 15.511s-1.35.098-2.026-.247c-.889-.454-1.312-.804-1.85-2.914-.479-1.88-1.82-7.407-1.943-7.801-.06-.195-.133-.66-.48-.66-.342 0-.42.465-.482.66-.125.393-1.464 5.92-1.943 7.801-.538 2.11-.96 2.46-1.848 2.914-.64.326-1.88.257-2.016.248h-.012L0 83.017s1.571-.198 2.62.727zm48.75 1.29l-2.827 7.749h5.631l-2.805-7.748zm51.674 3.962c-.885 0-1.638.321-2.26.963-.62.642-.995 1.481-1.123 2.517h6.551c-.1-1.065-.431-1.911-.995-2.539-.564-.627-1.288-.94-2.173-.94zm-78.317-5.996c0 1.058-.104 1.688-.78 2.176-.215.156-.588.395-1.025.551-.6.216-1.005.602-1.005.602 0-1.93.298-2.628 1.097-3.041.498-.258 1.318-.287 1.608-.289h.105z" transform="translate(-482 -1012) translate(482 929)"/>
            </g>
        </g>
    </g>
</svg>
