<svg width="190" height="24" xmlns="http://www.w3.org/2000/svg">
    <path d="M114.346 6.796c1.339 0 2.537.263 3.594.788 1.058.525 1.997 1.27 2.817 2.233l-1.619 1.74-.23-.296a7.1 7.1 0 0 0-1.858-1.625c-.788-.47-1.69-.706-2.704-.706-1.057 0-1.92.246-2.59.739-.67.492-1.004 1.122-1.004 1.888 0 .613.28 1.1.842 1.46.561.362 1.554.652 2.979.87 2.353.351 4.015.915 4.986 1.692.972.777 1.457 1.877 1.457 3.3 0 1.006-.28 1.898-.841 2.675-.562.777-1.333 1.379-2.316 1.806-.982.427-2.099.64-3.35.64-1.555 0-2.893-.268-4.016-.804a10.067 10.067 0 0 1-3.011-2.217l1.619-1.74.234.264a7.93 7.93 0 0 0 2.146 1.657c.896.47 1.905.706 3.027.706 1.166 0 2.11-.274 2.833-.82.724-.548 1.085-1.26 1.085-2.135 0-.722-.307-1.297-.923-1.724-.615-.426-1.667-.75-3.157-.968-2.266-.372-3.858-.908-4.776-1.609-.917-.7-1.376-1.674-1.376-2.922 0-1.488.572-2.676 1.716-3.562 1.144-.887 2.623-1.33 4.436-1.33zm40.936 0c1.446 0 2.725.361 3.837 1.084 1.111.722 1.98 1.723 2.606 3.004.626 1.28.939 2.752.939 4.416v.985h-12.53l.04.32c.212 1.474.787 2.692 1.724 3.652 1.004 1.029 2.293 1.543 3.87 1.543.992 0 1.888-.24 2.687-.722.798-.482 1.522-1.226 2.17-2.233l1.683 1.642-.214.29c-.794 1.037-1.71 1.821-2.749 2.353-1.133.58-2.38.87-3.74.87-1.597 0-3.006-.372-4.225-1.116-1.22-.744-2.17-1.768-2.85-3.07-.68-1.302-1.02-2.774-1.02-4.416 0-1.642.34-3.113 1.02-4.416.68-1.302 1.609-2.325 2.785-3.07 1.177-.744 2.499-1.116 3.967-1.116zm28.048 0c1.338 0 2.536.263 3.594.788 1.058.525 1.997 1.27 2.817 2.233l-1.619 1.74-.231-.296a7.1 7.1 0 0 0-1.857-1.625c-.788-.47-1.69-.706-2.704-.706-1.058 0-1.921.246-2.59.739-.67.492-1.004 1.122-1.004 1.888 0 .613.28 1.1.842 1.46.56.362 1.554.652 2.979.87 2.352.351 4.015.915 4.986 1.692.971.777 1.457 1.877 1.457 3.3 0 1.006-.28 1.898-.842 2.675-.561.777-1.333 1.379-2.315 1.806-.982.427-2.1.64-3.351.64-1.554 0-2.893-.268-4.015-.804a10.067 10.067 0 0 1-3.012-2.217l1.62-1.74.233.264a7.93 7.93 0 0 0 2.146 1.657c.896.47 1.905.706 3.028.706 1.165 0 2.11-.274 2.833-.82.723-.548 1.085-1.26 1.085-2.135 0-.722-.308-1.297-.923-1.724-.615-.426-1.668-.75-3.157-.968-2.267-.372-3.859-.908-4.776-1.609-.917-.7-1.376-1.674-1.376-2.922 0-1.488.572-2.676 1.716-3.562 1.144-.887 2.623-1.33 4.436-1.33zm-58.149.525 3.627 13.429 3.756-13.429h2.525l3.756 13.56 3.724-13.56h2.46l-4.792 16.154h-2.784l-3.659-12.969-3.626 12.969h-2.817L122.623 7.32h2.558zM78.56 0l8.775 23.475h-2.72l-2.396-6.501h-10.2l-2.395 6.5H67L75.775 0h2.784zm20.193 6.796c1.835 0 3.275.608 4.322 1.822 1.047 1.215 1.57 2.972 1.57 5.27v9.587h-2.492v-9.292l-.005-.336c-.044-1.54-.393-2.714-1.048-3.521-.701-.865-1.646-1.297-2.833-1.297-.863 0-1.673.246-2.428.738-.756.493-1.371 1.27-1.846 2.331-.475 1.062-.712 2.436-.712 4.12v7.257h-2.494V7.32h2.461v3.316l.107-.274c.515-1.257 1.245-2.155 2.192-2.697a6.363 6.363 0 0 1 3.206-.87zm76.56.263v2.43h-.55l-.296.007c-.881.046-1.705.301-2.473.764-.852.514-1.538 1.302-2.056 2.364-.518 1.061-.777 2.424-.777 4.087v6.764h-2.493V7.32h2.46v3.612l.112-.275c.536-1.257 1.297-2.161 2.285-2.713 1.057-.59 2.148-.886 3.27-.886h.518zM3.953 1.109c.93.81 1.232 2.079 1.257 2.193l.002.008 3.23 12.35 2.684-10.108c.262-1.074.733-2.403 1.48-3.301.95-1.144 2.88-1.216 3.087-1.216.205 0 2.137.072 3.087 1.216.678.817 1.13 1.989 1.402 3.002l.077.299 2.685 10.108 3.229-12.35s.285-1.353 1.26-2.202c1.529-1.33 3.796-1.1 3.945-1.083l.008.001-6.183 23.08s-2.04.146-3.06-.368c-1.34-.675-1.979-1.196-2.79-4.336-.31-1.2-.86-3.395-1.4-5.56l-.155-.616-.076-.306-.151-.604-.36-1.432-.132-.528c-.343-1.365-.6-2.37-.66-2.562-.092-.29-.2-.98-.726-.98-.515 0-.634.69-.727.98-.086.268-.56 2.148-1.116 4.373l-.135.54-.206.827-.232.927-.182.729-.179.715c-.353 1.41-.673 2.683-.883 3.497-.812 3.14-1.449 3.66-2.79 4.336-.979.492-2.892.379-3.05.369h-.01L0 .026s2.371-.294 3.953 1.081zm40.832-.09c1 .903 2.114 2.499 2.202 2.625l.005.008 2.868 4.1c.139.214.32.446.611.446.255 0 .426-.177.558-.365l.054-.08 2.868-4.101s1.165-1.692 2.207-2.633c1.58-1.429 4.725-.947 4.909-.917h.008l-7.792 11.5 7.771 11.465s-3.365.429-4.993-1.042c-.999-.902-2.021-2.345-2.105-2.464l-.005-.007-2.868-4.101c-.139-.214-.32-.445-.612-.445-.254 0-.425.177-.557.365l-.054.08-2.868 4.1s-1.009 1.531-2.05 2.472c-1.581 1.427-4.854 1.066-5.045 1.043l-.009-.001 7.772-11.464-7.792-11.5s3.29-.556 4.917.916zm-7.463 3.11v.822l.002-.001v13.734c-.012 2.818-.316 3.443-1.64 4.092-.982.482-2.46.33-2.592.315l-.01-.001V7.707c0-.772.268-1.278 1.254-1.733.587-.271 1.136-.48 1.706-.786.89-.479 1.28-1.059 1.28-1.059zm39.813-1.076L72.86 14.676h8.515L77.135 3.053zm78.147 5.943c-1.339 0-2.477.481-3.416 1.444-.94.964-1.506 2.222-1.7 3.776h9.908c-.151-1.598-.653-2.867-1.506-3.808-.853-.942-1.948-1.412-3.286-1.412zM37.314 0h.01c0 1.576-.158 2.512-1.177 3.239-.326.232-.89.588-1.549.82-.905.32-1.516.895-1.516.895 0-2.87.45-3.91 1.655-4.525.716-.366 1.87-.422 2.357-.43h.22z" fill="#002764" fill-rule="nonzero"/>
</svg>
