<svg width="41" height="42" xmlns="http://www.w3.org/2000/svg">
    <g fill="#000" fill-rule="nonzero">
        <path d="M21.058 23.833c-1.363 0-2.168 1.047-2.168 2.34s.805 2.34 2.168 2.34c1.362 0 2.167-1.047 2.167-2.34s-.805-2.34-2.167-2.34M12.697 23.833h-.806v2.771h.806c.99 0 1.362-.554 1.362-1.354 0-.801-.371-1.417-1.362-1.417"/>
        <path d="M31.958 14.718H29.79v6.467h-2.23v-6.467h-2.167v-1.847h6.565v1.847zM26.63 30.484c-.619-.062-1.176-.554-1.176-1.231 0-.74.557-1.232 1.176-1.232.62 0 1.177.492 1.177 1.232 0 .738-.557 1.231-1.177 1.231zm-5.574 0c-2.353-.062-4.397-1.786-4.397-4.31 0-2.526 2.044-4.25 4.397-4.25 2.354 0 4.398 1.786 4.398 4.25 0 2.524-2.044 4.31-4.398 4.31zm-8.237-1.97h-.929v1.785H9.724v-8.314h3.096c2.23 0 3.469 1.417 3.469 3.265 0 1.847-1.24 3.263-3.469 3.263zM11.458 12.87l1.858 3.387 1.796-3.387h2.291l-3.034 5.42v2.894h-2.23v-2.833L9.042 12.87h2.416zm9.661-.062c2.354 0 4.398 1.786 4.398 4.25 0 2.525-2.044 4.31-4.398 4.31-2.353-.061-4.397-1.785-4.397-4.31 0-2.525 2.044-4.25 4.397-4.25zM20.5 0C9.179 0 0 9.402 0 21s9.179 21 20.5 21C31.822 42 41 32.598 41 21S31.822 0 20.5 0z"/>
        <path d="M21.058 19.4c1.424 0 2.167-1.048 2.167-2.342 0-1.292-.805-2.34-2.167-2.34-1.363 0-2.168 1.048-2.168 2.34 0 1.294.805 2.341 2.168 2.341"/>
    </g>
</svg>
