<svg xmlns="http://www.w3.org/2000/svg" width="151" height="19" viewBox="0 0 151 19">
    <path fill="#FFF" d="M90.865 5.59c1.064 0 2.016.205 2.857.614.84.41 1.587.99 2.24 1.74l-1.288 1.357-.183-.23c-.437-.524-.929-.946-1.477-1.267-.626-.367-1.342-.55-2.149-.55-.84 0-1.527.191-2.059.575-.532.384-.798.875-.798 1.472 0 .477.223.857.67 1.139.446.281 1.235.507 2.367.678 1.87.273 3.192.712 3.964 1.318.772.605 1.158 1.463 1.158 2.572 0 .785-.223 1.48-.67 2.085-.445.606-1.059 1.075-1.84 1.408-.78.333-1.668.499-2.663.499-1.235 0-2.3-.209-3.192-.627-.892-.418-1.69-.994-2.393-1.727l1.287-1.357.21.23c.498.524 1.058.946 1.681 1.267.713.367 1.515.55 2.407.55.926 0 1.677-.213 2.252-.64.575-.426.862-.98.862-1.663 0-.563-.244-1.01-.733-1.343-.49-.333-1.326-.585-2.51-.755-1.801-.29-3.067-.708-3.796-1.254-.73-.546-1.094-1.305-1.094-2.278 0-1.16.455-2.086 1.364-2.777.91-.69 2.085-1.036 3.526-1.036zm32.538 0c1.15 0 2.167.282 3.05.845.884.563 1.575 1.343 2.072 2.341.498.998.746 2.146.746 3.442v.768h-9.96l.038.287c.173 1.133.628 2.07 1.365 2.81.798.801 1.823 1.202 3.075 1.202.79 0 1.502-.187 2.137-.563.634-.375 1.21-.955 1.724-1.74l1.338 1.28-.204.27c-.623.786-1.34 1.383-2.15 1.79-.901.452-1.892.678-2.973.678-1.27 0-2.39-.29-3.359-.87-.97-.58-1.724-1.378-2.265-2.393-.54-1.015-.81-2.162-.81-3.442 0-1.28.27-2.427.81-3.442.54-1.015 1.278-1.813 2.214-2.393.935-.58 1.986-.87 3.152-.87zm22.295 0c1.064 0 2.016.205 2.857.614.84.41 1.587.99 2.24 1.74l-1.288 1.357-.183-.23c-.437-.524-.929-.946-1.477-1.267-.626-.367-1.342-.55-2.149-.55-.84 0-1.527.191-2.059.575-.532.384-.798.875-.798 1.472 0 .477.223.857.67 1.139.446.281 1.235.507 2.367.678 1.87.273 3.192.712 3.964 1.318.772.605 1.158 1.463 1.158 2.572 0 .785-.223 1.48-.67 2.085-.445.606-1.059 1.075-1.84 1.408-.78.333-1.668.499-2.663.499-1.236 0-2.3-.209-3.192-.627-.892-.418-1.69-.994-2.393-1.727l1.287-1.357.21.23c.498.524 1.058.946 1.681 1.267.712.367 1.515.55 2.407.55.926 0 1.677-.213 2.252-.64.575-.426.862-.98.862-1.663 0-.563-.244-1.01-.733-1.343-.49-.333-1.326-.585-2.51-.755-1.801-.29-3.067-.708-3.796-1.254-.73-.546-1.094-1.305-1.094-2.278 0-1.16.455-2.086 1.364-2.777.91-.69 2.085-1.036 3.526-1.036zM48.475.082l.008.001-6.185 9.324 6.169 9.294s-2.672.347-3.964-.845c-.788-.726-1.594-1.886-1.67-1.995l-.005-.009-2.277-3.324c-.11-.173-.254-.36-.485-.36-.198 0-.332.137-.436.285l-.05.075-2.276 3.324s-.801 1.241-1.628 2.004c-1.25 1.153-3.832.866-4.002.846l-.01-.001 6.17-9.294L31.65.083s2.61-.45 3.903.743c.79.728 1.668 2.011 1.746 2.126l.006.009 2.276 3.324c.11.173.255.362.486.362.198 0 .332-.139.436-.287l.05-.075 2.276-3.324s.925-1.372 1.752-2.135c1.25-1.153 3.73-.77 3.895-.744zM29.627 3.348v.666l.002-.001v11.135c-.01 2.284-.251 2.79-1.302 3.317-.77.386-1.928.27-2.054.256l-.011-.002V6.25c0-.627.212-1.037.995-1.406.466-.22.901-.388 1.355-.637.706-.388 1.015-.858 1.015-.858zM3.138.898c.731.65.973 1.665.997 1.775l.002.01 2.564 10.013L8.832 4.5c.208-.87.582-1.948 1.175-2.676.754-.928 2.287-.986 2.45-.986.164 0 1.697.058 2.451.986.533.655.89 1.593 1.107 2.41l.067.266 2.132 8.195 2.563-10.013s.226-1.096 1-1.784c1.21-1.074 3-.893 3.13-.879l.008.001-4.908 18.712s-1.62.118-2.429-.299c-1.064-.547-1.571-.97-2.216-3.515-.574-2.27-2.181-8.936-2.328-9.411-.073-.235-.16-.795-.576-.795-.409 0-.503.56-.577.795-.15.475-1.755 7.142-2.329 9.41-.645 2.547-1.15 2.969-2.214 3.516-.77.396-2.27.309-2.418.3l-.012-.001L0 .02S1.882-.217 3.138.9zM99.478 6l2.882 10.467L105.346 6h2.007l2.986 10.57 2.96-10.57h1.955l-3.809 12.592h-2.213l-2.908-10.11-2.883 10.11h-2.24L97.445 5.999h2.033zM62.418.293l6.975 18.298h-2.162l-1.904-5.068H57.22l-1.904 5.068H53.23L60.206.293h2.213zM78.47 5.59c1.459 0 2.604.473 3.437 1.42.832.947 1.248 2.316 1.248 4.108v7.473h-1.982v-7.243l-.004-.28c-.037-1.192-.315-2.101-.832-2.727-.558-.674-1.309-1.01-2.252-1.01-.687 0-1.33.191-1.93.575-.601.384-1.09.99-1.468 1.817-.377.827-.566 1.898-.566 3.212v5.656h-1.982V5.999h1.956v2.585l.099-.246c.408-.963.984-1.652 1.729-2.07.806-.452 1.655-.678 2.548-.678zm60.856.205v1.894h-.438l-.26.007c-.691.04-1.338.238-1.94.594-.678.4-1.223 1.015-1.634 1.843-.412.827-.618 1.889-.618 3.186v5.272h-1.982V5.999h1.956v2.816l.103-.247c.425-.963 1.026-1.657 1.802-2.082.84-.46 1.707-.691 2.6-.691h.411zM61.287 2.673l-3.397 9.059h6.768l-3.371-9.06zm62.116 4.632c-1.063 0-1.969.375-2.715 1.126-.746.75-1.197 1.731-1.351 2.943h7.875c-.12-1.246-.519-2.235-1.196-2.969-.678-.734-1.549-1.1-2.613-1.1zM29.63 0c0 1.277-.126 2.037-.934 2.626-.259.188-.706.476-1.23.664-.718.26-1.203.726-1.203.726 0-2.327.357-3.17 1.313-3.668.572-.299 1.497-.343 1.88-.348h.174z"/>
</svg>
