<?xml version="1.0" encoding="UTF-8"?>
<svg width="132px" height="24px" viewBox="0 0 132 24" version="1.1" xmlns="http://www.w3.org/2000/svg" xmlns:xlink="http://www.w3.org/1999/xlink">
    <!-- Generator: Sketch 59.1 (86144) - https://sketch.com -->
    <title>gettyimages_logo</title>
    <desc>Created with Sketch.</desc>
    <g id="Design" stroke="none" stroke-width="1" fill="none" fill-rule="evenodd">
        <g id="Zendesk_vs_Wix_Answers_LP" transform="translate(-805.000000, -2428.000000)" fill="#0E1A1B">
            <path d="M910.98485,2432.81971 L910.98485,2434.25081 C910.268772,2434.25081 909.338077,2434.32985 908.778933,2434.8868 C909.392121,2435.62923 909.763671,2436.44964 909.763671,2437.77378 C909.763671,2441.16449 907.344177,2442.59454 904.42322,2442.59454 C903.54605,2442.59454 902.881416,2442.40854 902.190281,2442.17195 C901.313111,2442.48915 900.914538,2442.99289 900.914538,2443.49451 C900.914538,2444.2891 901.445102,2444.68798 905.193343,2444.68798 C909.338597,2444.68798 911.066955,2446.01212 911.066955,2448.26205 C911.066955,2450.27593 909.524112,2452 904.769308,2452 C900.013464,2452 898.737721,2450.38184 898.737721,2448.74049 C898.737721,2447.54703 899.214761,2446.54167 901.153058,2445.82717 L901.153058,2445.77343 C900.144416,2445.56161 899.322328,2445.13796 899.322328,2443.97295 C899.322328,2442.80478 900.383975,2441.85369 901.391578,2441.64293 C900.144416,2440.79406 899.400276,2439.46939 899.400276,2438.03829 C899.400276,2435.01853 901.526687,2433.08475 904.875836,2433.08475 C906.204583,2433.08475 907.212186,2433.45622 908.088317,2434.03794 C908.88702,2433.24493 909.895143,2432.81971 910.98485,2432.81971 Z M851.004162,2433.63906 L853.188254,2441.88267 L853.23918,2441.88267 L855.50018,2433.63906 L858.650823,2433.63906 L854.483224,2447.05541 C853.086402,2450.89453 851.969673,2451.92623 849.378175,2451.92623 C848.615847,2451.92623 848.234423,2451.87459 847.854039,2451.82348 L847.854039,2449.19364 C848.335755,2449.29955 848.717698,2449.29955 849.174472,2449.29955 C850.267297,2449.29955 850.876328,2448.98604 851.257232,2448.2394 C851.561747,2447.59603 851.76597,2447.21138 851.76597,2446.66971 C851.76597,2446.17968 851.510821,2445.61272 851.360123,2445.07263 L847.827537,2433.63906 L851.004162,2433.63906 Z M817.091234,2433.3814 L817.091234,2435.54492 C816.354889,2435.54492 815.542155,2435.54492 815.05888,2435.85422 C815.466286,2436.42066 815.770801,2437.19259 815.770801,2438.22218 C815.770801,2440.74875 814.093888,2442.5487 810.792027,2442.5487 C809.41963,2442.5487 808.326804,2442.60033 808.326804,2443.37437 C808.326804,2445.53684 817.015365,2442.59981 817.015365,2447.9575 C817.015365,2449.86283 815.110845,2451.9257 810.893359,2451.9257 C807.336869,2451.9257 805,2450.84289 805,2448.72943 C805,2447.05489 806.244564,2446.25766 807.387795,2446.25766 L807.387795,2446.20602 C806.778245,2445.8219 805.432349,2445.48573 805.432349,2444.04145 C805.432349,2442.75419 806.90452,2441.77729 807.490166,2441.59708 C806.397341,2440.69448 805.533162,2439.66646 805.533162,2438.04303 C805.533162,2435.69983 807.311407,2433.3814 810.741102,2433.3814 C811.85887,2433.3814 813.178783,2433.84561 813.992556,2434.56644 C814.602107,2433.74234 815.592041,2433.33029 817.091234,2433.3814 Z M904.422701,2446.1175 C901.287128,2446.1175 900.329412,2447.2567 900.329412,2448.45016 C900.329412,2449.80065 901.658159,2450.72644 904.529229,2450.72644 C907.982308,2450.72644 909.470068,2449.80012 909.470068,2448.3706 C909.470068,2447.2314 908.568994,2446.1175 904.422701,2446.1175 Z M810.131551,2446.77299 C808.404232,2446.77299 807.895494,2447.75305 807.895494,2448.32001 C807.895494,2449.35014 808.759673,2449.81277 811.401578,2449.81277 C813.433932,2449.81277 814.119351,2448.78107 814.119351,2448.32001 C814.119351,2447.69878 813.178783,2446.77299 810.131551,2446.77299 Z M917.470092,2433.08633 C921.217293,2433.08633 922.995538,2436.02758 922.995538,2440.29191 L913.377322,2440.29191 C913.377322,2443.41495 914.680607,2446.11803 917.81566,2446.11803 C919.597022,2446.11803 920.473673,2445.50891 921.854905,2443.33591 L923.155071,2444.02459 C921.666272,2446.46316 920.313101,2447.39211 917.68055,2447.39211 C914.068458,2447.39211 911.784593,2445.08527 911.784593,2440.23659 C911.784593,2435.9733 913.96141,2433.08633 917.470092,2433.08633 Z M928.897212,2433.08527 C931.208099,2433.08527 932.669876,2433.98525 933.652016,2435.57653 L932.429798,2436.42224 C931.500143,2435.15131 930.489422,2434.35778 928.843168,2434.35778 C927.300325,2434.35778 926.107727,2435.09757 926.107727,2436.76684 C926.107727,2440.13068 934.236623,2438.14578 934.236623,2443.49504 C934.236623,2445.95837 931.952758,2447.39159 929.453238,2447.39159 C927.326827,2447.39159 925.416591,2446.54272 924.112787,2444.60841 L925.282521,2443.7859 C926.585805,2445.64222 927.75398,2446.11803 929.560286,2446.11803 C931.315147,2446.11803 932.641815,2444.97936 932.641815,2443.49504 C932.641815,2439.49574 924.511879,2441.7462 924.511879,2436.8464 C924.511879,2434.25081 926.557225,2433.08527 928.897212,2433.08527 Z M892.011882,2433.08527 C895.146935,2433.08527 896.635734,2434.35778 896.635734,2437.4023 L896.635734,2444.60789 C896.635734,2445.29762 896.689778,2446.19759 896.846712,2447.12339 L895.307507,2447.12339 L895.093411,2445.45464 C893.447157,2446.75349 892.197917,2447.39159 890.074624,2447.39159 C887.920152,2447.39159 886.273898,2446.06376 886.273898,2443.7859 C886.273898,2440.02529 889.355427,2439.33609 895.121991,2438.06622 L895.121991,2437.11197 C895.121991,2435.28462 894.324327,2434.35778 891.959397,2434.35778 C890.313143,2434.35778 888.956335,2435.25775 887.947173,2436.8464 L886.882409,2436.212 C888.079165,2433.98525 889.778942,2433.08527 892.011882,2433.08527 Z M843.672409,2429.55546 L843.672409,2433.67595 L846.522174,2433.67595 L846.522174,2436.25204 L843.672409,2436.25204 L843.672409,2443.82225 C843.672409,2444.54308 844.064746,2444.75121 844.929964,2444.75121 C845.460528,2444.75121 846.019672,2444.59419 846.522174,2444.49196 L846.522174,2447.11759 C845.572772,2447.22297 844.734575,2447.32625 843.784654,2447.32625 C841.213422,2447.32625 840.207378,2446.14121 840.207378,2444.23588 L840.207378,2436.25204 L838.19581,2436.25204 L838.19581,2433.67595 L840.207898,2433.67595 L840.207898,2429.55546 L843.672409,2429.55546 Z M834.60918,2429.55546 L834.60918,2433.67595 L837.461024,2433.67595 L837.461024,2436.25204 L834.60918,2436.25204 L834.60918,2443.82225 C834.60918,2444.54308 835.001517,2444.75121 835.867775,2444.75121 C836.398858,2444.75121 836.958002,2444.59419 837.461024,2444.49196 L837.461024,2447.11759 C836.509543,2447.22297 835.672906,2447.32625 834.721945,2447.32625 C832.151752,2447.32625 831.146228,2446.14121 831.146228,2444.23588 L831.146228,2436.25204 L829.133101,2436.25204 L829.133101,2433.67595 L831.146228,2433.67595 L831.146228,2429.55546 L834.60918,2429.55546 Z M823.16803,2433.38193 C826.623707,2433.35611 828.553171,2436.31791 828.553171,2439.53737 L828.553171,2440.8515 L820.577051,2440.8515 C820.627977,2443.63098 821.846558,2444.71327 823.319768,2444.71327 C824.795056,2444.71327 825.478397,2444.04145 826.266707,2443.11882 L828.553171,2444.55994 C827.33355,2446.46211 825.555305,2447.28831 823.015252,2447.28831 C819.585038,2447.28831 817.426409,2444.58259 817.426409,2440.33617 C817.426409,2436.08659 819.585038,2433.38193 823.16803,2433.38193 Z M880.399766,2433.08527 C882.815103,2433.08527 884.040439,2434.40994 884.040439,2436.82111 L884.040439,2447.12391 L882.444072,2447.12391 L882.444072,2436.66146 C882.444072,2435.12444 881.593404,2434.35778 880.054718,2434.35778 C878.83146,2434.35778 876.810018,2435.65452 875.961429,2436.97971 L875.961429,2447.12391 L874.366101,2447.12391 L874.366101,2436.66146 C874.366101,2435.12444 873.517511,2434.35778 871.975707,2434.35778 C870.75245,2434.35778 868.733606,2435.65452 867.882418,2436.97971 L867.882418,2447.12391 L866.290208,2447.12391 L866.290208,2433.35084 L867.882418,2433.35084 L867.882418,2435.44217 C869.29327,2433.95995 870.328934,2433.08527 872.481328,2433.08527 C874.021053,2433.08527 875.429826,2434.06481 875.829437,2435.6013 C877.076599,2434.1449 878.405346,2433.08527 880.399766,2433.08527 Z M862.623033,2433.35084 L862.623033,2447.12391 L861.028745,2447.12391 L861.028745,2433.35084 L862.623033,2433.35084 Z M895.040406,2439.33556 C888.717296,2440.7145 887.866628,2442.01335 887.866628,2443.75955 C887.866628,2445.27233 888.901772,2446.11803 890.338087,2446.11803 C891.825847,2446.11803 893.658135,2445.24387 895.040406,2443.8428 L895.040406,2439.33556 Z M904.582753,2434.35778 C902.348774,2434.35778 900.995084,2435.73461 900.995084,2437.88074 C900.995084,2440.26451 902.641338,2441.32414 904.582753,2441.32414 C906.812574,2441.32414 908.169383,2440.26451 908.169383,2437.88074 C908.169383,2435.46957 906.812574,2434.35778 904.582753,2434.35778 Z M810.715639,2435.75042 C809.368704,2435.75042 808.429695,2436.72943 808.429695,2437.96557 C808.429695,2439.20278 809.369224,2440.17968 810.715639,2440.17968 C811.909276,2440.17968 812.874268,2439.20278 812.874268,2437.96557 C812.874788,2436.72943 811.909276,2435.75042 810.715639,2435.75042 Z M917.416568,2434.35778 C914.599021,2434.32985 913.405384,2437.19101 913.377322,2439.01835 L921.403328,2439.01835 C921.082704,2436.1846 919.835022,2434.38307 917.416568,2434.35778 Z M823.117624,2435.75147 C821.591929,2435.75147 820.627457,2436.8327 820.576531,2438.6864 L825.657157,2438.6864 C825.606231,2436.83218 824.641759,2435.75147 823.117624,2435.75147 Z M935.354593,2428.85671 C936.261488,2428.86116 936.995591,2429.60553 936.999981,2430.5251 C937.003191,2431.20463 936.601553,2431.81893 935.983016,2432.08049 C935.364479,2432.34205 934.651408,2432.19913 934.177526,2431.71863 C933.703644,2431.23812 933.562698,2430.51508 933.820653,2429.88789 C934.078607,2429.26071 934.684431,2428.85345 935.354593,2428.85671 Z M935.354593,2429.0754 C934.564984,2429.0754 933.92488,2429.72445 933.92488,2430.5251 C933.92488,2431.32575 934.564984,2431.97481 935.354593,2431.97481 C935.728846,2431.97512 936.087025,2431.8206 936.346333,2431.54697 C936.60564,2431.27333 936.743627,2430.90427 936.728396,2430.5251 C936.743627,2430.14593 936.60564,2429.77687 936.346333,2429.50324 C936.087025,2429.2296 935.728846,2429.07508 935.354593,2429.0754 Z M935.490376,2429.53704 C935.929673,2429.53704 936.121367,2429.73141 936.121367,2430.07966 C936.136806,2430.35506 935.943044,2430.59714 935.674082,2430.63849 L936.217213,2431.52127 L935.913699,2431.52127 L935.402517,2430.63849 L935.027117,2430.63849 L935.027117,2431.52127 L934.739577,2431.52127 L934.739577,2429.53704 L935.490376,2429.53704 Z M935.489018,2429.75581 L935.003155,2429.75571 L935.003155,2430.41172 L935.30667,2430.41172 C935.570248,2430.41172 935.857788,2430.41172 935.857788,2430.07966 C935.857788,2429.78081 935.676638,2429.75749 935.489018,2429.75581 Z M862.623033,2428 L862.623033,2430.33055 L861.028745,2430.33055 L861.028745,2428 L862.623033,2428 Z" id="gettyimages_logo"></path>
        </g>
    </g>
</svg>