<svg xmlns="http://www.w3.org/2000/svg" width="102" height="32" viewBox="0 0 102 32">
    <path fill="#1D1E1E" d="M17.03.352l14.615 10.192c.402.268.67.737.67 1.274v18.439c0 1.676 0 1.676-1.609 1.676-.804 0-1.005-.134-1.005-1.073V13.025c0-.336-.135-.67-.47-.872L16.56 3.303c-.268-.202-.603-.202-.805 0C11.532 6.32 7.241 9.27 3.017 12.22c-.201.201-.402.47-.402.805V29.25c0 .402.134.603.603.603h18.37c.47 0 .604-.134.604-.603V16.847c0-.269-.134-.537-.403-.738-1.743-1.207-3.419-2.414-5.162-3.62-.201-.202-.536-.202-.738 0-1.743 1.206-3.486 2.413-5.162 3.687-.268.201-.402.47-.47.738v6.503c.068.738-.469 1.342-1.206 1.409-.201 0-.47 0-.67-.135-.47-.2-.738-.603-.738-1.072v-8.046c.067-.336.268-.671.536-.94 2.347-1.675 4.693-3.352 7.107-4.96.536-.403 1.274-.403 1.743 0 2.347 1.608 4.626 3.218 6.973 4.827.47.268.67.804.67 1.34v15.154c0 .872-.2 1.006-1.072 1.006l-11.264-.134H.94c-.805 0-.939-.134-.939-.939V11.751c0-.47.201-.94.603-1.14C5.498 7.19 10.392 3.77 15.22.352c.536-.47 1.274-.47 1.81 0zm84.609 16.092s.067 0 .067.067c.47.268.268.604.134.939-.871 2.079-1.676 4.224-2.548 6.303-.871 2.078-1.676 4.157-2.48 6.168-.402.805-1.408 1.207-2.213.805-.402-.201-.268-.536-.134-.805.47-1.072.939-2.212 1.475-3.285.134-.335.134-.738 0-1.073-1.073-2.615-2.145-5.297-3.15-7.912-.403-1.006-.27-1.274.804-1.274.938 0 1.072.067 1.408.939.737 1.81 1.408 3.62 2.145 5.431.067.134.134.268.201.47.134-.269.201-.403.268-.604.738-1.81 1.408-3.62 2.146-5.431.335-.738 1.14-1.006 1.877-.738zm-20.985-.268c.738.201 1.542.335 2.28.603.536.202.603.604.402 1.14-.268.67-.536.67-1.14.537-.67-.201-1.34-.268-2.011-.268-.537 0-.939.335-1.006.871-.067.537.201 1.006.67 1.207.269.134.604.268.872.335l1.542.537c2.347.804 2.146 3.755.67 4.962-1.675 1.34-4.491 1.072-5.9.067-.469-.336-.469-.67-.133-1.207.268-.47.603-.604 1.14-.269.804.537 1.743.738 2.681.47.537-.067 1.006-.47 1.073-1.073.134-.603-.201-1.14-.805-1.341l-1.206-.402c-.47-.134-.872-.336-1.341-.47-1.408-.67-1.945-2.28-1.341-3.687.2-.403.47-.805.871-1.073.872-.604 1.744-.872 2.682-.939zm7.71-2.146c.201.134.402.403.402.67.068.403.068.806 0 1.275 0 .335.135.402.403.402h.804c.67 0 .872.268.872.939 0 .67-.201.804-.872.872-1.223.064-1.272.066-1.273 1.134v4.766c0 .939.335 1.207 1.273 1.073.738-.067 1.006.067 1.14.804.067.537-.134.805-.872.94-1.542.334-3.15-.403-3.486-1.677-.067-.402-.134-.872-.134-1.274v-4.828c.134-.335.134-.536.067-.871h-.47c-.737 0-1.005-.336-.938-1.073.067-.47.268-.805.805-.738.536.067.804-.134.737-.737 0-.201.067-.47.067-.67.067-.94.67-1.342 1.475-1.007zm-31.98 2.347c.67 0 .872.201.872.872v5.833c0 1.61 1.005 2.347 2.614 1.945.269-.067.537-.201.738-.336.603-.268 1.006-.871.939-1.542-.068-1.944 0-3.889 0-5.766 0-.805.2-1.006 1.14-1.006.938 0 1.072.201 1.072 1.006v6.504c0 .67.067 1.408.201 2.078.134.336-.067.67-.402.805h-.067c-.939.268-1.274.134-1.743-.805-.738.336-1.475.67-2.28.872-.871.268-1.877.134-2.682-.268-1.005-.402-1.676-1.408-1.676-2.481-.067-2.347 0-4.694 0-6.973 0-.336.268-.67.604-.738h.67zm-5.363-3.084c.268.067.469.134.67.268.268.201.738.536.67.805-.067.469-.335.871-.603 1.14-.067.067-.47 0-.67-.068-1.274-.603-2.75-.804-4.157-.536-1.475.201-2.682 1.341-3.017 2.816-.402 1.408-.402 2.95 0 4.358.536 2.012 1.609 2.95 3.821 3.085.805 0 1.542 0 2.347-.134.335 0 .536-.201.536-.604v-2.48c0-.403-.134-.537-.536-.537h-1.61c-.535 0-.67-.402-.67-.872 0-.469 0-1.005.67-1.005h3.554c.537 0 .738.335.738.871v4.627c0 .804-.201 1.207-1.006 1.475-.737.201-1.475.335-2.28.402-1.273.067-2.547 0-3.82-.201-2.415-.536-3.957-2.548-4.158-5.163-.134-1.34-.067-2.682.201-4.023.537-2.615 2.816-4.56 5.498-4.56 1.274-.134 2.615 0 3.822.336zm21.051 3.084c1.81.335 2.883 1.743 3.152 3.755.268 2.012-.135 2.414-2.079 2.347-1.408-.067-2.816 0-4.224 0h-.737c-.134 1.274.804 2.48 2.078 2.615 1.14.134 2.28-.067 3.285-.604.336-.2.805-.134 1.006.201 0 0 0 .068.067.068.47.67.402 1.072-.335 1.408-2.011 1.005-4.358 1.005-6.302.067-1.475-.738-2.012-2.146-2.146-3.621-.067-1.073 0-2.146.269-3.219.335-1.609 1.676-2.816 3.352-3.017.871-.134 1.743-.134 2.614 0zm-2.01 1.743c-1.208.202-2.012 1.274-1.878 2.481.067 0 .134.067.201.067h4.157c.402 0 .402-.268.402-.536-.201-1.61-1.34-2.347-2.883-2.012z"/>
</svg>
