<?xml version="1.0" encoding="UTF-8"?>
<svg width="24px" height="24px" viewBox="0 0 24 24" version="1.1" xmlns="http://www.w3.org/2000/svg" xmlns:xlink="http://www.w3.org/1999/xlink">
    <title>Group 6 Copy 4</title>
    <defs>
        <path d="M12,24 C16.1124064,24 19.7416542,21.931352 21.9039247,18.7778748 C23.2262972,16.8493132 24,14.5150106 24,12 C24,5.372583 18.627417,0 12,0 C5.372583,0 0,5.372583 0,12 C0,18.627417 5.372583,24 12,24 Z" id="path-1"></path>
        <path d="M16.9809836,10.3781987 C16.9809836,5.68902955 13.1796609,1.88770689 8.4904918,1.88770689 C3.80132266,1.88770689 0,5.68902955 0,10.3781987 L16.9809836,10.3781987 Z" id="path-3"></path>
    </defs>
    <g id="Page-1" stroke="none" stroke-width="1" fill="none" fill-rule="evenodd">
        <g id="Group-6-Copy-4">
            <g id="Group-34">
                <ellipse id="Oval-Copy-2" fill="#002764" cx="15.2524693" cy="14.5400616" rx="3.44410598" ry="3.47101306"></ellipse>
                <g id="Group-17-Copy-3">
                    <ellipse id="Oval" fill="#002764" cx="15.8428875" cy="13.1516564" rx="3.05049387" ry="3.07432585"></ellipse>
                    <ellipse id="Oval" fill="#002764" cx="17.0237238" cy="13.1516564" rx="3.05049387" ry="3.07432585"></ellipse>
                    <g id="Group-11">
                        <mask id="mask-2" fill="white">
                            <use xlink:href="#path-1"></use>
                        </mask>
                        <use id="Mask" fill="#DCEAFF" xlink:href="#path-1"></use>
                        <g mask="url(#mask-2)">
                            <g transform="translate(3.409836, 8.688925)">
                                <ellipse id="Oval-Copy" fill="#002764" cx="11.2522151" cy="3.07432585" rx="3.05049387" ry="3.07432585"></ellipse>
                                <g id="Oval" stroke-width="1" fill="none" transform="translate(0.000000, 2.776810)">
                                    <ellipse fill="#002764" cx="11.4490212" cy="3.07432585" rx="3.05049387" ry="3.07432585"></ellipse>
                                    <mask id="mask-4" fill="white">
                                        <use xlink:href="#path-3"></use>
                                    </mask>
                                    <use id="Mask" fill="#FF7197" xlink:href="#path-3"></use>
                                    <path d="M8.39615987,7.20341135 L13.1626166,1.66318393 C11.5080606,-1.15632252 9.9555966,-2.56607574 8.5052246,-2.56607574 C7.0548526,-2.56607574 5.40452146,-1.2360993 3.55423118,1.42385358 L8.39615987,7.20341135 Z" fill="#2288F9" mask="url(#mask-4)"></path>
                                </g>
                                <polygon id="Path-3" fill="#FF7197" points="16.9809836 12.0641485 15.7453893 20.2031876 0 20.2291075 0 12.0641485"></polygon>
                            </g>
                        </g>
                    </g>
                </g>
                <g id="Group-32-2" transform="translate(7.536121, 4.888847)" fill="#FFFFFF">
                    <path d="M8.97435446,4.57879949 C8.97435446,7.10725302 6.96514932,9.15759898 4.48717723,9.15759898 C2.00920513,9.15759898 0,7.10654577 0,4.57879949 C0,2.05105322 2.00849164,0 4.48717723,0 C6.96586282,0 8.97435446,2.05105322 8.97435446,4.57879949" id="Fill-15-4"></path>
                </g>
                <ellipse id="Oval" fill="#FFFFFF" cx="11.9067664" cy="19.8953389" rx="1" ry="1"></ellipse>
                <ellipse id="Oval-Copy-8" fill="#FFFFFF" cx="11.9067664" cy="21.6804313" rx="1" ry="1"></ellipse>
                <path d="M14.7604542,6.50714565 C14.2356381,7.7633218 13.1204037,8.22612354 11.4147513,7.89555087 C8.85627252,7.39969186 9.33133834,8.34594292 8.79384178,9.36895192 C8.43551074,10.0509579 8.15394185,10.4236671 7.9491351,10.4870794 C8.05155998,12.565756 8.95785406,13.7361016 10.6680173,13.9981163 C10.6678914,14.0005321 10.8092965,15.4207902 10.1355119,16.0276386 C9.46172732,16.634487 8.50056272,16.8061497 7.9491351,16.1246695 C7.39770749,15.4431892 7.13011003,15.2868018 6.38207278,15.3322985 C5.63403554,15.3777952 5.6192565,14.6972856 5.53264166,14.0582689 C5.44602682,13.4192523 5.49690547,13.7723069 5.08381931,12.9156339 C4.67073316,12.0589609 6.33349579,11.7457412 6.38207278,9.66603543 C6.43064978,7.58632962 7.3537338,3.36496158 11.6991337,3.15713255 C16.0445335,2.94930351 17.3390316,7.82294826 17.2054146,9.5203222 C17.0717976,11.2176961 16.1910641,13.3010296 16.5317087,10.7715331 C16.7285148,8.78809709 16.1380966,7.3666346 14.7604542,6.50714565 Z" id="Path-19" fill="#002764"></path>
                <ellipse id="Oval" fill="#002764" cx="7.3802271" cy="14.5400616" rx="3.44410598" ry="3.47101306"></ellipse>
            </g>
            <path d="M10.9011587,11.8485704 C9.72983386,10.4053651 9.89251786,9.06056018 11.3892106,7.8141556 C12.8859034,6.56775102 12.5605354,5.5837474 10.4131067,4.86214475 L7.28957387,9.38856139 L7.58240507,13.0293748 L10.9011587,11.8485704 Z" id="Path-40-Copy" fill="#002764"></path>
        </g>
    </g>
</svg>