<?xml version="1.0" encoding="UTF-8"?>
<svg width="40px" height="40px" viewBox="0 0 40 40" version="1.1" xmlns="http://www.w3.org/2000/svg" xmlns:xlink="http://www.w3.org/1999/xlink">
    <title>Group 63 Copy</title>
    <defs>
        <path d="M12,24 C16.1124064,24 19.7416542,21.931352 21.9039247,18.7778748 C23.2262972,16.8493132 24,14.5150106 24,12 C24,5.372583 18.627417,0 12,0 C5.372583,0 0,5.372583 0,12 C0,18.627417 5.372583,24 12,24 Z" id="path-1"></path>
        <filter x="-54.2%" y="-45.8%" width="208.3%" height="208.3%" filterUnits="objectBoundingBox" id="filter-3">
            <feOffset dx="0" dy="2" in="SourceAlpha" result="shadowOffsetOuter1"></feOffset>
            <feGaussianBlur stdDeviation="4" in="shadowOffsetOuter1" result="shadowBlurOuter1"></feGaussianBlur>
            <feColorMatrix values="0 0 0 0 0.939226676   0 0 0 0 0.939226676   0 0 0 0 0.939226676  0 0 0 0.5 0" type="matrix" in="shadowBlurOuter1"></feColorMatrix>
        </filter>
        <circle id="path-4" cx="11.9003279" cy="10.3186885" r="4.87606557"></circle>
    </defs>
    <g id="Page-1" stroke="none" stroke-width="1" fill="none" fill-rule="evenodd">
        <g id="Group-63-Copy" transform="translate(8.000000, 6.000000)">
            <g id="Group-55">
                <mask id="mask-2" fill="white">
                    <use xlink:href="#path-1"></use>
                </mask>
                <g id="Mask">
                    <use fill="black" fill-opacity="1" filter="url(#filter-3)" xlink:href="#path-1"></use>
                    <use fill="#DCEAFF" fill-rule="evenodd" xlink:href="#path-1"></use>
                </g>
                <path d="M11.9003279,13.3534426 C16.2198172,13.3534426 19.7859321,16.5790221 20.3213686,20.7528772 L20.3908197,20.7530738 L20.3510462,21.0168133 C20.3773572,21.2889666 20.3908197,21.5648784 20.3908197,21.8439344 L20.3908197,21.8439344 L20.2238361,21.8434426 L19.1552254,28.8921129 L3.40983607,28.9180328 L3.40983607,20.7530738 L3.47928717,20.7528772 C4.01472366,16.5790221 7.58083853,13.3534426 11.9003279,13.3534426 Z" id="Combined-Shape" fill="#FFFFFF" mask="url(#mask-2)"></path>
                <path d="M9.14784171,19.9284715 L11.4719812,14.7821627 C11.6300326,14.4321916 12.0144107,14.2903378 12.3305135,14.4653234 C12.4543541,14.533878 12.5547707,14.6450535 12.616691,14.7821627 L14.9408305,19.9284715" id="Path-Copy" fill="#FF7197" mask="url(#mask-2)" transform="translate(12.044336, 17.159422) rotate(-180.000000) translate(-12.044336, -17.159422) "></path>
                <mask id="mask-5" fill="white">
                    <use xlink:href="#path-4"></use>
                </mask>
                <use id="Mask" fill="#2288F9" xlink:href="#path-4"></use>
                <path d="M10.9517253,7.25014036 C10.9517253,5.8619298 9.46165148,6.74782193 8.72463979,7.73867464 C7.98762809,8.72952736 7.0242623,10.4179557 7.0242623,11.8061662 L6.78991333,2.15915511 L10.8352193,2.15915511 L10.9517253,7.25014036 Z" id="Path-Copy-5" fill="#002764" mask="url(#mask-5)"></path>
                <path d="M16.9747833,7.68215271 C16.9747833,6.29394215 17.1420568,6.80024595 15.8007984,7.13881543 C14.4595401,7.47738492 13.2483495,10.4179557 13.2483495,11.8061662 L13.0140005,2.15915511 L17.0593065,2.15915511 L16.9747833,7.68215271 Z" id="Path-Copy-6" fill="#002764" mask="url(#mask-5)" transform="translate(15.036654, 6.982661) scale(-1, 1) translate(-15.036654, -6.982661) "></path>
                <path d="M11.5994353,17.2760857 L12.4481744,17.2760857 C12.604423,17.2760857 12.7310875,17.4027502 12.7310875,17.5589988 C12.7310875,17.7152473 12.604423,17.8419118 12.4481744,17.8419118 L11.5994353,17.8419118 C11.4431867,17.8419118 11.3165222,17.7152473 11.3165222,17.5589988 C11.3165222,17.4027502 11.4431867,17.2760857 11.5994353,17.2760857 Z" id="Rectangle-Copy-7" fill="#002764" mask="url(#mask-5)"></path>
                <path d="M17.3273376,11.8739354 C18.2414604,11.8739354 19.0972221,11.1120437 19.0972221,10.1722027 C19.0972221,9.23236172 18.2414604,8.47047006 17.3273376,8.47047006" id="Path" fill="#0084FF" mask="url(#mask-5)"></path>
                <path d="M4.72703518,11.8739354 C5.63247583,11.8739354 6.49381278,11.1120437 6.49381278,10.1722027 C6.49381278,9.23236172 5.63247583,8.47047006 4.72703518,8.47047006" id="Path-Copy-18" fill="#0084FF" mask="url(#mask-5)" transform="translate(5.610424, 10.172203) scale(-1, 1) translate(-5.610424, -10.172203) "></path>
                <path d="M17.5845709,9.98312131 C17.5845709,6.95474476 15.044932,4.49976051 11.9121286,4.49976051 C8.77932532,4.49976051 6.23968643,6.95474476 6.23968643,9.98312131" id="Path" stroke="#0084FF" stroke-width="1.35977624" mask="url(#mask-5)"></path>
            </g>
            <path d="M11.983751,8.51599482 C13.3151132,8.51599482 14.7414421,8.04583188 15.2452832,6.4394225 C15.3476249,6.11312361 15.4720986,5.33731705 15.6187043,4.11200281 C14.1701755,4.49155814 13.0750064,4.65150293 12.333197,4.59183717 C11.0082874,4.48527107 9.72330858,5.16703274 9.72330858,6.49900702 C9.72330858,7.83098131 10.6523889,8.51599482 11.983751,8.51599482 Z" id="Oval" fill="#002764"></path>
            <path d="M7.05042208,10.9387387 C8.158542,12.2756936 9.16495099,12.9472533 10.0696491,12.9534176 C11.4266961,12.962664 10.9502989,12.2291915 12.0212602,12.2335903 C13.0922215,12.2379892 12.7014532,12.8203908 13.442858,12.9330928 C14.1842628,13.0457948 15.3503469,12.5429102 16.7146177,11.0303308 C16.7222775,11.0310287 16.3718482,15.4789515 12.0371362,15.4368739 C9.14732814,15.4088222 7.48509011,13.9094438 7.05042208,10.9387387 Z" id="Path-20" fill="#002764"></path>
            <path d="M11.9783008,13.5160615 C11.4801162,13.5160615 11.0762034,13.40174 11.0762034,13.2599814 C11.0762034,13.1182227 11.4801162,13.003139 11.9783008,13.003139 C12.4764854,13.003139 12.8803981,13.1182227 12.8803981,13.2599814 C12.8803981,13.40174 12.4764854,13.5160615 11.9783008,13.5160615" id="Fill-1-2-path" fill="#2288F9"></path>
        </g>
    </g>
</svg>