<?xml version="1.0" encoding="UTF-8"?>
<svg width="38px" height="38px" viewBox="0 0 38 38" version="1.1" xmlns="http://www.w3.org/2000/svg" xmlns:xlink="http://www.w3.org/1999/xlink">
    <title>Group 54 Copy</title>
    <defs>
        <path d="M12,24 C16.1124064,24 19.7416542,21.931352 21.9039247,18.7778748 C23.2262972,16.8493132 24,14.5150106 24,12 C24,5.372583 18.627417,0 12,0 C5.372583,0 0,5.372583 0,12 C0,18.627417 5.372583,24 12,24 Z" id="path-1"></path>
        <filter x="-45.8%" y="-41.7%" width="191.7%" height="191.7%" filterUnits="objectBoundingBox" id="filter-3">
            <feOffset dx="0" dy="1" in="SourceAlpha" result="shadowOffsetOuter1"></feOffset>
            <feGaussianBlur stdDeviation="3.5" in="shadowOffsetOuter1" result="shadowBlurOuter1"></feGaussianBlur>
            <feColorMatrix values="0 0 0 0 0.939226676   0 0 0 0 0.939226676   0 0 0 0 0.939226676  0 0 0 0.5 0" type="matrix" in="shadowBlurOuter1"></feColorMatrix>
        </filter>
        <path d="M8.4904918,0 C12.8099811,0 16.376096,3.2255795 16.9115325,7.39943457 L16.9809836,7.39963115 L16.9412101,7.66337065 C16.9675211,7.935524 16.9809836,8.21143574 16.9809836,8.4904918 L16.9809836,8.4904918 L16.814,8.49 L15.7453893,15.5386702 L0,15.5645902 L0,7.39963115 L0.0694511024,7.39943457 C0.60488759,3.2255795 4.17100247,0 8.4904918,0 Z" id="path-4"></path>
        <circle id="path-6" cx="4.87606557" cy="4.87606557" r="4.87606557"></circle>
    </defs>
    <g id="Page-1" stroke="none" stroke-width="1" fill="none" fill-rule="evenodd">
        <g id="Group-48" transform="translate(7.000000, 6.000000)">
            <g id="Group-11">
                <mask id="mask-2" fill="white">
                    <use xlink:href="#path-1"></use>
                </mask>
                <g id="Mask">
                    <use fill="black" fill-opacity="1" filter="url(#filter-3)" xlink:href="#path-1"></use>
                    <use fill="#DCEAFF" fill-rule="evenodd" xlink:href="#path-1"></use>
                </g>
                <g mask="url(#mask-2)">
                    <g transform="translate(3.409836, 5.442623)">
                        <g id="Oval" transform="translate(0.000000, 7.910820)">
                            <mask id="mask-5" fill="white">
                                <use xlink:href="#path-4"></use>
                            </mask>
                            <use id="Mask" fill="#2188F9" xlink:href="#path-4"></use>
                            <path d="M8.47737394,5.54746848 C11.1511702,5.54746848 13.3187104,4.83945731 13.3187104,2.1342046 C13.3187104,-0.571048109 11.1511702,-2.76408874 8.47737394,-2.76408874 C5.80357765,-2.76408874 3.6360375,-0.571048109 3.6360375,2.1342046 C3.6360375,4.83945731 5.80357765,5.54746848 8.47737394,5.54746848 Z" fill="#FF7197" mask="url(#mask-5)"></path>
                        </g>
                        <g id="Oval-Copy-4-+-Rectangle-+-Rectangle-Copy-23-+-Oval-Copy-5-Mask" transform="translate(3.614426, 0.000000)">
                            <mask id="mask-7" fill="white">
                                <use xlink:href="#path-6"></use>
                            </mask>
                            <use id="Mask" fill="#3DDDCA" xlink:href="#path-6"></use>
                        </g>
                    </g>
                </g>
            </g>
            <g id="Group-47" transform="translate(6.491441, 3.123668)">
                <path d="M9.79245903,1.75421391 C7.6667829,-0.703824045 4.41052738,-0.398173764 1.70243156,1.55365598 C0.432476333,2.4698046 0.338888844,6.00835019 0.524982835,7.08253845 C0.968700179,6.84808961 1.14805093,7.2721597 1.16265621,7.63243457 C1.17239307,7.87261781 1.194301,8.19322972 1.22838001,8.59427031 C1.35121768,8.71900636 1.75298305,8.75898209 1.89864782,8.66383562 C2.03833943,8.56540196 2.12978831,8.40944129 2.14936859,8.23624612 C2.16779113,8.0649168 2.15805151,7.89161362 2.12055906,7.72362006 C2.04970319,7.3225042 1.95548824,6.57963764 1.71099656,6.19376419 C1.70632474,6.15124591 1.70087429,6.10632093 1.6946452,6.06059373 C1.50932985,4.74332926 1.87373147,3.48222101 3.58828782,3.87531455 C5.04122249,4.20824071 6.00205925,4.20824071 7.45187938,3.87531455 C9.16487846,3.48222101 9.53083735,4.74332926 9.345522,6.06059373 C9.32750207,6.18768149 9.31632452,6.3156996 9.31204065,6.44406048 C9.13840484,6.84517634 9.05664806,7.39951845 8.99279992,7.72362006 C8.9512007,7.89094528 8.94037283,8.06481549 8.96087584,8.23624612 C8.98653127,8.41498168 9.08928805,8.57216578 9.24040615,8.66383562 C9.39613334,8.75368557 9.58562466,8.85582256 9.70631324,8.72505879 C9.71799277,8.35282328 9.57001074,8.0279 9.72495133,7.37482756 C9.87989191,6.72175512 10.2899797,6.98086308 10.3401718,6.96106837 C10.4569672,3.59570635 10.6902263,2.79230174 9.79245903,1.75421391 Z" id="Path" fill="#002764"></path>
                <path d="M1.63100716,8.09271573 C1.25805697,8.38749702 0.985031602,8.78966874 0.84899429,9.24463601 L1.06482984,10.8055036 C1.40656947,13.2747961 2.35906115,13.7898824 5.31194176,13.8273432 C8.26482238,13.8648041 9.4206374,13.4222981 9.75690294,10.989686 L10.1017706,8.5008826 C9.87021192,8.3423661 9.62591247,8.20323475 9.37137059,8.08491139 C6.93722519,8.63745852 4.35710404,8.64005996 1.63100716,8.09271573 Z" id="Path" fill="#002764"></path>
                <path d="M4.90825934,10.3793887 C4.77903267,10.4611018 4.89081771,11.1025499 4.07819596,11.0616933 C3.66673188,11.0396308 3.53988361,10.6261623 3.57555969,10.2600875 C3.61123576,9.89401268 3.78644494,9.45031039 4.22882829,9.60638247 C4.64267077,9.75019758 5.12865821,9.80903103 5.35777791,9.6464219 C5.5868976,9.80984816 6.07129944,9.75019758 6.48593472,9.60638247 C6.92831807,9.45357892 7.10273445,9.90054973 7.13920332,10.2600875 C7.1756722,10.6196253 7.03693191,11.0437164 6.60961179,11.0527049 C5.78509802,11.0698646 5.96744241,10.480713 5.79223324,10.3679488 C5.67014178,10.2911385 5.0731621,10.275613 4.90825934,10.3793887 L4.90825934,10.3793887 Z" id="Path" fill="#3DDDCA"></path>
                <path d="M10.7083335,9.60030783 C10.6909929,9.45557239 10.6491662,9.31418122 10.5843508,9.18119612 C10.5189657,9.04771259 10.4353445,8.92234937 10.3354869,8.80810452 C10.136467,8.58096201 9.88322805,8.3985197 9.59518429,8.27476433 C9.45495162,8.21608332 9.30947184,8.16851904 9.16034635,8.13259506 C8.8833923,8.0687508 8.59955201,8.03319664 8.31402954,8.02658445 C8.04450189,8.016723 7.79024747,8.02658445 7.55575842,8.02658445 C7.4389631,8.02658445 7.32486307,8.02658445 7.22244256,8.02658445 C7.12002205,8.02658445 7.01849997,8.01754479 6.92236844,8.00768334 C6.76994172,7.99448092 6.61940869,7.96694248 6.4731557,7.92550457 L6.40397693,7.95097999 C6.36983676,8.18847662 5.91523346,8.37584421 5.35731123,8.37584421 C4.77782679,8.37584421 4.30795025,8.17286266 4.30795025,7.92303921 C4.30702276,7.91045274 4.30702276,7.89782344 4.30795025,7.88523697 C4.23607621,7.89756379 4.16330375,7.90906882 4.08603915,7.91893027 C3.67276343,7.97399004 3.20378532,7.99206937 2.70156547,8.04219842 C2.16099378,8.08400272 1.63302386,8.21426933 1.14279723,8.42679504 C0.886391055,8.54248648 0.652163394,8.69540146 0.449212748,8.87960005 C0.244924568,9.06329897 0.0910020089,9.28856713 0,9.53703018 C0.407866034,9.32549997 0.873044918,9.22432663 1.34134927,9.24529556 C1.78661656,9.26011288 2.22967048,9.30987687 2.66562845,9.39403912 C3.16431537,9.4902245 3.67173332,9.54359853 4.18127226,9.55346593 C4.47242666,9.5559585 4.76295878,9.52839117 5.04735444,9.47128716 C5.1806244,9.4435193 5.31177323,9.40783281 5.43996638,9.36445477 C5.59705195,9.44282448 5.762279,9.50669116 5.93320197,9.55510951 C6.09289636,9.59718668 6.25604003,9.62741686 6.42104702,9.64550615 C6.57471595,9.66025804 6.72927929,9.66574847 6.88373615,9.6619419 C7.16574962,9.65293937 7.4461575,9.6190895 7.72106871,9.56086202 C7.9744247,9.50991119 8.20801533,9.45156426 8.42812958,9.39650449 C8.6352106,9.34645953 8.8451653,9.30695311 9.05702742,9.27816706 C9.15585423,9.26748382 9.26007158,9.26008774 9.34811728,9.25680058 C9.4445774,9.25597773 9.54088657,9.26396122 9.63561344,9.28063243 C9.84166965,9.31459492 10.0379548,9.38674712 10.2124026,9.49265364 C10.3072989,9.55209362 10.393106,9.62284301 10.4675555,9.70303129 C10.550035,9.79695796 10.6172152,9.90131142 10.6670059,10.0128452 C10.7100771,9.87911648 10.7241169,9.7389696 10.7083335,9.60030783 Z" id="Path" fill="#002764" fill-rule="nonzero"></path>
            </g>
        </g>
    </g>
</svg>