<?xml version="1.0" encoding="UTF-8"?>
<svg width="24px" height="25px" viewBox="0 0 24 25" version="1.1" xmlns="http://www.w3.org/2000/svg" xmlns:xlink="http://www.w3.org/1999/xlink">
    <title>Group 24 Copy 3</title>
    <defs>
        <path d="M12,24 C16.1124064,24 19.7416542,21.931352 21.9039247,18.7778748 C23.2262972,16.8493132 24,14.5150106 24,12 C24,5.372583 18.627417,0 12,0 C5.372583,0 0,5.372583 0,12 C0,18.627417 5.372583,24 12,24 Z" id="path-1"></path>
        <path d="M8.97780977,0.0448267071 C13.7485184,0.0448267071 17.6501179,3.76592525 17.9385246,8.46403866 L17.9556195,8.4642064 L17.9432842,8.54792492 C17.9514738,8.70512577 17.9556195,8.86339698 17.9556195,9.02263648 L17.9556195,9.02263648 L17.87,9.02182671 L16.6491075,17.0703916 L2.31894229e-13,17.0977992 L2.31894229e-13,8.4642064 L0.0170949712,8.46403866 C0.30550165,3.76592525 4.20710115,0.0448267071 8.97780977,0.0448267071 Z" id="path-3"></path>
        <path d="M4.6320822,9.17982044 C7.1515961,9.17982044 9.19406567,7.13735087 9.19406567,4.61783697 C9.19406567,2.64594712 7.94297904,0.966264206 6.19127005,0.329252486 C5.7047936,0.152344563 5.17970625,0.0558534967 4.6320822,0.0558534967 C2.1125683,0.0558534967 0.0700987243,2.09832307 0.0700987243,4.61783697 C0.0700987243,7.13735087 2.1125683,9.17982044 4.6320822,9.17982044 Z" id="path-5"></path>
    </defs>
    <g id="Page-1" stroke="none" stroke-width="1" fill="none" fill-rule="evenodd">
        <g id="Group-24-Copy-3" transform="translate(0.000000, 0.751168)">
            <g id="Group-11">
                <mask id="mask-2" fill="white">
                    <use xlink:href="#path-1"></use>
                </mask>
                <use id="Mask" fill="#DCEAFF" xlink:href="#path-1"></use>
                <g mask="url(#mask-2)">
                    <g transform="translate(1.032500, 3.683294)">
                        <path d="M0.0638753934,16.1219637 C2.44960242,18.7221048 7.41743651,16.1183584 11.224388,16.1183584 C14.7864921,16.1183584 19.130394,18.4355534 21.485363,16.1219637 C19.8023675,12.213982 18.347822,8.77596549 17.1217266,5.80791413 C15.2825836,1.35583709 12.8383854,-0.0314115878 10.8737927,0.0558480111 C8.90920006,0.14310761 7.07249872,0.153361508 4.82420597,5.31204636 C3.32534414,8.75116959 1.73856728,12.3544754 0.0638753934,16.1219637 Z" id="Path" fill="#FF7197"></path>
                        <g id="Oval" stroke-width="1" fill="none" transform="translate(1.884298, 9.014255)">
                            <mask id="mask-4" fill="white">
                                <use xlink:href="#path-3"></use>
                            </mask>
                            <use id="Combined-Shape" fill="#DCEAFF" xlink:href="#path-3"></use>
                            <circle fill="#2288F9" mask="url(#mask-4)" cx="8.96521065" cy="1.6839323" r="4.46280992"></circle>
                            <path d="M8.98949523,5.32258464 C11.2374291,3.24173558 12.3613961,1.58350781 12.3613961,0.347901318 C12.3613961,-1.50550842 10.8517446,-3.00799387 8.98949523,-3.00799387 C7.12724582,-3.00799387 5.6175944,-1.50550842 5.6175944,0.347901318 C5.6175944,1.58350781 6.74156134,3.24173558 8.98949523,5.32258464 Z" fill="#002764" mask="url(#mask-4)"></path>
                        </g>
                        <g id="Oval-Copy-4-+-Rectangle-+-Rectangle-Copy-23-+-Oval-Copy-5-Mask" stroke-width="1" fill="none" transform="translate(6.301218, 1.586777)">
                            <mask id="mask-6" fill="white">
                                <use xlink:href="#path-5"></use>
                            </mask>
                            <use id="Mask" fill="#FFFFFF" xlink:href="#path-5"></use>
                        </g>
                    </g>
                </g>
            </g>
            <path d="M7.93935042,8.9712271 L15.9999134,8.9712271 C15.6114191,6.13309647 14.2542071,4.74557132 11.9282773,4.80865165 C9.60234758,4.87173198 8.27270527,6.25925713 7.93935042,8.9712271 Z" id="Path-15" fill="#FF7197"></path>
        </g>
    </g>
</svg>