<svg xmlns="http://www.w3.org/2000/svg" width="32" height="32" viewBox="0 0 32 32">
    <g fill="none">
        <circle cx="16" cy="16" r="16" fill="#FFD38B"/>
        <path fill="#1C303D" d="M18.066 18.787l3.461 3.462c-1.595 1.421-3.629 2.199-5.783 2.199-2.154 0-4.188-.778-5.783-2.2l3.46-3.46c.645.492 1.45.784 2.323.784s1.678-.292 2.322-.785zm4.183-8.826c1.421 1.595 2.199 3.629 2.199 5.783 0 2.154-.778 4.188-2.2 5.783l-3.46-3.46c.492-.645.784-1.45.784-2.323s-.292-1.678-.785-2.322L22.25 9.96zm-13.01 0l3.462 3.46c-.493.645-.785 1.45-.785 2.323s.292 1.678.784 2.322l-3.46 3.461c-1.422-1.595-2.2-3.629-2.2-5.783 0-2.154.778-4.188 2.2-5.783zm6.505-2.921c2.154 0 4.188.778 5.783 2.2l-3.46 3.46c-.645-.492-1.45-.784-2.323-.784s-1.678.292-2.322.784L9.96 9.24c1.595-1.422 3.629-2.2 5.783-2.2z"/>
    </g>
</svg>
